<svg width="180" height="48" viewBox="0 0 180 48" fill="none" xmlns="http://www.w3.org/2000/svg">
<path d="M35.0425 31.9479C35.0425 35.5554 35.0337 39.163 35.0519 42.7706C35.0551 43.365 34.789 43.5678 34.3342 43.8201C34.1171 43.9403 33.9176 44.0922 33.7036 44.2194C33.5606 44.3045 33.41 44.3783 33.2569 44.4431C33.0204 44.5436 32.7744 44.623 32.5404 44.7292C32.3089 44.8334 32.0867 44.958 31.8615 45.075C31.8345 45.089 31.8138 45.1189 31.7856 45.1278C31.4788 45.2206 31.1663 45.2975 30.8652 45.4056C30.5251 45.527 30.1938 45.6757 29.8588 45.8124C29.8393 45.82 29.8205 45.8302 29.8004 45.8347C29.4234 45.9186 29.0224 45.9465 28.6748 46.0991C28.2319 46.2936 27.74 46.1996 27.3328 46.3655C26.9764 46.5104 26.6182 46.457 26.2881 46.5708C25.5528 46.8232 24.7767 46.656 24.0483 46.8232C22.6071 47.1531 21.159 46.9141 19.7166 46.9776C18.8796 46.6757 17.9886 46.8778 17.1498 46.7075C16.6711 46.6102 16.1691 46.6496 15.7249 46.4875C15.3309 46.3439 14.9381 46.3591 14.551 46.2797C14.1739 46.2021 13.8163 46.0292 13.4493 45.8995C13.4104 45.8855 13.3671 45.8849 13.3269 45.8754C12.9329 45.78 12.5314 45.7063 12.1467 45.581C11.897 45.4997 11.6718 45.342 11.434 45.2206C11.3976 45.2021 11.3556 45.1907 11.3148 45.1863C10.9484 45.1481 10.6547 44.9599 10.3555 44.7572C10.1509 44.6186 9.88866 44.5709 9.66405 44.4577C9.37544 44.3115 9.09059 44.1532 8.81892 43.9772C8.53469 43.7928 8.26679 43.583 7.99323 43.3815C7.73787 43.194 7.48251 43.0058 7.23092 42.8132C7.08222 42.6988 6.93227 42.5831 6.798 42.4521C6.41904 42.0834 6.04008 41.7141 5.67617 41.3307C5.30286 40.9379 4.93519 40.538 4.59011 40.1197C4.40251 39.8928 4.27264 39.6182 4.10825 39.3709C3.91438 39.0791 3.70608 38.7969 3.51409 38.5038C3.41809 38.357 3.33465 38.1999 3.26124 38.0397C3.15771 37.8141 3.0774 37.5776 2.97074 37.3532C2.86659 37.1339 2.73672 36.9266 2.62754 36.7092C2.53406 36.523 2.44183 36.3348 2.3703 36.139C2.26678 35.8561 2.18835 35.5637 2.08922 35.2789C1.96436 34.9191 1.82884 34.5631 1.69834 34.2059C1.69144 34.1861 1.67889 34.1683 1.6745 34.148C1.58603 33.7386 1.51011 33.3254 1.40721 32.9198C1.29553 32.4787 1.15813 32.0432 1.03265 31.6059C1.02072 31.5652 1.00629 31.5251 1.00127 31.4838C0.906534 30.6536 0.868262 29.8119 0.707642 28.995C0.409618 27.4814 0.590943 25.9494 0.442872 24.4352C0.400835 24.008 0.510006 23.6107 0.479262 23.1937C0.447264 22.7633 0.490556 22.3272 0.500594 21.8937C0.509378 21.5129 0.503104 21.1315 0.528201 20.7513C0.597217 19.7177 0.606001 18.6707 0.789207 17.6567C0.876418 17.1736 0.918455 16.6867 1.00943 16.2074C1.09727 15.7452 1.25726 15.2977 1.38588 14.8431C1.38902 14.833 1.39278 14.8228 1.39467 14.8126C1.48501 14.3473 1.55466 13.8769 1.67199 13.4186C1.75982 13.0746 1.91417 12.7485 2.02648 12.4103C2.12937 12.102 2.21157 11.7861 2.31258 11.4765C2.39728 11.2171 2.48826 10.9597 2.59053 10.7073C2.71915 10.392 2.85906 10.0818 3.00023 9.77219C3.07364 9.61009 3.15583 9.45116 3.24053 9.29478C3.39551 9.00681 3.55299 8.71948 3.71361 8.43405C3.85227 8.1874 3.98402 7.9363 4.14088 7.70173C4.29711 7.46779 4.48282 7.25419 4.65034 7.02789C5.00421 6.55111 5.33235 6.05273 5.71256 5.59947C6.01498 5.23903 6.37324 4.925 6.71706 4.60143C7.04332 4.29439 7.37271 3.98925 7.7203 3.70827C7.95559 3.5182 8.22287 3.36818 8.47885 3.2048C8.92056 2.92319 9.35285 2.6225 9.81212 2.37267C10.2068 2.15781 10.634 2.00651 11.0444 1.82089C11.3041 1.70392 11.5589 1.57615 11.8161 1.45282C11.8443 1.43947 11.8694 1.41722 11.8983 1.40896C12.2158 1.31678 12.5351 1.23223 12.8507 1.1337C13.256 1.00783 13.6582 0.871158 14.0616 0.738933C14.0817 0.732576 14.1018 0.72749 14.1225 0.724312C14.669 0.63595 15.2299 0.599715 15.7588 0.447783C16.6742 0.184605 17.6241 0.339079 18.5307 0.170619C19.7699 -0.0595031 21.0141 -0.0264469 22.2306 0.0917928C23.2477 0.190962 24.2754 0.0803503 25.268 0.271059C25.8853 0.389935 26.5159 0.365143 27.1076 0.515803C27.5047 0.616879 27.9012 0.628321 28.2902 0.712869C28.7508 0.812674 29.2012 0.963334 29.6555 1.09174C29.6957 1.10319 29.7364 1.11145 29.7772 1.12099C30.1625 1.20744 30.5615 1.25639 30.9304 1.38989C31.3809 1.55326 31.8069 1.78656 32.243 1.99126C32.4494 2.08852 32.6665 2.17052 32.8553 2.29576C32.9689 2.3714 33.0316 2.52143 33.127 2.6295C33.2462 2.7649 33.3065 2.8895 33.127 3.02299C33.1069 3.03825 33.1032 3.08021 33.0975 3.11072C33.0053 3.58622 32.9306 4.06617 32.8183 4.53659C32.7029 5.01972 32.551 5.49458 32.4155 5.97263C32.4124 5.9828 32.408 5.99234 32.4061 6.00251C32.3183 6.46784 32.2492 6.93825 32.1369 7.39786C32.0297 7.83904 31.8778 8.26877 31.7461 8.70422C31.7373 8.7341 31.731 8.76525 31.7247 8.7964C31.6375 9.20642 31.5516 9.61708 31.4618 10.0271C31.4123 10.2547 30.9273 10.4657 30.729 10.3513C30.6751 10.3202 30.6173 10.289 30.5577 10.275C30.1819 10.1892 29.8011 10.1231 29.4296 10.0207C29.0262 9.9095 28.6322 9.76583 28.2338 9.63679C28.2043 9.62725 28.1735 9.61899 28.1422 9.61518C27.4602 9.52491 26.7725 9.46706 26.098 9.33865C24.4749 9.03033 22.8373 9.13459 21.2035 9.12124C20.8591 9.1187 20.5121 9.11488 20.1696 9.14984C19.6042 9.20769 19.0371 9.26936 18.4812 9.38378C18.121 9.45816 17.7822 9.63425 17.4302 9.75503C17.1335 9.85674 16.8298 9.93874 16.533 10.0411C16.2538 10.1377 15.9972 10.2801 15.7362 10.4181C15.4558 10.5662 15.1954 10.727 14.9438 10.9158C14.6909 11.1059 14.3979 11.2515 14.1764 11.4714C13.7793 11.8675 13.4449 12.3283 13.0427 12.7186C12.6418 13.1083 12.4027 13.587 12.1386 14.0651C11.9767 14.3581 11.8399 14.6556 11.7107 14.9627C11.5883 15.2525 11.412 15.5208 11.3054 15.8158C11.1956 16.119 11.1454 16.4445 11.0607 16.7579C11.0218 16.9022 10.9616 17.0408 10.9101 17.1812C10.8919 17.2308 10.8605 17.2772 10.8524 17.3275C10.7708 17.8468 10.7294 18.3757 10.6064 18.8843C10.3279 20.0317 10.4722 21.209 10.3247 22.3558C10.2419 22.9966 10.1346 23.6463 10.2369 24.2559C10.4151 25.3156 10.3172 26.3753 10.41 27.4293C10.4559 27.9461 10.501 28.4801 10.6685 28.9626C10.7859 29.3014 10.7727 29.6377 10.8549 29.9645C10.9503 30.3427 11.1184 30.7013 11.2395 31.0731C11.3424 31.3884 11.4058 31.7177 11.52 32.028C11.6235 32.3089 11.7697 32.574 11.9008 32.8442C12.0646 33.1805 12.222 33.5206 12.4027 33.8473C12.5565 34.1258 12.7164 34.4055 12.9147 34.6515C13.1569 34.9522 13.4248 35.2363 13.7109 35.4944C14.1212 35.8638 14.4651 36.3094 14.9977 36.5408C15.3648 36.7003 15.681 36.9762 16.0436 37.1479C16.3291 37.2833 16.6516 37.3392 16.9578 37.4301C17.402 37.5617 17.8456 37.6958 18.2911 37.823C18.3802 37.8484 18.4761 37.8579 18.569 37.8579C20.2304 37.8579 21.8924 37.8738 23.5538 37.8427C24.0514 37.8331 24.5514 37.7143 25.0389 37.596C25.2391 37.5477 25.3715 37.3526 25.369 37.1008C25.3621 36.3812 25.3665 35.6622 25.3665 34.9426C25.3665 33.0171 25.3665 31.0916 25.3665 29.166C25.3665 28.681 25.2353 28.5462 24.7704 28.5462C23.0563 28.5462 21.3422 28.5367 19.6281 28.5507C19.1086 28.5551 18.8909 28.3682 18.8953 27.8082C18.9128 25.5127 18.9015 23.2166 18.9034 20.9211C18.9034 20.3438 19.1418 20.1029 19.7103 20.1029C24.5289 20.1016 29.3474 20.1016 34.1654 20.1029C34.6918 20.1029 35.0413 20.4576 35.0419 20.9973C35.0431 24.6475 35.0425 28.297 35.0431 31.9472L35.0425 31.9479Z" fill="#FDFDFD"/>
<path d="M88.4842 18.2361C88.6762 18.2463 88.8306 18.2615 88.9849 18.2615C93.4164 18.2628 97.8485 18.259 102.28 18.2704C102.608 18.271 102.679 18.1649 102.679 17.8553C102.671 12.8937 102.671 7.93142 102.68 2.96981C102.68 2.68247 102.744 2.38178 102.848 2.11479C102.899 1.98447 103.1 1.88594 103.253 1.83318C103.395 1.78423 103.563 1.81156 103.72 1.81156C106.291 1.81093 108.862 1.81156 111.433 1.81156C111.517 1.81156 111.601 1.81156 111.684 1.81347C112.149 1.82682 112.415 2.08619 112.442 2.55469C112.448 2.66022 112.445 2.76638 112.445 2.87191C112.445 16.9215 112.443 30.9716 112.45 45.0212C112.45 45.4064 112.368 45.73 112.05 45.9449C111.928 46.0275 111.755 46.0701 111.605 46.0707C109.745 46.079 107.884 46.0764 106.024 46.0764C105.167 46.0764 104.31 46.0784 103.453 46.0752C103.017 46.0739 102.68 45.7383 102.663 45.2964C102.658 45.1699 102.661 45.0428 102.661 44.9157C102.665 39.1601 102.669 33.4051 102.673 27.6495C102.673 27.5332 102.679 27.4155 102.667 27.3005C102.644 27.0774 102.556 26.9496 102.291 26.9502C97.8491 26.9578 93.407 26.9547 88.9648 26.9566C88.621 26.9566 88.4842 27.1136 88.4842 27.4867C88.4842 33.3161 88.4842 39.1454 88.4842 44.9748C88.4842 45.1229 88.4842 45.271 88.4817 45.4191C88.4717 45.8991 88.3023 46.072 87.8154 46.0733C86.3316 46.0771 84.8471 46.0752 83.3633 46.0752C82.1511 46.0752 80.9383 46.0752 79.7261 46.0752C79.1457 46.0752 78.8289 45.7541 78.8289 45.1674C78.8289 31.3187 78.8289 17.4694 78.8289 3.62076C78.8289 3.27176 78.8283 2.92276 78.8289 2.57313C78.8308 1.99782 78.9883 1.81538 79.5504 1.81411C82.3205 1.80839 85.0899 1.81029 87.86 1.81538C88.3537 1.81665 88.4836 1.97049 88.4836 2.50956C88.4849 7.59832 88.4849 12.6871 88.4849 17.7758C88.4849 17.9125 88.4849 18.0492 88.4849 18.2329L88.4842 18.2361Z" fill="#FDFDFD"/>
<path d="M157.634 43.7689C157.611 43.8929 157.588 43.945 157.596 43.9914C157.695 44.5858 157.385 45.1109 157.31 45.6773C157.277 45.9233 157.001 46.0797 156.701 46.0771C155.896 46.0714 155.092 46.0771 154.287 46.0771C153.21 46.0771 152.133 46.0784 151.057 46.0771C150.538 46.0765 150.198 45.7332 150.198 45.2113C150.197 40.4398 150.198 35.6688 150.198 30.8973C150.198 21.5449 150.198 12.1925 150.195 2.8408C150.195 2.55538 150.175 2.26931 150.402 2.05508C150.5 1.96354 150.616 1.872 150.739 1.83513C150.875 1.79445 151.029 1.81288 151.175 1.81288C153.778 1.81225 156.38 1.83386 158.983 1.79953C159.828 1.78873 159.974 2.18413 159.99 2.87386C160.04 4.999 160.008 7.12668 160.008 9.25308C160.008 11.6649 160.007 14.0774 160.011 16.4892C160.011 16.617 160.058 16.7448 160.083 16.8726C160.18 16.8179 160.274 16.7524 160.376 16.7098C160.625 16.6068 160.885 16.5261 161.13 16.4149C161.388 16.2972 161.636 16.1548 161.888 16.0233C161.907 16.0137 161.924 16.0004 161.943 15.9947C162.264 15.9082 162.587 15.8313 162.904 15.7359C163.324 15.6094 163.739 15.4683 164.157 15.3342C164.197 15.3214 164.239 15.3202 164.28 15.3119C165.256 15.1136 166.243 15.0328 167.237 15.0042C167.41 14.9992 167.581 14.9445 167.754 14.9165C167.825 14.9051 167.899 14.8949 167.971 14.9006C168.716 14.9591 169.466 14.989 170.206 15.0945C170.68 15.1619 171.139 15.3424 171.605 15.4708C171.665 15.4874 171.726 15.5103 171.787 15.5096C172.215 15.5071 172.56 15.7099 172.918 15.9177C173.273 16.1243 173.68 16.2381 174.042 16.4333C174.328 16.5871 174.585 16.7988 174.85 16.9921C174.982 17.0887 175.097 17.2107 175.232 17.3029C175.721 17.6367 176.116 18.0613 176.452 18.5495C176.6 18.765 176.773 18.9627 176.925 19.1757C177.06 19.3651 177.194 19.5584 177.309 19.7605C177.52 20.1286 177.732 20.4973 177.915 20.88C178.045 21.1514 178.122 21.4477 178.231 21.7299C178.349 22.0382 178.474 22.344 178.597 22.651C178.612 22.6892 178.637 22.7254 178.643 22.7648C178.691 23.0573 178.733 23.3351 178.852 23.6268C179.034 24.0712 179.028 24.5925 179.113 25.0788C179.161 25.3534 179.235 25.6236 179.292 25.8969C179.315 26.0101 179.331 26.1258 179.334 26.2408C179.348 26.6852 179.307 27.1372 179.374 27.572C179.575 28.8688 179.622 30.179 179.497 31.4713C179.393 32.5533 179.459 33.6448 179.293 34.707C179.206 35.2658 179.148 35.8233 179.084 36.3827C179.041 36.7508 178.972 37.1176 178.881 37.4761C178.765 37.93 178.608 38.3725 178.482 38.8238C178.383 39.1766 178.314 39.5377 178.213 39.8892C178.154 40.0958 178.068 40.2961 177.979 40.4925C177.855 40.7659 177.716 41.0316 177.588 41.303C177.496 41.4976 177.428 41.7054 177.32 41.8898C177.124 42.2273 176.915 42.5573 176.696 42.8796C176.456 43.2311 176.225 43.596 175.941 43.9081C175.665 44.2113 175.327 44.4567 175.015 44.7263C174.928 44.8013 174.839 44.8744 174.747 44.9437C174.469 45.1528 174.2 45.3798 173.905 45.5616C173.692 45.6932 173.439 45.7599 173.207 45.8629C172.927 45.9869 172.651 46.1184 172.373 46.2462C172.337 46.2627 172.301 46.2805 172.263 46.2914C172.014 46.3625 171.767 46.4528 171.514 46.4973C170.928 46.599 170.34 46.6887 169.75 46.7624C169.081 46.8463 168.409 46.9417 167.736 46.9665C167.296 46.983 166.852 46.8724 166.408 46.8368C165.909 46.7974 165.392 46.847 164.912 46.7313C164.383 46.6041 163.81 46.6512 163.321 46.3536C163.287 46.3333 163.24 46.3358 163.199 46.327C162.783 46.238 162.315 46.2386 161.968 46.032C161.685 45.8642 161.326 45.9722 161.09 45.6715C160.977 45.5266 160.712 45.5005 160.513 45.4268C160.251 45.3295 159.971 45.2685 159.728 45.1363C159.432 44.9761 159.169 44.7536 158.887 44.5667C158.758 44.4815 158.611 44.4237 158.482 44.3398C158.207 44.1618 157.938 43.9749 157.632 43.7683L157.634 43.7689ZM169.916 30.9145L170.012 30.9062C169.903 29.6463 169.794 28.3857 169.685 27.1257C169.681 27.0838 169.678 27.0405 169.665 27.0011C169.529 26.5682 169.411 26.1283 169.248 25.7056C169.108 25.34 168.921 24.9923 168.746 24.6414C168.713 24.5753 168.625 24.5372 168.59 24.4717C168.367 24.0508 168.056 23.719 167.638 23.4952C167.451 23.3948 167.247 23.3204 167.067 23.2079C166.722 22.9924 166.37 22.8112 165.951 22.8119C165.199 22.8131 164.445 22.7788 163.695 22.8227C163.202 22.8513 162.714 22.9905 162.224 23.0808C162.204 23.0846 162.184 23.0909 162.165 23.0992C161.846 23.2295 161.531 23.3675 161.21 23.4883C160.945 23.5881 160.671 23.6605 160.406 23.7603C160.252 23.8188 160.106 23.9021 159.962 23.9847C159.916 24.0114 159.866 24.0674 159.856 24.1182C159.826 24.2613 159.799 24.4081 159.799 24.5537C159.795 28.8046 159.796 33.0561 159.797 37.307C159.797 37.4335 159.804 37.5607 159.818 37.6866C159.824 37.7457 159.839 37.8334 159.878 37.8537C160.192 38.0165 160.506 38.1843 160.834 38.3134C161.129 38.4297 161.444 38.4913 161.745 38.5918C162.123 38.7177 162.487 38.9173 162.873 38.9802C163.564 39.0927 164.266 39.1773 164.964 39.1798C165.598 39.1823 166.238 39.0876 166.866 38.9796C167.139 38.9319 167.4 38.7609 167.646 38.6121C167.887 38.4666 168.129 38.3032 168.322 38.1004C168.572 37.8372 168.81 37.5473 168.984 37.2301C169.133 36.9593 169.184 36.6332 169.277 36.3312C169.414 35.8863 169.603 35.4495 169.672 34.9937C169.793 34.2004 169.859 33.3969 169.909 32.5953C169.945 32.0371 169.916 31.4745 169.916 30.9145Z" fill="#FDFDFD"/>
<path d="M145.463 31.0009C145.463 35.7413 145.463 40.481 145.463 45.2214C145.463 45.4751 145.488 45.7389 145.225 45.894C145.109 45.962 144.986 46.0669 144.865 46.0675C143.025 46.0796 141.185 46.0802 139.346 46.0764C139.068 46.0758 138.791 45.7579 138.752 45.4248C138.733 45.2678 138.75 45.1044 138.718 44.9506C138.661 44.669 138.586 44.3906 138.501 44.1166C138.491 44.0835 138.353 44.0492 138.308 44.0753C138.105 44.1948 137.923 44.3505 137.719 44.4662C137.316 44.6944 136.905 44.908 136.494 45.121C136.329 45.2068 136.157 45.2856 135.983 45.3511C135.722 45.449 135.453 45.5234 135.193 45.6232C134.872 45.7471 134.556 45.887 134.238 46.0205C134.219 46.0287 134.202 46.044 134.183 46.0485C133.802 46.1381 133.419 46.2169 133.04 46.3167C132.584 46.4375 132.133 46.5774 131.679 46.7051C131.599 46.7274 131.515 46.7363 131.433 46.7433C130.887 46.7916 130.324 46.7007 129.803 46.9626C129.726 47.0014 129.618 46.9823 129.524 46.9829C128.907 46.9855 128.29 47.0014 127.675 46.9798C127.369 46.9689 127.066 46.8838 126.76 46.8424C126.523 46.8107 126.282 46.8005 126.044 46.7706C125.381 46.6886 124.703 46.6638 124.065 46.4877C123.761 46.4038 123.451 46.3612 123.153 46.276C122.865 46.194 122.607 46.0129 122.329 45.8895C122.091 45.784 121.834 45.7179 121.603 45.5997C121.319 45.4541 121.049 45.2799 120.782 45.1038C120.597 44.9824 120.417 44.8489 120.253 44.6995C119.978 44.4497 119.698 44.2018 119.457 43.9201C119.159 43.5711 118.884 43.1993 118.63 42.8159C118.491 42.6049 118.42 42.3487 118.312 42.1154C118.182 41.8357 118.025 41.5668 117.919 41.2782C117.803 40.9629 117.717 40.6342 117.645 40.3056C117.499 39.6311 117.369 38.9534 117.237 38.2758C117.217 38.1728 117.216 38.0654 117.216 37.9598C117.21 36.4895 117.201 35.0185 117.2 33.5481C117.199 27.9616 117.2 22.3751 117.197 16.7879C117.197 16.5076 117.192 16.2387 117.442 16.0512C117.487 16.0168 117.542 15.9832 117.596 15.9768C117.731 15.9603 117.867 15.9533 118.003 15.9533C120.721 15.9526 123.439 15.9507 126.156 15.9584C126.329 15.9584 126.528 15.9984 126.668 16.0912C126.774 16.1618 126.836 16.341 126.865 16.4828C126.899 16.6564 126.881 16.8407 126.881 17.0206C126.881 23.0197 126.876 29.0194 126.89 35.0185C126.892 35.63 126.938 36.2613 127.094 36.8474C127.225 37.3388 127.43 37.8403 127.765 38.2465C127.883 38.3902 128.079 38.4729 128.245 38.5727C128.451 38.6973 128.665 38.811 128.875 38.9299C128.909 38.949 128.943 38.9884 128.975 38.9878C129.762 38.9662 130.529 39.3978 131.308 39.1721C131.779 39.0354 132.25 39.0723 132.71 38.9808C133.088 38.9058 133.443 38.7189 133.811 38.5898C134.094 38.4907 134.397 38.4379 134.662 38.3057C135.044 38.115 135.405 37.8772 135.763 37.6414C135.817 37.6064 135.821 37.471 135.822 37.3814C135.826 36.6935 135.824 36.0057 135.824 35.3179C135.824 29.1491 135.824 22.9809 135.825 16.8121C135.825 16.561 135.766 16.2883 136.038 16.1211C136.116 16.0728 136.187 15.9908 136.27 15.9755C136.422 15.9476 136.581 15.9526 136.738 15.9526C139.341 15.9514 141.944 15.952 144.546 15.9526C144.672 15.9526 144.797 15.9545 144.922 15.9615C145.215 15.9774 145.434 16.1917 145.456 16.4936C145.468 16.6513 145.463 16.8108 145.463 16.9698C145.463 21.6466 145.463 26.3234 145.463 30.9996V31.0009Z" fill="#FDFDFD"/>
<path d="M74.0755 23.7209H67.4048C67.3853 23.9263 67.3564 24.0922 67.3564 24.2575C67.3539 28.1301 67.3539 32.0028 67.3558 35.8755C67.3558 36.1291 67.3307 36.3923 67.3872 36.6351C67.5177 37.1996 67.6984 37.7495 68.194 38.1169C68.4695 38.321 68.7204 38.574 69.0229 38.7221C69.3272 38.8709 69.6785 38.9872 70.0129 38.9961C71.2351 39.0273 72.458 39.0069 73.6808 39.0082C74.1796 39.0082 74.3484 39.169 74.3497 39.6801C74.3528 41.6164 74.3509 43.5528 74.3465 45.4891C74.3459 45.8604 74.1683 46.004 73.8289 46.1026C73.4437 46.2144 73.0277 46.2354 72.6751 46.3676C72.3319 46.4961 71.9968 46.4865 71.6656 46.5666C69.8755 46.9995 68.0648 46.7433 66.2628 46.7357C65.7879 46.7338 65.2872 46.648 64.8487 46.4725C64.5575 46.3562 64.2708 46.3657 63.9941 46.2825C63.6929 46.1922 63.4169 46.0212 63.1232 45.9017C62.9331 45.8241 62.7437 45.8012 62.5529 45.6633C62.1338 45.3594 61.6055 45.2056 61.1964 44.8909C60.7422 44.5407 60.3576 44.0919 59.9686 43.6621C59.663 43.3246 59.3813 42.9609 59.1222 42.5859C58.9955 42.4034 58.9434 42.1676 58.8581 41.9559C58.7746 41.7487 58.7025 41.5364 58.6077 41.3355C58.3712 40.8358 58.2796 40.2967 58.134 39.771C57.9728 39.1894 58.0556 38.5918 57.8862 38.0464C57.7193 37.5098 57.7588 36.9867 57.7576 36.459C57.7463 32.4281 57.7513 28.3965 57.7513 24.3649C57.7513 24.2695 57.745 24.1742 57.7519 24.0795C57.7726 23.8106 57.6685 23.7209 57.3905 23.7241C56.0629 23.7387 54.7353 23.7324 53.4077 23.7279C52.9296 23.726 52.7821 23.5792 52.7815 23.1062C52.7784 21.3498 52.7802 19.5934 52.7815 17.8369C52.7815 17.7002 52.7991 17.5636 52.8148 17.3404C53.1592 17.2616 53.5212 17.1949 53.8738 17.0938C54.2886 16.9743 54.6951 16.8243 55.1061 16.6901C55.1544 16.6742 55.209 16.6768 55.2611 16.6717C55.5327 16.6456 55.8276 16.713 56.0466 16.4714C56.0585 16.4581 56.0861 16.4587 56.1062 16.4549C56.5573 16.3723 57.0059 16.2718 57.4602 16.2146C57.6754 16.1873 57.7532 16.1015 57.7488 15.9006C57.7469 15.8052 57.75 15.7099 57.75 15.6152C57.75 13.0336 57.75 10.452 57.75 7.86982C57.75 7.43183 57.8617 7.2996 58.2871 7.29896C61.1306 7.29451 63.9734 7.29579 66.8169 7.2996C67.2121 7.2996 67.3439 7.45598 67.3445 7.88698C67.3483 10.3732 67.3508 12.86 67.3533 15.3463C67.3533 15.6395 67.4951 15.7866 67.7787 15.7874C69.6183 15.7874 71.4585 15.7773 73.2981 15.7938C73.8778 15.7989 74.3302 16.1065 74.3183 16.8204C74.2857 18.7987 74.3164 20.7777 74.297 22.7559C74.2938 23.0598 74.1602 23.3624 74.0736 23.7216L74.0755 23.7209Z" fill="#FDFDFD"/>
<path d="M49.9049 30.9418C49.9049 35.48 49.9049 40.0183 49.9049 44.5565C49.9049 44.7784 49.9018 45.0009 49.8943 45.2227C49.8748 45.7853 49.6107 46.0676 49.0579 46.0689C46.466 46.0746 43.8742 46.0701 41.2823 46.0708C40.7371 46.0708 40.2345 45.5686 40.2351 44.9767C40.2464 35.5512 40.2483 26.1251 40.2295 16.6996C40.2282 16.1409 40.7546 15.7944 41.2171 15.7912C43.1815 15.7785 45.1466 15.7855 47.1116 15.7855C47.6763 15.7855 48.2416 15.8109 48.8044 15.776C49.1432 15.755 49.4249 15.8821 49.711 16.0067C49.797 16.0442 49.8641 16.2006 49.8804 16.3119C49.9118 16.5191 49.9055 16.7333 49.9055 16.945C49.9068 21.6104 49.9062 26.2758 49.9062 30.9405L49.9049 30.9418Z" fill="#FDFDFD"/>
<path d="M50.3228 8.09739C50.3228 8.30907 50.3266 8.52076 50.3222 8.73181C50.3122 9.22193 50.1177 9.65612 49.9188 10.0903C49.8121 10.323 49.7387 10.5709 49.632 10.8035C49.5768 10.9231 49.4877 11.0286 49.4024 11.1303C49.1759 11.3992 48.9657 11.6884 48.7072 11.9217C48.4362 12.1671 48.1269 12.3744 47.815 12.5663C47.4461 12.7933 47.0571 12.9865 46.6763 13.1931C46.6581 13.2027 46.6367 13.2097 46.6167 13.2103C45.9058 13.2173 45.2031 13.654 44.5129 13.3991C44.0675 13.2345 43.5749 13.3578 43.1627 13.0546C42.9488 12.8975 42.6344 12.8893 42.3922 12.7609C42.1112 12.6121 41.8389 12.4309 41.6017 12.2192C41.3263 11.9739 41.0903 11.6821 40.8425 11.4062C40.7195 11.2702 40.5759 11.1398 40.4968 10.979C40.3149 10.609 40.1028 10.2594 39.9685 9.85636C39.7602 9.23211 39.6078 8.60022 39.599 7.95372C39.5927 7.49093 39.6736 6.99954 39.8374 6.56917C40.0677 5.96589 40.3607 5.37215 40.7233 4.84134C40.9824 4.46247 41.394 4.18785 41.7473 3.87826C42.1237 3.54897 42.5805 3.37288 43.0284 3.16183C43.9231 2.73909 44.8505 2.70159 45.7903 2.78486C46.1593 2.81792 46.5163 3.00354 46.8745 3.13322C47.0947 3.21269 47.3118 3.30677 47.5214 3.41293C48.0798 3.69645 48.6056 4.02384 48.9921 4.54257C49.1859 4.80257 49.4319 5.02442 49.6094 5.29396C49.7431 5.49675 49.8083 5.74594 49.8974 5.9767C50.0235 6.30345 50.1848 6.62384 50.2563 6.96267C50.3341 7.3301 50.3272 7.7166 50.3573 8.09421L50.3234 8.09611L50.3228 8.09739Z" fill="#FDFDFD"/>
</svg>
