<svg width="102" height="117" viewBox="0 0 102 117" fill="none" xmlns="http://www.w3.org/2000/svg">
<path d="M50.3873 116.999C50.084 116.809 49.7874 116.61 49.4775 116.431C46.8504 114.921 44.2186 113.42 41.5935 111.907C38.3886 110.058 35.1923 108.194 31.9894 106.343C28.8582 104.533 25.7203 102.734 22.5891 100.925C17.864 98.1926 13.1448 95.4512 8.41781 92.7221C6.05769 91.359 3.68991 90.0103 1.32118 88.6634C0.43625 88.1604 0.00765833 87.4426 0.008615 86.4002C0.0210518 67.8515 0.0258352 49.3018 4.90639e-06 30.7532C-0.00190845 29.476 0.555835 28.7114 1.6034 28.1243C3.77697 26.9044 5.93045 25.6473 8.09158 24.4054C10.7129 22.8992 13.3361 21.3938 15.9555 19.8847C18.77 18.2629 21.5807 16.6335 24.3962 15.0118C26.7191 13.6745 29.0495 12.3505 31.3714 11.0094C33.1565 9.97846 34.9273 8.92273 36.7116 7.89087C40.0197 5.97892 43.3327 4.07747 46.6438 2.17029C47.6301 1.60234 48.6346 1.06111 49.5961 0.452112C50.547 -0.15116 51.4348 -0.142569 52.3991 0.429203C55.0989 2.02997 57.8168 3.59829 60.5319 5.17233C63.8917 7.1196 67.2554 9.06019 70.6191 11.0008C74.7969 13.411 78.9776 15.8174 83.1563 18.2267C86.6405 20.235 90.1209 22.2491 93.6071 24.2546C95.9691 25.6139 98.3398 26.9588 100.703 28.3162C101.23 28.6188 101.699 28.9834 101.858 29.6192C101.87 29.6659 101.951 29.6946 102 29.7318V87.2421C101.881 87.434 101.764 87.6258 101.644 87.8177C101.215 88.505 100.476 88.777 99.8207 89.155C96.4848 91.0794 93.1421 92.9923 89.8072 94.9185C86.3669 96.9049 82.9363 98.9076 79.4961 100.894C76.3381 102.718 73.1734 104.531 70.0125 106.349C66.8479 108.17 63.6832 109.99 60.5204 111.813C57.8436 113.357 55.1697 114.903 52.4967 116.452C52.2011 116.623 51.9199 116.817 51.6309 117H50.3882L50.3873 116.999ZM97.7772 58.4836V51.4267C97.7772 44.9577 97.7753 38.4888 97.783 32.0189C97.783 31.6676 97.7036 31.4538 97.362 31.2743C96.4207 30.778 95.508 30.2291 94.5858 29.6974C91.3187 27.8141 88.0497 25.9327 84.7865 24.0446C80.9914 21.8482 77.2048 19.6384 73.4068 17.4468C69.6528 15.28 65.8864 13.1342 62.1314 10.9693C58.5353 8.89696 54.9477 6.80842 51.3449 4.74565C51.1717 4.64638 50.8445 4.65115 50.6666 4.74947C49.0575 5.63624 47.4598 6.54687 45.8698 7.46705C41.9915 9.71023 38.1227 11.9687 34.2424 14.209C30.5697 16.33 26.8874 18.4338 23.2109 20.5481C20.0721 22.3532 16.9351 24.1611 13.7991 25.9709C10.7856 27.7101 7.77684 29.4588 4.75948 31.1903C4.37585 31.4099 4.22756 31.6647 4.22852 32.121C4.24191 49.7008 4.24 67.2797 4.24 84.8596C4.24 84.9388 4.21226 85.0333 4.24478 85.0953C4.34332 85.2843 4.42273 85.5306 4.58632 85.6299C5.5229 86.1988 6.48245 86.7286 7.43148 87.2765C10.6985 89.1598 13.9675 91.0412 17.2317 92.9302C21.0268 95.1266 24.8143 97.3364 28.6123 99.529C32.3663 101.696 36.1299 103.844 39.8868 106.005C43.3499 107.997 46.8198 109.976 50.2581 112.01C50.8321 112.349 51.1985 112.337 51.7649 112.006C55.3065 109.935 58.8826 107.923 62.4385 105.878C65.1555 104.314 67.8562 102.722 70.5712 101.155C73.4327 99.5032 76.3075 97.8757 79.1679 96.2215C81.9959 94.5864 84.8066 92.9235 87.6345 91.2884C90.8595 89.4223 94.0912 87.5666 97.3314 85.7263C97.6911 85.522 97.7859 85.2901 97.7859 84.9025C97.7763 76.0968 97.7782 67.2912 97.7782 58.4855L97.7772 58.4836Z" fill="#FDFDFD"/>
<path d="M62.518 58.5024C62.518 60.0116 62.4778 61.5226 62.5305 63.0308C62.5716 64.1934 62.1344 64.9704 61.1079 65.5489C58.3584 67.0981 55.652 68.7199 52.9168 70.2949C51.9525 70.8504 51.0159 70.6576 50.0927 70.1144C47.7106 68.7141 45.315 67.3339 42.9253 65.946C42.6287 65.7732 42.334 65.5966 42.0298 65.4372C41.0703 64.9351 40.7986 64.0464 40.79 63.0804C40.7622 60.0144 40.7785 56.9475 40.7804 53.8805C40.7804 52.6444 41.3965 51.8569 42.4747 51.2574C45.1476 49.7712 47.7718 48.1953 50.4247 46.6718C51.2388 46.205 52.0969 46.1993 52.9139 46.6699C55.674 48.2583 58.4177 49.8753 61.1815 51.456C62.1229 51.9943 62.562 52.7351 62.5295 53.8309C62.4836 55.3868 62.518 56.9446 62.518 58.5024ZM58.2618 58.4843C58.2618 57.357 58.2532 56.2287 58.2675 55.1014C58.2713 54.7978 58.1824 54.605 57.9097 54.4504C55.9485 53.3307 53.9921 52.2034 52.0434 51.0618C51.7764 50.9052 51.5708 50.9052 51.3125 51.056C49.3752 52.1872 47.4379 53.3173 45.4882 54.4275C45.1983 54.5926 45.0807 54.7768 45.0816 55.1014C45.0902 57.357 45.0902 59.6126 45.0816 61.8681C45.0807 62.1936 45.1993 62.3769 45.4882 62.5421C47.437 63.6531 49.3752 64.7843 51.3134 65.9135C51.5468 66.05 51.742 66.0834 52.0022 65.9316C53.9797 64.7776 55.9715 63.6474 57.9441 62.4857C58.1058 62.3903 58.2417 62.1125 58.2465 61.9159C58.2752 60.7733 58.2608 59.6288 58.2608 58.4852L58.2618 58.4843Z" fill="#FDFDFD"/>
<path d="M17.3363 58.4808C17.3363 56.9068 17.3621 55.3327 17.3276 53.7606C17.3037 52.7029 17.7448 51.9775 18.6517 51.462C21.5169 49.8326 24.3669 48.1746 27.2359 46.5528C27.9219 46.1653 28.6671 46.256 29.3301 46.6368C32.1848 48.2767 35.0176 49.9567 37.878 51.5861C38.8031 52.113 39.0404 52.9569 39.0509 53.8761C39.0844 56.943 39.0643 60.0119 39.0634 63.0788C39.0634 64.2892 38.4846 65.0958 37.4246 65.6886C34.7401 67.191 32.0968 68.766 29.4248 70.2914C28.6107 70.7562 27.7487 70.7667 26.926 70.2914C24.1918 68.7116 21.4787 67.0956 18.7292 65.5444C17.7371 64.9851 17.2961 64.2319 17.3267 63.1056C17.3688 61.5649 17.3372 60.0224 17.3372 58.4808H17.3363ZM21.581 58.4369C21.581 59.5967 21.5667 60.7564 21.5954 61.9162C21.6002 62.1119 21.7389 62.3877 21.9006 62.4832C23.8608 63.6392 25.8373 64.7665 27.8071 65.9062C28.0376 66.0398 28.228 66.0923 28.493 65.9367C30.4552 64.7865 32.4336 63.6621 34.3919 62.5042C34.5679 62.4002 34.7392 62.1186 34.7411 61.9172C34.766 59.6301 34.765 57.342 34.7411 55.054C34.7392 54.8526 34.5698 54.5691 34.3948 54.465C32.4364 53.3072 30.4552 52.1875 28.4978 51.0277C28.1725 50.8349 27.9592 50.9685 27.7248 51.1041C25.7933 52.2171 23.8694 53.3425 21.936 54.4517C21.6863 54.5949 21.5734 54.7581 21.5762 55.0511C21.5896 56.1794 21.582 57.3067 21.582 58.435L21.581 58.4369Z" fill="#FDFDFD"/>
<path d="M73.9761 78.6589C73.9761 80.2158 73.9675 81.7736 73.979 83.3305C73.9867 84.348 73.5782 85.1097 72.6884 85.6185C69.8414 87.2479 66.9943 88.8783 64.1539 90.5182C63.3484 90.983 62.5802 90.8551 61.8311 90.4246C59.0558 88.8286 56.2881 87.2202 53.5157 85.6195C52.6135 85.0983 52.2117 84.3232 52.2175 83.2847C52.2337 80.2969 52.2768 77.3083 52.2002 74.3234C52.1629 72.8553 52.8154 71.9953 54.0332 71.3223C56.5349 69.9401 59.0147 68.5169 61.4676 67.0507C62.5984 66.3749 63.5962 66.3654 64.7346 67.0507C67.1962 68.5312 69.7103 69.9268 72.2034 71.3538C72.963 71.7891 73.7073 72.2377 73.9006 73.1884C73.9446 73.4032 73.9723 73.6256 73.9733 73.8452C73.979 75.4498 73.9761 77.0553 73.9761 78.6599V78.6589ZM69.739 78.6103C69.739 77.482 69.7562 76.3537 69.7237 75.2264C69.718 75.0174 69.5687 74.7234 69.3946 74.6212C67.4353 73.4691 65.4636 72.336 63.4776 71.2316C63.2776 71.12 62.9026 71.1343 62.6979 71.2488C60.7262 72.3465 58.7707 73.471 56.8229 74.6107C56.6536 74.71 56.4795 74.9715 56.4775 75.1596C56.4536 77.4629 56.4546 79.7672 56.4756 82.0714C56.4776 82.2518 56.6258 82.5067 56.7818 82.5983C58.786 83.7724 60.7998 84.9284 62.8241 86.0681C62.9724 86.1511 63.2527 86.1416 63.4039 86.0567C65.3842 84.937 67.3492 83.7896 69.3286 82.668C69.6347 82.4943 69.7495 82.2881 69.7457 81.9473C69.7323 80.8353 69.7409 79.7233 69.74 78.6103H69.739Z" fill="#FDFDFD"/>
<path d="M50.4007 78.6243C50.4007 80.2614 50.3873 81.8984 50.4064 83.5355C50.4169 84.4127 50.0725 85.0666 49.3177 85.5047C46.4697 87.1589 43.6217 88.8112 40.7727 90.4645C39.9279 90.9551 39.1033 90.8864 38.2738 90.4053C35.5023 88.7988 32.7213 87.2076 29.9527 85.5963C29.1653 85.1381 28.731 84.4461 28.7319 83.5087C28.7348 80.2509 28.731 76.9921 28.7339 73.7342C28.7339 72.7864 29.1873 72.1096 30.0024 71.639C32.8016 70.022 35.5865 68.3783 38.3992 66.7842C39.3137 66.2659 40.2379 66.4625 41.1257 66.9827C43.7384 68.5129 46.352 70.0401 48.9867 71.533C49.9558 72.0819 50.4543 72.8064 50.415 73.9519C50.3624 75.5078 50.4016 77.0665 50.4016 78.6243H50.4007ZM46.1808 78.6387C46.1808 77.4789 46.1951 76.3182 46.1664 75.1584C46.1616 74.9684 46.0181 74.7021 45.8574 74.6086C43.9221 73.4774 41.9685 72.3778 40.0293 71.2534C39.6993 71.0624 39.4429 71.071 39.1148 71.261C37.2798 72.3244 35.4287 73.36 33.5928 74.4205C33.2915 74.5943 32.9652 74.7603 32.9681 75.2214C32.9825 77.4942 32.9643 79.7669 32.992 82.0387C32.9949 82.2497 33.191 82.5399 33.3814 82.6535C35.3148 83.7989 37.2693 84.9091 39.2085 86.0459C39.4793 86.2053 39.6744 86.2072 39.9432 86.0497C41.8939 84.9081 43.8503 83.7751 45.8163 82.6592C46.0937 82.5017 46.1913 82.3299 46.1865 82.0235C46.1722 80.8952 46.1808 79.7669 46.1808 78.6387Z" fill="#FDFDFD"/>
<path d="M29.4416 38.363C29.4416 36.8367 29.497 35.3085 29.4243 33.786C29.365 32.5451 29.9055 31.7709 30.9378 31.1848C33.6251 29.6576 36.2914 28.095 38.9681 26.5486C39.811 26.0618 40.6567 26.0332 41.5158 26.5295C44.3179 28.1484 47.1305 29.7483 49.9231 31.3824C50.7047 31.8397 51.1141 32.5603 51.1122 33.4977C51.1055 36.7241 51.1122 39.9514 51.1103 43.1777C51.1103 44.139 50.6874 44.8472 49.8475 45.3312C47.0492 46.9434 44.2672 48.5862 41.4565 50.1755C40.627 50.6451 39.7593 50.564 38.9098 50.0676C36.1345 48.4439 33.3419 46.8489 30.558 45.2405C29.784 44.7938 29.4262 44.1246 29.4368 43.2264C29.4549 41.6056 29.4416 39.9838 29.4416 38.363ZM33.6615 38.3248C33.6615 39.4846 33.65 40.6444 33.6729 41.8041C33.6768 41.9874 33.7897 42.2499 33.9351 42.3358C35.9116 43.4937 37.9043 44.6229 39.8885 45.7674C40.1898 45.9411 40.4395 45.8829 40.7237 45.7187C42.5586 44.6592 44.4049 43.6187 46.237 42.5544C46.546 42.375 46.8923 42.2203 46.8885 41.7268C46.8665 39.4712 46.8885 37.2147 46.8627 34.9591C46.8598 34.7443 46.6799 34.4437 46.4924 34.332C44.5207 33.1627 42.5337 32.0201 40.54 30.888C40.4003 30.8087 40.1372 30.8068 39.9975 30.8851C38.0163 32.0077 36.0532 33.1607 34.07 34.2795C33.737 34.4675 33.6481 34.6813 33.6548 35.0364C33.6749 36.1322 33.6624 37.229 33.6624 38.3248H33.6615Z" fill="#FDFDFD"/>
<path d="M74.5921 38.3629C74.5921 39.809 74.5174 41.259 74.6131 42.6984C74.7088 44.1255 74.0764 44.9693 72.8815 45.6289C70.3435 47.0311 67.8437 48.5011 65.3372 49.9587C64.7077 50.3243 64.0543 50.6011 63.3329 50.4254C62.8795 50.3147 62.4442 50.0828 62.0338 49.8479C59.4287 48.3636 56.8371 46.8555 54.2321 45.3721C53.3385 44.8633 52.9176 44.1083 52.9166 43.1031C52.9138 39.9417 52.9157 36.7802 52.9157 33.6188C52.9157 32.5316 53.4026 31.7899 54.3727 31.2458C57.125 29.7014 59.8439 28.0977 62.5695 26.5065C63.4238 26.0073 64.2561 26.0846 65.0703 26.5542C67.8274 28.1445 70.574 29.751 73.3293 31.3441C74.1663 31.8281 74.6208 32.4982 74.6016 33.5023C74.5701 35.1222 74.593 36.743 74.593 38.3638L74.5921 38.3629ZM70.3616 38.381C70.3616 37.2203 70.376 36.0596 70.3473 34.9008C70.3425 34.7108 70.1933 34.4473 70.0306 34.3509C68.0302 33.1692 66.0164 32.0085 63.9969 30.8602C63.8715 30.7886 63.6266 30.8105 63.4936 30.8869C61.5277 32.0066 59.578 33.153 57.6063 34.2631C57.2552 34.4607 57.1557 34.7032 57.1566 35.0602C57.1604 37.2537 57.1614 39.4472 57.1566 41.6408C57.1566 42.0045 57.2743 42.2364 57.6168 42.4302C59.5311 43.5136 61.4291 44.6256 63.3291 45.7329C63.6324 45.9105 63.8935 45.9085 64.2092 45.7243C66.1494 44.5989 68.1048 43.4993 70.0411 42.3681C70.2019 42.2746 70.3444 42.0045 70.3492 41.8136C70.3779 40.67 70.3636 39.5255 70.3636 38.381H70.3616Z" fill="#FDFDFD"/>
<path d="M86.0504 58.4919C86.0504 60.0019 86.0284 61.512 86.0581 63.0212C86.0811 64.1867 85.6448 64.9885 84.5867 65.5765C81.9243 67.0551 79.2963 68.5957 76.6817 70.1592C75.6093 70.8007 74.6392 70.7157 73.606 70.1077C70.9809 68.5613 68.3462 67.0312 65.7 65.5221C64.7778 64.9961 64.3233 64.2592 64.3272 63.1987C64.3387 60.0678 64.3425 56.9369 64.3253 53.807C64.3195 52.7885 64.707 52.0153 65.5881 51.5094C68.46 49.859 71.331 48.2057 74.2163 46.5792C74.9731 46.1525 75.7461 46.289 76.4837 46.7156C79.2418 48.3097 82.0018 49.9019 84.7656 51.4865C85.6199 51.9761 86.0533 52.693 86.0504 53.679C86.0457 55.2846 86.0495 56.8892 86.0495 58.4947L86.0504 58.4919ZM81.8267 58.4823C81.8267 57.354 81.8162 56.2267 81.8334 55.0984C81.8382 54.7863 81.7186 54.6069 81.4584 54.4618C80.9045 54.1535 80.363 53.8232 79.8139 53.5072C78.3789 52.6825 76.9467 51.853 75.5012 51.0493C75.3462 50.9634 75.0621 50.9557 74.9109 51.0407C72.9019 52.1728 70.9053 53.3278 68.9058 54.477C68.6724 54.6107 68.5528 54.7844 68.5547 55.0813C68.5681 57.3531 68.5547 59.6239 68.5758 61.8958C68.5777 62.0895 68.7183 62.3644 68.88 62.4599C70.5159 63.4268 72.1662 64.369 73.8184 65.3073C74.29 65.5755 74.7846 66.0127 75.261 66.0032C75.7451 65.9936 76.2235 65.5345 76.698 65.2615C78.3023 64.3375 79.9086 63.4173 81.4986 62.4694C81.6612 62.373 81.8076 62.1048 81.8124 61.912C81.8411 60.7694 81.8267 59.6249 81.8267 58.4814V58.4823Z" fill="#FDFDFD"/>
</svg>
