<svg width="232" height="66" viewBox="0 0 232 66" fill="none" xmlns="http://www.w3.org/2000/svg">
<g clip-path="url(#clip0_1290_40452)">
<path d="M64.4324 28H37.4054C34.4201 28 32 30.4201 32 33.4054V60.4324C32 63.4178 34.4201 65.8378 37.4054 65.8378H64.4324C67.4178 65.8378 69.8378 63.4178 69.8378 60.4324V33.4054C69.8378 30.4201 67.4178 28 64.4324 28Z" fill="url(#paint0_radial_1290_40452)"/>
<path d="M49.1172 37.9099H40.1082C39.3914 37.9099 38.704 38.1947 38.1971 38.7015C37.6903 39.2084 37.4055 39.8958 37.4055 40.6126V53.2252C37.4065 53.7973 37.5891 54.3542 37.9268 54.816C38.2645 55.2777 38.74 55.6203 39.2848 55.7946C39.8297 55.9689 40.4158 55.9658 40.9588 55.7858C41.5017 55.6057 41.9736 55.2581 42.3064 54.7928V54.7928L51.3154 42.1802C51.6031 41.7762 51.774 41.3008 51.8095 40.8061C51.845 40.3115 51.7438 39.8166 51.5168 39.3756C51.2898 38.9347 50.9458 38.5647 50.5226 38.3062C50.0994 38.0476 49.6132 37.9105 49.1172 37.9099ZM41.91 44.2162C41.5537 44.2162 41.2053 44.1105 40.909 43.9126C40.6127 43.7146 40.3817 43.4332 40.2454 43.1039C40.109 42.7747 40.0733 42.4124 40.1428 42.0629C40.2124 41.7134 40.384 41.3923 40.636 41.1404C40.8879 40.8884 41.209 40.7168 41.5585 40.6472C41.908 40.5777 42.2703 40.6134 42.5995 40.7498C42.9288 40.8861 43.2102 41.1171 43.4082 41.4134C43.6061 41.7097 43.7118 42.0581 43.7118 42.4144C43.7118 42.8923 43.522 43.3506 43.1841 43.6885C42.8462 44.0264 42.3879 44.2162 41.91 44.2162Z" fill="#0D0A03"/>
<path d="M55.8738 55.027C57.1177 55.027 58.1261 54.0187 58.1261 52.7748C58.1261 51.5309 57.1177 50.5225 55.8738 50.5225C54.6299 50.5225 53.6216 51.5309 53.6216 52.7748C53.6216 54.0187 54.6299 55.027 55.8738 55.027Z" fill="#0D0A03"/>
<path d="M64.4324 40.6126V53.2252C64.4335 53.8997 64.1823 54.5501 63.7282 55.0489C63.2742 55.5476 62.6501 55.8585 61.9785 55.9206C61.3069 55.9827 60.6364 55.7914 60.0986 55.3844C59.5608 54.9773 59.1947 54.3839 59.0721 53.7207C59.0433 53.5571 59.0282 53.3914 59.027 53.2252V51.1712C59.0222 50.6007 58.837 50.0463 58.4979 49.5875C58.1588 49.1287 57.6832 48.7889 57.1392 48.617C56.5952 48.445 56.0107 48.4495 55.4695 48.63C54.9283 48.8105 54.458 49.1576 54.1261 49.6216L52.7207 51.5946L50.4595 54.7658C50.0282 55.3141 49.4016 55.6745 48.7107 55.7715C48.0198 55.8685 47.3182 55.6945 46.7526 55.286C46.1871 54.8776 45.8013 54.2662 45.6762 53.5799C45.551 52.8936 45.6961 52.1854 46.0811 51.6036V51.6036L55.0901 38.991C55.3391 38.659 55.6612 38.3887 56.0315 38.2012C56.4017 38.0138 56.8102 37.9141 57.2252 37.9099H61.7297C62.4465 37.9099 63.134 38.1947 63.6408 38.7015C64.1477 39.2084 64.4324 39.8958 64.4324 40.6126V40.6126Z" fill="#FFFDFA"/>
<path d="M87.117 37.9099H81.3242L75.2432 55.9279H79.9278L81.108 52.1441H87.3333L88.5224 55.9279H93.1981L87.117 37.9099ZM82.1441 48.8288L84.1441 42.4144H84.2522L86.2612 48.8018L82.1441 48.8288Z" fill="#FFFDFA"/>
<path d="M106.027 46.5405L102.072 46.6486C102.035 46.3698 101.92 46.1073 101.739 45.8919C101.547 45.6647 101.303 45.4883 101.027 45.3784C100.71 45.2468 100.37 45.1824 100.027 45.1892C99.5848 45.1743 99.1465 45.2769 98.7567 45.4865C98.6217 45.5512 98.5049 45.6485 98.4169 45.7697C98.3289 45.8909 98.2726 46.0321 98.2529 46.1806C98.2332 46.329 98.2509 46.4801 98.3042 46.62C98.3576 46.7599 98.445 46.8843 98.5585 46.982C98.9091 47.2296 99.3137 47.3902 99.7387 47.4504L102.342 47.9369C103.447 48.0848 104.49 48.5301 105.36 49.2252C105.689 49.5262 105.948 49.8945 106.12 50.305C106.293 50.7155 106.375 51.1585 106.36 51.6036C106.37 52.4797 106.077 53.3324 105.532 54.018C104.946 54.7353 104.181 55.2853 103.315 55.6126C102.287 56.007 101.192 56.1997 100.09 56.1802C98.4876 56.2797 96.8939 55.8766 95.5315 55.027C95.001 54.6644 94.556 54.1904 94.2277 53.638C93.8994 53.0856 93.6956 52.4681 93.6306 51.8288L97.8739 51.7207C97.9113 51.9486 97.9955 52.1662 98.1211 52.36C98.2466 52.5538 98.4109 52.7195 98.6036 52.8468C99.0573 53.1173 99.5804 53.2488 100.108 53.2252C100.578 53.2466 101.045 53.1408 101.459 52.9189C101.616 52.8465 101.748 52.7308 101.841 52.5855C101.933 52.4402 101.982 52.2714 101.982 52.0991C101.984 51.9526 101.948 51.8082 101.877 51.6801C101.805 51.5521 101.702 51.4449 101.577 51.3694C101.2 51.139 100.78 50.9888 100.342 50.9279L97.982 50.4865C96.8585 50.3438 95.8039 49.8667 94.9549 49.1171C94.6237 48.7833 94.3653 48.3843 94.1963 47.9454C94.0272 47.5065 93.9512 47.0374 93.973 46.5676C93.9429 45.7363 94.1971 44.9196 94.6937 44.2522C95.228 43.5708 95.9474 43.0579 96.7657 42.7748C97.7859 42.412 98.8635 42.238 99.9459 42.2612C101.473 42.177 102.988 42.5809 104.27 43.4144C104.777 43.7721 105.198 44.2383 105.502 44.779C105.806 45.3198 105.985 45.9216 106.027 46.5405V46.5405Z" fill="#FFFDFA"/>
<path d="M119.775 46.5405L115.784 46.6487C115.747 46.3698 115.631 46.1073 115.45 45.8919C115.259 45.6647 115.015 45.4883 114.739 45.3784C114.422 45.2468 114.082 45.1824 113.739 45.1892C113.297 45.1743 112.858 45.2769 112.469 45.4865C112.333 45.5512 112.217 45.6486 112.129 45.7697C112.041 45.8909 111.984 46.0321 111.965 46.1806C111.945 46.3291 111.963 46.4801 112.016 46.62C112.069 46.7599 112.157 46.8843 112.27 46.982C112.621 47.2297 113.025 47.3902 113.45 47.4505L116.054 47.9369C117.158 48.0848 118.202 48.5301 119.072 49.2252C119.407 49.5229 119.673 49.8898 119.852 50.3004C120.031 50.7111 120.118 51.1558 120.108 51.6036C120.118 52.4798 119.825 53.3324 119.279 54.018C118.694 54.7353 117.929 55.2854 117.063 55.6126C116.034 56.007 114.939 56.1997 113.838 56.1802C112.235 56.2797 110.642 55.8766 109.279 55.027C108.749 54.6644 108.304 54.1904 107.975 53.638C107.647 53.0856 107.443 52.4682 107.378 51.8288L111.622 51.7207C111.659 51.9486 111.743 52.1662 111.869 52.36C111.994 52.5538 112.159 52.7196 112.351 52.8469C112.804 53.1204 113.327 53.2551 113.856 53.2342C114.326 53.2556 114.793 53.1498 115.207 52.9279C115.364 52.8556 115.496 52.7399 115.589 52.5946C115.681 52.4492 115.73 52.2804 115.73 52.1081C115.732 51.9617 115.696 51.8172 115.624 51.6892C115.553 51.5611 115.45 51.454 115.324 51.3784C114.948 51.1481 114.527 50.9978 114.09 50.9369L111.73 50.4955C110.606 50.3528 109.552 49.8757 108.703 49.1261C108.371 48.7923 108.113 48.3933 107.944 47.9545C107.775 47.5156 107.699 47.0464 107.721 46.5766C107.691 45.7453 107.945 44.9286 108.441 44.2613C108.976 43.5799 109.695 43.0669 110.514 42.7838C111.534 42.421 112.611 42.247 113.694 42.2703C115.221 42.186 116.736 42.5899 118.018 43.4234C118.524 43.7801 118.944 44.2449 119.248 44.7841C119.551 45.3232 119.732 45.9232 119.775 46.5405V46.5405Z" fill="#FFFDFA"/>
<path d="M134.45 50.2072V49.1351C134.468 48.1289 134.303 47.1277 133.964 46.1802C133.677 45.3666 133.216 44.6256 132.612 44.009C132.03 43.4216 131.326 42.9695 130.549 42.6847C129.703 42.3784 128.809 42.2259 127.91 42.2342C126.667 42.2098 125.441 42.5211 124.36 43.1351C123.363 43.7112 122.553 44.5618 122.027 45.5856C121.456 46.7095 121.168 47.9558 121.189 49.2162C121.156 50.5056 121.441 51.7833 122.018 52.9369C122.546 53.9572 123.368 54.7953 124.378 55.3424C125.49 55.9191 126.729 56.2072 127.982 56.1802C129.046 56.2007 130.104 56.0172 131.099 55.6396C131.957 55.3277 132.725 54.8076 133.333 54.1261C133.888 53.4623 134.258 52.6636 134.405 51.8108L130.459 51.7027C130.351 51.9904 130.179 52.2493 129.955 52.4595C129.724 52.6705 129.45 52.8302 129.153 52.9279C128.818 53.0325 128.468 53.0842 128.117 53.0811C127.621 53.093 127.13 52.975 126.694 52.7387C126.307 52.5108 125.994 52.1761 125.793 51.7748C125.567 51.3251 125.456 50.8271 125.468 50.3243V50.2162L134.45 50.2072ZM125.793 46.5315C126.01 46.1581 126.32 45.8476 126.694 45.6306C127.09 45.4296 127.528 45.3248 127.973 45.3248C128.417 45.3248 128.856 45.4296 129.252 45.6306C129.622 45.8279 129.933 46.1202 130.153 46.4775C130.364 46.8481 130.476 47.2671 130.477 47.6937H125.477C125.481 47.2856 125.589 46.8853 125.793 46.5315V46.5315Z" fill="#FFFDFA"/>
<path d="M144.036 55.7297C143.838 55.7928 143.54 55.8648 143.135 55.9459C142.697 56.0432 142.25 56.1005 141.802 56.1171C140.924 56.183 140.042 56.0601 139.216 55.7567C138.535 55.5095 137.956 55.0438 137.567 54.4324C137.17 53.7408 136.979 52.9498 137.018 52.1531V45.5765H135.216V42.4144H137.018V39.1711H141.315V42.4144H143.757V45.5765H141.315V51.6756C141.306 51.8968 141.353 52.1167 141.45 52.3153C141.528 52.4701 141.659 52.5916 141.82 52.6576C142.01 52.7271 142.212 52.7607 142.414 52.7567C142.589 52.754 142.764 52.739 142.937 52.7117L143.351 52.6216L144.036 55.7297Z" fill="#FFFDFA"/>
<path d="M145.775 37.9099H151.18L155.757 49.0631H155.964L160.531 37.9099H165.937V55.9279H161.73V44.8649H161.576L157.225 55.8108H154.522L150.198 44.8018H150.018V55.9279H145.775V37.9099Z" fill="#FFFDFA"/>
<path d="M205.261 55.7297C205.057 55.7958 204.757 55.8678 204.36 55.9459C203.922 56.0426 203.476 56.0999 203.027 56.1171C202.146 56.1823 201.262 56.0595 200.432 55.7567C199.754 55.5095 199.177 55.0436 198.793 54.4324C198.392 53.7424 198.201 52.9502 198.243 52.1531V45.5765H196.441V42.4144H198.243V39.1711H202.541V42.4144H204.982V45.5765H202.541V51.6756C202.533 51.8957 202.576 52.1145 202.667 52.3153C202.748 52.4707 202.882 52.5921 203.045 52.6576C203.232 52.7264 203.431 52.76 203.631 52.7567C203.806 52.7544 203.98 52.7394 204.153 52.7117L204.577 52.6216L205.261 55.7297Z" fill="#FFFDFA"/>
<path d="M178.342 43.4144C177.766 43.0053 177.123 42.7004 176.441 42.5135C175.667 42.3013 174.866 42.1982 174.063 42.2072C173 42.1818 171.943 42.3718 170.955 42.7658C170.159 43.0895 169.463 43.6178 168.937 44.2973C168.449 44.9416 168.138 45.7026 168.036 46.5045L172 46.6396C172.082 46.2291 172.317 45.8651 172.657 45.6216C173.068 45.3603 173.549 45.2314 174.036 45.2522C174.483 45.2297 174.925 45.3599 175.288 45.6216C175.444 45.7455 175.568 45.9051 175.65 46.087C175.731 46.2689 175.768 46.4677 175.757 46.6667V46.7117C175.761 46.8361 175.735 46.9598 175.68 47.0715C175.625 47.1832 175.543 47.2794 175.441 47.3513C175.125 47.532 174.776 47.6483 174.414 47.6937C173.946 47.7748 173.324 47.8468 172.558 47.9189C171.904 47.9705 171.256 48.0821 170.621 48.2522C170.05 48.4078 169.508 48.6575 169.018 48.991C168.555 49.3135 168.18 49.7472 167.928 50.2522C167.648 50.8427 167.512 51.491 167.531 52.1441C167.5 52.9265 167.7 53.7009 168.108 54.3694C168.493 54.9547 169.041 55.415 169.685 55.6937C170.955 56.1919 172.353 56.2615 173.666 55.8919C174.149 55.7432 174.597 55.498 174.982 55.1712C175.35 54.8454 175.656 54.4545 175.883 54.018H175.991V55.9279H180.036V46.7387C180.049 46.0871 179.9 45.4424 179.603 44.8624C179.306 44.2823 178.869 43.7848 178.333 43.4144H178.342ZM175.775 51.1171C175.784 51.5294 175.668 51.9348 175.441 52.2793C175.213 52.6112 174.903 52.8782 174.54 53.054C174.151 53.2463 173.722 53.3421 173.288 53.3333C172.855 53.3523 172.428 53.2289 172.072 52.982C171.922 52.861 171.803 52.7048 171.728 52.5272C171.652 52.3496 171.622 52.1561 171.639 51.964C171.635 51.6946 171.714 51.4304 171.865 51.2072C172.032 50.9776 172.255 50.7947 172.513 50.6757C172.844 50.5322 173.193 50.4322 173.549 50.3784L174.18 50.2883L174.811 50.1622C175.018 50.1171 175.207 50.0631 175.378 50.009C175.53 49.9636 175.677 49.9064 175.82 49.8378L175.775 51.1171Z" fill="#FFFDFA"/>
<path d="M194.631 44.6487C195.036 45.4746 195.234 46.3868 195.207 47.3063V55.9279H190.901V48.1532C190.947 47.5161 190.743 46.8861 190.333 46.3964C190.13 46.1811 189.881 46.0131 189.606 45.9042C189.33 45.7952 189.034 45.748 188.739 45.7658C188.324 45.7586 187.915 45.8578 187.55 46.0541C187.205 46.2492 186.929 46.5446 186.757 46.9009C186.559 47.3109 186.461 47.7613 186.468 48.2162V55.9279H182.171V42.4144H186.261V44.8919H186.405C186.686 44.0915 187.225 43.407 187.937 42.946C188.718 42.4483 189.633 42.2001 190.559 42.2342C191.428 42.2129 192.286 42.4345 193.036 42.8739C193.723 43.3046 194.276 43.9195 194.631 44.6487V44.6487Z" fill="#FFFDFA"/>
<path d="M211.297 37.9099H207V55.9279H211.297V37.9099Z" fill="#FFFDFA"/>
<path d="M226.261 50.2072V49.1351C226.279 48.1289 226.114 47.1277 225.775 46.1802C225.488 45.3666 225.027 44.6256 224.423 44.009C223.841 43.4216 223.137 42.9695 222.36 42.6847C221.514 42.3784 220.62 42.2259 219.721 42.2342C218.478 42.2098 217.252 42.5211 216.171 43.1351C215.174 43.7112 214.364 44.5618 213.838 45.5856C213.266 46.7184 212.981 47.9745 213.009 49.2433C212.976 50.5327 213.261 51.8103 213.838 52.964C214.366 53.9843 215.188 54.8223 216.198 55.3694C217.31 55.9461 218.549 56.2342 219.802 56.2072C220.866 56.2277 221.924 56.0442 222.919 55.6667C223.777 55.3457 224.542 54.8163 225.144 54.1261C225.699 53.4623 226.069 52.6636 226.216 51.8108L222.27 51.7027C222.162 51.9904 221.99 52.2493 221.766 52.4595C221.534 52.6705 221.261 52.8302 220.964 52.9279C220.629 53.0325 220.279 53.0842 219.928 53.0811C219.432 53.093 218.941 52.975 218.504 52.7387C218.118 52.5108 217.805 52.1761 217.603 51.7748C217.378 51.3251 217.267 50.8271 217.279 50.3243V50.2162L226.261 50.2072ZM217.585 46.5315C217.802 46.1581 218.113 45.8476 218.486 45.6306C218.883 45.4296 219.321 45.3248 219.766 45.3248C220.21 45.3248 220.648 45.4296 221.045 45.6306C221.415 45.8279 221.726 46.1202 221.946 46.4775C222.157 46.8481 222.269 47.2671 222.27 47.6937H217.27C217.273 47.2856 217.382 46.8853 217.585 46.5315V46.5315Z" fill="#FFFDFA"/>
</g>
<g clip-path="url(#clip1_1290_40452)">
<path d="M45.524 18.66C45.0925 17.979 33.4925 7.49666 17.6834 15.5581C1.87438 23.6195 11.7868 35.8748 14.5251 40.8713C16.2715 44.0581 18.2575 47.536 18.6852 48.2941C18.6834 48.2946 18.6815 48.295 18.6797 48.2955C18.802 48.5039 18.794 48.4869 18.6852 48.2941C20.1321 47.9421 22.1399 45.8326 22.9108 46.5082C22.3075 44.4287 21.7093 41.5828 20.3372 36.5843C20.0853 34.1114 23.244 37.5309 23.6778 40.17C30.4084 31.7237 40.9622 22.2382 45.524 18.66Z" fill="url(#paint1_radial_1290_40452)"/>
<mask id="mask0_1290_40452" style="mask-type:alpha" maskUnits="userSpaceOnUse" x="8" y="12" width="38" height="37">
<path d="M45.524 18.66C45.0925 17.979 33.4925 7.49666 17.6834 15.5581C1.87438 23.6195 11.7868 35.8748 14.5251 40.8713C16.2715 44.0581 18.2575 47.536 18.6852 48.2941C18.6834 48.2946 18.6815 48.295 18.6797 48.2955C18.802 48.5039 18.794 48.4869 18.6852 48.2941C20.1321 47.9421 22.1399 45.8326 22.9108 46.5082C22.3075 44.4287 21.7093 41.5828 20.3372 36.5843C20.0853 34.1114 23.244 37.5309 23.6778 40.17C30.4084 31.7237 40.9622 22.2382 45.524 18.66Z" fill="url(#paint2_radial_1290_40452)"/>
</mask>
<g mask="url(#mask0_1290_40452)">
<g filter="url(#filter0_f_1290_40452)">
<path d="M17.8358 25.5183C24.3054 19.5001 31.268 23.8472 33.9406 26.773L34.9941 27.2129C32.1439 29.9745 25.8806 36.3635 23.629 39.8254C23.2273 37.9873 21.6196 36.2699 21.0232 35.8108C20.4269 35.3518 20.0354 36.1794 20.5674 37.6451C20.9698 38.7808 21.9661 42.9828 22.4139 44.9419L20.8415 44.8525C18.2134 40.9537 13.9329 31.6285 17.8358 25.5183Z" fill="url(#paint3_radial_1290_40452)"/>
</g>
<g filter="url(#filter1_f_1290_40452)">
<path d="M31.1364 20.2132C27.7287 22.3732 23.1201 21.2116 20.8427 17.6189C18.5654 14.0261 19.4817 9.36251 22.8894 7.20251C26.2971 5.04252 30.9057 6.20404 33.183 9.79683C35.4604 13.3896 34.544 18.0532 31.1364 20.2132Z" fill="#FFBCBC"/>
</g>
<g filter="url(#filter2_f_1290_40452)">
<path d="M29.3343 17.3703C27.4158 18.5863 24.8212 17.9324 23.539 15.9097C22.2569 13.887 22.7728 11.2614 24.6913 10.0454C26.6098 8.82932 29.2044 9.48324 30.4865 11.506C31.7686 13.5287 31.2527 16.1542 29.3343 17.3703Z" fill="#FFBDBD"/>
</g>
<g filter="url(#filter3_f_1290_40452)">
<path d="M35.7697 14.3152C27.7082 10.8432 17.9942 15.308 14.1448 17.9744C21.2712 10.8112 27.9714 12.3927 29.9003 12.3859C31.8291 12.379 39.5378 13.5716 44.5195 15.5988C49.5012 17.626 47.0428 20.3286 45.3644 20.5701C43.686 20.8115 29.1731 33.5506 24.3036 38.1748C24.9949 35.6269 30.9162 26.0809 34.2791 23.8419C37.642 21.6031 42.0929 17.9237 35.7697 14.3152Z" fill="#E24646"/>
</g>
<g filter="url(#filter4_f_1290_40452)">
<path d="M21.4774 44.1416C21.3089 43.8756 20.8152 39.7268 20.5894 37.6857C21.6485 40.4023 23.8024 46.0054 23.9451 46.6839C24.1235 47.5318 23.0583 47.1586 22.5916 47.1632C22.1249 47.1677 20.6984 47.0526 20.2711 47.0322C19.9293 47.0159 18.3587 47.3707 17.6161 47.5501C17.5215 47.2121 17.3243 46.3663 17.292 45.6879C17.6065 44.7895 20.3598 44.0344 21.4774 44.1416Z" fill="#961F1E"/>
</g>
</g>
<path d="M47.4019 17.6892C51.4074 17.1915 55.5073 23.1335 56.0785 25.7244C56.634 28.1541 54.5064 27.7172 44.684 34.4C33.3261 42.2636 33.4671 46.9051 30.2266 48.5025C26.9861 50.0998 23.1446 42.592 23.3449 40.8678C23.6663 38.1005 27.265 33.4539 32.1328 28.9568C37.0005 24.4598 42.9383 18.1889 47.4019 17.6892Z" fill="#DAE5EF"/>
<g opacity="0.5" filter="url(#filter5_f_1290_40452)">
<path d="M47.049 19.3087C50.1048 18.929 53.2328 23.4622 53.6685 25.4388C54.0923 27.2925 51.814 27.5883 44.3203 32.6866C35.6551 38.6859 35.7626 42.227 33.2905 43.4456C30.8183 44.6643 27.8875 38.9364 28.0402 37.6211C28.2855 35.5098 31.031 31.9649 34.7447 28.5339C38.4584 25.1031 43.6436 19.6899 47.049 19.3087Z" fill="url(#paint4_radial_1290_40452)"/>
</g>
<path d="M17.2415 52.1911C18.7103 54.5083 21.6826 55.2574 23.8804 53.8643C26.0782 52.4712 26.6692 49.4634 25.2004 47.1462C23.7317 44.829 20.7593 44.0799 18.5615 45.473C16.3637 46.8661 15.7727 49.8739 17.2415 52.1911Z" fill="url(#paint5_radial_1290_40452)"/>
<mask id="mask1_1290_40452" style="mask-type:alpha" maskUnits="userSpaceOnUse" x="16" y="44" width="11" height="11">
<path d="M17.2415 52.1911C18.7103 54.5083 21.6826 55.2574 23.8804 53.8643C26.0782 52.4712 26.6692 49.4634 25.2004 47.1462C23.7317 44.829 20.7593 44.0799 18.5615 45.473C16.3637 46.8661 15.7727 49.8739 17.2415 52.1911Z" fill="url(#paint6_radial_1290_40452)"/>
</mask>
<g mask="url(#mask1_1290_40452)">
<g filter="url(#filter6_f_1290_40452)">
<path d="M15.3008 48.8467C21.1413 44.3818 26.2805 47.7859 26.4026 52.602C26.5321 50.9922 26.5156 47.3383 25.4139 45.6002C24.0368 43.4277 20.6185 41.9281 15.3008 48.8467Z" fill="#BBCFE3"/>
</g>
</g>
<path d="M30.1612 22.4751C22.7868 27.925 22.031 34.9494 22.7277 37.7472C20.5649 34.7599 20.3644 35.814 20.3073 36.3846C20.0127 35.5024 16.6824 27.8998 20.7511 23.5391C18.5817 28.3198 20.8087 34.7708 21.2013 33.7744C21.5939 32.7779 20.7742 27.8847 30.1612 22.4751Z" fill="url(#paint7_linear_1290_40452)"/>
<path d="M13.6049 29.807C11.7613 24.5016 13.2211 19.4543 14.4617 17.4999C13.147 18.476 12.3477 19.261 11.7333 19.9564C11.3651 21.8305 11.2362 26.3695 13.6049 29.807Z" fill="url(#paint8_linear_1290_40452)"/>
<path d="M28.2845 14.9415C27.337 14.7883 24.916 14.7842 22.8125 15.9927M31.2472 15.7068C30.6873 15.5267 30.8267 15.5618 30.155 15.4073" stroke="url(#paint9_linear_1290_40452)" stroke-width="1.4487" stroke-linecap="round"/>
<mask id="mask2_1290_40452" style="mask-type:alpha" maskUnits="userSpaceOnUse" x="23" y="17" width="34" height="32">
<path d="M47.4019 17.6892C51.4074 17.1915 55.5073 23.1335 56.0785 25.7244C56.634 28.1541 54.5064 27.7172 44.684 34.4C33.3261 42.2636 33.4671 46.9051 30.2266 48.5025C26.9861 50.0998 23.1446 42.592 23.3449 40.8678C23.6663 38.1005 27.265 33.4539 32.1328 28.9568C37.0005 24.4598 42.9383 18.1889 47.4019 17.6892Z" fill="#DAE5EF"/>
</mask>
<g mask="url(#mask2_1290_40452)">
<g filter="url(#filter7_f_1290_40452)">
<path d="M32.2233 28.4105C31.8149 28.6694 22.2269 33.1875 22.9155 39.9943C23.6041 46.801 29.9767 50.1558 31.1684 49.8531C32.0987 49.6169 42.3781 40.5565 47.7688 35.7285C47.9027 35.6101 48.0334 35.493 48.1608 35.3772C48.0333 35.4915 47.9026 35.6087 47.7688 35.7285C42.5478 40.3417 32.5099 46.6778 29.4787 43.6239C25.5925 39.7086 26.2996 33.6626 32.2233 28.4105Z" fill="#ACC6DF"/>
</g>
<g filter="url(#filter8_f_1290_40452)">
<path d="M47.3329 29.9999C43.7941 32.243 39.8435 32.3546 38.5089 30.249C37.1742 28.1435 38.9611 24.6183 42.4999 22.3752C46.0387 20.1321 49.9894 20.0205 51.324 22.126C52.6586 24.2316 50.8717 27.7568 47.3329 29.9999Z" fill="url(#paint10_radial_1290_40452)"/>
</g>
<path d="M45.411 23.358C42.5116 23.8126 31.9792 32.9901 28.6494 39.8828" stroke="url(#paint11_radial_1290_40452)" stroke-width="4.3461" stroke-linecap="round"/>
</g>
<g filter="url(#filter9_f_1290_40452)">
<path d="M20.883 52.4901C20.5406 52.7071 20.0775 52.5904 19.8487 52.2294C19.6198 51.8684 19.7119 51.3998 20.0543 51.1827C20.3967 50.9657 20.8598 51.0824 21.0887 51.4434C21.3175 51.8044 21.2254 52.273 20.883 52.4901Z" fill="#FFFBFB"/>
</g>
</g>
<defs>
<filter id="filter0_f_1290_40452" x="10.4703" y="16.7031" width="30.3186" height="34.0336" filterUnits="userSpaceOnUse" color-interpolation-filters="sRGB">
<feFlood flood-opacity="0" result="BackgroundImageFix"/>
<feBlend mode="normal" in="SourceGraphic" in2="BackgroundImageFix" result="shape"/>
<feGaussianBlur stdDeviation="2.8974" result="effect1_foregroundBlur_1290_40452"/>
</filter>
<filter id="filter1_f_1290_40452" x="8.00148" y="-5.47337" width="38.0229" height="38.3624" filterUnits="userSpaceOnUse" color-interpolation-filters="sRGB">
<feFlood flood-opacity="0" result="BackgroundImageFix"/>
<feBlend mode="normal" in="SourceGraphic" in2="BackgroundImageFix" result="shape"/>
<feGaussianBlur stdDeviation="5.79479" result="effect1_foregroundBlur_1290_40452"/>
</filter>
<filter id="filter2_f_1290_40452" x="-3.24237" y="-16.6428" width="60.5101" height="60.7012" filterUnits="userSpaceOnUse" color-interpolation-filters="sRGB">
<feFlood flood-opacity="0" result="BackgroundImageFix"/>
<feBlend mode="normal" in="SourceGraphic" in2="BackgroundImageFix" result="shape"/>
<feGaussianBlur stdDeviation="13.0383" result="effect1_foregroundBlur_1290_40452"/>
</filter>
<filter id="filter3_f_1290_40452" x="11.2474" y="9.34467" width="39.1244" height="31.7275" filterUnits="userSpaceOnUse" color-interpolation-filters="sRGB">
<feFlood flood-opacity="0" result="BackgroundImageFix"/>
<feBlend mode="normal" in="SourceGraphic" in2="BackgroundImageFix" result="shape"/>
<feGaussianBlur stdDeviation="1.4487" result="effect1_foregroundBlur_1290_40452"/>
</filter>
<filter id="filter4_f_1290_40452" x="11.4972" y="31.8909" width="18.2627" height="21.454" filterUnits="userSpaceOnUse" color-interpolation-filters="sRGB">
<feFlood flood-opacity="0" result="BackgroundImageFix"/>
<feBlend mode="normal" in="SourceGraphic" in2="BackgroundImageFix" result="shape"/>
<feGaussianBlur stdDeviation="2.8974" result="effect1_foregroundBlur_1290_40452"/>
</filter>
<filter id="filter5_f_1290_40452" x="26.5857" y="17.8376" width="28.5803" height="27.2258" filterUnits="userSpaceOnUse" color-interpolation-filters="sRGB">
<feFlood flood-opacity="0" result="BackgroundImageFix"/>
<feBlend mode="normal" in="SourceGraphic" in2="BackgroundImageFix" result="shape"/>
<feGaussianBlur stdDeviation="0.724349" result="effect1_foregroundBlur_1290_40452"/>
</filter>
<filter id="filter6_f_1290_40452" x="12.4034" y="40.8845" width="16.9518" height="14.6149" filterUnits="userSpaceOnUse" color-interpolation-filters="sRGB">
<feFlood flood-opacity="0" result="BackgroundImageFix"/>
<feBlend mode="normal" in="SourceGraphic" in2="BackgroundImageFix" result="shape"/>
<feGaussianBlur stdDeviation="1.4487" result="effect1_foregroundBlur_1290_40452"/>
</filter>
<filter id="filter7_f_1290_40452" x="17.0853" y="22.6157" width="36.8704" height="33.0511" filterUnits="userSpaceOnUse" color-interpolation-filters="sRGB">
<feFlood flood-opacity="0" result="BackgroundImageFix"/>
<feBlend mode="normal" in="SourceGraphic" in2="BackgroundImageFix" result="shape"/>
<feGaussianBlur stdDeviation="2.8974" result="effect1_foregroundBlur_1290_40452"/>
</filter>
<filter id="filter8_f_1290_40452" x="35.169" y="17.7197" width="19.4948" height="16.9357" filterUnits="userSpaceOnUse" color-interpolation-filters="sRGB">
<feFlood flood-opacity="0" result="BackgroundImageFix"/>
<feBlend mode="normal" in="SourceGraphic" in2="BackgroundImageFix" result="shape"/>
<feGaussianBlur stdDeviation="1.4487" result="effect1_foregroundBlur_1290_40452"/>
</filter>
<filter id="filter9_f_1290_40452" x="16.8255" y="48.1761" width="7.28625" height="7.3205" filterUnits="userSpaceOnUse" color-interpolation-filters="sRGB">
<feFlood flood-opacity="0" result="BackgroundImageFix"/>
<feBlend mode="normal" in="SourceGraphic" in2="BackgroundImageFix" result="shape"/>
<feGaussianBlur stdDeviation="1.4487" result="effect1_foregroundBlur_1290_40452"/>
</filter>
<radialGradient id="paint0_radial_1290_40452" cx="0" cy="0" r="1" gradientUnits="userSpaceOnUse" gradientTransform="translate(50.9189 46.9189) scale(18.9189 18.9189)">
<stop offset="0.473958" stop-color="#FFC640"/>
<stop offset="1" stop-color="#F2AF13"/>
</radialGradient>
<radialGradient id="paint1_radial_1290_40452" cx="0" cy="0" r="1" gradientUnits="userSpaceOnUse" gradientTransform="translate(24.5439 15.8357) rotate(89.0508) scale(23.3213 31.8693)">
<stop stop-color="#FF8484"/>
<stop offset="1" stop-color="#FC4545"/>
</radialGradient>
<radialGradient id="paint2_radial_1290_40452" cx="0" cy="0" r="1" gradientUnits="userSpaceOnUse" gradientTransform="translate(24.5439 15.8357) rotate(89.0508) scale(23.3213 31.8693)">
<stop stop-color="#FF8484"/>
<stop offset="1" stop-color="#FC4545"/>
</radialGradient>
<radialGradient id="paint3_radial_1290_40452" cx="0" cy="0" r="1" gradientUnits="userSpaceOnUse" gradientTransform="translate(19.4289 22.6483) rotate(77.3948) scale(16.4763 18.716)">
<stop stop-color="#D03F3E" stop-opacity="0"/>
<stop offset="1" stop-color="#D03F3E"/>
</radialGradient>
<radialGradient id="paint4_radial_1290_40452" cx="0" cy="0" r="1" gradientUnits="userSpaceOnUse" gradientTransform="translate(46.3575 21.3888) rotate(123.474) scale(22.3479 51.3136)">
<stop stop-color="white"/>
<stop offset="0.877376" stop-color="#DAE5EF" stop-opacity="0"/>
</radialGradient>
<radialGradient id="paint5_radial_1290_40452" cx="0" cy="0" r="1" gradientUnits="userSpaceOnUse" gradientTransform="translate(19.995 52.037) rotate(5.36342) scale(5.92103 6.00796)">
<stop stop-color="white"/>
<stop offset="1" stop-color="#DAE5EF"/>
</radialGradient>
<radialGradient id="paint6_radial_1290_40452" cx="0" cy="0" r="1" gradientUnits="userSpaceOnUse" gradientTransform="translate(19.995 52.037) rotate(5.36342) scale(5.92103 6.00796)">
<stop stop-color="white"/>
<stop offset="1" stop-color="#DAE5EF"/>
</radialGradient>
<linearGradient id="paint7_linear_1290_40452" x1="21.1015" y1="35.7104" x2="30.0215" y2="25.8279" gradientUnits="userSpaceOnUse">
<stop stop-color="#D03F3E"/>
<stop offset="1" stop-color="#D03F3E" stop-opacity="0"/>
</linearGradient>
<linearGradient id="paint8_linear_1290_40452" x1="14.0519" y1="17.7594" x2="14.6707" y2="30.9349" gradientUnits="userSpaceOnUse">
<stop stop-color="#D03F3E"/>
<stop offset="1" stop-color="#D03F3E" stop-opacity="0"/>
</linearGradient>
<linearGradient id="paint9_linear_1290_40452" x1="22.2596" y1="16.3432" x2="32.6103" y2="15.7355" gradientUnits="userSpaceOnUse">
<stop stop-color="white"/>
<stop offset="1" stop-color="white" stop-opacity="0"/>
</linearGradient>
<radialGradient id="paint10_radial_1290_40452" cx="0" cy="0" r="1" gradientUnits="userSpaceOnUse" gradientTransform="translate(45.922 27.774) rotate(106.859) scale(12.7023 22.7155)">
<stop stop-color="white"/>
<stop offset="1" stop-color="white" stop-opacity="0.22"/>
</radialGradient>
<radialGradient id="paint11_radial_1290_40452" cx="0" cy="0" r="1" gradientUnits="userSpaceOnUse" gradientTransform="translate(44.4305 22.9307) rotate(127.822) scale(17.2723 120.811)">
<stop stop-color="white"/>
<stop offset="1" stop-color="white" stop-opacity="0"/>
</radialGradient>
<clipPath id="clip0_1290_40452">
<rect width="200" height="37.8378" fill="white" transform="translate(32 28)"/>
</clipPath>
<clipPath id="clip1_1290_40452">
<rect width="48.9368" height="35.9324" fill="white" transform="translate(0 26.6226) rotate(-32.369)"/>
</clipPath>
</defs>
</svg>
