<svg width="219" height="54" viewBox="0 0 219 54" fill="none" xmlns="http://www.w3.org/2000/svg">
<g clip-path="url(#clip0_423_3)">
<path d="M56.4324 16H29.4054C26.4201 16 24 18.4201 24 21.4054V48.4324C24 51.4178 26.4201 53.8378 29.4054 53.8378H56.4324C59.4178 53.8378 61.8378 51.4178 61.8378 48.4324V21.4054C61.8378 18.4201 59.4178 16 56.4324 16Z" fill="url(#paint0_radial_423_3)"/>
<path d="M41.117 25.9099H32.108C31.3912 25.9099 30.7038 26.1947 30.1969 26.7015C29.6901 27.2084 29.4053 27.8958 29.4053 28.6126V41.2252C29.4063 41.7973 29.5889 42.3542 29.9266 42.816C30.2643 43.2777 30.7398 43.6203 31.2846 43.7946C31.8295 43.9689 32.4156 43.9658 32.9586 43.7858C33.5015 43.6057 33.9734 43.2581 34.3062 42.7928L43.3152 30.1802C43.6029 29.7762 43.7738 29.3008 43.8093 28.8061C43.8448 28.3115 43.7436 27.8166 43.5166 27.3756C43.2896 26.9347 42.9456 26.5647 42.5224 26.3062C42.0992 26.0476 41.613 25.9105 41.117 25.9099ZM33.9098 32.2162C33.5535 32.2162 33.2051 32.1105 32.9088 31.9126C32.6125 31.7146 32.3815 31.4332 32.2452 31.1039C32.1088 30.7747 32.0731 30.4124 32.1426 30.0629C32.2122 29.7134 32.3838 29.3923 32.6358 29.1404C32.8877 28.8884 33.2088 28.7168 33.5583 28.6472C33.9078 28.5777 34.2701 28.6134 34.5993 28.7498C34.9286 28.8861 35.21 29.1171 35.408 29.4134C35.6059 29.7097 35.7116 30.0581 35.7116 30.4144C35.7116 30.8923 35.5218 31.3506 35.1839 31.6885C34.846 32.0264 34.3877 32.2162 33.9098 32.2162Z" fill="#0D0A03"/>
<path d="M47.8738 43.027C49.1177 43.027 50.1261 42.0187 50.1261 40.7748C50.1261 39.5309 49.1177 38.5225 47.8738 38.5225C46.6299 38.5225 45.6216 39.5309 45.6216 40.7748C45.6216 42.0187 46.6299 43.027 47.8738 43.027Z" fill="#0D0A03"/>
<path d="M56.4324 28.6126V41.2252C56.4335 41.8997 56.1823 42.5501 55.7282 43.0489C55.2742 43.5476 54.6501 43.8585 53.9785 43.9206C53.3069 43.9827 52.6364 43.7914 52.0986 43.3844C51.5608 42.9773 51.1947 42.3839 51.0721 41.7207C51.0433 41.5571 51.0282 41.3914 51.027 41.2252V39.1712C51.0222 38.6007 50.837 38.0463 50.4979 37.5875C50.1588 37.1287 49.6832 36.7889 49.1392 36.617C48.5952 36.445 48.0107 36.4495 47.4695 36.63C46.9283 36.8105 46.458 37.1576 46.1261 37.6216L44.7207 39.5946L42.4595 42.7658C42.0282 43.3141 41.4016 43.6745 40.7107 43.7715C40.0198 43.8685 39.3182 43.6945 38.7526 43.286C38.1871 42.8776 37.8013 42.2662 37.6762 41.5799C37.551 40.8936 37.6961 40.1854 38.0811 39.6036L47.0901 26.991C47.3391 26.659 47.6612 26.3887 48.0315 26.2012C48.4017 26.0138 48.8102 25.9141 49.2252 25.9099H53.7297C54.4465 25.9099 55.134 26.1947 55.6408 26.7015C56.1477 27.2084 56.4324 27.8958 56.4324 28.6126Z" fill="#FFFDFA"/>
<path d="M79.117 25.9099H73.3242L67.2432 43.9279H71.9278L73.108 40.1441H79.3333L80.5224 43.9279H85.1981L79.117 25.9099ZM74.1441 36.8288L76.1441 30.4144H76.2522L78.2612 36.8018L74.1441 36.8288Z" fill="#FFFDFA"/>
<path d="M98.0268 34.5405L94.0718 34.6486C94.0348 34.3698 93.9198 34.1073 93.7388 33.8919C93.5468 33.6647 93.3028 33.4883 93.0268 33.3784C92.7098 33.2468 92.3698 33.1824 92.0268 33.1892C91.5846 33.1743 91.1463 33.2769 90.7565 33.4865C90.6215 33.5512 90.5047 33.6485 90.4167 33.7697C90.3287 33.8909 90.2724 34.0321 90.2527 34.1806C90.233 34.329 90.2507 34.4801 90.304 34.62C90.3574 34.7599 90.4448 34.8843 90.5583 34.982C90.9089 35.2296 91.3135 35.3902 91.7385 35.4504L94.3418 35.9369C95.4468 36.0848 96.4898 36.5301 97.3598 37.2252C97.6888 37.5262 97.9478 37.8945 98.1198 38.305C98.2928 38.7155 98.3748 39.1585 98.3598 39.6036C98.3698 40.4797 98.0768 41.3324 97.5318 42.018C96.9458 42.7353 96.1808 43.2853 95.3148 43.6126C94.2868 44.007 93.1918 44.1997 92.0898 44.1802C90.4874 44.2797 88.8937 43.8766 87.5313 43.027C87.0008 42.6644 86.5558 42.1904 86.2275 41.638C85.8992 41.0856 85.6954 40.4681 85.6304 39.8288L89.8737 39.7207C89.9111 39.9486 89.9953 40.1662 90.1209 40.36C90.2464 40.5538 90.4107 40.7195 90.6034 40.8468C91.0571 41.1173 91.5802 41.2488 92.1078 41.2252C92.5778 41.2466 93.0448 41.1408 93.4588 40.9189C93.6158 40.8465 93.7478 40.7308 93.8408 40.5855C93.9328 40.4402 93.9818 40.2714 93.9818 40.0991C93.9838 39.9526 93.9478 39.8082 93.8768 39.6801C93.8048 39.5521 93.7018 39.4449 93.5768 39.3694C93.1998 39.139 92.7798 38.9888 92.3418 38.9279L89.9818 38.4865C88.8583 38.3438 87.8037 37.8667 86.9547 37.1171C86.6235 36.7833 86.3651 36.3843 86.1961 35.9454C86.027 35.5065 85.951 35.0374 85.9728 34.5676C85.9427 33.7363 86.1969 32.9196 86.6935 32.2522C87.2278 31.5708 87.9472 31.0579 88.7655 30.7748C89.7857 30.412 90.8633 30.238 91.9457 30.2612C93.4728 30.177 94.9878 30.5809 96.2698 31.4144C96.7768 31.7721 97.1978 32.2383 97.5018 32.779C97.8058 33.3198 97.9848 33.9216 98.0268 34.5405Z" fill="#FFFDFA"/>
<path d="M111.775 34.5405L107.784 34.6487C107.747 34.3698 107.631 34.1073 107.45 33.8919C107.259 33.6647 107.015 33.4883 106.739 33.3784C106.422 33.2468 106.082 33.1824 105.739 33.1892C105.297 33.1743 104.858 33.2769 104.469 33.4865C104.333 33.5512 104.217 33.6486 104.129 33.7697C104.041 33.8909 103.984 34.0321 103.965 34.1806C103.945 34.3291 103.963 34.4801 104.016 34.62C104.069 34.7599 104.157 34.8843 104.27 34.982C104.621 35.2297 105.025 35.3902 105.45 35.4505L108.054 35.9369C109.158 36.0848 110.202 36.5301 111.072 37.2252C111.407 37.5229 111.673 37.8898 111.852 38.3004C112.031 38.7111 112.118 39.1558 112.108 39.6036C112.118 40.4798 111.825 41.3324 111.279 42.018C110.694 42.7353 109.929 43.2854 109.063 43.6126C108.034 44.007 106.939 44.1997 105.838 44.1802C104.235 44.2797 102.642 43.8766 101.279 43.027C100.749 42.6644 100.304 42.1904 99.9749 41.638C99.6469 41.0856 99.4429 40.4682 99.3779 39.8288L103.622 39.7207C103.659 39.9486 103.743 40.1662 103.869 40.36C103.994 40.5538 104.159 40.7196 104.351 40.8469C104.804 41.1204 105.327 41.2551 105.856 41.2342C106.326 41.2556 106.793 41.1498 107.207 40.9279C107.364 40.8556 107.496 40.7399 107.589 40.5946C107.681 40.4492 107.73 40.2804 107.73 40.1081C107.732 39.9617 107.696 39.8172 107.624 39.6892C107.553 39.5611 107.45 39.454 107.324 39.3784C106.948 39.1481 106.527 38.9978 106.09 38.9369L103.73 38.4955C102.606 38.3528 101.552 37.8757 100.703 37.1261C100.371 36.7923 100.113 36.3933 99.9439 35.9545C99.7749 35.5156 99.6989 35.0464 99.7209 34.5766C99.6909 33.7453 99.9449 32.9286 100.441 32.2613C100.976 31.5799 101.695 31.0669 102.514 30.7838C103.534 30.421 104.611 30.247 105.694 30.2703C107.221 30.186 108.736 30.5899 110.018 31.4234C110.524 31.7801 110.944 32.2449 111.248 32.7841C111.551 33.3232 111.732 33.9232 111.775 34.5405Z" fill="#FFFDFA"/>
<path d="M126.45 38.2072V37.1351C126.468 36.1289 126.303 35.1277 125.964 34.1802C125.677 33.3666 125.216 32.6256 124.612 32.009C124.03 31.4216 123.326 30.9695 122.549 30.6847C121.703 30.3784 120.809 30.2259 119.91 30.2342C118.667 30.2098 117.441 30.5211 116.36 31.1351C115.363 31.7112 114.553 32.5618 114.027 33.5856C113.456 34.7095 113.168 35.9558 113.189 37.2162C113.156 38.5056 113.441 39.7833 114.018 40.9369C114.546 41.9572 115.368 42.7953 116.378 43.3424C117.49 43.9191 118.729 44.2072 119.982 44.1802C121.046 44.2007 122.104 44.0172 123.099 43.6396C123.957 43.3277 124.725 42.8076 125.333 42.1261C125.888 41.4623 126.258 40.6636 126.405 39.8108L122.459 39.7027C122.351 39.9904 122.179 40.2493 121.955 40.4595C121.724 40.6705 121.45 40.8302 121.153 40.9279C120.818 41.0325 120.468 41.0842 120.117 41.0811C119.621 41.093 119.13 40.975 118.694 40.7387C118.307 40.5108 117.994 40.1761 117.793 39.7748C117.567 39.3251 117.456 38.8271 117.468 38.3243V38.2162L126.45 38.2072ZM117.793 34.5315C118.01 34.1581 118.32 33.8476 118.694 33.6306C119.09 33.4296 119.528 33.3248 119.973 33.3248C120.417 33.3248 120.856 33.4296 121.252 33.6306C121.622 33.8279 121.933 34.1202 122.153 34.4775C122.364 34.8481 122.476 35.2671 122.477 35.6937H117.477C117.481 35.2856 117.589 34.8853 117.793 34.5315Z" fill="#FFFDFA"/>
<path d="M136.036 43.7297C135.838 43.7928 135.54 43.8648 135.135 43.9459C134.697 44.0432 134.25 44.1005 133.802 44.1171C132.924 44.183 132.042 44.0601 131.216 43.7567C130.535 43.5095 129.956 43.0438 129.567 42.4324C129.17 41.7408 128.979 40.9498 129.018 40.1531V33.5765H127.216V30.4144H129.018V27.1711H133.315V30.4144H135.757V33.5765H133.315V39.6756C133.306 39.8968 133.353 40.1167 133.45 40.3153C133.528 40.4701 133.659 40.5916 133.82 40.6576C134.01 40.7271 134.212 40.7607 134.414 40.7567C134.589 40.754 134.764 40.739 134.937 40.7117L135.351 40.6216L136.036 43.7297Z" fill="#FFFDFA"/>
<path d="M137.775 25.9099H143.18L147.757 37.0631H147.964L152.531 25.9099H157.937V43.9279H153.73V32.8649H153.576L149.225 43.8108H146.522L142.198 32.8018H142.018V43.9279H137.775V25.9099Z" fill="#FFFDFA"/>
<path d="M197.261 43.7297C197.057 43.7958 196.757 43.8678 196.36 43.9459C195.922 44.0426 195.476 44.0999 195.027 44.1171C194.146 44.1823 193.262 44.0595 192.432 43.7567C191.754 43.5095 191.177 43.0436 190.793 42.4324C190.392 41.7424 190.201 40.9502 190.243 40.1531V33.5765H188.441V30.4144H190.243V27.1711H194.541V30.4144H196.982V33.5765H194.541V39.6756C194.533 39.8957 194.576 40.1145 194.667 40.3153C194.748 40.4707 194.882 40.5921 195.045 40.6576C195.232 40.7264 195.431 40.76 195.631 40.7567C195.806 40.7544 195.98 40.7394 196.153 40.7117L196.577 40.6216L197.261 43.7297Z" fill="#FFFDFA"/>
<path d="M170.342 31.4144C169.766 31.0053 169.123 30.7004 168.441 30.5135C167.667 30.3013 166.866 30.1982 166.063 30.2072C165 30.1818 163.943 30.3718 162.955 30.7658C162.159 31.0895 161.463 31.6178 160.937 32.2973C160.449 32.9416 160.138 33.7026 160.036 34.5045L164 34.6396C164.082 34.2291 164.317 33.8651 164.657 33.6216C165.068 33.3603 165.549 33.2314 166.036 33.2522C166.483 33.2297 166.925 33.3599 167.288 33.6216C167.444 33.7455 167.568 33.9051 167.65 34.087C167.731 34.2689 167.768 34.4677 167.757 34.6667V34.7117C167.761 34.8361 167.735 34.9598 167.68 35.0715C167.625 35.1832 167.543 35.2794 167.441 35.3513C167.125 35.532 166.776 35.6483 166.414 35.6937C165.946 35.7748 165.324 35.8468 164.558 35.9189C163.904 35.9705 163.256 36.0821 162.621 36.2522C162.05 36.4078 161.508 36.6575 161.018 36.991C160.555 37.3135 160.18 37.7472 159.928 38.2522C159.648 38.8427 159.512 39.491 159.531 40.1441C159.5 40.9265 159.7 41.7009 160.108 42.3694C160.493 42.9547 161.041 43.415 161.685 43.6937C162.955 44.1919 164.353 44.2615 165.666 43.8919C166.149 43.7432 166.597 43.498 166.982 43.1712C167.35 42.8454 167.656 42.4545 167.883 42.018H167.991V43.9279H172.036V34.7387C172.049 34.0871 171.9 33.4424 171.603 32.8624C171.306 32.2823 170.869 31.7848 170.333 31.4144H170.342ZM167.775 39.1171C167.784 39.5294 167.668 39.9348 167.441 40.2793C167.213 40.6112 166.903 40.8782 166.54 41.054C166.151 41.2463 165.722 41.3421 165.288 41.3333C164.855 41.3523 164.428 41.2289 164.072 40.982C163.922 40.861 163.803 40.7048 163.728 40.5272C163.652 40.3496 163.622 40.1561 163.639 39.964C163.635 39.6946 163.714 39.4304 163.865 39.2072C164.032 38.9776 164.255 38.7947 164.513 38.6757C164.844 38.5322 165.193 38.4322 165.549 38.3784L166.18 38.2883L166.811 38.1622C167.018 38.1171 167.207 38.0631 167.378 38.009C167.53 37.9636 167.677 37.9064 167.82 37.8378L167.775 39.1171Z" fill="#FFFDFA"/>
<path d="M186.631 32.6487C187.036 33.4746 187.234 34.3868 187.207 35.3063V43.9279H182.901V36.1532C182.947 35.5161 182.743 34.8861 182.333 34.3964C182.13 34.1811 181.881 34.0131 181.606 33.9042C181.33 33.7952 181.034 33.748 180.739 33.7658C180.324 33.7586 179.915 33.8578 179.55 34.0541C179.205 34.2492 178.929 34.5446 178.757 34.9009C178.559 35.3109 178.461 35.7613 178.468 36.2162V43.9279H174.171V30.4144H178.261V32.8919H178.405C178.686 32.0915 179.225 31.407 179.937 30.946C180.718 30.4483 181.633 30.2001 182.559 30.2342C183.428 30.2129 184.286 30.4345 185.036 30.8739C185.723 31.3046 186.276 31.9195 186.631 32.6487Z" fill="#FFFDFA"/>
<path d="M203.297 25.9099H199V43.9279H203.297V25.9099Z" fill="#FFFDFA"/>
<path d="M218.261 38.2072V37.1351C218.279 36.1289 218.114 35.1277 217.775 34.1802C217.488 33.3666 217.027 32.6256 216.423 32.009C215.841 31.4216 215.137 30.9695 214.36 30.6847C213.514 30.3784 212.62 30.2259 211.721 30.2342C210.478 30.2098 209.252 30.5211 208.171 31.1351C207.174 31.7112 206.364 32.5618 205.838 33.5856C205.266 34.7184 204.981 35.9745 205.009 37.2433C204.976 38.5327 205.261 39.8103 205.838 40.964C206.366 41.9843 207.188 42.8223 208.198 43.3694C209.31 43.9461 210.549 44.2342 211.802 44.2072C212.866 44.2277 213.924 44.0442 214.919 43.6667C215.777 43.3457 216.542 42.8163 217.144 42.1261C217.699 41.4623 218.069 40.6636 218.216 39.8108L214.27 39.7027C214.162 39.9904 213.99 40.2493 213.766 40.4595C213.534 40.6705 213.261 40.8302 212.964 40.9279C212.629 41.0325 212.279 41.0842 211.928 41.0811C211.432 41.093 210.941 40.975 210.504 40.7387C210.118 40.5108 209.805 40.1761 209.603 39.7748C209.378 39.3251 209.267 38.8271 209.279 38.3243V38.2162L218.261 38.2072ZM209.585 34.5315C209.802 34.1581 210.113 33.8476 210.486 33.6306C210.883 33.4296 211.321 33.3248 211.766 33.3248C212.21 33.3248 212.648 33.4296 213.045 33.6306C213.415 33.8279 213.726 34.1202 213.946 34.4775C214.157 34.8481 214.269 35.2671 214.27 35.6937H209.27C209.273 35.2856 209.382 34.8853 209.585 34.5315Z" fill="#FFFDFA"/>
<path d="M37.5238 6.66C37.0923 5.979 25.4923 -4.50334 9.68322 3.5581C-6.1258 11.6195 3.78662 23.8748 6.52492 28.8713C8.27132 32.0581 10.2573 35.536 10.685 36.2941C10.6832 36.2946 10.6813 36.295 10.6795 36.2955C10.8018 36.5039 10.7938 36.4869 10.685 36.2941C12.1319 35.9421 14.1397 33.8326 14.9106 34.5082C14.3073 32.4287 13.7091 29.5828 12.337 24.5843C12.0851 22.1114 15.2438 25.5309 15.6776 28.17C22.4082 19.7237 32.962 10.2382 37.5238 6.66Z" fill="url(#paint1_radial_423_3)"/>
<mask id="mask0_423_3" style="mask-type:alpha" maskUnits="userSpaceOnUse" x="0" y="0" width="38" height="37">
<path d="M37.5238 6.66C37.0923 5.979 25.4923 -4.50334 9.68322 3.5581C-6.1258 11.6195 3.78662 23.8748 6.52492 28.8713C8.27132 32.0581 10.2573 35.536 10.685 36.2941C10.6832 36.2946 10.6813 36.295 10.6795 36.2955C10.8018 36.5039 10.7938 36.4869 10.685 36.2941C12.1319 35.9421 14.1397 33.8326 14.9106 34.5082C14.3073 32.4287 13.7091 29.5828 12.337 24.5843C12.0851 22.1114 15.2438 25.5309 15.6776 28.17C22.4082 19.7237 32.962 10.2382 37.5238 6.66Z" fill="url(#paint2_radial_423_3)"/>
</mask>
<g mask="url(#mask0_423_3)">
<g filter="url(#filter0_f_423_3)">
<path d="M9.83542 13.5183C16.305 7.50011 23.2676 11.8472 25.9402 14.773L26.9937 15.2129C24.1435 17.9745 17.8802 24.3635 15.6286 27.8254C15.2269 25.9873 13.6192 24.2699 13.0228 23.8108C12.4265 23.3518 12.035 24.1794 12.567 25.6451C12.9694 26.7808 13.9657 30.9828 14.4135 32.9419L12.8411 32.8525C10.213 28.9537 5.93252 19.6285 9.83542 13.5183Z" fill="url(#paint3_radial_423_3)"/>
</g>
<g filter="url(#filter1_f_423_3)">
<path d="M23.1363 8.2132C19.7286 10.3732 15.12 9.2116 12.8426 5.6189C10.5653 2.0261 11.4816 -2.63749 14.8893 -4.79749C18.297 -6.95748 22.9056 -5.79596 25.1829 -2.20317C27.4603 1.3896 26.5439 6.0532 23.1363 8.2132Z" fill="#FFBCBC"/>
</g>
<g filter="url(#filter2_f_423_3)">
<path d="M21.334 5.37029C19.4155 6.58629 16.8209 5.93239 15.5387 3.90969C14.2566 1.88699 14.7725 -0.738607 16.691 -1.95461C18.6095 -3.17069 21.2041 -2.51677 22.4862 -0.494007C23.7683 1.52869 23.2524 4.15419 21.334 5.37029Z" fill="#FFBDBD"/>
</g>
<g filter="url(#filter3_f_423_3)">
<path d="M27.7694 2.31519C19.7079 -1.15681 9.99393 3.30799 6.14453 5.97439C13.2709 -1.18881 19.9711 0.392694 21.9 0.385894C23.8288 0.378994 31.5375 1.57159 36.5192 3.59879C41.5009 5.62599 39.0425 8.3286 37.3641 8.5701C35.6857 8.8115 21.1728 21.5506 16.3033 26.1748C16.9946 23.6269 22.9159 14.0809 26.2788 11.8419C29.6417 9.60309 34.0926 5.92369 27.7694 2.31519Z" fill="#E24646"/>
</g>
<g filter="url(#filter4_f_423_3)">
<path d="M13.4769 32.1416C13.3084 31.8756 12.8147 27.7268 12.5889 25.6857C13.648 28.4023 15.8019 34.0054 15.9446 34.6839C16.123 35.5318 15.0578 35.1586 14.5911 35.1632C14.1244 35.1677 12.6979 35.0526 12.2706 35.0322C11.9288 35.0159 10.3582 35.3707 9.6156 35.5501C9.521 35.2121 9.3238 34.3663 9.2915 33.6879C9.606 32.7895 12.3593 32.0344 13.4769 32.1416Z" fill="#961F1E"/>
</g>
</g>
<path d="M39.4019 5.6892C43.4074 5.1915 47.5073 11.1335 48.0785 13.7244C48.634 16.1541 46.5064 15.7172 36.684 22.4C25.3261 30.2636 25.4671 34.9051 22.2266 36.5025C18.9861 38.0998 15.1446 30.592 15.3449 28.8678C15.6663 26.1005 19.265 21.4539 24.1328 16.9568C29.0005 12.4598 34.9383 6.1889 39.4019 5.6892Z" fill="#DAE5EF"/>
<g opacity="0.5" filter="url(#filter5_f_423_3)">
<path d="M39.0487 7.3087C42.1045 6.929 45.2325 11.4622 45.6682 13.4388C46.092 15.2925 43.8137 15.5883 36.32 20.6866C27.6548 26.6859 27.7623 30.227 25.2902 31.4456C22.818 32.6643 19.8872 26.9364 20.0399 25.6211C20.2852 23.5098 23.0307 19.9649 26.7444 16.5339C30.4581 13.1031 35.6433 7.6899 39.0487 7.3087Z" fill="url(#paint4_radial_423_3)"/>
</g>
<path d="M9.24145 40.1911C10.7103 42.5083 13.6826 43.2574 15.8804 41.8643C18.0782 40.4712 18.6692 37.4634 17.2004 35.1462C15.7317 32.829 12.7593 32.0799 10.5615 33.473C8.36365 34.8661 7.77265 37.8739 9.24145 40.1911Z" fill="url(#paint5_radial_423_3)"/>
<mask id="mask1_423_3" style="mask-type:alpha" maskUnits="userSpaceOnUse" x="8" y="32" width="11" height="11">
<path d="M9.24145 40.1911C10.7103 42.5083 13.6826 43.2574 15.8804 41.8643C18.0782 40.4712 18.6692 37.4634 17.2004 35.1462C15.7317 32.829 12.7593 32.0799 10.5615 33.473C8.36365 34.8661 7.77265 37.8739 9.24145 40.1911Z" fill="url(#paint6_radial_423_3)"/>
</mask>
<g mask="url(#mask1_423_3)">
<g filter="url(#filter6_f_423_3)">
<path d="M7.30078 36.8467C13.1413 32.3818 18.2805 35.7859 18.4026 40.602C18.5321 38.9922 18.5156 35.3383 17.4139 33.6002C16.0368 31.4277 12.6185 29.9281 7.30078 36.8467Z" fill="#BBCFE3"/>
</g>
</g>
<path d="M22.1609 10.4751C14.7865 15.925 14.0307 22.9494 14.7274 25.7472C12.5646 22.7599 12.3641 23.814 12.307 24.3846C12.0124 23.5024 8.68207 15.8998 12.7508 11.5391C10.5814 16.3198 12.8084 22.7708 13.201 21.7744C13.5936 20.7779 12.7739 15.8847 22.1609 10.4751Z" fill="url(#paint7_linear_423_3)"/>
<path d="M5.60462 17.807C3.76102 12.5016 5.22082 7.45431 6.46142 5.49991C5.14672 6.47601 4.34742 7.26101 3.73302 7.95641C3.36482 9.83051 3.23592 14.3695 5.60462 17.807Z" fill="url(#paint8_linear_423_3)"/>
<path d="M20.2845 2.9415C19.337 2.7883 16.916 2.7842 14.8125 3.9927M23.2472 3.7068C22.6873 3.5267 22.8267 3.5618 22.155 3.4073" stroke="url(#paint9_linear_423_3)" stroke-width="1.4487" stroke-linecap="round"/>
<mask id="mask2_423_3" style="mask-type:alpha" maskUnits="userSpaceOnUse" x="15" y="5" width="34" height="32">
<path d="M39.4019 5.6892C43.4074 5.1915 47.5073 11.1335 48.0785 13.7244C48.634 16.1541 46.5064 15.7172 36.684 22.4C25.3261 30.2636 25.4671 34.9051 22.2266 36.5025C18.9861 38.0998 15.1446 30.592 15.3449 28.8678C15.6663 26.1005 19.265 21.4539 24.1328 16.9568C29.0005 12.4598 34.9383 6.1889 39.4019 5.6892Z" fill="#DAE5EF"/>
</mask>
<g mask="url(#mask2_423_3)">
<g filter="url(#filter7_f_423_3)">
<path d="M24.2235 16.4105C23.8151 16.6694 14.2271 21.1875 14.9157 27.9943C15.6043 34.801 21.9769 38.1558 23.1686 37.8531C24.0989 37.6169 34.3783 28.5565 39.769 23.7285C39.9029 23.6101 40.0336 23.493 40.161 23.3772C40.0335 23.4915 39.9028 23.6087 39.769 23.7285C34.548 28.3417 24.5101 34.6778 21.4789 31.6239C17.5927 27.7086 18.2998 21.6626 24.2235 16.4105Z" fill="#ACC6DF"/>
</g>
<g filter="url(#filter8_f_423_3)">
<path d="M39.3333 17.9999C35.7945 20.243 31.8439 20.3546 30.5093 18.249C29.1746 16.1435 30.9615 12.6183 34.5003 10.3752C38.0391 8.1321 41.9898 8.0205 43.3244 10.126C44.659 12.2316 42.8721 15.7568 39.3333 17.9999Z" fill="url(#paint10_radial_423_3)"/>
</g>
<path d="M37.411 11.358C34.5116 11.8126 23.9792 20.9901 20.6494 27.8828" stroke="url(#paint11_radial_423_3)" stroke-width="4.3461" stroke-linecap="round"/>
</g>
<g filter="url(#filter9_f_423_3)">
<path d="M12.8828 40.4901C12.5404 40.7071 12.0773 40.5904 11.8485 40.2294C11.6196 39.8684 11.7117 39.3998 12.0541 39.1827C12.3965 38.9657 12.8596 39.0824 13.0885 39.4434C13.3173 39.8044 13.2252 40.273 12.8828 40.4901Z" fill="#FFFBFB"/>
</g>
</g>
<defs>
<filter id="filter0_f_423_3" x="2.46985" y="4.70312" width="30.3186" height="34.0336" filterUnits="userSpaceOnUse" color-interpolation-filters="sRGB">
<feFlood flood-opacity="0" result="BackgroundImageFix"/>
<feBlend mode="normal" in="SourceGraphic" in2="BackgroundImageFix" result="shape"/>
<feGaussianBlur stdDeviation="2.8974" result="effect1_foregroundBlur_423_3"/>
</filter>
<filter id="filter1_f_423_3" x="0.00124073" y="-17.4734" width="38.0229" height="38.3624" filterUnits="userSpaceOnUse" color-interpolation-filters="sRGB">
<feFlood flood-opacity="0" result="BackgroundImageFix"/>
<feBlend mode="normal" in="SourceGraphic" in2="BackgroundImageFix" result="shape"/>
<feGaussianBlur stdDeviation="5.79479" result="effect1_foregroundBlur_423_3"/>
</filter>
<filter id="filter2_f_423_3" x="-11.2426" y="-28.6428" width="60.5101" height="60.7012" filterUnits="userSpaceOnUse" color-interpolation-filters="sRGB">
<feFlood flood-opacity="0" result="BackgroundImageFix"/>
<feBlend mode="normal" in="SourceGraphic" in2="BackgroundImageFix" result="shape"/>
<feGaussianBlur stdDeviation="13.0383" result="effect1_foregroundBlur_423_3"/>
</filter>
<filter id="filter3_f_423_3" x="3.24713" y="-2.65536" width="39.1244" height="31.7276" filterUnits="userSpaceOnUse" color-interpolation-filters="sRGB">
<feFlood flood-opacity="0" result="BackgroundImageFix"/>
<feBlend mode="normal" in="SourceGraphic" in2="BackgroundImageFix" result="shape"/>
<feGaussianBlur stdDeviation="1.4487" result="effect1_foregroundBlur_423_3"/>
</filter>
<filter id="filter4_f_423_3" x="3.4967" y="19.8909" width="18.2625" height="21.454" filterUnits="userSpaceOnUse" color-interpolation-filters="sRGB">
<feFlood flood-opacity="0" result="BackgroundImageFix"/>
<feBlend mode="normal" in="SourceGraphic" in2="BackgroundImageFix" result="shape"/>
<feGaussianBlur stdDeviation="2.8974" result="effect1_foregroundBlur_423_3"/>
</filter>
<filter id="filter5_f_423_3" x="18.5855" y="5.83754" width="28.58" height="27.2257" filterUnits="userSpaceOnUse" color-interpolation-filters="sRGB">
<feFlood flood-opacity="0" result="BackgroundImageFix"/>
<feBlend mode="normal" in="SourceGraphic" in2="BackgroundImageFix" result="shape"/>
<feGaussianBlur stdDeviation="0.724349" result="effect1_foregroundBlur_423_3"/>
</filter>
<filter id="filter6_f_423_3" x="4.40338" y="28.8845" width="16.9515" height="14.6149" filterUnits="userSpaceOnUse" color-interpolation-filters="sRGB">
<feFlood flood-opacity="0" result="BackgroundImageFix"/>
<feBlend mode="normal" in="SourceGraphic" in2="BackgroundImageFix" result="shape"/>
<feGaussianBlur stdDeviation="1.4487" result="effect1_foregroundBlur_423_3"/>
</filter>
<filter id="filter7_f_423_3" x="9.08557" y="10.6157" width="36.8704" height="33.051" filterUnits="userSpaceOnUse" color-interpolation-filters="sRGB">
<feFlood flood-opacity="0" result="BackgroundImageFix"/>
<feBlend mode="normal" in="SourceGraphic" in2="BackgroundImageFix" result="shape"/>
<feGaussianBlur stdDeviation="2.8974" result="effect1_foregroundBlur_423_3"/>
</filter>
<filter id="filter8_f_423_3" x="27.1695" y="5.71967" width="19.4945" height="16.9357" filterUnits="userSpaceOnUse" color-interpolation-filters="sRGB">
<feFlood flood-opacity="0" result="BackgroundImageFix"/>
<feBlend mode="normal" in="SourceGraphic" in2="BackgroundImageFix" result="shape"/>
<feGaussianBlur stdDeviation="1.4487" result="effect1_foregroundBlur_423_3"/>
</filter>
<filter id="filter9_f_423_3" x="8.82526" y="36.1762" width="7.2865" height="7.32045" filterUnits="userSpaceOnUse" color-interpolation-filters="sRGB">
<feFlood flood-opacity="0" result="BackgroundImageFix"/>
<feBlend mode="normal" in="SourceGraphic" in2="BackgroundImageFix" result="shape"/>
<feGaussianBlur stdDeviation="1.4487" result="effect1_foregroundBlur_423_3"/>
</filter>
<radialGradient id="paint0_radial_423_3" cx="0" cy="0" r="1" gradientUnits="userSpaceOnUse" gradientTransform="translate(42.9189 34.9189) scale(18.9189)">
<stop offset="0.473958" stop-color="#FFC640"/>
<stop offset="1" stop-color="#F2AF13"/>
</radialGradient>
<radialGradient id="paint1_radial_423_3" cx="0" cy="0" r="1" gradientUnits="userSpaceOnUse" gradientTransform="translate(16.5437 3.8357) rotate(89.0508) scale(23.3213 31.8693)">
<stop stop-color="#FF8484"/>
<stop offset="1" stop-color="#FC4545"/>
</radialGradient>
<radialGradient id="paint2_radial_423_3" cx="0" cy="0" r="1" gradientUnits="userSpaceOnUse" gradientTransform="translate(16.5437 3.8357) rotate(89.0508) scale(23.3213 31.8693)">
<stop stop-color="#FF8484"/>
<stop offset="1" stop-color="#FC4545"/>
</radialGradient>
<radialGradient id="paint3_radial_423_3" cx="0" cy="0" r="1" gradientUnits="userSpaceOnUse" gradientTransform="translate(11.4285 10.6483) rotate(77.3948) scale(16.4763 18.716)">
<stop stop-color="#D03F3E" stop-opacity="0"/>
<stop offset="1" stop-color="#D03F3E"/>
</radialGradient>
<radialGradient id="paint4_radial_423_3" cx="0" cy="0" r="1" gradientUnits="userSpaceOnUse" gradientTransform="translate(38.3572 9.3888) rotate(123.474) scale(22.3479 51.3136)">
<stop stop-color="white"/>
<stop offset="0.877376" stop-color="#DAE5EF" stop-opacity="0"/>
</radialGradient>
<radialGradient id="paint5_radial_423_3" cx="0" cy="0" r="1" gradientUnits="userSpaceOnUse" gradientTransform="translate(11.995 40.037) rotate(5.36342) scale(5.92103 6.00796)">
<stop stop-color="white"/>
<stop offset="1" stop-color="#DAE5EF"/>
</radialGradient>
<radialGradient id="paint6_radial_423_3" cx="0" cy="0" r="1" gradientUnits="userSpaceOnUse" gradientTransform="translate(11.995 40.037) rotate(5.36342) scale(5.92103 6.00796)">
<stop stop-color="white"/>
<stop offset="1" stop-color="#DAE5EF"/>
</radialGradient>
<linearGradient id="paint7_linear_423_3" x1="13.1012" y1="23.7104" x2="22.0212" y2="13.8279" gradientUnits="userSpaceOnUse">
<stop stop-color="#D03F3E"/>
<stop offset="1" stop-color="#D03F3E" stop-opacity="0"/>
</linearGradient>
<linearGradient id="paint8_linear_423_3" x1="6.05162" y1="5.75941" x2="6.67042" y2="18.9349" gradientUnits="userSpaceOnUse">
<stop stop-color="#D03F3E"/>
<stop offset="1" stop-color="#D03F3E" stop-opacity="0"/>
</linearGradient>
<linearGradient id="paint9_linear_423_3" x1="14.2596" y1="4.3432" x2="24.6103" y2="3.7355" gradientUnits="userSpaceOnUse">
<stop stop-color="white"/>
<stop offset="1" stop-color="white" stop-opacity="0"/>
</linearGradient>
<radialGradient id="paint10_radial_423_3" cx="0" cy="0" r="1" gradientUnits="userSpaceOnUse" gradientTransform="translate(37.9224 15.774) rotate(106.859) scale(12.7023 22.7155)">
<stop stop-color="white"/>
<stop offset="1" stop-color="white" stop-opacity="0.22"/>
</radialGradient>
<radialGradient id="paint11_radial_423_3" cx="0" cy="0" r="1" gradientUnits="userSpaceOnUse" gradientTransform="translate(36.4305 10.9307) rotate(127.822) scale(17.2723 120.811)">
<stop stop-color="white"/>
<stop offset="1" stop-color="white" stop-opacity="0"/>
</radialGradient>
<clipPath id="clip0_423_3">
<rect width="219" height="54" fill="white"/>
</clipPath>
</defs>
</svg>
