<svg width="444" height="84" viewBox="0 0 444 84" fill="none" xmlns="http://www.w3.org/2000/svg">
<path d="M72 0H12C5.37258 0 0 5.37258 0 12V72C0 78.6274 5.37258 84 12 84H72C78.6274 84 84 78.6274 84 72V12C84 5.37258 78.6274 0 72 0Z" fill="url(#paint0_radial_62_353)"/>
<path d="M38 22H18C16.4087 22 14.8826 22.6321 13.7574 23.7574C12.6321 24.8826 12 26.4087 12 28V56C12.0023 57.2699 12.4074 58.5064 13.1572 59.5314C13.9069 60.5564 14.9625 61.3171 16.1721 61.704C17.3817 62.0909 18.6828 62.084 19.8882 61.6844C21.0936 61.2847 22.1412 60.5129 22.88 59.48L42.88 31.48C43.5186 30.5831 43.8981 29.5278 43.9769 28.4296C44.0557 27.3315 43.8309 26.2328 43.327 25.2539C42.8231 24.275 42.0595 23.4536 41.12 22.8797C40.1804 22.3057 39.101 22.0014 38 22ZM22 36C21.2089 36 20.4355 35.7654 19.7777 35.3259C19.1199 34.8864 18.6072 34.2616 18.3045 33.5307C18.0017 32.7998 17.9225 31.9956 18.0769 31.2196C18.2312 30.4437 18.6122 29.731 19.1716 29.1716C19.731 28.6122 20.4437 28.2312 21.2196 28.0769C21.9956 27.9225 22.7998 28.0017 23.5307 28.3045C24.2616 28.6072 24.8864 29.1199 25.3259 29.7777C25.7654 30.4355 26 31.2089 26 32C26 33.0609 25.5786 34.0783 24.8284 34.8284C24.0783 35.5786 23.0609 36 22 36Z" fill="#0D0A03"/>
<path d="M53 60C55.7614 60 58 57.7614 58 55C58 52.2386 55.7614 50 53 50C50.2386 50 48 52.2386 48 55C48 57.7614 50.2386 60 53 60Z" fill="#0D0A03"/>
<path d="M71.9999 28V56C72.0022 57.4973 71.4446 58.9413 70.4366 60.0485C69.4286 61.1556 68.0431 61.8459 66.5522 61.9837C65.0613 62.1215 63.5727 61.6969 62.3789 60.7933C61.185 59.8897 60.3721 58.5723 60.0999 57.1C60.036 56.7368 60.0026 56.3688 59.9999 56V51.44C59.9893 50.1735 59.5781 48.9428 58.8253 47.9242C58.0724 46.9057 57.0166 46.1515 55.8089 45.7696C54.6013 45.3878 53.3038 45.3979 52.1022 45.7986C50.9007 46.1992 49.8568 46.9698 49.1199 48L45.9999 52.38L40.9799 59.42C40.0225 60.6374 38.6314 61.4374 37.0976 61.6527C35.5639 61.868 34.0063 61.4818 32.7508 60.575C31.4952 59.6682 30.6389 58.311 30.361 56.7874C30.0832 55.2637 30.4053 53.6916 31.2599 52.4L51.2599 24.4C51.8127 23.6629 52.5278 23.063 53.3498 22.6468C54.1718 22.2306 55.0786 22.0092 55.9999 22H65.9999C67.5912 22 69.1173 22.6321 70.2426 23.7574C71.3678 24.8826 71.9999 26.4087 71.9999 28Z" fill="#FFFDFA"/>
<path d="M122.36 22H109.5L96 62H106.4L109.02 53.6H122.84L125.48 62H135.86L122.36 22ZM111.32 46.24L115.76 32H116L120.46 46.18L111.32 46.24Z" fill="#FFFDFA"/>
<path d="M164.34 41.16L155.56 41.4C155.478 40.781 155.221 40.1982 154.82 39.72C154.395 39.2156 153.852 38.824 153.24 38.58C152.537 38.2879 151.781 38.1449 151.02 38.16C150.038 38.127 149.065 38.3547 148.2 38.82C147.9 38.9636 147.641 39.1798 147.445 39.4488C147.25 39.7179 147.125 40.0313 147.081 40.3609C147.038 40.6905 147.077 41.0258 147.195 41.3364C147.314 41.647 147.508 41.9232 147.76 42.14C148.538 42.6898 149.436 43.0463 150.38 43.18L156.16 44.26C158.611 44.5883 160.927 45.5769 162.86 47.12C163.588 47.7881 164.164 48.6059 164.547 49.5172C164.93 50.4285 165.112 51.4119 165.08 52.4C165.101 54.3451 164.451 56.238 163.24 57.76C161.94 59.3524 160.243 60.5735 158.32 61.3C156.036 62.1755 153.605 62.6033 151.16 62.56C147.602 62.781 144.064 61.886 141.04 60C139.862 59.195 138.874 58.1426 138.145 56.9163C137.416 55.69 136.964 54.3193 136.82 52.9L146.24 52.66C146.323 53.1658 146.51 53.649 146.789 54.0792C147.067 54.5095 147.432 54.8774 147.86 55.16C148.867 55.7604 150.028 56.0524 151.2 56C152.243 56.0475 153.279 55.8125 154.2 55.32C154.547 55.1593 154.841 54.9025 155.046 54.5799C155.252 54.2573 155.361 53.8825 155.36 53.5C155.365 53.1749 155.284 52.8542 155.126 52.5699C154.968 52.2857 154.738 52.0478 154.46 51.88C153.623 51.3687 152.691 51.0351 151.72 50.9L146.48 49.92C143.986 49.6032 141.644 48.5441 139.76 46.88C139.024 46.1389 138.451 45.2532 138.076 44.2789C137.7 43.3046 137.532 42.263 137.58 41.22C137.513 39.3746 138.078 37.5616 139.18 36.08C140.366 34.5673 141.963 33.4285 143.78 32.8C146.044 31.9946 148.437 31.6083 150.84 31.66C154.23 31.473 157.593 32.3696 160.44 34.22C161.565 35.014 162.499 36.049 163.174 37.2495C163.848 38.4501 164.247 39.786 164.34 41.16Z" fill="#FFFDFA"/>
<path d="M194.86 41.16L186 41.4C185.918 40.781 185.661 40.1982 185.26 39.72C184.835 39.2156 184.292 38.824 183.68 38.58C182.977 38.2879 182.221 38.1449 181.46 38.16C180.478 38.127 179.505 38.3547 178.64 38.82C178.34 38.9636 178.081 39.1798 177.885 39.4488C177.69 39.7179 177.565 40.0314 177.521 40.3609C177.478 40.6905 177.517 41.0258 177.635 41.3364C177.754 41.647 177.948 41.9232 178.2 42.14C178.978 42.6898 179.876 43.0463 180.82 43.18L186.6 44.26C189.051 44.5883 191.367 45.5769 193.3 47.12C194.043 47.7808 194.634 48.5952 195.031 49.507C195.428 50.4187 195.622 51.4058 195.6 52.4C195.621 54.3451 194.971 56.238 193.76 57.76C192.46 59.3524 190.763 60.5735 188.84 61.3C186.556 62.1755 184.125 62.6033 181.68 62.56C178.122 62.781 174.584 61.886 171.56 60C170.382 59.195 169.394 58.1426 168.665 56.9163C167.936 55.69 167.484 54.3193 167.34 52.9L176.76 52.66C176.843 53.1658 177.03 53.649 177.309 54.0792C177.587 54.5095 177.952 54.8774 178.38 55.16C179.385 55.7674 180.546 56.0664 181.72 56.02C182.763 56.0675 183.799 55.8326 184.72 55.34C185.067 55.1793 185.361 54.9225 185.566 54.5999C185.772 54.2773 185.881 53.9025 185.88 53.52C185.885 53.1949 185.804 52.8742 185.646 52.5899C185.488 52.3057 185.258 52.0678 184.98 51.9C184.143 51.3887 183.211 51.0551 182.24 50.92L177 49.94C174.506 49.6232 172.164 48.5641 170.28 46.9C169.544 46.1589 168.971 45.2732 168.596 44.2989C168.22 43.3246 168.052 42.283 168.1 41.24C168.033 39.3946 168.598 37.5816 169.7 36.1C170.886 34.5873 172.483 33.4485 174.3 32.82C176.564 32.0146 178.957 31.6283 181.36 31.68C184.75 31.493 188.113 32.3896 190.96 34.24C192.083 35.0319 193.015 36.0637 193.69 37.2606C194.364 38.4575 194.764 39.7895 194.86 41.16Z" fill="#FFFDFA"/>
<path d="M227.44 49.3V46.92C227.479 44.6861 227.113 42.4635 226.36 40.36C225.723 38.5539 224.7 36.9089 223.36 35.54C222.068 34.236 220.504 33.2323 218.78 32.6C216.902 31.9201 214.918 31.5815 212.92 31.6C210.161 31.5458 207.439 32.2368 205.04 33.6C202.827 34.8788 201.029 36.7673 199.86 39.04C198.593 41.5351 197.955 44.3019 198 47.1C197.928 49.9625 198.56 52.7989 199.84 55.36C201.012 57.625 202.838 59.4855 205.08 60.7C207.549 61.9803 210.3 62.6199 213.08 62.56C215.442 62.6055 217.791 62.1982 220 61.36C221.906 60.6674 223.61 59.5129 224.96 58C226.193 56.5263 227.014 54.7531 227.34 52.86L218.58 52.62C218.341 53.2586 217.958 53.8334 217.46 54.3C216.947 54.7685 216.34 55.1229 215.68 55.34C214.936 55.5722 214.16 55.6869 213.38 55.68C212.279 55.7065 211.189 55.4445 210.22 54.92C209.362 54.4139 208.667 53.6709 208.22 52.78C207.72 51.7818 207.473 50.6761 207.5 49.56V49.32L227.44 49.3ZM208.22 41.14C208.702 40.311 209.391 39.6217 210.22 39.14C211.1 38.6937 212.073 38.4611 213.06 38.4611C214.047 38.4611 215.02 38.6937 215.9 39.14C216.722 39.5778 217.412 40.2268 217.9 41.02C218.37 41.8427 218.618 42.7729 218.62 43.72H207.52C207.527 42.8141 207.769 41.9254 208.22 41.14Z" fill="#FFFDFA"/>
<path d="M248.72 61.56C248.28 61.7 247.62 61.86 246.72 62.04C245.747 62.256 244.756 62.3832 243.76 62.42C241.812 62.5663 239.854 62.2935 238.02 61.62C236.509 61.071 235.222 60.0373 234.36 58.68C233.478 57.1447 233.055 55.3886 233.14 53.62V39.02H229.14V32H233.14V24.8H242.68V32H248.1V39.02H242.68V52.56C242.66 53.051 242.763 53.5392 242.98 53.98C243.153 54.3237 243.444 54.5935 243.8 54.74C244.223 54.8943 244.67 54.9689 245.12 54.96C245.509 54.954 245.896 54.9206 246.28 54.86L247.2 54.66L248.72 61.56Z" fill="#FFFDFA"/>
<path d="M252.58 22H264.58L274.74 46.76H275.2L285.34 22H297.34V62H288V37.44H287.66L278 61.74H272L262.4 37.3H262V62H252.58V22Z" fill="#FFFDFA"/>
<path d="M384.64 61.56C384.187 61.7067 383.52 61.8667 382.64 62.04C381.667 62.2546 380.676 62.3818 379.68 62.42C377.725 62.5649 375.762 62.2922 373.92 61.62C372.414 61.0712 371.133 60.0369 370.28 58.68C369.389 57.1481 368.965 55.3895 369.06 53.62V39.02H365.06V32H369.06V24.8H378.6V32H384.02V39.02H378.6V52.56C378.584 53.0485 378.68 53.5343 378.88 53.98C379.061 54.3251 379.359 54.5945 379.72 54.74C380.136 54.8927 380.577 54.9673 381.02 54.96C381.409 54.9549 381.796 54.9215 382.18 54.86L383.12 54.66L384.64 61.56Z" fill="#FFFDFA"/>
<path d="M324.88 34.22C323.601 33.3118 322.173 32.6349 320.66 32.22C318.94 31.749 317.163 31.5201 315.38 31.54C313.02 31.4837 310.673 31.9055 308.48 32.78C306.713 33.4986 305.167 34.6716 304 36.18C302.916 37.6103 302.227 39.2999 302 41.08L310.8 41.38C310.982 40.4686 311.504 39.6606 312.26 39.12C313.172 38.5399 314.24 38.2537 315.32 38.3C316.313 38.2499 317.293 38.5391 318.1 39.12C318.446 39.395 318.722 39.7493 318.903 40.1531C319.084 40.5569 319.165 40.9982 319.14 41.44V41.54C319.151 41.8163 319.092 42.0908 318.97 42.3388C318.848 42.5868 318.666 42.8003 318.44 42.96C317.737 43.361 316.962 43.6193 316.16 43.72C315.12 43.9 313.74 44.06 312.04 44.22C310.587 44.3345 309.147 44.5822 307.74 44.96C306.47 45.3054 305.267 45.8597 304.18 46.6C303.151 47.3159 302.319 48.2787 301.76 49.4C301.139 50.7108 300.837 52.1501 300.88 53.6C300.809 55.3369 301.255 57.0559 302.16 58.54C303.016 59.8395 304.232 60.8612 305.66 61.48C308.48 62.586 311.584 62.7405 314.5 61.92C315.571 61.5899 316.565 61.0455 317.42 60.32C318.238 59.5969 318.916 58.729 319.42 57.76H319.66V62H328.64V41.6C328.668 40.1534 328.338 38.7222 327.678 37.4344C327.019 36.1466 326.05 35.0423 324.86 34.22H324.88ZM319.18 51.32C319.201 52.2352 318.943 53.1353 318.44 53.9C317.933 54.6369 317.244 55.2296 316.44 55.62C315.576 56.0468 314.623 56.2595 313.66 56.24C312.699 56.2821 311.75 56.0082 310.96 55.46C310.626 55.1915 310.364 54.8447 310.196 54.4505C310.029 54.0562 309.961 53.6266 310 53.2C309.991 52.602 310.165 52.0156 310.5 51.52C310.871 51.0104 311.367 50.6042 311.94 50.34C312.675 50.0214 313.448 49.7996 314.24 49.68L315.64 49.48L317.04 49.2C317.5 49.1 317.92 48.98 318.3 48.86C318.636 48.7592 318.964 48.6321 319.28 48.48L319.18 51.32Z" fill="#FFFDFA"/>
<path d="M361.04 36.96C361.939 38.7936 362.378 40.8186 362.32 42.86V62H352.76V44.74C352.862 43.3257 352.41 41.9271 351.5 40.84C351.048 40.3621 350.497 39.9891 349.885 39.7472C349.274 39.5053 348.616 39.4005 347.96 39.44C347.04 39.424 346.131 39.6444 345.32 40.08C344.556 40.5132 343.942 41.169 343.56 41.96C343.122 42.8701 342.903 43.8701 342.92 44.88V62H333.38V32H342.46V37.5H342.78C343.403 35.7231 344.599 34.2036 346.18 33.18C347.915 32.0753 349.945 31.5242 352 31.6C353.93 31.5527 355.834 32.0445 357.5 33.02C359.025 33.9762 360.252 35.3413 361.04 36.96Z" fill="#FFFDFA"/>
<path d="M398.04 22H388.5V62H398.04V22Z" fill="#FFFDFA"/>
<path d="M431.26 49.3V46.92C431.299 44.6861 430.933 42.4635 430.18 40.36C429.543 38.5539 428.519 36.9089 427.18 35.54C425.887 34.236 424.324 33.2323 422.6 32.6C420.722 31.9201 418.737 31.5815 416.74 31.6C413.981 31.5458 411.259 32.2368 408.86 33.6C406.647 34.8788 404.849 36.7673 403.68 39.04C402.41 41.5549 401.778 44.3434 401.84 47.16C401.768 50.0225 402.399 52.8589 403.68 55.42C404.852 57.685 406.678 59.5455 408.92 60.76C411.389 62.0403 414.14 62.6799 416.92 62.62C419.282 62.6655 421.631 62.2582 423.84 61.42C425.745 60.7074 427.443 59.5321 428.78 58C430.013 56.5263 430.834 54.7531 431.16 52.86L422.4 52.62C422.161 53.2586 421.777 53.8334 421.28 54.3C420.767 54.7685 420.16 55.1229 419.5 55.34C418.756 55.5722 417.98 55.6869 417.2 55.68C416.099 55.7065 415.009 55.4445 414.04 54.92C413.181 54.4139 412.487 53.6709 412.04 52.78C411.54 51.7818 411.293 50.6761 411.32 49.56V49.32L431.26 49.3ZM412 41.14C412.482 40.311 413.171 39.6217 414 39.14C414.88 38.6937 415.853 38.4611 416.84 38.4611C417.827 38.4611 418.8 38.6937 419.68 39.14C420.502 39.5778 421.192 40.2268 421.68 41.02C422.149 41.8427 422.397 42.7729 422.4 43.72H411.3C411.307 42.8141 411.548 41.9254 412 41.14Z" fill="#FFFDFA"/>
<defs>
<radialGradient id="paint0_radial_62_353" cx="0" cy="0" r="1" gradientUnits="userSpaceOnUse" gradientTransform="translate(42 42) scale(42)">
<stop offset="0.473958" stop-color="#FFC640"/>
<stop offset="1" stop-color="#F2AF13"/>
</radialGradient>
</defs>
</svg>
