<svg width="1363" height="690" viewBox="0 0 1363 690" fill="none" xmlns="http://www.w3.org/2000/svg">
<g opacity="0.4" filter="url(#filter0_f_637_41)">
<path d="M1354.12 396.339C1353.57 403.744 1348.46 410.723 1339.01 417.212C1329.57 423.696 1315.89 429.634 1298.4 434.971C1263.41 445.644 1213.29 453.884 1151.67 459.357C1028.43 470.303 859.295 470.176 673.474 456.379C487.654 442.581 320.355 417.727 200.088 388.701C139.95 374.187 91.5948 358.635 58.5674 342.912C42.0512 335.049 29.3966 327.156 21.0195 319.349C12.6357 311.536 8.6079 303.878 9.15776 296.473C9.70763 289.068 14.8222 282.089 24.268 275.599C33.7062 269.115 47.3877 263.178 64.8841 257.841C99.8714 247.167 149.993 238.928 211.615 233.455C334.851 222.509 503.986 222.635 689.806 236.433C875.626 250.23 1042.92 275.085 1163.19 304.111C1223.33 318.625 1271.69 334.176 1304.71 349.9C1321.23 357.763 1333.88 365.655 1342.26 373.462C1350.64 381.276 1354.67 388.933 1354.12 396.339Z" stroke="#6FB4B5"/>
</g>
<g filter="url(#filter1_f_637_41)">
<path d="M1317.68 124.732C1320.04 126.931 1321.79 129.362 1322.92 132.028C1322.66 132.131 1322.54 132.418 1322.64 132.674C1322.76 132.975 1322.87 133.28 1322.97 133.588C1323.07 133.896 1323.16 134.206 1323.25 134.519C1323.32 134.784 1323.59 134.941 1323.85 134.873C1324.54 137.685 1324.57 140.682 1323.99 143.854C1323.72 143.801 1323.46 143.975 1323.4 144.244C1323.27 144.873 1323.12 145.508 1322.94 146.152C1322.87 146.417 1323.02 146.691 1323.29 146.766C1322.51 149.406 1321.33 152.157 1319.77 155.012C1319.53 154.878 1319.22 154.964 1319.09 155.205C1318.76 155.785 1318.42 156.37 1318.06 156.96C1317.92 157.195 1317.99 157.502 1318.23 157.645C1316.74 160.052 1314.99 162.528 1312.99 165.071C1312.77 164.9 1312.46 164.936 1312.29 165.151C1311.87 165.67 1311.45 166.191 1311.01 166.716C1310.84 166.928 1310.87 167.243 1311.08 167.419C1309.24 169.62 1307.21 171.87 1305 174.164C1304.8 173.972 1304.49 173.977 1304.3 174.175C1303.85 174.631 1303.41 175.088 1302.95 175.548C1302.76 175.744 1302.76 176.06 1302.95 176.255C1300.89 178.319 1298.69 180.419 1296.35 182.553C1296.17 182.349 1295.85 182.333 1295.65 182.519C1295.17 182.948 1294.69 183.379 1294.21 183.811C1294 183.995 1293.98 184.311 1294.17 184.517C1291.97 186.473 1289.65 188.456 1287.23 190.466C1287.05 190.253 1286.73 190.222 1286.52 190.398C1286.36 190.533 1286.19 190.667 1286.03 190.802C1285.69 191.08 1285.35 191.359 1285.01 191.638C1284.8 191.812 1284.76 192.127 1284.94 192.341C1282.67 194.183 1280.31 196.046 1277.86 197.931C1277.69 197.712 1277.37 197.67 1277.15 197.838C1276.61 198.257 1276.06 198.676 1275.5 199.097C1275.28 199.264 1275.24 199.578 1275.41 199.798C1273.09 201.549 1270.7 203.318 1268.23 205.104C1268.07 204.88 1267.75 204.829 1267.53 204.991C1266.98 205.386 1266.43 205.782 1265.88 206.178C1265.65 206.339 1265.6 206.651 1265.76 206.876C1263.36 208.588 1260.89 210.315 1258.36 212.057C1258.2 211.83 1257.89 211.772 1257.67 211.928C1257.45 212.077 1257.23 212.226 1257.01 212.376C1256.68 212.601 1256.35 212.827 1256.02 213.053C1255.79 213.209 1255.73 213.52 1255.89 213.748C1253.41 215.434 1250.86 217.133 1248.26 218.845C1248.11 218.614 1247.8 218.55 1247.57 218.701C1247.28 218.892 1246.99 219.083 1246.69 219.274C1246.44 219.44 1246.19 219.606 1245.93 219.772C1245.7 219.923 1245.63 220.233 1245.79 220.464C1243.31 222.076 1240.78 223.7 1238.2 225.334C1238.05 225.1 1237.74 225.031 1237.51 225.178C1236.94 225.541 1236.36 225.905 1235.78 226.269C1235.55 226.416 1235.48 226.724 1235.62 226.958C1233.12 228.528 1230.57 230.108 1227.97 231.697C1227.83 231.462 1227.52 231.388 1227.29 231.532C1226.72 231.878 1226.15 232.225 1225.58 232.572C1225.34 232.715 1225.27 233.023 1225.41 233.259C1222.83 234.826 1220.2 236.402 1217.53 237.987C1217.39 237.749 1217.08 237.671 1216.85 237.812C1216.28 238.146 1215.72 238.48 1215.15 238.815C1214.91 238.955 1214.83 239.262 1214.97 239.5C1212.43 240.996 1209.85 242.5 1207.24 244.011C1207.1 243.772 1206.79 243.69 1206.55 243.828C1205.97 244.164 1205.38 244.5 1204.8 244.837C1204.56 244.974 1204.48 245.28 1204.61 245.519C1202.01 247.011 1199.37 248.509 1196.7 250.014C1196.56 249.773 1196.26 249.688 1196.02 249.823C1195.44 250.145 1194.87 250.468 1194.29 250.791C1194.05 250.926 1193.97 251.231 1194.1 251.471C1191.5 252.927 1188.86 254.388 1186.19 255.856C1186.06 255.614 1185.75 255.525 1185.51 255.658C1184.92 255.984 1184.32 256.31 1183.73 256.637C1183.48 256.769 1183.4 257.073 1183.53 257.315C1180.91 258.744 1178.27 260.179 1175.59 261.619C1175.46 261.376 1175.15 261.284 1174.91 261.415C1174.33 261.728 1173.74 262.042 1173.16 262.356C1172.91 262.486 1172.82 262.789 1172.95 263.033C1170.31 264.448 1167.63 265.868 1164.93 267.292C1164.8 267.048 1164.49 266.954 1164.25 267.083C1163.65 267.399 1163.05 267.715 1162.44 268.032C1162.2 268.16 1162.1 268.463 1162.23 268.707C1159.6 270.087 1156.94 271.471 1154.25 272.859C1154.13 272.614 1153.83 272.518 1153.58 272.645C1152.99 272.949 1152.4 273.254 1151.81 273.56C1151.56 273.686 1151.46 273.987 1151.59 274.233C1148.91 275.609 1146.21 276.988 1143.49 278.372C1143.36 278.125 1143.06 278.027 1142.82 278.152C1142.21 278.459 1141.6 278.766 1140.99 279.074C1140.75 279.198 1140.65 279.499 1140.77 279.746C1138.12 281.086 1135.44 282.43 1132.74 283.777C1132.62 283.53 1132.32 283.429 1132.07 283.553C1131.48 283.849 1130.88 284.146 1130.28 284.443C1130.03 284.566 1129.93 284.866 1130.06 285.113C1127.36 286.451 1124.64 287.793 1121.9 289.137C1121.78 288.889 1121.48 288.787 1121.24 288.908C1120.63 289.207 1120.02 289.505 1119.41 289.804C1119.16 289.925 1119.06 290.225 1119.18 290.473C1116.5 291.782 1113.8 293.093 1111.08 294.407C1110.96 294.159 1110.66 294.054 1110.41 294.174C1109.81 294.463 1109.21 294.752 1108.61 295.041C1108.36 295.161 1108.26 295.46 1108.38 295.709C1105.67 297.011 1102.94 298.316 1100.19 299.623C1100.08 299.374 1099.78 299.268 1099.53 299.387C1098.92 299.677 1098.31 299.967 1097.69 300.258C1097.44 300.376 1097.34 300.674 1097.46 300.924C1094.75 302.207 1092.02 303.492 1089.28 304.78C1089.16 304.529 1088.86 304.422 1088.61 304.539L1087.89 304.877L1086.81 305.384C1086.56 305.501 1086.45 305.798 1086.57 306.048C1083.85 307.317 1081.12 308.587 1078.37 309.86C1078.25 309.609 1077.95 309.5 1077.7 309.616C1077.09 309.898 1076.48 310.181 1075.87 310.464C1075.62 310.579 1075.51 310.876 1075.62 311.127C1072.88 312.389 1070.13 313.652 1067.35 314.918C1067.24 314.666 1066.94 314.555 1066.69 314.67C1066.09 314.945 1065.49 315.219 1064.88 315.494C1064.63 315.608 1064.52 315.905 1064.64 316.156C1061.92 317.392 1059.18 318.63 1056.43 319.87C1056.31 319.618 1056.02 319.506 1055.77 319.619C1055.15 319.894 1054.54 320.17 1053.93 320.445C1053.68 320.558 1053.56 320.854 1053.68 321.106C1050.91 322.349 1048.13 323.592 1045.32 324.837C1045.21 324.585 1044.92 324.471 1044.67 324.583C1044.06 324.853 1043.45 325.122 1042.84 325.391C1042.59 325.503 1042.48 325.799 1042.59 326.051C1039.87 327.257 1037.13 328.464 1034.38 329.673C1034.27 329.42 1033.98 329.305 1033.72 329.416L1033.02 329.725L1031.88 330.222C1031.63 330.333 1031.52 330.628 1031.63 330.881C1028.86 332.091 1026.08 333.303 1023.29 334.516C1023.18 334.263 1022.88 334.146 1022.63 334.256C1022.01 334.525 1021.39 334.794 1020.76 335.064C1020.51 335.173 1020.39 335.468 1020.5 335.721C1017.76 336.908 1015 338.096 1012.23 339.285C1012.12 339.031 1011.83 338.914 1011.57 339.022C1010.96 339.285 1010.35 339.547 1009.74 339.809C1009.48 339.918 1009.37 340.211 1009.47 340.465C1006.71 341.646 1003.94 342.828 1001.15 344.011C1001.04 343.756 1000.75 343.638 1000.49 343.745C999.872 344.008 999.251 344.271 998.63 344.533C998.376 344.641 998.257 344.934 998.365 345.188C995.582 346.365 992.787 347.541 989.978 348.719C989.872 348.464 989.579 348.344 989.324 348.451C988.713 348.707 988.101 348.963 987.488 349.219C987.233 349.326 987.113 349.619 987.22 349.873C984.461 351.026 981.691 352.18 978.907 353.334C978.802 353.079 978.509 352.957 978.254 353.063C977.635 353.32 977.016 353.576 976.396 353.832C976.141 353.938 976.02 354.23 976.125 354.485C973.331 355.641 970.524 356.797 967.706 357.952C967.601 357.697 967.309 357.575 967.053 357.679L966.11 358.066L965.174 358.449C964.919 358.554 964.796 358.846 964.901 359.101C962.135 360.232 959.358 361.363 956.57 362.495C956.466 362.239 956.175 362.116 955.919 362.219L955.01 362.588L954.064 362.971C953.808 363.074 953.685 363.366 953.788 363.622C951.001 364.75 948.202 365.878 945.392 367.006C945.289 366.75 944.998 366.626 944.741 366.729C944.117 366.979 943.492 367.23 942.867 367.48C942.611 367.583 942.486 367.874 942.589 368.13C939.783 369.254 936.965 370.378 934.137 371.501C934.036 371.245 933.745 371.119 933.488 371.221L932.952 371.434L931.636 371.956C931.38 372.058 931.254 372.348 931.356 372.605C928.574 373.708 925.782 374.81 922.98 375.912C922.879 375.655 922.589 375.528 922.332 375.629C921.709 375.874 921.086 376.119 920.462 376.364C920.205 376.465 920.078 376.755 920.179 377.012C917.368 378.115 914.546 379.218 911.715 380.32C911.614 380.063 911.325 379.935 911.067 380.035C910.439 380.28 909.809 380.525 909.18 380.769C908.922 380.869 908.795 381.159 908.895 381.416C906.097 382.503 903.291 383.589 900.474 384.674C900.375 384.416 900.086 384.288 899.828 384.387C899.206 384.627 898.584 384.866 897.962 385.105C897.704 385.205 897.576 385.494 897.675 385.752C894.871 386.83 892.058 387.907 889.235 388.984C889.137 388.726 888.848 388.597 888.59 388.695C887.963 388.934 887.335 389.174 886.707 389.413C886.449 389.511 886.32 389.8 886.418 390.058C883.587 391.135 880.748 392.213 877.899 393.289C877.801 393.031 877.513 392.9 877.254 392.998C876.627 393.235 875.999 393.472 875.371 393.709C875.113 393.806 874.982 394.094 875.08 394.353C872.282 395.407 869.476 396.461 866.662 397.514C866.565 397.255 866.277 397.124 866.018 397.221L865.462 397.429L864.14 397.923C863.881 398.019 863.75 398.307 863.847 398.566C861.024 399.62 858.194 400.672 855.355 401.724C855.259 401.465 854.971 401.333 854.712 401.429C854.082 401.663 853.451 401.896 852.819 402.13C852.56 402.225 852.428 402.513 852.524 402.772C849.69 403.819 846.848 404.866 843.999 405.912C843.904 405.653 843.616 405.52 843.357 405.615L842.501 405.928L841.483 406.302C841.223 406.397 841.09 406.684 841.185 406.943C838.37 407.974 835.547 409.003 832.717 410.032C832.622 409.773 832.335 409.639 832.076 409.733C831.447 409.961 830.817 410.19 830.188 410.418C829.928 410.512 829.794 410.799 829.888 411.059C827.051 412.088 824.206 413.116 821.353 414.142C821.259 413.883 820.973 413.748 820.713 413.841C820.08 414.069 819.446 414.297 818.812 414.525C818.552 414.618 818.417 414.905 818.51 415.164C815.677 416.182 812.837 417.198 809.989 418.213C809.897 417.953 809.611 417.818 809.35 417.91L808.36 418.263L807.466 418.581C807.206 418.674 807.07 418.96 807.163 419.22C804.332 420.227 801.495 421.232 798.651 422.237C798.559 421.976 798.274 421.84 798.013 421.931C797.381 422.155 796.749 422.378 796.117 422.6C795.856 422.692 795.719 422.978 795.811 423.238C792.961 424.242 790.104 425.246 787.239 426.247C787.148 425.987 786.863 425.849 786.602 425.94C785.966 426.163 785.33 426.385 784.694 426.607C784.433 426.698 784.295 426.983 784.386 427.244C781.551 428.233 778.71 429.221 775.861 430.208C775.771 429.947 775.486 429.809 775.225 429.899C774.595 430.118 773.964 430.336 773.333 430.554C773.072 430.645 772.933 430.929 773.023 431.19C770.18 432.173 767.331 433.154 764.475 434.134C764.385 433.873 764.101 433.734 763.84 433.824C763.205 434.041 762.571 434.259 761.936 434.476C761.674 434.566 761.535 434.85 761.625 435.111C758.763 436.091 755.896 437.069 753.022 438.046C752.933 437.784 752.649 437.644 752.388 437.733C751.75 437.95 751.111 438.167 750.473 438.383C750.211 438.472 750.071 438.756 750.16 439.018C747.32 439.98 744.475 440.942 741.624 441.902C741.536 441.64 741.252 441.499 740.991 441.587C740.357 441.8 739.724 442.013 739.09 442.226C738.828 442.314 738.687 442.598 738.775 442.859C735.921 443.818 733.061 444.775 730.195 445.731C730.107 445.469 729.824 445.327 729.562 445.415C728.926 445.627 728.289 445.839 727.652 446.051C727.39 446.138 727.248 446.421 727.335 446.683C724.464 447.638 721.588 448.592 718.706 449.543C718.619 449.281 718.336 449.139 718.074 449.225L717.114 449.542L716.154 449.859C715.891 449.945 715.749 450.228 715.835 450.49C712.953 451.44 710.073 452.385 707.198 453.325C707.112 453.063 706.829 452.92 706.567 453.006C705.929 453.214 705.291 453.423 704.653 453.631C704.39 453.716 704.247 453.999 704.333 454.261C701.461 455.198 698.592 456.131 695.727 457.058C695.642 456.796 695.361 456.651 695.098 456.737L694.295 456.996L693.19 457.354C692.927 457.438 692.783 457.72 692.868 457.983C690.005 458.908 687.147 459.828 684.292 460.743C684.207 460.48 683.926 460.336 683.663 460.42C683.021 460.626 682.379 460.831 681.737 461.037C681.474 461.121 681.329 461.402 681.413 461.665C678.522 462.59 675.635 463.51 672.752 464.425C672.669 464.162 672.388 464.016 672.125 464.099C671.485 464.302 670.845 464.505 670.206 464.708C669.943 464.791 669.797 465.072 669.88 465.335C667.002 466.247 664.128 467.153 661.258 468.055C661.175 467.791 660.894 467.645 660.631 467.728C659.994 467.928 659.357 468.128 658.72 468.327C658.456 468.41 658.31 468.691 658.392 468.954C655.516 469.855 652.644 470.752 649.777 471.644C649.695 471.38 649.415 471.232 649.151 471.314C648.507 471.515 647.863 471.714 647.22 471.914C646.956 471.996 646.809 472.276 646.891 472.54C643.993 473.439 641.099 474.332 638.211 475.221C638.13 474.957 637.85 474.809 637.586 474.89C636.945 475.087 636.304 475.284 635.663 475.481C635.399 475.562 635.251 475.842 635.332 476.106C632.449 476.99 629.57 477.87 626.696 478.745C626.616 478.481 626.337 478.332 626.072 478.412C625.434 478.606 624.796 478.8 624.159 478.994C623.894 479.074 623.745 479.353 623.825 479.617C620.933 480.496 618.045 481.369 615.163 482.236C615.083 481.972 614.804 481.822 614.54 481.902L613.493 482.217L612.605 482.483C612.34 482.563 612.19 482.842 612.27 483.106C609.366 483.978 606.468 484.845 603.575 485.706C603.496 485.441 603.218 485.29 602.953 485.369C602.311 485.56 601.669 485.751 601.028 485.942C600.763 486.02 600.612 486.299 600.691 486.563C597.804 487.42 594.922 488.272 592.046 489.119C591.968 488.854 591.691 488.702 591.426 488.78C590.787 488.968 590.148 489.156 589.51 489.343C589.245 489.421 589.094 489.699 589.171 489.964C586.259 490.819 583.352 491.668 580.451 492.512C580.374 492.247 580.096 492.095 579.831 492.172C579.185 492.36 578.539 492.547 577.893 492.735C577.628 492.812 577.475 493.089 577.552 493.354C574.645 494.198 571.743 495.036 568.848 495.868C568.772 495.603 568.495 495.449 568.229 495.526L567.57 495.715C567.147 495.837 566.725 495.958 566.302 496.079C566.037 496.155 565.883 496.432 565.959 496.697C563.071 497.525 560.189 498.348 557.313 499.165C557.237 498.899 556.961 498.745 556.695 498.82L556.064 498.999C555.629 499.123 555.194 499.246 554.759 499.37C554.493 499.445 554.339 499.721 554.414 499.987C551.484 500.817 548.56 501.641 545.644 502.459C545.57 502.193 545.294 502.038 545.028 502.112C544.381 502.293 543.734 502.475 543.088 502.655C542.822 502.73 542.666 503.006 542.741 503.272C539.832 504.085 536.929 504.893 534.034 505.694C533.961 505.428 533.685 505.272 533.419 505.346L532.373 505.635L531.492 505.879C531.226 505.952 531.07 506.228 531.143 506.494C528.234 507.297 525.332 508.094 522.437 508.885C522.364 508.619 522.089 508.462 521.823 508.535C521.171 508.713 520.52 508.89 519.869 509.068C519.603 509.14 519.445 509.415 519.518 509.682C516.586 510.48 513.663 511.273 510.747 512.059C510.675 511.792 510.4 511.634 510.134 511.706C509.487 511.881 508.84 512.055 508.194 512.228C507.927 512.3 507.769 512.574 507.841 512.841C504.933 513.622 502.033 514.398 499.141 515.166C499.07 514.9 498.796 514.741 498.53 514.812L498.093 514.928C497.596 515.06 497.1 515.191 496.604 515.323C496.337 515.394 496.178 515.667 496.249 515.934C493.307 516.714 490.374 517.486 487.45 518.253C487.38 517.986 487.107 517.826 486.84 517.896C486.188 518.066 485.537 518.237 484.886 518.407C484.619 518.477 484.459 518.75 484.529 519.017C481.599 519.782 478.678 520.54 475.766 521.292C475.697 521.025 475.425 520.864 475.157 520.933C474.511 521.1 473.865 521.266 473.219 521.432C472.952 521.501 472.791 521.774 472.86 522.041C469.946 522.791 467.041 523.534 464.145 524.27C464.077 524.002 463.805 523.841 463.537 523.909C462.881 524.075 462.224 524.242 461.569 524.408C461.301 524.476 461.139 524.748 461.207 525.016C458.254 525.763 455.31 526.504 452.377 527.238C452.31 526.97 452.038 526.808 451.771 526.875C451.12 527.037 450.469 527.2 449.82 527.362C449.552 527.428 449.389 527.7 449.456 527.968C446.532 528.696 443.619 529.417 440.716 530.132C440.65 529.864 440.379 529.7 440.111 529.766C439.466 529.924 438.822 530.082 438.178 530.24C437.91 530.306 437.746 530.577 437.812 530.845C434.854 531.57 431.907 532.287 428.97 532.997C428.906 532.729 428.635 532.564 428.367 532.628C427.712 532.787 427.057 532.945 426.402 533.102C426.134 533.167 425.969 533.437 426.033 533.706C423.088 534.415 420.154 535.116 417.231 535.81C417.168 535.541 416.898 535.375 416.63 535.439C415.981 535.593 415.333 535.746 414.685 535.9C414.416 535.963 414.25 536.233 414.314 536.501C411.378 537.195 408.455 537.881 405.543 538.56C405.48 538.291 405.212 538.123 404.943 538.186C404.282 538.34 403.623 538.493 402.964 538.646C402.695 538.708 402.527 538.977 402.59 539.246C399.621 539.934 396.666 540.614 393.723 541.286C393.661 541.017 393.393 540.849 393.124 540.91C392.765 540.992 392.407 541.074 392.049 541.155C391.755 541.222 391.461 541.289 391.167 541.356C390.898 541.417 390.73 541.685 390.791 541.954C387.86 542.62 384.943 543.278 382.038 543.927C381.978 543.658 381.71 543.488 381.441 543.548C381.17 543.609 380.9 543.669 380.629 543.73C380.252 543.814 379.874 543.898 379.497 543.982C379.228 544.042 379.058 544.309 379.118 544.579C376.126 545.244 373.148 545.901 370.185 546.549C370.126 546.279 369.859 546.108 369.589 546.167C368.932 546.311 368.276 546.454 367.62 546.597C367.351 546.655 367.179 546.922 367.238 547.191C364.288 547.833 361.353 548.466 358.432 549.089C358.374 548.819 358.108 548.647 357.838 548.705C357.19 548.843 356.542 548.981 355.895 549.119C355.625 549.176 355.452 549.442 355.51 549.712C352.528 550.345 349.561 550.969 346.61 551.584C346.553 551.313 346.289 551.14 346.018 551.196C345.357 551.334 344.697 551.471 344.037 551.607C343.767 551.663 343.593 551.928 343.649 552.198C340.68 552.813 337.727 553.418 334.791 554.013C334.736 553.743 334.472 553.568 334.201 553.623C333.55 553.755 332.899 553.886 332.249 554.017C331.978 554.072 331.803 554.336 331.857 554.606C328.884 555.205 325.928 555.794 322.989 556.373C322.936 556.102 322.673 555.926 322.402 555.979C321.737 556.11 321.073 556.241 320.409 556.371C320.138 556.424 319.961 556.686 320.015 556.957C317.028 557.541 314.059 558.115 311.109 558.679C311.057 558.408 310.795 558.23 310.524 558.282C309.869 558.407 309.216 558.531 308.563 558.655C308.292 558.706 308.113 558.968 308.165 559.239C305.196 559.802 302.245 560.354 299.314 560.896C299.263 560.624 299.003 560.445 298.731 560.495C298.062 560.618 297.394 560.741 296.728 560.863C296.456 560.913 296.276 561.174 296.326 561.445C293.324 561.995 290.341 562.534 287.38 563.061C287.331 562.789 287.072 562.608 286.8 562.656C286.143 562.773 285.487 562.889 284.832 563.005C284.561 563.053 284.379 563.312 284.427 563.584C281.454 564.109 278.503 564.622 275.572 565.123C275.526 564.851 275.268 564.668 274.995 564.714C274.72 564.761 274.445 564.808 274.17 564.855C273.774 564.922 273.378 564.99 272.983 565.057C272.711 565.103 272.528 565.361 272.574 565.633C269.559 566.143 266.567 566.641 263.599 567.127C263.555 566.854 263.298 566.67 263.025 566.714C262.367 566.822 261.71 566.928 261.054 567.035C260.782 567.079 260.596 567.336 260.64 567.608C257.655 568.091 254.694 568.561 251.757 569.018C251.714 568.745 251.459 568.558 251.186 568.601C250.512 568.705 249.84 568.809 249.169 568.913C248.896 568.955 248.708 569.21 248.751 569.483C245.729 569.947 242.734 570.397 239.766 570.834C239.726 570.561 239.472 570.372 239.199 570.412C238.541 570.508 237.884 570.604 237.229 570.699C236.955 570.739 236.766 570.993 236.806 571.266C233.797 571.702 230.816 572.124 227.863 572.531C227.825 572.258 227.573 572.066 227.3 572.104C226.625 572.197 225.953 572.289 225.282 572.38C225.008 572.417 224.817 572.669 224.854 572.943C221.835 573.352 218.846 573.746 215.888 574.124C215.854 573.85 215.603 573.657 215.329 573.691C214.673 573.775 214.019 573.858 213.366 573.94C213.092 573.975 212.898 574.225 212.932 574.499C209.887 574.881 206.875 575.246 203.897 575.595C203.865 575.32 203.617 575.124 203.343 575.156C202.671 575.234 202.001 575.312 201.332 575.388C201.058 575.42 200.861 575.668 200.893 575.942C197.889 576.285 194.921 576.611 191.989 576.919C191.961 576.645 191.715 576.446 191.44 576.474C190.785 576.543 190.131 576.611 189.479 576.678C189.205 576.706 189.005 576.951 189.033 577.226C185.943 577.541 182.894 577.837 179.887 578.114C179.861 577.839 179.618 577.636 179.343 577.661C178.678 577.722 178.014 577.782 177.353 577.84C177.078 577.865 176.874 578.108 176.899 578.383C173.866 578.65 170.876 578.898 167.931 579.125C167.909 578.849 167.669 578.643 167.394 578.664C166.712 578.716 166.032 578.767 165.354 578.817C165.079 578.838 164.872 579.077 164.892 579.353C161.845 579.575 158.847 579.775 155.898 579.952C155.882 579.676 155.645 579.466 155.37 579.482C154.716 579.521 154.065 579.559 153.416 579.595C153.141 579.611 152.93 579.847 152.945 580.122C149.835 580.295 146.78 580.442 143.783 580.563C143.772 580.287 143.54 580.073 143.264 580.083C142.597 580.11 141.932 580.135 141.271 580.159C140.995 580.169 140.779 580.4 140.789 580.676C137.716 580.784 134.705 580.863 131.758 580.914C131.753 580.638 131.525 580.418 131.249 580.423C130.568 580.434 129.889 580.444 129.215 580.452C128.938 580.455 128.717 580.681 128.721 580.957C125.674 580.991 122.698 580.993 119.794 580.963C119.797 580.687 119.576 580.461 119.3 580.458C118.604 580.45 117.911 580.44 117.223 580.429C116.947 580.424 116.72 580.644 116.715 580.92C113.624 580.864 110.617 580.771 107.697 580.64C107.71 580.365 107.497 580.131 107.221 580.118C106.566 580.088 105.915 580.056 105.268 580.022C104.992 580.007 104.757 580.219 104.742 580.494C101.596 580.323 98.5555 580.106 95.6228 579.844C95.6477 579.569 95.4453 579.326 95.1704 579.301C94.5238 579.242 93.8824 579.181 93.2465 579.117C92.9719 579.09 92.727 579.29 92.6992 579.564C89.5483 579.242 86.5293 578.864 83.6455 578.43C83.687 578.157 83.4998 577.902 83.2271 577.86C82.5878 577.762 81.9554 577.661 81.3298 577.557C81.0576 577.512 80.8004 577.696 80.7549 577.968C77.6157 577.437 74.6489 576.836 71.8587 576.162C71.924 575.894 71.7602 575.624 71.4924 575.558C70.831 575.395 70.1798 575.229 69.5389 575.058C69.2725 574.987 68.999 575.145 68.9273 575.411C65.8024 574.56 62.9231 573.61 60.2965 572.561C60.3997 572.306 60.2772 572.015 60.0222 571.91C59.3838 571.65 58.7611 571.383 58.1542 571.11C57.9031 570.997 57.608 571.108 57.4941 571.358C54.536 569.996 51.9535 568.485 49.7594 566.824C49.9267 566.607 49.8876 566.295 49.6712 566.126C49.1454 565.714 48.6439 565.294 48.1668 564.866C47.9625 564.682 47.6487 564.698 47.4638 564.9C45.1046 562.701 43.3504 560.27 42.2257 557.604C42.4787 557.501 42.603 557.214 42.5033 556.959C42.3855 556.657 42.2757 556.352 42.1742 556.044C42.0726 555.736 41.9794 555.426 41.8946 555.113C41.8229 554.849 41.5521 554.692 41.2876 554.76C40.6052 551.947 40.5689 548.95 41.1568 545.779C41.4258 545.831 41.6874 545.657 41.7424 545.388C41.8709 544.76 42.0241 544.124 42.2021 543.481C42.2754 543.216 42.1211 542.942 41.8573 542.867C42.6329 540.226 43.8098 537.476 45.3766 534.62C45.6172 534.754 45.9206 534.668 46.0553 534.428C46.3806 533.847 46.7223 533.262 47.0801 532.673C47.223 532.437 47.1485 532.131 46.9138 531.987C48.4004 529.58 50.1497 527.104 52.1553 524.561C52.3712 524.733 52.6851 524.697 52.8569 524.481C53.2703 523.962 53.6944 523.441 54.1292 522.917C54.3052 522.704 54.276 522.39 54.0643 522.213C55.9063 520.012 57.9329 517.763 60.1402 515.469C60.3386 515.66 60.6548 515.655 60.8467 515.457C61.2878 515.001 61.7361 514.544 62.1915 514.085C62.3857 513.889 62.3846 513.573 62.1891 513.378C64.2487 511.314 66.4503 509.214 68.791 507.08C68.9767 507.284 69.2926 507.299 69.4969 507.114C69.9702 506.684 70.4491 506.253 70.9337 505.821C71.1396 505.637 71.1577 505.321 70.9743 505.115C73.1756 503.16 75.4907 501.177 77.9176 499.167C78.0934 499.38 78.4083 499.41 78.6212 499.234C79.1206 498.822 79.6246 498.409 80.1333 497.995C80.3473 497.82 80.3796 497.506 80.2056 497.292C82.4748 495.45 84.836 493.586 87.2874 491.702C87.4554 491.921 87.7691 491.962 87.9882 491.794C88.5343 491.375 89.0848 490.956 89.6398 490.535C89.8598 490.368 89.903 490.055 89.7365 489.835C92.0532 488.084 94.4463 486.315 96.9146 484.529C97.0762 484.753 97.3886 484.803 97.6124 484.642C98.1597 484.247 98.7106 483.851 99.2652 483.454C99.4897 483.294 99.5416 482.981 99.3812 482.757C101.781 481.044 104.248 479.317 106.782 477.575C106.938 477.803 107.25 477.861 107.477 477.704C108.023 477.33 108.572 476.955 109.124 476.579C109.352 476.424 109.411 476.113 109.256 475.884C111.737 474.199 114.279 472.5 116.882 470.788C117.034 471.018 117.344 471.083 117.575 470.931C118.118 470.575 118.663 470.217 119.212 469.86C119.443 469.709 119.508 469.399 119.357 469.168C121.833 467.556 124.362 465.933 126.942 464.299C127.09 464.532 127.399 464.602 127.632 464.454C128.207 464.091 128.783 463.728 129.363 463.363C129.597 463.217 129.667 462.908 129.52 462.674C132.023 461.104 134.573 459.524 137.17 457.935C137.314 458.171 137.622 458.245 137.857 458.101C138.424 457.754 138.993 457.408 139.564 457.061C139.8 456.917 139.875 456.61 139.732 456.374C142.313 454.806 144.94 453.23 147.611 451.645C147.752 451.883 148.059 451.961 148.296 451.821C148.86 451.487 149.426 451.152 149.993 450.817C150.231 450.677 150.31 450.371 150.17 450.133C152.71 448.636 155.29 447.132 157.908 445.621C158.045 445.861 158.351 445.943 158.59 445.805C159.173 445.469 159.758 445.132 160.344 444.796C160.584 444.658 160.666 444.353 160.529 444.113C163.13 442.622 165.768 441.123 168.443 439.619C168.578 439.859 168.883 439.945 169.124 439.809C169.698 439.487 170.273 439.164 170.85 438.841C171.091 438.706 171.177 438.402 171.042 438.161C173.645 436.705 176.281 435.244 178.951 433.777C179.084 434.019 179.388 434.107 179.63 433.974C180.224 433.648 180.819 433.322 181.416 432.996C181.658 432.863 181.747 432.559 181.614 432.317C184.23 430.888 186.877 429.453 189.555 428.013C189.686 428.257 189.989 428.348 190.232 428.217C190.815 427.904 191.4 427.59 191.987 427.276C192.23 427.146 192.322 426.843 192.192 426.599C194.837 425.185 197.512 423.765 200.217 422.34C200.345 422.584 200.648 422.678 200.892 422.55C201.493 422.233 202.095 421.917 202.699 421.6C202.944 421.472 203.038 421.17 202.91 420.925C205.542 419.545 208.202 418.161 210.889 416.773C211.015 417.018 211.317 417.115 211.562 416.988C212.153 416.683 212.744 416.378 213.337 416.073C213.583 415.946 213.679 415.645 213.553 415.399C216.228 414.024 218.929 412.644 221.655 411.261C221.78 411.507 222.081 411.605 222.327 411.48C222.933 411.173 223.54 410.866 224.148 410.559C224.395 410.434 224.494 410.133 224.369 409.887C227.023 408.546 229.7 407.202 232.401 405.855C232.525 406.102 232.825 406.203 233.072 406.08C233.667 405.783 234.263 405.486 234.861 405.189C235.108 405.066 235.209 404.766 235.086 404.519C237.78 403.181 240.498 401.84 243.238 400.495C243.36 400.743 243.659 400.846 243.907 400.724C244.516 400.426 245.126 400.127 245.737 399.828C245.985 399.707 246.088 399.408 245.966 399.159C248.645 397.851 251.345 396.539 254.066 395.225C254.186 395.474 254.485 395.578 254.734 395.458C255.332 395.169 255.931 394.88 256.532 394.591C256.781 394.471 256.885 394.172 256.766 393.924C259.472 392.621 262.2 391.316 264.948 390.009C265.067 390.258 265.365 390.364 265.614 390.246C266.225 389.956 266.836 389.665 267.449 389.375C267.699 389.256 267.805 388.958 267.687 388.709C270.393 387.426 273.12 386.14 275.866 384.853C275.983 385.103 276.28 385.211 276.53 385.093C277.131 384.812 277.732 384.53 278.335 384.249C278.585 384.132 278.693 383.834 278.576 383.584C281.291 382.316 284.024 381.045 286.776 379.773C286.892 380.023 287.189 380.133 287.439 380.017C288.051 379.734 288.663 379.451 289.277 379.169C289.527 379.053 289.637 378.756 289.521 378.505C292.259 377.244 295.015 375.98 297.788 374.715C297.903 374.966 298.2 375.077 298.451 374.962C299.053 374.688 299.656 374.413 300.259 374.139C300.511 374.024 300.622 373.728 300.507 373.476C303.226 372.24 305.962 371.002 308.715 369.763C308.828 370.014 309.124 370.127 309.376 370.013C309.988 369.738 310.601 369.463 311.214 369.187C311.466 369.074 311.579 368.778 311.465 368.526C314.233 367.284 317.017 366.04 319.818 364.795C319.93 365.047 320.225 365.161 320.478 365.049C321.084 364.78 321.69 364.51 322.298 364.241C322.55 364.129 322.664 363.834 322.552 363.581C325.274 362.375 328.01 361.168 330.761 359.959C330.872 360.212 331.167 360.327 331.42 360.216C332.032 359.948 332.645 359.679 333.258 359.41C333.511 359.3 333.626 359.005 333.515 358.752C336.281 357.541 339.061 356.329 341.856 355.116C341.966 355.37 342.26 355.486 342.514 355.376C343.134 355.107 343.756 354.838 344.378 354.569C344.631 354.459 344.748 354.164 344.638 353.911C347.382 352.724 350.14 351.536 352.912 350.347C353.021 350.601 353.315 350.719 353.569 350.61C354.181 350.348 354.793 350.086 355.406 349.823C355.66 349.715 355.778 349.421 355.669 349.167C358.431 347.986 361.207 346.804 363.996 345.622C364.103 345.876 364.397 345.995 364.651 345.887C365.271 345.624 365.891 345.362 366.512 345.099C366.767 344.992 366.886 344.698 366.778 344.444C369.56 343.268 372.356 342.091 375.164 340.914C375.271 341.168 375.564 341.288 375.819 341.182C376.43 340.925 377.042 340.669 377.655 340.413C377.909 340.307 378.029 340.014 377.923 339.759C380.681 338.606 383.452 337.452 386.235 336.299C386.341 336.554 386.633 336.675 386.889 336.569C387.507 336.313 388.126 336.056 388.746 335.8C389.001 335.694 389.123 335.402 389.017 335.147C391.812 333.991 394.618 332.836 397.437 331.68C397.542 331.935 397.834 332.058 398.089 331.953C398.715 331.696 399.341 331.44 399.968 331.183C400.224 331.079 400.346 330.787 400.242 330.531C403.007 329.4 405.784 328.269 408.573 327.138C408.676 327.393 408.968 327.517 409.224 327.413C409.842 327.162 410.46 326.912 411.079 326.661C411.335 326.558 411.458 326.266 411.354 326.01C414.142 324.882 416.941 323.754 419.751 322.626C419.854 322.882 420.145 323.007 420.401 322.904C421.025 322.653 421.65 322.403 422.276 322.152C422.532 322.049 422.656 321.758 422.554 321.502C425.36 320.378 428.177 319.255 431.005 318.131C431.107 318.388 431.398 318.513 431.654 318.411C432.271 318.166 432.888 317.921 433.506 317.676C433.763 317.574 433.889 317.284 433.787 317.027C436.568 315.925 439.36 314.823 442.163 313.72C442.264 313.977 442.554 314.104 442.811 314.003C443.434 313.758 444.057 313.513 444.681 313.268C444.938 313.167 445.064 312.877 444.964 312.62C447.775 311.517 450.597 310.415 453.428 309.312C453.528 309.57 453.818 309.697 454.075 309.597C454.704 309.352 455.333 309.108 455.963 308.863C456.22 308.763 456.348 308.473 456.248 308.216C459.045 307.13 461.852 306.044 464.668 304.958C464.768 305.216 465.057 305.344 465.315 305.245C465.936 305.006 466.558 304.766 467.181 304.527C467.439 304.428 467.567 304.138 467.468 303.881C470.272 302.803 473.085 301.725 475.907 300.648C476.006 300.906 476.295 301.036 476.553 300.937C477.18 300.698 477.807 300.459 478.435 300.22C478.693 300.121 478.823 299.832 478.725 299.574C481.555 298.497 484.395 297.42 487.244 296.343C487.341 296.602 487.63 296.732 487.888 296.634C488.516 296.398 489.143 296.161 489.772 295.924C490.03 295.826 490.161 295.538 490.063 295.279C492.86 294.225 495.666 293.171 498.481 292.118C498.578 292.377 498.866 292.508 499.124 292.411C499.75 292.177 500.376 291.943 501.003 291.709C501.261 291.613 501.393 291.325 501.296 291.066C504.118 290.013 506.949 288.96 509.788 287.908C509.884 288.167 510.171 288.299 510.43 288.203C511.061 287.97 511.692 287.736 512.323 287.503C512.582 287.407 512.714 287.119 512.619 286.86C515.452 285.813 518.294 284.766 521.144 283.72C521.239 283.98 521.526 284.113 521.786 284.018C522.41 283.789 523.035 283.56 523.66 283.331C523.919 283.236 524.053 282.949 523.958 282.689C526.773 281.659 529.596 280.629 532.426 279.6C532.52 279.86 532.807 279.994 533.067 279.899C533.696 279.671 534.325 279.442 534.955 279.214C535.215 279.12 535.349 278.833 535.255 278.574C538.092 277.545 540.937 276.517 543.79 275.49C543.883 275.75 544.17 275.885 544.429 275.791C545.063 275.563 545.697 275.335 546.331 275.107C546.591 275.014 546.726 274.728 546.633 274.468C549.466 273.451 552.306 272.434 555.153 271.419C555.246 271.679 555.532 271.815 555.792 271.722C556.42 271.498 557.048 271.275 557.677 271.051C557.937 270.958 558.073 270.673 557.98 270.412C560.81 269.406 563.647 268.4 566.491 267.396C566.583 267.656 566.869 267.793 567.129 267.701C567.761 267.478 568.393 267.255 569.026 267.032C569.287 266.94 569.423 266.655 569.331 266.394C572.182 265.39 575.039 264.387 577.903 263.385C577.994 263.646 578.28 263.783 578.54 263.692C579.176 263.47 579.812 263.247 580.449 263.025C580.71 262.934 580.847 262.649 580.756 262.388C583.591 261.399 586.433 260.411 589.281 259.424C589.371 259.685 589.656 259.823 589.917 259.733C590.548 259.515 591.179 259.296 591.81 259.078C592.071 258.988 592.21 258.703 592.119 258.442C594.962 257.459 597.812 256.478 600.668 255.498C600.757 255.759 601.042 255.898 601.303 255.809C601.937 255.591 602.572 255.374 603.207 255.156C603.468 255.067 603.607 254.782 603.518 254.521C606.379 253.541 609.247 252.563 612.121 251.586C612.21 251.848 612.494 251.988 612.755 251.899C613.393 251.682 614.031 251.466 614.67 251.249C614.932 251.16 615.072 250.876 614.983 250.615C617.822 249.652 620.668 248.691 623.519 247.731C623.607 247.993 623.89 248.133 624.152 248.045C624.785 247.832 625.419 247.619 626.053 247.406C626.314 247.318 626.455 247.035 626.367 246.773C629.222 245.814 632.082 244.857 634.948 243.901C635.035 244.163 635.318 244.305 635.58 244.218C636.217 244.006 636.854 243.793 637.491 243.581C637.753 243.494 637.895 243.211 637.807 242.949C640.678 241.994 643.555 241.041 646.437 240.089C646.524 240.351 646.806 240.494 647.069 240.407L648.029 240.09L648.989 239.774C649.251 239.687 649.394 239.404 649.307 239.142C652.19 238.193 655.069 237.247 657.945 236.307C658.031 236.569 658.313 236.713 658.576 236.627C659.214 236.418 659.852 236.21 660.49 236.002C660.752 235.916 660.896 235.634 660.81 235.371C663.682 234.434 666.55 233.502 669.415 232.574C669.5 232.837 669.782 232.981 670.045 232.896C670.681 232.69 671.317 232.484 671.953 232.279C672.215 232.194 672.359 231.912 672.275 231.649C675.137 230.724 677.996 229.804 680.851 228.889C680.935 229.152 681.217 229.297 681.48 229.212C682.122 229.007 682.764 228.801 683.406 228.596C683.669 228.511 683.814 228.23 683.73 227.967C686.621 227.042 689.508 226.123 692.39 225.207C692.474 225.471 692.755 225.616 693.018 225.533C693.658 225.33 694.297 225.127 694.937 224.925C695.2 224.841 695.346 224.56 695.263 224.297C698.141 223.386 701.015 222.479 703.885 221.577C703.968 221.841 704.248 221.987 704.512 221.905C705.149 221.704 705.786 221.505 706.423 221.305C706.686 221.222 706.833 220.942 706.75 220.678C709.627 219.777 712.498 218.88 715.366 217.989C715.448 218.253 715.728 218.4 715.992 218.318C716.636 218.118 717.279 217.918 717.923 217.718C718.186 217.636 718.334 217.356 718.252 217.093C721.15 216.194 724.043 215.3 726.932 214.411C727.013 214.675 727.293 214.823 727.557 214.742C728.198 214.545 728.839 214.348 729.479 214.151C729.743 214.07 729.892 213.791 729.811 213.527C732.694 212.642 735.573 211.762 738.446 210.888C738.527 211.152 738.806 211.301 739.07 211.22C739.708 211.026 740.346 210.832 740.984 210.639C741.248 210.558 741.397 210.279 741.317 210.015C744.21 209.137 747.097 208.264 749.98 207.396C750.059 207.66 750.338 207.81 750.603 207.731C751.248 207.536 751.893 207.343 752.538 207.149C752.802 207.069 752.952 206.791 752.873 206.526C755.777 205.654 758.675 204.788 761.568 203.927C761.646 204.191 761.925 204.342 762.19 204.263C762.832 204.072 763.473 203.881 764.115 203.691C764.38 203.612 764.53 203.334 764.452 203.069C767.339 202.212 770.221 201.36 773.096 200.514C773.174 200.778 773.452 200.93 773.717 200.852C774.356 200.664 774.994 200.476 775.632 200.289C775.897 200.211 776.049 199.933 775.971 199.668C778.884 198.814 781.791 197.964 784.692 197.12C784.769 197.385 785.046 197.538 785.311 197.461C785.958 197.273 786.604 197.085 787.25 196.897C787.515 196.82 787.667 196.543 787.59 196.278C790.498 195.434 793.399 194.596 796.295 193.764C796.371 194.029 796.648 194.183 796.913 194.107C797.556 193.922 798.198 193.737 798.84 193.553C799.106 193.477 799.259 193.2 799.183 192.935C802.072 192.107 804.954 191.284 807.83 190.468C807.905 190.733 808.182 190.887 808.447 190.812C809.093 190.629 809.739 190.446 810.384 190.263C810.65 190.187 810.804 189.911 810.729 189.645C813.659 188.816 816.582 187.992 819.499 187.174C819.573 187.44 819.849 187.595 820.115 187.52C820.762 187.339 821.409 187.158 822.055 186.977C822.321 186.902 822.476 186.627 822.402 186.361C825.311 185.547 828.213 184.74 831.108 183.938C831.182 184.204 831.457 184.36 831.723 184.286C832.366 184.108 833.009 183.931 833.651 183.754C833.917 183.68 834.073 183.405 834 183.138C836.909 182.335 839.811 181.538 842.706 180.747C842.778 181.013 843.053 181.17 843.32 181.098C843.971 180.92 844.623 180.742 845.274 180.564C845.54 180.492 845.697 180.217 845.624 179.951C848.556 179.152 851.48 178.36 854.396 177.573C854.468 177.84 854.742 177.998 855.009 177.926C855.656 177.752 856.303 177.578 856.949 177.404C857.216 177.332 857.374 177.058 857.302 176.791C860.21 176.01 863.11 175.235 866.001 174.466C866.072 174.733 866.346 174.892 866.613 174.821C867.255 174.65 867.897 174.48 868.539 174.31C868.806 174.239 868.965 173.965 868.894 173.698C871.835 172.919 874.768 172.146 877.692 171.38C877.762 171.647 878.036 171.806 878.303 171.737C878.954 171.566 879.606 171.395 880.256 171.225C880.524 171.156 880.684 170.882 880.614 170.615C883.544 169.85 886.464 169.092 889.376 168.34C889.445 168.607 889.718 168.768 889.985 168.699C890.632 168.532 891.278 168.366 891.923 168.2C892.191 168.131 892.352 167.858 892.283 167.591C895.197 166.841 898.102 166.098 900.998 165.362C901.066 165.63 901.338 165.792 901.605 165.724C902.262 165.557 902.918 165.39 903.574 165.224C903.842 165.156 904.004 164.884 903.936 164.617C906.889 163.869 909.832 163.128 912.766 162.394C912.833 162.662 913.104 162.825 913.372 162.758C914.023 162.595 914.673 162.433 915.323 162.271C915.591 162.204 915.754 161.933 915.687 161.665C918.611 160.936 921.524 160.215 924.427 159.501C924.493 159.769 924.764 159.933 925.032 159.867C925.677 159.708 926.321 159.55 926.965 159.392C927.233 159.326 927.397 159.056 927.331 158.787C930.289 158.063 933.236 157.345 936.172 156.635C936.237 156.904 936.507 157.069 936.776 157.004C937.431 156.846 938.086 156.688 938.74 156.53C939.009 156.465 939.174 156.195 939.109 155.927C942.054 155.218 944.989 154.516 947.911 153.822C947.975 154.091 948.244 154.257 948.513 154.193C949.162 154.039 949.81 153.886 950.458 153.733C950.726 153.669 950.893 153.4 950.829 153.131C953.764 152.437 956.688 151.751 959.6 151.073C959.662 151.342 959.931 151.509 960.2 151.446C960.86 151.293 961.52 151.139 962.179 150.986C962.448 150.924 962.616 150.655 962.553 150.386C965.521 149.698 968.477 149.018 971.42 148.346C971.481 148.615 971.749 148.784 972.018 148.722C972.671 148.573 973.324 148.425 973.975 148.277C974.244 148.215 974.413 147.947 974.352 147.678C977.282 147.012 980.2 146.355 983.105 145.705C983.165 145.975 983.432 146.144 983.702 146.084L984.617 145.88L985.646 145.65C985.915 145.59 986.085 145.323 986.025 145.054C989.017 144.388 991.994 143.731 994.958 143.083C995.017 143.353 995.283 143.524 995.553 143.465C996.21 143.322 996.867 143.178 997.522 143.036C997.792 142.977 997.963 142.711 997.905 142.441C1000.85 141.799 1003.79 141.167 1006.71 140.543C1006.77 140.813 1007.03 140.985 1007.3 140.927C1007.95 140.789 1008.6 140.651 1009.25 140.514C1009.52 140.456 1009.69 140.191 1009.63 139.921C1012.61 139.287 1015.58 138.663 1018.53 138.049C1018.59 138.319 1018.85 138.493 1019.12 138.436C1019.79 138.299 1020.45 138.162 1021.11 138.025C1021.38 137.969 1021.55 137.704 1021.49 137.434C1024.46 136.819 1027.42 136.214 1030.35 135.619C1030.41 135.89 1030.67 136.064 1030.94 136.01C1031.59 135.878 1032.24 135.746 1032.89 135.615C1033.16 135.56 1033.34 135.297 1033.29 135.026C1036.26 134.427 1039.21 133.838 1042.15 133.259C1042.21 133.53 1042.47 133.706 1042.74 133.653C1043.41 133.522 1044.07 133.392 1044.73 133.262C1045 133.209 1045.18 132.946 1045.13 132.675C1048.11 132.091 1051.08 131.517 1054.03 130.953C1054.09 131.224 1054.35 131.402 1054.62 131.351C1055.27 131.226 1055.93 131.101 1056.58 130.978C1056.85 130.926 1057.03 130.664 1056.98 130.393C1059.95 129.83 1062.9 129.278 1065.83 128.737C1065.88 129.008 1066.14 129.188 1066.41 129.138C1067.08 129.014 1067.75 128.891 1068.42 128.769C1068.69 128.719 1068.87 128.459 1068.82 128.187C1071.82 127.637 1074.8 127.099 1077.76 126.571C1077.81 126.843 1078.07 127.024 1078.34 126.976C1079 126.859 1079.66 126.743 1080.31 126.627C1080.58 126.579 1080.76 126.32 1080.72 126.048C1083.69 125.524 1086.64 125.011 1089.57 124.509C1089.62 124.782 1089.88 124.965 1090.15 124.918C1090.82 124.803 1091.49 124.689 1092.16 124.576C1092.43 124.53 1092.61 124.271 1092.57 123.999C1095.58 123.489 1098.58 122.991 1101.54 122.505C1101.59 122.778 1101.85 122.963 1102.12 122.918C1102.78 122.811 1103.43 122.704 1104.09 122.598C1104.36 122.554 1104.55 122.297 1104.5 122.024C1107.49 121.542 1110.45 121.072 1113.39 120.614C1113.43 120.887 1113.68 121.074 1113.96 121.032L1114.99 120.872L1115.97 120.72C1116.25 120.678 1116.43 120.422 1116.39 120.15C1119.41 119.686 1122.41 119.235 1125.38 118.798C1125.42 119.072 1125.67 119.261 1125.94 119.221C1126.6 119.124 1127.26 119.028 1127.91 118.933C1128.19 118.893 1128.38 118.64 1128.34 118.366C1131.35 117.93 1134.33 117.509 1137.28 117.101C1137.32 117.375 1137.57 117.566 1137.84 117.528C1138.52 117.436 1139.19 117.344 1139.86 117.253C1140.13 117.215 1140.33 116.963 1140.29 116.69C1143.31 116.281 1146.3 115.887 1149.25 115.508C1149.29 115.782 1149.54 115.976 1149.81 115.941C1150.47 115.857 1151.12 115.774 1151.78 115.692C1152.05 115.658 1152.24 115.408 1152.21 115.134C1155.26 114.752 1158.27 114.386 1161.25 114.038C1161.28 114.312 1161.53 114.508 1161.8 114.476C1162.47 114.398 1163.14 114.32 1163.81 114.244C1164.08 114.212 1164.28 113.964 1164.25 113.69C1167.25 113.347 1170.22 113.021 1173.15 112.713C1173.18 112.987 1173.43 113.187 1173.7 113.158C1174.36 113.089 1175.01 113.022 1175.66 112.955C1175.94 112.926 1176.14 112.681 1176.11 112.406C1179.2 112.091 1182.25 111.795 1185.26 111.519C1185.28 111.794 1185.52 111.996 1185.8 111.971C1186.14 111.94 1186.47 111.91 1186.81 111.879C1187.14 111.85 1187.46 111.821 1187.79 111.792C1188.07 111.767 1188.27 111.525 1188.24 111.25C1191.28 110.982 1194.27 110.734 1197.21 110.507C1197.23 110.783 1197.47 110.989 1197.75 110.968C1198.43 110.916 1199.11 110.865 1199.79 110.815C1200.06 110.795 1200.27 110.555 1200.25 110.28C1203.3 110.057 1206.3 109.858 1209.24 109.681C1209.26 109.956 1209.5 110.166 1209.77 110.15C1210.43 110.111 1211.08 110.074 1211.73 110.037C1212 110.022 1212.21 109.785 1212.2 109.51C1215.31 109.337 1218.36 109.19 1221.36 109.069C1221.37 109.345 1221.6 109.56 1221.88 109.549C1222.55 109.523 1223.21 109.497 1223.87 109.474C1224.15 109.464 1224.36 109.232 1224.35 108.956C1227.43 108.848 1230.44 108.769 1233.39 108.718C1233.39 108.994 1233.62 109.214 1233.89 109.209C1234.57 109.198 1235.25 109.189 1235.93 109.181C1236.2 109.177 1236.43 108.951 1236.42 108.675C1239.47 108.641 1242.44 108.639 1245.35 108.669C1245.35 108.945 1245.57 109.171 1245.84 109.174C1246.54 109.182 1247.23 109.192 1247.92 109.203C1248.2 109.208 1248.42 108.988 1248.43 108.712C1251.52 108.768 1254.53 108.861 1257.45 108.991C1257.43 109.267 1257.65 109.501 1257.92 109.514C1258.13 109.524 1258.35 109.534 1258.56 109.544C1259 109.565 1259.44 109.588 1259.87 109.611C1260.15 109.625 1260.39 109.413 1260.4 109.138C1263.55 109.309 1266.59 109.525 1269.52 109.788C1269.49 110.062 1269.7 110.306 1269.97 110.331C1270.62 110.39 1271.26 110.452 1271.9 110.515C1272.17 110.543 1272.42 110.342 1272.44 110.068C1275.59 110.39 1278.61 110.768 1281.5 111.202C1281.46 111.475 1281.64 111.73 1281.92 111.772C1282.55 111.87 1283.19 111.971 1283.81 112.075C1284.09 112.12 1284.34 111.936 1284.39 111.663C1287.53 112.194 1290.49 112.797 1293.28 113.47C1293.22 113.738 1293.38 114.008 1293.65 114.074C1294.31 114.237 1294.96 114.404 1295.6 114.575C1295.87 114.646 1296.14 114.488 1296.22 114.222C1299.34 115.072 1302.22 116.022 1304.85 117.072C1304.74 117.327 1304.87 117.618 1305.12 117.722C1305.76 117.983 1306.38 118.25 1306.99 118.523C1307.24 118.636 1307.53 118.524 1307.65 118.274C1310.61 119.637 1313.19 121.147 1315.38 122.808C1315.22 123.025 1315.25 123.337 1315.47 123.507C1316 123.918 1316.5 124.338 1316.98 124.766C1317.18 124.95 1317.49 124.934 1317.68 124.732Z" stroke="#FFC640" stroke-linecap="round" stroke-dasharray="2 10"/>
</g>
<path d="M1311.42 585.748C1308.76 592.683 1301.86 597.898 1290.95 601.4C1280.05 604.899 1265.23 606.654 1246.94 606.739C1210.36 606.909 1159.99 600.399 1099.39 587.935C978.208 563.009 816.242 514.289 642.223 447.681C468.204 381.072 315.101 309.194 208.246 246.835C154.815 215.653 112.967 186.863 85.8503 162.313C72.2899 150.036 62.4368 138.84 56.6563 128.955C50.8711 119.062 49.2135 110.57 51.868 103.635C54.5226 96.6995 61.4267 91.4848 72.3388 87.9831C83.2422 84.4843 98.0527 82.7287 116.345 82.6437C152.924 82.4738 203.299 88.9836 263.895 101.448C385.079 126.374 547.045 175.094 721.064 241.702C895.084 308.311 1048.19 380.189 1155.04 442.548C1208.47 473.73 1250.32 502.52 1277.44 527.07C1291 539.348 1300.85 550.543 1306.63 560.428C1312.42 570.321 1314.07 578.813 1311.42 585.748Z" stroke="#6FB4B5"/>
<defs>
<filter id="filter0_f_637_41" x="4.60791" y="221.128" width="1354.06" height="250.555" filterUnits="userSpaceOnUse" color-interpolation-filters="sRGB">
<feFlood flood-opacity="0" result="BackgroundImageFix"/>
<feBlend mode="normal" in="SourceGraphic" in2="BackgroundImageFix" result="shape"/>
<feGaussianBlur stdDeviation="2" result="effect1_foregroundBlur_637_41"/>
</filter>
<filter id="filter1_f_637_41" x="38.7437" y="106.648" width="1287.65" height="476.335" filterUnits="userSpaceOnUse" color-interpolation-filters="sRGB">
<feFlood flood-opacity="0" result="BackgroundImageFix"/>
<feBlend mode="normal" in="SourceGraphic" in2="BackgroundImageFix" result="shape"/>
<feGaussianBlur stdDeviation="1" result="effect1_foregroundBlur_637_41"/>
</filter>
</defs>
</svg>
