<svg width="61" height="61" viewBox="0 0 61 61" fill="none" xmlns="http://www.w3.org/2000/svg">
<g filter="url(#filter0_d_1_350)">
<path fill-rule="evenodd" clip-rule="evenodd" d="M28.5 51C40.9264 51 51 40.9264 51 28.5C51 16.0736 40.9264 6 28.5 6C16.0736 6 6 16.0736 6 28.5C6 40.9264 16.0736 51 28.5 51ZM28.5 55C43.1355 55 55 43.1355 55 28.5C55 13.8645 43.1355 2 28.5 2C13.8645 2 2 13.8645 2 28.5C2 43.1355 13.8645 55 28.5 55Z" fill="#FF4F4F"/>
</g>
<g filter="url(#filter1_d_1_350)">
<path fill-rule="evenodd" clip-rule="evenodd" d="M17.7655 36.394C16.9561 37.1456 16.9092 38.411 17.6608 39.2205C18.4124 40.0299 19.6779 40.0768 20.4873 39.3251L28.3058 32.0651L36.1243 39.3251C36.9337 40.0768 38.1992 40.0299 38.9508 39.2205C39.7024 38.411 39.6555 37.1456 38.8461 36.394L31.245 29.3359L39.2204 21.9302C40.0298 21.1786 40.0767 19.9131 39.3251 19.1037C38.5735 18.2943 37.308 18.2474 36.4986 18.999L28.3058 26.6066L20.113 18.999C19.3036 18.2474 18.0381 18.2943 17.2865 19.1037C16.5349 19.9131 16.5818 21.1786 17.3912 21.9302L25.3666 29.3359L17.7655 36.394Z" fill="#FF4F4F"/>
</g>
<defs>
<filter id="filter0_d_1_350" x="0" y="0" width="61" height="61" filterUnits="userSpaceOnUse" color-interpolation-filters="sRGB">
<feFlood flood-opacity="0" result="BackgroundImageFix"/>
<feColorMatrix in="SourceAlpha" type="matrix" values="0 0 0 0 0 0 0 0 0 0 0 0 0 0 0 0 0 0 127 0" result="hardAlpha"/>
<feOffset dx="2" dy="2"/>
<feGaussianBlur stdDeviation="2"/>
<feComposite in2="hardAlpha" operator="out"/>
<feColorMatrix type="matrix" values="0 0 0 0 0 0 0 0 0 0 0 0 0 0 0 0 0 0 0.25 0"/>
<feBlend mode="normal" in2="BackgroundImageFix" result="effect1_dropShadow_1_350"/>
<feBlend mode="normal" in="SourceGraphic" in2="effect1_dropShadow_1_350" result="shape"/>
</filter>
<filter id="filter1_d_1_350" x="14.7521" y="16.4646" width="31.1074" height="29.395" filterUnits="userSpaceOnUse" color-interpolation-filters="sRGB">
<feFlood flood-opacity="0" result="BackgroundImageFix"/>
<feColorMatrix in="SourceAlpha" type="matrix" values="0 0 0 0 0 0 0 0 0 0 0 0 0 0 0 0 0 0 127 0" result="hardAlpha"/>
<feOffset dx="2" dy="2"/>
<feGaussianBlur stdDeviation="2"/>
<feComposite in2="hardAlpha" operator="out"/>
<feColorMatrix type="matrix" values="0 0 0 0 0 0 0 0 0 0 0 0 0 0 0 0 0 0 0.25 0"/>
<feBlend mode="normal" in2="BackgroundImageFix" result="effect1_dropShadow_1_350"/>
<feBlend mode="normal" in="SourceGraphic" in2="effect1_dropShadow_1_350" result="shape"/>
</filter>
</defs>
</svg>
