<svg width="1272" height="410" viewBox="0 0 1272 410" fill="none" xmlns="http://www.w3.org/2000/svg">
<g filter="url(#filter0_dii_1086_3155)">
<rect x="4" y="4" width="1256" height="394" rx="12" fill="#2C2C2C"/>
</g>
<path d="M123 308.5L317.27 226.337C343.364 215.301 372.914 215.851 398.578 227.851L411.753 234.011C438.595 246.561 469.621 246.561 496.464 234.011L612.601 179.709C625.86 173.51 640.319 170.296 654.956 170.296H739.031C753.668 170.296 768.127 167.083 781.387 160.883L862.548 122.935C881.185 114.221 902.726 114.221 921.363 122.935V122.935C940 131.649 961.542 131.649 980.178 122.935L1149 44" stroke="#15E6C0" stroke-width="2" stroke-linecap="round" stroke-linejoin="round"/>
<path d="M123 308L330.954 252.137C348.809 247.341 367.644 247.588 385.366 252.851L425.639 264.811C444.218 270.329 463.999 270.329 482.577 264.811L618.799 224.356C628.039 221.612 637.628 220.218 647.268 220.218H746.72C756.359 220.218 765.948 218.825 775.189 216.08L863.486 189.858C882.065 184.34 901.846 184.34 920.424 189.858L922.302 190.415C940.88 195.933 960.661 195.933 979.24 190.415L1149 140" stroke="#FF999E" stroke-opacity="0.66" stroke-width="2" stroke-linecap="round" stroke-linejoin="round"/>
<path d="M123 308L330.954 252.137C348.809 247.341 367.644 247.588 385.366 252.851L425.639 264.811C444.218 270.329 463.999 270.329 482.577 264.811L618.799 224.356C628.039 221.612 637.628 220.218 647.268 220.218H746.72C756.359 220.218 765.948 218.825 775.189 216.08L863.486 189.858C882.065 184.34 901.846 184.34 920.424 189.858L922.302 190.415C940.88 195.933 960.661 195.933 979.24 190.415L1149 140" stroke="#FF999E" stroke-opacity="0.66" stroke-width="2" stroke-linecap="round" stroke-linejoin="round"/>
<path d="M123 308L335.893 261.704C350.615 258.502 365.87 258.668 380.518 262.19L430.733 274.262C446.098 277.956 462.119 277.956 477.483 274.262L621.209 239.709C628.865 237.869 636.711 236.939 644.584 236.939H749.403C757.277 236.939 765.123 236.009 772.778 234.168L868.58 211.136C883.945 207.443 899.966 207.443 915.331 211.136L927.396 214.037C942.76 217.731 958.781 217.731 974.146 214.037L1149 172" stroke="#E3E3E3" stroke-width="2" stroke-linecap="round" stroke-linejoin="round"/>
<path d="M66.4684 316.096C65.823 316.037 65.2337 315.88 64.7004 315.624C64.1724 315.363 63.7164 315.032 63.3324 314.632L63.7564 313.976C63.7937 313.917 63.847 313.869 63.9164 313.832C63.9857 313.795 64.0577 313.776 64.1324 313.776C64.2337 313.776 64.3484 313.827 64.4764 313.928C64.6044 314.029 64.7617 314.147 64.9484 314.28C65.135 314.408 65.3564 314.533 65.6124 314.656C65.8737 314.779 66.1857 314.861 66.5484 314.904L66.8444 310.656C66.471 310.544 66.103 310.419 65.7404 310.28C65.383 310.136 65.0604 309.952 64.7724 309.728C64.4897 309.499 64.2604 309.213 64.0844 308.872C63.9137 308.525 63.8284 308.093 63.8284 307.576C63.8284 307.187 63.903 306.808 64.0524 306.44C64.207 306.067 64.4284 305.736 64.7164 305.448C65.0097 305.16 65.3697 304.925 65.7964 304.744C66.223 304.557 66.7137 304.453 67.2684 304.432L67.3484 303.28C67.359 303.179 67.399 303.088 67.4684 303.008C67.5377 302.928 67.631 302.888 67.7484 302.888H68.2764L68.1644 304.472C68.7244 304.541 69.207 304.685 69.6124 304.904C70.0177 305.123 70.3804 305.387 70.7004 305.696L70.3564 306.224C70.2497 306.384 70.127 306.464 69.9884 306.464C69.9137 306.464 69.8204 306.432 69.7084 306.368C69.6017 306.299 69.471 306.221 69.3164 306.136C69.1617 306.045 68.983 305.957 68.7804 305.872C68.5777 305.781 68.3457 305.717 68.0844 305.68L67.8204 309.552C68.2044 309.669 68.583 309.797 68.9564 309.936C69.3297 310.075 69.6657 310.253 69.9644 310.472C70.263 310.691 70.503 310.965 70.6844 311.296C70.871 311.621 70.9644 312.029 70.9644 312.52C70.9644 313 70.8844 313.451 70.7244 313.872C70.5644 314.293 70.3297 314.664 70.0204 314.984C69.7164 315.304 69.3404 315.565 68.8924 315.768C68.4497 315.965 67.943 316.08 67.3724 316.112L67.2764 317.52C67.2657 317.621 67.223 317.709 67.1484 317.784C67.079 317.864 66.9884 317.904 66.8764 317.904H66.3484L66.4684 316.096ZM69.6124 312.744C69.6124 312.477 69.5617 312.248 69.4604 312.056C69.3644 311.864 69.231 311.699 69.0604 311.56C68.8897 311.421 68.6897 311.301 68.4604 311.2C68.231 311.099 67.9857 311.005 67.7244 310.92L67.4524 314.904C67.799 314.872 68.1057 314.797 68.3724 314.68C68.6444 314.557 68.871 314.403 69.0524 314.216C69.239 314.029 69.3777 313.813 69.4684 313.568C69.5644 313.317 69.6124 313.043 69.6124 312.744ZM65.1724 307.432C65.1724 307.688 65.2177 307.912 65.3084 308.104C65.399 308.291 65.5244 308.456 65.6844 308.6C65.8444 308.744 66.031 308.869 66.2444 308.976C66.4577 309.083 66.6897 309.179 66.9404 309.264L67.1804 305.656C66.8337 305.688 66.5324 305.757 66.2764 305.864C66.0257 305.971 65.8177 306.104 65.6524 306.264C65.4924 306.424 65.3724 306.605 65.2924 306.808C65.2124 307.005 65.1724 307.213 65.1724 307.432ZM80.5656 310.272C80.5656 311.275 80.4563 312.144 80.2376 312.88C80.0243 313.611 79.731 314.216 79.3576 314.696C78.9843 315.176 78.5416 315.533 78.0296 315.768C77.523 316.003 76.979 316.12 76.3976 316.12C75.811 316.12 75.2643 316.003 74.7576 315.768C74.2563 315.533 73.819 315.176 73.4456 314.696C73.0723 314.216 72.779 313.611 72.5656 312.88C72.3523 312.144 72.2456 311.275 72.2456 310.272C72.2456 309.269 72.3523 308.4 72.5656 307.664C72.779 306.928 73.0723 306.32 73.4456 305.84C73.819 305.355 74.2563 304.995 74.7576 304.76C75.2643 304.525 75.811 304.408 76.3976 304.408C76.979 304.408 77.523 304.525 78.0296 304.76C78.5416 304.995 78.9843 305.355 79.3576 305.84C79.731 306.32 80.0243 306.928 80.2376 307.664C80.4563 308.4 80.5656 309.269 80.5656 310.272ZM79.0856 310.272C79.0856 309.397 79.011 308.664 78.8616 308.072C78.7176 307.475 78.5203 306.995 78.2696 306.632C78.0243 306.269 77.739 306.011 77.4136 305.856C77.0883 305.696 76.7496 305.616 76.3976 305.616C76.0456 305.616 75.707 305.696 75.3816 305.856C75.0563 306.011 74.771 306.269 74.5256 306.632C74.2803 306.995 74.083 307.475 73.9336 308.072C73.7896 308.664 73.7176 309.397 73.7176 310.272C73.7176 311.147 73.7896 311.88 73.9336 312.472C74.083 313.064 74.2803 313.541 74.5256 313.904C74.771 314.267 75.0563 314.528 75.3816 314.688C75.707 314.843 76.0456 314.92 76.3976 314.92C76.7496 314.92 77.0883 314.843 77.4136 314.688C77.739 314.528 78.0243 314.267 78.2696 313.904C78.5203 313.541 78.7176 313.064 78.8616 312.472C79.011 311.88 79.0856 311.147 79.0856 310.272ZM81.7509 315.12C81.7509 314.981 81.7749 314.851 81.8229 314.728C81.8762 314.605 81.9455 314.499 82.0309 314.408C82.1215 314.317 82.2282 314.245 82.3509 314.192C82.4735 314.139 82.6042 314.112 82.7429 314.112C82.8815 314.112 83.0122 314.139 83.1349 314.192C83.2575 314.245 83.3642 314.317 83.4549 314.408C83.5455 314.499 83.6149 314.605 83.6629 314.728C83.7162 314.851 83.7429 314.981 83.7429 315.12C83.7429 315.264 83.7162 315.397 83.6629 315.52C83.6149 315.637 83.5455 315.741 83.4549 315.832C83.3642 315.923 83.2575 315.992 83.1349 316.04C83.0122 316.093 82.8815 316.12 82.7429 316.12C82.6042 316.12 82.4735 316.093 82.3509 316.04C82.2282 315.992 82.1215 315.923 82.0309 315.832C81.9455 315.741 81.8762 315.637 81.8229 315.52C81.7749 315.397 81.7509 315.264 81.7509 315.12ZM93.2375 310.272C93.2375 311.275 93.1282 312.144 92.9095 312.88C92.6962 313.611 92.4028 314.216 92.0295 314.696C91.6562 315.176 91.2135 315.533 90.7015 315.768C90.1948 316.003 89.6508 316.12 89.0695 316.12C88.4828 316.12 87.9362 316.003 87.4295 315.768C86.9282 315.533 86.4908 315.176 86.1175 314.696C85.7442 314.216 85.4508 313.611 85.2375 312.88C85.0242 312.144 84.9175 311.275 84.9175 310.272C84.9175 309.269 85.0242 308.4 85.2375 307.664C85.4508 306.928 85.7442 306.32 86.1175 305.84C86.4908 305.355 86.9282 304.995 87.4295 304.76C87.9362 304.525 88.4828 304.408 89.0695 304.408C89.6508 304.408 90.1948 304.525 90.7015 304.76C91.2135 304.995 91.6562 305.355 92.0295 305.84C92.4028 306.32 92.6962 306.928 92.9095 307.664C93.1282 308.4 93.2375 309.269 93.2375 310.272ZM91.7575 310.272C91.7575 309.397 91.6828 308.664 91.5335 308.072C91.3895 307.475 91.1922 306.995 90.9415 306.632C90.6962 306.269 90.4108 306.011 90.0855 305.856C89.7602 305.696 89.4215 305.616 89.0695 305.616C88.7175 305.616 88.3788 305.696 88.0535 305.856C87.7282 306.011 87.4428 306.269 87.1975 306.632C86.9522 306.995 86.7548 307.475 86.6055 308.072C86.4615 308.664 86.3895 309.397 86.3895 310.272C86.3895 311.147 86.4615 311.88 86.6055 312.472C86.7548 313.064 86.9522 313.541 87.1975 313.904C87.4428 314.267 87.7282 314.528 88.0535 314.688C88.3788 314.843 88.7175 314.92 89.0695 314.92C89.4215 314.92 89.7602 314.843 90.0855 314.688C90.4108 314.528 90.6962 314.267 90.9415 313.904C91.1922 313.541 91.3895 313.064 91.5335 312.472C91.6828 311.88 91.7575 311.147 91.7575 310.272ZM102.519 310.272C102.519 311.275 102.409 312.144 102.191 312.88C101.977 313.611 101.684 314.216 101.311 314.696C100.937 315.176 100.495 315.533 99.9828 315.768C99.4761 316.003 98.9321 316.12 98.3508 316.12C97.7641 316.12 97.2174 316.003 96.7108 315.768C96.2094 315.533 95.7721 315.176 95.3988 314.696C95.0254 314.216 94.7321 313.611 94.5188 312.88C94.3054 312.144 94.1988 311.275 94.1988 310.272C94.1988 309.269 94.3054 308.4 94.5188 307.664C94.7321 306.928 95.0254 306.32 95.3988 305.84C95.7721 305.355 96.2094 304.995 96.7108 304.76C97.2174 304.525 97.7641 304.408 98.3508 304.408C98.9321 304.408 99.4761 304.525 99.9828 304.76C100.495 304.995 100.937 305.355 101.311 305.84C101.684 306.32 101.977 306.928 102.191 307.664C102.409 308.4 102.519 309.269 102.519 310.272ZM101.039 310.272C101.039 309.397 100.964 308.664 100.815 308.072C100.671 307.475 100.473 306.995 100.223 306.632C99.9774 306.269 99.6921 306.011 99.3668 305.856C99.0414 305.696 98.7028 305.616 98.3508 305.616C97.9988 305.616 97.6601 305.696 97.3348 305.856C97.0094 306.011 96.7241 306.269 96.4788 306.632C96.2334 306.995 96.0361 307.475 95.8868 308.072C95.7428 308.664 95.6708 309.397 95.6708 310.272C95.6708 311.147 95.7428 311.88 95.8868 312.472C96.0361 313.064 96.2334 313.541 96.4788 313.904C96.7241 314.267 97.0094 314.528 97.3348 314.688C97.6601 314.843 97.9988 314.92 98.3508 314.92C98.7028 314.92 99.0414 314.843 99.3668 314.688C99.6921 314.528 99.9774 314.267 100.223 313.904C100.473 313.541 100.671 313.064 100.815 312.472C100.964 311.88 101.039 311.147 101.039 310.272Z" fill="#9D9D9D"/>
<path d="M146.808 343.408C147.293 343.408 147.747 343.48 148.168 343.624C148.589 343.768 148.952 343.979 149.256 344.256C149.565 344.528 149.808 344.861 149.984 345.256C150.16 345.651 150.248 346.099 150.248 346.6C150.248 347.027 150.184 347.421 150.056 347.784C149.928 348.147 149.755 348.496 149.536 348.832C149.317 349.163 149.064 349.485 148.776 349.8C148.493 350.109 148.192 350.427 147.872 350.752L144.856 353.84C145.069 353.781 145.285 353.736 145.504 353.704C145.723 353.667 145.933 353.648 146.136 353.648H149.976C150.131 353.648 150.253 353.693 150.344 353.784C150.435 353.875 150.48 353.992 150.48 354.136V355H142.832V354.512C142.832 354.411 142.851 354.307 142.888 354.2C142.931 354.093 142.997 353.995 143.088 353.904L146.76 350.216C147.064 349.907 147.341 349.611 147.592 349.328C147.843 349.04 148.056 348.752 148.232 348.464C148.413 348.176 148.552 347.885 148.648 347.592C148.744 347.293 148.792 346.976 148.792 346.64C148.792 346.304 148.739 346.011 148.632 345.76C148.525 345.504 148.379 345.293 148.192 345.128C148.005 344.963 147.787 344.84 147.536 344.76C147.285 344.675 147.016 344.632 146.728 344.632C146.44 344.632 146.173 344.675 145.928 344.76C145.683 344.845 145.464 344.965 145.272 345.12C145.085 345.269 144.925 345.448 144.792 345.656C144.664 345.864 144.573 346.093 144.52 346.344C144.477 346.499 144.413 346.611 144.328 346.68C144.243 346.749 144.131 346.784 143.992 346.784C143.965 346.784 143.936 346.784 143.904 346.784C143.877 346.779 143.845 346.773 143.808 346.768L143.064 346.64C143.139 346.117 143.283 345.656 143.496 345.256C143.709 344.851 143.979 344.512 144.304 344.24C144.635 343.968 145.011 343.763 145.432 343.624C145.859 343.48 146.317 343.408 146.808 343.408ZM160.081 349.272C160.081 350.275 159.972 351.144 159.753 351.88C159.54 352.611 159.247 353.216 158.873 353.696C158.5 354.176 158.057 354.533 157.545 354.768C157.039 355.003 156.495 355.12 155.913 355.12C155.327 355.12 154.78 355.003 154.273 354.768C153.772 354.533 153.335 354.176 152.961 353.696C152.588 353.216 152.295 352.611 152.081 351.88C151.868 351.144 151.761 350.275 151.761 349.272C151.761 348.269 151.868 347.4 152.081 346.664C152.295 345.928 152.588 345.32 152.961 344.84C153.335 344.355 153.772 343.995 154.273 343.76C154.78 343.525 155.327 343.408 155.913 343.408C156.495 343.408 157.039 343.525 157.545 343.76C158.057 343.995 158.5 344.355 158.873 344.84C159.247 345.32 159.54 345.928 159.753 346.664C159.972 347.4 160.081 348.269 160.081 349.272ZM158.601 349.272C158.601 348.397 158.527 347.664 158.377 347.072C158.233 346.475 158.036 345.995 157.785 345.632C157.54 345.269 157.255 345.011 156.929 344.856C156.604 344.696 156.265 344.616 155.913 344.616C155.561 344.616 155.223 344.696 154.897 344.856C154.572 345.011 154.287 345.269 154.041 345.632C153.796 345.995 153.599 346.475 153.449 347.072C153.305 347.664 153.233 348.397 153.233 349.272C153.233 350.147 153.305 350.88 153.449 351.472C153.599 352.064 153.796 352.541 154.041 352.904C154.287 353.267 154.572 353.528 154.897 353.688C155.223 353.843 155.561 353.92 155.913 353.92C156.265 353.92 156.604 353.843 156.929 353.688C157.255 353.528 157.54 353.267 157.785 352.904C158.036 352.541 158.233 352.064 158.377 351.472C158.527 350.88 158.601 350.147 158.601 349.272ZM162.859 353.912H165.323V346.096C165.323 345.861 165.331 345.624 165.347 345.384L163.299 347.136C163.245 347.179 163.192 347.211 163.139 347.232C163.085 347.248 163.035 347.256 162.987 347.256C162.907 347.256 162.835 347.24 162.771 347.208C162.707 347.171 162.659 347.128 162.627 347.08L162.179 346.464L165.587 343.512H166.747V353.912H169.003V355H162.859V353.912ZM178.516 343.536V344.176C178.516 344.357 178.494 344.507 178.452 344.624C178.414 344.741 178.374 344.84 178.332 344.92L173.588 354.496C173.518 354.635 173.422 354.755 173.3 354.856C173.177 354.952 173.012 355 172.804 355H171.788L176.604 345.544C176.673 345.411 176.742 345.288 176.812 345.176C176.886 345.064 176.969 344.957 177.06 344.856H171.076C170.985 344.856 170.902 344.821 170.828 344.752C170.758 344.677 170.724 344.595 170.724 344.504V343.536H178.516Z" fill="#9D9D9D"/>
<path d="M387.808 343.408C388.293 343.408 388.747 343.48 389.168 343.624C389.589 343.768 389.952 343.979 390.256 344.256C390.565 344.528 390.808 344.861 390.984 345.256C391.16 345.651 391.248 346.099 391.248 346.6C391.248 347.027 391.184 347.421 391.056 347.784C390.928 348.147 390.755 348.496 390.536 348.832C390.317 349.163 390.064 349.485 389.776 349.8C389.493 350.109 389.192 350.427 388.872 350.752L385.856 353.84C386.069 353.781 386.285 353.736 386.504 353.704C386.723 353.667 386.933 353.648 387.136 353.648H390.976C391.131 353.648 391.253 353.693 391.344 353.784C391.435 353.875 391.48 353.992 391.48 354.136V355H383.832V354.512C383.832 354.411 383.851 354.307 383.888 354.2C383.931 354.093 383.997 353.995 384.088 353.904L387.76 350.216C388.064 349.907 388.341 349.611 388.592 349.328C388.843 349.04 389.056 348.752 389.232 348.464C389.413 348.176 389.552 347.885 389.648 347.592C389.744 347.293 389.792 346.976 389.792 346.64C389.792 346.304 389.739 346.011 389.632 345.76C389.525 345.504 389.379 345.293 389.192 345.128C389.005 344.963 388.787 344.84 388.536 344.76C388.285 344.675 388.016 344.632 387.728 344.632C387.44 344.632 387.173 344.675 386.928 344.76C386.683 344.845 386.464 344.965 386.272 345.12C386.085 345.269 385.925 345.448 385.792 345.656C385.664 345.864 385.573 346.093 385.52 346.344C385.477 346.499 385.413 346.611 385.328 346.68C385.243 346.749 385.131 346.784 384.992 346.784C384.965 346.784 384.936 346.784 384.904 346.784C384.877 346.779 384.845 346.773 384.808 346.768L384.064 346.64C384.139 346.117 384.283 345.656 384.496 345.256C384.709 344.851 384.979 344.512 385.304 344.24C385.635 343.968 386.011 343.763 386.432 343.624C386.859 343.48 387.317 343.408 387.808 343.408ZM401.081 349.272C401.081 350.275 400.972 351.144 400.753 351.88C400.54 352.611 400.247 353.216 399.873 353.696C399.5 354.176 399.057 354.533 398.545 354.768C398.039 355.003 397.495 355.12 396.913 355.12C396.327 355.12 395.78 355.003 395.273 354.768C394.772 354.533 394.335 354.176 393.961 353.696C393.588 353.216 393.295 352.611 393.081 351.88C392.868 351.144 392.761 350.275 392.761 349.272C392.761 348.269 392.868 347.4 393.081 346.664C393.295 345.928 393.588 345.32 393.961 344.84C394.335 344.355 394.772 343.995 395.273 343.76C395.78 343.525 396.327 343.408 396.913 343.408C397.495 343.408 398.039 343.525 398.545 343.76C399.057 343.995 399.5 344.355 399.873 344.84C400.247 345.32 400.54 345.928 400.753 346.664C400.972 347.4 401.081 348.269 401.081 349.272ZM399.601 349.272C399.601 348.397 399.527 347.664 399.377 347.072C399.233 346.475 399.036 345.995 398.785 345.632C398.54 345.269 398.255 345.011 397.929 344.856C397.604 344.696 397.265 344.616 396.913 344.616C396.561 344.616 396.223 344.696 395.897 344.856C395.572 345.011 395.287 345.269 395.041 345.632C394.796 345.995 394.599 346.475 394.449 347.072C394.305 347.664 394.233 348.397 394.233 349.272C394.233 350.147 394.305 350.88 394.449 351.472C394.599 352.064 394.796 352.541 395.041 352.904C395.287 353.267 395.572 353.528 395.897 353.688C396.223 353.843 396.561 353.92 396.913 353.92C397.265 353.92 397.604 353.843 397.929 353.688C398.255 353.528 398.54 353.267 398.785 352.904C399.036 352.541 399.233 352.064 399.377 351.472C399.527 350.88 399.601 350.147 399.601 349.272ZM403.859 353.912H406.323V346.096C406.323 345.861 406.331 345.624 406.347 345.384L404.299 347.136C404.245 347.179 404.192 347.211 404.139 347.232C404.085 347.248 404.035 347.256 403.987 347.256C403.907 347.256 403.835 347.24 403.771 347.208C403.707 347.171 403.659 347.128 403.627 347.08L403.179 346.464L406.587 343.512H407.747V353.912H410.003V355H403.859V353.912ZM415.476 355.128C414.905 355.128 414.382 355.053 413.908 354.904C413.433 354.749 413.025 354.531 412.684 354.248C412.342 353.965 412.078 353.624 411.892 353.224C411.705 352.819 411.612 352.365 411.612 351.864C411.612 351.128 411.804 350.523 412.188 350.048C412.572 349.568 413.121 349.227 413.836 349.024C413.233 348.8 412.777 348.467 412.468 348.024C412.164 347.576 412.012 347.043 412.012 346.424C412.012 346.003 412.094 345.608 412.26 345.24C412.425 344.872 412.66 344.552 412.964 344.28C413.268 344.008 413.63 343.795 414.052 343.64C414.478 343.485 414.953 343.408 415.476 343.408C415.993 343.408 416.465 343.485 416.892 343.64C417.318 343.795 417.684 344.008 417.988 344.28C418.292 344.552 418.526 344.872 418.692 345.24C418.857 345.608 418.94 346.003 418.94 346.424C418.94 347.043 418.785 347.576 418.476 348.024C418.166 348.467 417.713 348.8 417.116 349.024C417.83 349.227 418.38 349.568 418.764 350.048C419.148 350.523 419.34 351.128 419.34 351.864C419.34 352.365 419.244 352.819 419.052 353.224C418.865 353.624 418.601 353.965 418.26 354.248C417.924 354.531 417.518 354.749 417.044 354.904C416.569 355.053 416.046 355.128 415.476 355.128ZM415.476 353.992C415.849 353.992 416.182 353.941 416.476 353.84C416.774 353.733 417.025 353.587 417.228 353.4C417.436 353.208 417.593 352.981 417.7 352.72C417.812 352.453 417.868 352.16 417.868 351.84C417.868 351.445 417.801 351.109 417.668 350.832C417.54 350.549 417.364 350.32 417.14 350.144C416.921 349.968 416.668 349.84 416.38 349.76C416.092 349.675 415.79 349.632 415.476 349.632C415.161 349.632 414.86 349.675 414.572 349.76C414.284 349.84 414.028 349.968 413.804 350.144C413.585 350.32 413.409 350.549 413.276 350.832C413.148 351.109 413.084 351.445 413.084 351.84C413.084 352.16 413.137 352.453 413.244 352.72C413.356 352.981 413.513 353.208 413.716 353.4C413.924 353.587 414.174 353.733 414.468 353.84C414.766 353.941 415.102 353.992 415.476 353.992ZM415.476 348.488C415.849 348.488 416.166 348.432 416.428 348.32C416.694 348.203 416.91 348.051 417.076 347.864C417.241 347.672 417.361 347.453 417.436 347.208C417.51 346.963 417.548 346.709 417.548 346.448C417.548 346.181 417.502 345.931 417.412 345.696C417.326 345.461 417.196 345.256 417.02 345.08C416.849 344.904 416.633 344.765 416.372 344.664C416.116 344.563 415.817 344.512 415.476 344.512C415.134 344.512 414.833 344.563 414.572 344.664C414.316 344.765 414.1 344.904 413.924 345.08C413.753 345.256 413.622 345.461 413.532 345.696C413.446 345.931 413.404 346.181 413.404 346.448C413.404 346.709 413.441 346.963 413.516 347.208C413.59 347.453 413.71 347.672 413.876 347.864C414.041 348.051 414.254 348.203 414.516 348.32C414.782 348.432 415.102 348.488 415.476 348.488Z" fill="#9D9D9D"/>
<path d="M629.808 343.408C630.293 343.408 630.747 343.48 631.168 343.624C631.589 343.768 631.952 343.979 632.256 344.256C632.565 344.528 632.808 344.861 632.984 345.256C633.16 345.651 633.248 346.099 633.248 346.6C633.248 347.027 633.184 347.421 633.056 347.784C632.928 348.147 632.755 348.496 632.536 348.832C632.317 349.163 632.064 349.485 631.776 349.8C631.493 350.109 631.192 350.427 630.872 350.752L627.856 353.84C628.069 353.781 628.285 353.736 628.504 353.704C628.723 353.667 628.933 353.648 629.136 353.648H632.976C633.131 353.648 633.253 353.693 633.344 353.784C633.435 353.875 633.48 353.992 633.48 354.136V355H625.832V354.512C625.832 354.411 625.851 354.307 625.888 354.2C625.931 354.093 625.997 353.995 626.088 353.904L629.76 350.216C630.064 349.907 630.341 349.611 630.592 349.328C630.843 349.04 631.056 348.752 631.232 348.464C631.413 348.176 631.552 347.885 631.648 347.592C631.744 347.293 631.792 346.976 631.792 346.64C631.792 346.304 631.739 346.011 631.632 345.76C631.525 345.504 631.379 345.293 631.192 345.128C631.005 344.963 630.787 344.84 630.536 344.76C630.285 344.675 630.016 344.632 629.728 344.632C629.44 344.632 629.173 344.675 628.928 344.76C628.683 344.845 628.464 344.965 628.272 345.12C628.085 345.269 627.925 345.448 627.792 345.656C627.664 345.864 627.573 346.093 627.52 346.344C627.477 346.499 627.413 346.611 627.328 346.68C627.243 346.749 627.131 346.784 626.992 346.784C626.965 346.784 626.936 346.784 626.904 346.784C626.877 346.779 626.845 346.773 626.808 346.768L626.064 346.64C626.139 346.117 626.283 345.656 626.496 345.256C626.709 344.851 626.979 344.512 627.304 344.24C627.635 343.968 628.011 343.763 628.432 343.624C628.859 343.48 629.317 343.408 629.808 343.408ZM643.081 349.272C643.081 350.275 642.972 351.144 642.753 351.88C642.54 352.611 642.247 353.216 641.873 353.696C641.5 354.176 641.057 354.533 640.545 354.768C640.039 355.003 639.495 355.12 638.913 355.12C638.327 355.12 637.78 355.003 637.273 354.768C636.772 354.533 636.335 354.176 635.961 353.696C635.588 353.216 635.295 352.611 635.081 351.88C634.868 351.144 634.761 350.275 634.761 349.272C634.761 348.269 634.868 347.4 635.081 346.664C635.295 345.928 635.588 345.32 635.961 344.84C636.335 344.355 636.772 343.995 637.273 343.76C637.78 343.525 638.327 343.408 638.913 343.408C639.495 343.408 640.039 343.525 640.545 343.76C641.057 343.995 641.5 344.355 641.873 344.84C642.247 345.32 642.54 345.928 642.753 346.664C642.972 347.4 643.081 348.269 643.081 349.272ZM641.601 349.272C641.601 348.397 641.527 347.664 641.377 347.072C641.233 346.475 641.036 345.995 640.785 345.632C640.54 345.269 640.255 345.011 639.929 344.856C639.604 344.696 639.265 344.616 638.913 344.616C638.561 344.616 638.223 344.696 637.897 344.856C637.572 345.011 637.287 345.269 637.041 345.632C636.796 345.995 636.599 346.475 636.449 347.072C636.305 347.664 636.233 348.397 636.233 349.272C636.233 350.147 636.305 350.88 636.449 351.472C636.599 352.064 636.796 352.541 637.041 352.904C637.287 353.267 637.572 353.528 637.897 353.688C638.223 353.843 638.561 353.92 638.913 353.92C639.265 353.92 639.604 353.843 639.929 353.688C640.255 353.528 640.54 353.267 640.785 352.904C641.036 352.541 641.233 352.064 641.377 351.472C641.527 350.88 641.601 350.147 641.601 349.272ZM645.859 353.912H648.323V346.096C648.323 345.861 648.331 345.624 648.347 345.384L646.299 347.136C646.245 347.179 646.192 347.211 646.139 347.232C646.085 347.248 646.035 347.256 645.987 347.256C645.907 347.256 645.835 347.24 645.771 347.208C645.707 347.171 645.659 347.128 645.627 347.08L645.179 346.464L648.587 343.512H649.747V353.912H652.003V355H645.859V353.912ZM657.236 350.296C656.804 350.296 656.393 350.224 656.004 350.08C655.62 349.936 655.281 349.725 654.988 349.448C654.694 349.165 654.46 348.821 654.284 348.416C654.113 348.005 654.028 347.536 654.028 347.008C654.028 346.507 654.121 346.037 654.308 345.6C654.494 345.163 654.756 344.781 655.092 344.456C655.428 344.131 655.828 343.875 656.292 343.688C656.756 343.501 657.265 343.408 657.82 343.408C658.369 343.408 658.868 343.499 659.316 343.68C659.764 343.861 660.148 344.115 660.468 344.44C660.788 344.765 661.033 345.155 661.204 345.608C661.38 346.061 661.468 346.563 661.468 347.112C661.468 347.443 661.436 347.757 661.372 348.056C661.313 348.349 661.225 348.637 661.108 348.92C660.99 349.203 660.849 349.485 660.684 349.768C660.524 350.045 660.34 350.333 660.132 350.632L657.34 354.664C657.27 354.765 657.172 354.848 657.044 354.912C656.916 354.971 656.769 355 656.604 355H655.292L658.78 350.432C658.897 350.277 659.006 350.131 659.108 349.992C659.209 349.853 659.305 349.715 659.396 349.576C659.102 349.811 658.772 349.989 658.404 350.112C658.036 350.235 657.646 350.296 657.236 350.296ZM660.1 346.944C660.1 346.587 660.041 346.264 659.924 345.976C659.812 345.683 659.654 345.435 659.452 345.232C659.249 345.029 659.006 344.875 658.724 344.768C658.446 344.656 658.14 344.6 657.804 344.6C657.452 344.6 657.129 344.659 656.836 344.776C656.548 344.888 656.3 345.045 656.092 345.248C655.889 345.451 655.732 345.693 655.62 345.976C655.508 346.259 655.452 346.568 655.452 346.904C655.452 347.267 655.502 347.592 655.604 347.88C655.71 348.163 655.86 348.403 656.052 348.6C656.249 348.797 656.486 348.947 656.764 349.048C657.046 349.149 657.361 349.2 657.708 349.2C658.092 349.2 658.43 349.139 658.724 349.016C659.022 348.888 659.273 348.72 659.476 348.512C659.678 348.304 659.833 348.064 659.94 347.792C660.046 347.52 660.1 347.237 660.1 346.944Z" fill="#9D9D9D"/>
<path d="M871.808 343.408C872.293 343.408 872.747 343.48 873.168 343.624C873.589 343.768 873.952 343.979 874.256 344.256C874.565 344.528 874.808 344.861 874.984 345.256C875.16 345.651 875.248 346.099 875.248 346.6C875.248 347.027 875.184 347.421 875.056 347.784C874.928 348.147 874.755 348.496 874.536 348.832C874.317 349.163 874.064 349.485 873.776 349.8C873.493 350.109 873.192 350.427 872.872 350.752L869.856 353.84C870.069 353.781 870.285 353.736 870.504 353.704C870.723 353.667 870.933 353.648 871.136 353.648H874.976C875.131 353.648 875.253 353.693 875.344 353.784C875.435 353.875 875.48 353.992 875.48 354.136V355H867.832V354.512C867.832 354.411 867.851 354.307 867.888 354.2C867.931 354.093 867.997 353.995 868.088 353.904L871.76 350.216C872.064 349.907 872.341 349.611 872.592 349.328C872.843 349.04 873.056 348.752 873.232 348.464C873.413 348.176 873.552 347.885 873.648 347.592C873.744 347.293 873.792 346.976 873.792 346.64C873.792 346.304 873.739 346.011 873.632 345.76C873.525 345.504 873.379 345.293 873.192 345.128C873.005 344.963 872.787 344.84 872.536 344.76C872.285 344.675 872.016 344.632 871.728 344.632C871.44 344.632 871.173 344.675 870.928 344.76C870.683 344.845 870.464 344.965 870.272 345.12C870.085 345.269 869.925 345.448 869.792 345.656C869.664 345.864 869.573 346.093 869.52 346.344C869.477 346.499 869.413 346.611 869.328 346.68C869.243 346.749 869.131 346.784 868.992 346.784C868.965 346.784 868.936 346.784 868.904 346.784C868.877 346.779 868.845 346.773 868.808 346.768L868.064 346.64C868.139 346.117 868.283 345.656 868.496 345.256C868.709 344.851 868.979 344.512 869.304 344.24C869.635 343.968 870.011 343.763 870.432 343.624C870.859 343.48 871.317 343.408 871.808 343.408ZM885.081 349.272C885.081 350.275 884.972 351.144 884.753 351.88C884.54 352.611 884.247 353.216 883.873 353.696C883.5 354.176 883.057 354.533 882.545 354.768C882.039 355.003 881.495 355.12 880.913 355.12C880.327 355.12 879.78 355.003 879.273 354.768C878.772 354.533 878.335 354.176 877.961 353.696C877.588 353.216 877.295 352.611 877.081 351.88C876.868 351.144 876.761 350.275 876.761 349.272C876.761 348.269 876.868 347.4 877.081 346.664C877.295 345.928 877.588 345.32 877.961 344.84C878.335 344.355 878.772 343.995 879.273 343.76C879.78 343.525 880.327 343.408 880.913 343.408C881.495 343.408 882.039 343.525 882.545 343.76C883.057 343.995 883.5 344.355 883.873 344.84C884.247 345.32 884.54 345.928 884.753 346.664C884.972 347.4 885.081 348.269 885.081 349.272ZM883.601 349.272C883.601 348.397 883.527 347.664 883.377 347.072C883.233 346.475 883.036 345.995 882.785 345.632C882.54 345.269 882.255 345.011 881.929 344.856C881.604 344.696 881.265 344.616 880.913 344.616C880.561 344.616 880.223 344.696 879.897 344.856C879.572 345.011 879.287 345.269 879.041 345.632C878.796 345.995 878.599 346.475 878.449 347.072C878.305 347.664 878.233 348.397 878.233 349.272C878.233 350.147 878.305 350.88 878.449 351.472C878.599 352.064 878.796 352.541 879.041 352.904C879.287 353.267 879.572 353.528 879.897 353.688C880.223 353.843 880.561 353.92 880.913 353.92C881.265 353.92 881.604 353.843 881.929 353.688C882.255 353.528 882.54 353.267 882.785 352.904C883.036 352.541 883.233 352.064 883.377 351.472C883.527 350.88 883.601 350.147 883.601 349.272ZM890.371 343.408C890.856 343.408 891.309 343.48 891.731 343.624C892.152 343.768 892.515 343.979 892.819 344.256C893.128 344.528 893.371 344.861 893.547 345.256C893.723 345.651 893.811 346.099 893.811 346.6C893.811 347.027 893.747 347.421 893.619 347.784C893.491 348.147 893.317 348.496 893.099 348.832C892.88 349.163 892.627 349.485 892.339 349.8C892.056 350.109 891.755 350.427 891.435 350.752L888.419 353.84C888.632 353.781 888.848 353.736 889.067 353.704C889.285 353.667 889.496 353.648 889.699 353.648H893.539C893.693 353.648 893.816 353.693 893.907 353.784C893.997 353.875 894.043 353.992 894.043 354.136V355H886.395V354.512C886.395 354.411 886.413 354.307 886.451 354.2C886.493 354.093 886.56 353.995 886.651 353.904L890.323 350.216C890.627 349.907 890.904 349.611 891.155 349.328C891.405 349.04 891.619 348.752 891.795 348.464C891.976 348.176 892.115 347.885 892.211 347.592C892.307 347.293 892.355 346.976 892.355 346.64C892.355 346.304 892.301 346.011 892.195 345.76C892.088 345.504 891.941 345.293 891.755 345.128C891.568 344.963 891.349 344.84 891.099 344.76C890.848 344.675 890.579 344.632 890.291 344.632C890.003 344.632 889.736 344.675 889.491 344.76C889.245 344.845 889.027 344.965 888.835 345.12C888.648 345.269 888.488 345.448 888.355 345.656C888.227 345.864 888.136 346.093 888.083 346.344C888.04 346.499 887.976 346.611 887.891 346.68C887.805 346.749 887.693 346.784 887.555 346.784C887.528 346.784 887.499 346.784 887.467 346.784C887.44 346.779 887.408 346.773 887.371 346.768L886.627 346.64C886.701 346.117 886.845 345.656 887.059 345.256C887.272 344.851 887.541 344.512 887.867 344.24C888.197 343.968 888.573 343.763 888.995 343.624C889.421 343.48 889.88 343.408 890.371 343.408ZM903.644 349.272C903.644 350.275 903.534 351.144 903.316 351.88C903.102 352.611 902.809 353.216 902.436 353.696C902.062 354.176 901.62 354.533 901.108 354.768C900.601 355.003 900.057 355.12 899.476 355.12C898.889 355.12 898.342 355.003 897.836 354.768C897.334 354.533 896.897 354.176 896.524 353.696C896.15 353.216 895.857 352.611 895.644 351.88C895.43 351.144 895.324 350.275 895.324 349.272C895.324 348.269 895.43 347.4 895.644 346.664C895.857 345.928 896.15 345.32 896.524 344.84C896.897 344.355 897.334 343.995 897.836 343.76C898.342 343.525 898.889 343.408 899.476 343.408C900.057 343.408 900.601 343.525 901.108 343.76C901.62 343.995 902.062 344.355 902.436 344.84C902.809 345.32 903.102 345.928 903.316 346.664C903.534 347.4 903.644 348.269 903.644 349.272ZM902.164 349.272C902.164 348.397 902.089 347.664 901.94 347.072C901.796 346.475 901.598 345.995 901.348 345.632C901.102 345.269 900.817 345.011 900.492 344.856C900.166 344.696 899.828 344.616 899.476 344.616C899.124 344.616 898.785 344.696 898.46 344.856C898.134 345.011 897.849 345.269 897.604 345.632C897.358 345.995 897.161 346.475 897.012 347.072C896.868 347.664 896.796 348.397 896.796 349.272C896.796 350.147 896.868 350.88 897.012 351.472C897.161 352.064 897.358 352.541 897.604 352.904C897.849 353.267 898.134 353.528 898.46 353.688C898.785 353.843 899.124 353.92 899.476 353.92C899.828 353.92 900.166 353.843 900.492 353.688C900.817 353.528 901.102 353.267 901.348 352.904C901.598 352.541 901.796 352.064 901.94 351.472C902.089 350.88 902.164 350.147 902.164 349.272Z" fill="#9D9D9D"/>
<path d="M1117.81 343.408C1118.29 343.408 1118.75 343.48 1119.17 343.624C1119.59 343.768 1119.95 343.979 1120.26 344.256C1120.57 344.528 1120.81 344.861 1120.98 345.256C1121.16 345.651 1121.25 346.099 1121.25 346.6C1121.25 347.027 1121.18 347.421 1121.06 347.784C1120.93 348.147 1120.75 348.496 1120.54 348.832C1120.32 349.163 1120.06 349.485 1119.78 349.8C1119.49 350.109 1119.19 350.427 1118.87 350.752L1115.86 353.84C1116.07 353.781 1116.29 353.736 1116.5 353.704C1116.72 353.667 1116.93 353.648 1117.14 353.648H1120.98C1121.13 353.648 1121.25 353.693 1121.34 353.784C1121.43 353.875 1121.48 353.992 1121.48 354.136V355H1113.83V354.512C1113.83 354.411 1113.85 354.307 1113.89 354.2C1113.93 354.093 1114 353.995 1114.09 353.904L1117.76 350.216C1118.06 349.907 1118.34 349.611 1118.59 349.328C1118.84 349.04 1119.06 348.752 1119.23 348.464C1119.41 348.176 1119.55 347.885 1119.65 347.592C1119.74 347.293 1119.79 346.976 1119.79 346.64C1119.79 346.304 1119.74 346.011 1119.63 345.76C1119.53 345.504 1119.38 345.293 1119.19 345.128C1119.01 344.963 1118.79 344.84 1118.54 344.76C1118.29 344.675 1118.02 344.632 1117.73 344.632C1117.44 344.632 1117.17 344.675 1116.93 344.76C1116.68 344.845 1116.46 344.965 1116.27 345.12C1116.09 345.269 1115.93 345.448 1115.79 345.656C1115.66 345.864 1115.57 346.093 1115.52 346.344C1115.48 346.499 1115.41 346.611 1115.33 346.68C1115.24 346.749 1115.13 346.784 1114.99 346.784C1114.97 346.784 1114.94 346.784 1114.9 346.784C1114.88 346.779 1114.85 346.773 1114.81 346.768L1114.06 346.64C1114.14 346.117 1114.28 345.656 1114.5 345.256C1114.71 344.851 1114.98 344.512 1115.3 344.24C1115.63 343.968 1116.01 343.763 1116.43 343.624C1116.86 343.48 1117.32 343.408 1117.81 343.408ZM1131.08 349.272C1131.08 350.275 1130.97 351.144 1130.75 351.88C1130.54 352.611 1130.25 353.216 1129.87 353.696C1129.5 354.176 1129.06 354.533 1128.55 354.768C1128.04 355.003 1127.49 355.12 1126.91 355.12C1126.33 355.12 1125.78 355.003 1125.27 354.768C1124.77 354.533 1124.33 354.176 1123.96 353.696C1123.59 353.216 1123.29 352.611 1123.08 351.88C1122.87 351.144 1122.76 350.275 1122.76 349.272C1122.76 348.269 1122.87 347.4 1123.08 346.664C1123.29 345.928 1123.59 345.32 1123.96 344.84C1124.33 344.355 1124.77 343.995 1125.27 343.76C1125.78 343.525 1126.33 343.408 1126.91 343.408C1127.49 343.408 1128.04 343.525 1128.55 343.76C1129.06 343.995 1129.5 344.355 1129.87 344.84C1130.25 345.32 1130.54 345.928 1130.75 346.664C1130.97 347.4 1131.08 348.269 1131.08 349.272ZM1129.6 349.272C1129.6 348.397 1129.53 347.664 1129.38 347.072C1129.23 346.475 1129.04 345.995 1128.79 345.632C1128.54 345.269 1128.25 345.011 1127.93 344.856C1127.6 344.696 1127.27 344.616 1126.91 344.616C1126.56 344.616 1126.22 344.696 1125.9 344.856C1125.57 345.011 1125.29 345.269 1125.04 345.632C1124.8 345.995 1124.6 346.475 1124.45 347.072C1124.31 347.664 1124.23 348.397 1124.23 349.272C1124.23 350.147 1124.31 350.88 1124.45 351.472C1124.6 352.064 1124.8 352.541 1125.04 352.904C1125.29 353.267 1125.57 353.528 1125.9 353.688C1126.22 353.843 1126.56 353.92 1126.91 353.92C1127.27 353.92 1127.6 353.843 1127.93 353.688C1128.25 353.528 1128.54 353.267 1128.79 352.904C1129.04 352.541 1129.23 352.064 1129.38 351.472C1129.53 350.88 1129.6 350.147 1129.6 349.272ZM1136.37 343.408C1136.86 343.408 1137.31 343.48 1137.73 343.624C1138.15 343.768 1138.51 343.979 1138.82 344.256C1139.13 344.528 1139.37 344.861 1139.55 345.256C1139.72 345.651 1139.81 346.099 1139.81 346.6C1139.81 347.027 1139.75 347.421 1139.62 347.784C1139.49 348.147 1139.32 348.496 1139.1 348.832C1138.88 349.163 1138.63 349.485 1138.34 349.8C1138.06 350.109 1137.75 350.427 1137.43 350.752L1134.42 353.84C1134.63 353.781 1134.85 353.736 1135.07 353.704C1135.29 353.667 1135.5 353.648 1135.7 353.648H1139.54C1139.69 353.648 1139.82 353.693 1139.91 353.784C1140 353.875 1140.04 353.992 1140.04 354.136V355H1132.39V354.512C1132.39 354.411 1132.41 354.307 1132.45 354.2C1132.49 354.093 1132.56 353.995 1132.65 353.904L1136.32 350.216C1136.63 349.907 1136.9 349.611 1137.15 349.328C1137.41 349.04 1137.62 348.752 1137.79 348.464C1137.98 348.176 1138.11 347.885 1138.21 347.592C1138.31 347.293 1138.35 346.976 1138.35 346.64C1138.35 346.304 1138.3 346.011 1138.19 345.76C1138.09 345.504 1137.94 345.293 1137.75 345.128C1137.57 344.963 1137.35 344.84 1137.1 344.76C1136.85 344.675 1136.58 344.632 1136.29 344.632C1136 344.632 1135.74 344.675 1135.49 344.76C1135.25 344.845 1135.03 344.965 1134.83 345.12C1134.65 345.269 1134.49 345.448 1134.35 345.656C1134.23 345.864 1134.14 346.093 1134.08 346.344C1134.04 346.499 1133.98 346.611 1133.89 346.68C1133.81 346.749 1133.69 346.784 1133.55 346.784C1133.53 346.784 1133.5 346.784 1133.47 346.784C1133.44 346.779 1133.41 346.773 1133.37 346.768L1132.63 346.64C1132.7 346.117 1132.85 345.656 1133.06 345.256C1133.27 344.851 1133.54 344.512 1133.87 344.24C1134.2 343.968 1134.57 343.763 1134.99 343.624C1135.42 343.48 1135.88 343.408 1136.37 343.408ZM1143.14 353.912H1145.6V346.096C1145.6 345.861 1145.61 345.624 1145.63 345.384L1143.58 347.136C1143.53 347.179 1143.47 347.211 1143.42 347.232C1143.37 347.248 1143.32 347.256 1143.27 347.256C1143.19 347.256 1143.12 347.24 1143.05 347.208C1142.99 347.171 1142.94 347.128 1142.91 347.08L1142.46 346.464L1145.87 343.512H1147.03V353.912H1149.28V355H1143.14V353.912Z" fill="#9D9D9D"/>
<path d="M57.1871 252.096C56.5418 252.037 55.9525 251.88 55.4191 251.624C54.8911 251.363 54.4351 251.032 54.0511 250.632L54.4751 249.976C54.5125 249.917 54.5658 249.869 54.6351 249.832C54.7045 249.795 54.7765 249.776 54.8511 249.776C54.9525 249.776 55.0671 249.827 55.1951 249.928C55.3231 250.029 55.4805 250.147 55.6671 250.28C55.8538 250.408 56.0751 250.533 56.3311 250.656C56.5925 250.779 56.9045 250.861 57.2671 250.904L57.5631 246.656C57.1898 246.544 56.8218 246.419 56.4591 246.28C56.1018 246.136 55.7791 245.952 55.4911 245.728C55.2085 245.499 54.9791 245.213 54.8031 244.872C54.6325 244.525 54.5471 244.093 54.5471 243.576C54.5471 243.187 54.6218 242.808 54.7711 242.44C54.9258 242.067 55.1471 241.736 55.4351 241.448C55.7285 241.16 56.0885 240.925 56.5151 240.744C56.9418 240.557 57.4325 240.453 57.9871 240.432L58.0671 239.28C58.0778 239.179 58.1178 239.088 58.1871 239.008C58.2565 238.928 58.3498 238.888 58.4671 238.888H58.9951L58.8831 240.472C59.4431 240.541 59.9258 240.685 60.3311 240.904C60.7365 241.123 61.0991 241.387 61.4191 241.696L61.0751 242.224C60.9685 242.384 60.8458 242.464 60.7071 242.464C60.6325 242.464 60.5391 242.432 60.4271 242.368C60.3205 242.299 60.1898 242.221 60.0351 242.136C59.8805 242.045 59.7018 241.957 59.4991 241.872C59.2965 241.781 59.0645 241.717 58.8031 241.68L58.5391 245.552C58.9231 245.669 59.3018 245.797 59.6751 245.936C60.0485 246.075 60.3845 246.253 60.6831 246.472C60.9818 246.691 61.2218 246.965 61.4031 247.296C61.5898 247.621 61.6831 248.029 61.6831 248.52C61.6831 249 61.6031 249.451 61.4431 249.872C61.2831 250.293 61.0485 250.664 60.7391 250.984C60.4351 251.304 60.0591 251.565 59.6111 251.768C59.1685 251.965 58.6618 252.08 58.0911 252.112L57.9951 253.52C57.9845 253.621 57.9418 253.709 57.8671 253.784C57.7978 253.864 57.7071 253.904 57.5951 253.904H57.0671L57.1871 252.096ZM60.3311 248.744C60.3311 248.477 60.2805 248.248 60.1791 248.056C60.0831 247.864 59.9498 247.699 59.7791 247.56C59.6085 247.421 59.4085 247.301 59.1791 247.2C58.9498 247.099 58.7045 247.005 58.4431 246.92L58.1711 250.904C58.5178 250.872 58.8245 250.797 59.0911 250.68C59.3631 250.557 59.5898 250.403 59.7711 250.216C59.9578 250.029 60.0965 249.813 60.1871 249.568C60.2831 249.317 60.3311 249.043 60.3311 248.744ZM55.8911 243.432C55.8911 243.688 55.9365 243.912 56.0271 244.104C56.1178 244.291 56.2431 244.456 56.4031 244.6C56.5631 244.744 56.7498 244.869 56.9631 244.976C57.1765 245.083 57.4085 245.179 57.6591 245.264L57.8991 241.656C57.5525 241.688 57.2511 241.757 56.9951 241.864C56.7445 241.971 56.5365 242.104 56.3711 242.264C56.2111 242.424 56.0911 242.605 56.0111 242.808C55.9311 243.005 55.8911 243.213 55.8911 243.432ZM64.7804 250.912H67.2444V243.096C67.2444 242.861 67.2524 242.624 67.2684 242.384L65.2204 244.136C65.167 244.179 65.1137 244.211 65.0604 244.232C65.007 244.248 64.9564 244.256 64.9084 244.256C64.8284 244.256 64.7564 244.24 64.6924 244.208C64.6284 244.171 64.5804 244.128 64.5484 244.08L64.1004 243.464L67.5084 240.512H68.6684V250.912H70.9244V252H64.7804V250.912ZM80.5656 246.272C80.5656 247.275 80.4563 248.144 80.2376 248.88C80.0243 249.611 79.731 250.216 79.3576 250.696C78.9843 251.176 78.5416 251.533 78.0296 251.768C77.523 252.003 76.979 252.12 76.3976 252.12C75.811 252.12 75.2643 252.003 74.7576 251.768C74.2563 251.533 73.819 251.176 73.4456 250.696C73.0723 250.216 72.779 249.611 72.5656 248.88C72.3523 248.144 72.2456 247.275 72.2456 246.272C72.2456 245.269 72.3523 244.4 72.5656 243.664C72.779 242.928 73.0723 242.32 73.4456 241.84C73.819 241.355 74.2563 240.995 74.7576 240.76C75.2643 240.525 75.811 240.408 76.3976 240.408C76.979 240.408 77.523 240.525 78.0296 240.76C78.5416 240.995 78.9843 241.355 79.3576 241.84C79.731 242.32 80.0243 242.928 80.2376 243.664C80.4563 244.4 80.5656 245.269 80.5656 246.272ZM79.0856 246.272C79.0856 245.397 79.011 244.664 78.8616 244.072C78.7176 243.475 78.5203 242.995 78.2696 242.632C78.0243 242.269 77.739 242.011 77.4136 241.856C77.0883 241.696 76.7496 241.616 76.3976 241.616C76.0456 241.616 75.707 241.696 75.3816 241.856C75.0563 242.011 74.771 242.269 74.5256 242.632C74.2803 242.995 74.083 243.475 73.9336 244.072C73.7896 244.664 73.7176 245.397 73.7176 246.272C73.7176 247.147 73.7896 247.88 73.9336 248.472C74.083 249.064 74.2803 249.541 74.5256 249.904C74.771 250.267 75.0563 250.528 75.3816 250.688C75.707 250.843 76.0456 250.92 76.3976 250.92C76.7496 250.92 77.0883 250.843 77.4136 250.688C77.739 250.528 78.0243 250.267 78.2696 249.904C78.5203 249.541 78.7176 249.064 78.8616 248.472C79.011 247.88 79.0856 247.147 79.0856 246.272ZM81.7509 251.12C81.7509 250.981 81.7749 250.851 81.8229 250.728C81.8762 250.605 81.9455 250.499 82.0309 250.408C82.1215 250.317 82.2282 250.245 82.3509 250.192C82.4735 250.139 82.6042 250.112 82.7429 250.112C82.8815 250.112 83.0122 250.139 83.1349 250.192C83.2575 250.245 83.3642 250.317 83.4549 250.408C83.5455 250.499 83.6149 250.605 83.6629 250.728C83.7162 250.851 83.7429 250.981 83.7429 251.12C83.7429 251.264 83.7162 251.397 83.6629 251.52C83.6149 251.637 83.5455 251.741 83.4549 251.832C83.3642 251.923 83.2575 251.992 83.1349 252.04C83.0122 252.093 82.8815 252.12 82.7429 252.12C82.6042 252.12 82.4735 252.093 82.3509 252.04C82.2282 251.992 82.1215 251.923 82.0309 251.832C81.9455 251.741 81.8762 251.637 81.8229 251.52C81.7749 251.397 81.7509 251.264 81.7509 251.12ZM93.2375 246.272C93.2375 247.275 93.1282 248.144 92.9095 248.88C92.6962 249.611 92.4028 250.216 92.0295 250.696C91.6562 251.176 91.2135 251.533 90.7015 251.768C90.1948 252.003 89.6508 252.12 89.0695 252.12C88.4828 252.12 87.9362 252.003 87.4295 251.768C86.9282 251.533 86.4908 251.176 86.1175 250.696C85.7442 250.216 85.4508 249.611 85.2375 248.88C85.0242 248.144 84.9175 247.275 84.9175 246.272C84.9175 245.269 85.0242 244.4 85.2375 243.664C85.4508 242.928 85.7442 242.32 86.1175 241.84C86.4908 241.355 86.9282 240.995 87.4295 240.76C87.9362 240.525 88.4828 240.408 89.0695 240.408C89.6508 240.408 90.1948 240.525 90.7015 240.76C91.2135 240.995 91.6562 241.355 92.0295 241.84C92.4028 242.32 92.6962 242.928 92.9095 243.664C93.1282 244.4 93.2375 245.269 93.2375 246.272ZM91.7575 246.272C91.7575 245.397 91.6828 244.664 91.5335 244.072C91.3895 243.475 91.1922 242.995 90.9415 242.632C90.6962 242.269 90.4108 242.011 90.0855 241.856C89.7602 241.696 89.4215 241.616 89.0695 241.616C88.7175 241.616 88.3788 241.696 88.0535 241.856C87.7282 242.011 87.4428 242.269 87.1975 242.632C86.9522 242.995 86.7548 243.475 86.6055 244.072C86.4615 244.664 86.3895 245.397 86.3895 246.272C86.3895 247.147 86.4615 247.88 86.6055 248.472C86.7548 249.064 86.9522 249.541 87.1975 249.904C87.4428 250.267 87.7282 250.528 88.0535 250.688C88.3788 250.843 88.7175 250.92 89.0695 250.92C89.4215 250.92 89.7602 250.843 90.0855 250.688C90.4108 250.528 90.6962 250.267 90.9415 249.904C91.1922 249.541 91.3895 249.064 91.5335 248.472C91.6828 247.88 91.7575 247.147 91.7575 246.272ZM102.519 246.272C102.519 247.275 102.409 248.144 102.191 248.88C101.977 249.611 101.684 250.216 101.311 250.696C100.937 251.176 100.495 251.533 99.9828 251.768C99.4761 252.003 98.9321 252.12 98.3508 252.12C97.7641 252.12 97.2174 252.003 96.7108 251.768C96.2094 251.533 95.7721 251.176 95.3988 250.696C95.0254 250.216 94.7321 249.611 94.5188 248.88C94.3054 248.144 94.1988 247.275 94.1988 246.272C94.1988 245.269 94.3054 244.4 94.5188 243.664C94.7321 242.928 95.0254 242.32 95.3988 241.84C95.7721 241.355 96.2094 240.995 96.7108 240.76C97.2174 240.525 97.7641 240.408 98.3508 240.408C98.9321 240.408 99.4761 240.525 99.9828 240.76C100.495 240.995 100.937 241.355 101.311 241.84C101.684 242.32 101.977 242.928 102.191 243.664C102.409 244.4 102.519 245.269 102.519 246.272ZM101.039 246.272C101.039 245.397 100.964 244.664 100.815 244.072C100.671 243.475 100.473 242.995 100.223 242.632C99.9774 242.269 99.6921 242.011 99.3668 241.856C99.0414 241.696 98.7028 241.616 98.3508 241.616C97.9988 241.616 97.6601 241.696 97.3348 241.856C97.0094 242.011 96.7241 242.269 96.4788 242.632C96.2334 242.995 96.0361 243.475 95.8868 244.072C95.7428 244.664 95.6708 245.397 95.6708 246.272C95.6708 247.147 95.7428 247.88 95.8868 248.472C96.0361 249.064 96.2334 249.541 96.4788 249.904C96.7241 250.267 97.0094 250.528 97.3348 250.688C97.6601 250.843 97.9988 250.92 98.3508 250.92C98.7028 250.92 99.0414 250.843 99.3668 250.688C99.6921 250.528 99.9774 250.267 100.223 249.904C100.473 249.541 100.671 249.064 100.815 248.472C100.964 247.88 101.039 247.147 101.039 246.272Z" fill="#9D9D9D"/>
<path d="M57.1871 188.096C56.5418 188.037 55.9525 187.88 55.4191 187.624C54.8911 187.363 54.4351 187.032 54.0511 186.632L54.4751 185.976C54.5125 185.917 54.5658 185.869 54.6351 185.832C54.7045 185.795 54.7765 185.776 54.8511 185.776C54.9525 185.776 55.0671 185.827 55.1951 185.928C55.3231 186.029 55.4805 186.147 55.6671 186.28C55.8538 186.408 56.0751 186.533 56.3311 186.656C56.5925 186.779 56.9045 186.861 57.2671 186.904L57.5631 182.656C57.1898 182.544 56.8218 182.419 56.4591 182.28C56.1018 182.136 55.7791 181.952 55.4911 181.728C55.2085 181.499 54.9791 181.213 54.8031 180.872C54.6325 180.525 54.5471 180.093 54.5471 179.576C54.5471 179.187 54.6218 178.808 54.7711 178.44C54.9258 178.067 55.1471 177.736 55.4351 177.448C55.7285 177.16 56.0885 176.925 56.5151 176.744C56.9418 176.557 57.4325 176.453 57.9871 176.432L58.0671 175.28C58.0778 175.179 58.1178 175.088 58.1871 175.008C58.2565 174.928 58.3498 174.888 58.4671 174.888H58.9951L58.8831 176.472C59.4431 176.541 59.9258 176.685 60.3311 176.904C60.7365 177.123 61.0991 177.387 61.4191 177.696L61.0751 178.224C60.9685 178.384 60.8458 178.464 60.7071 178.464C60.6325 178.464 60.5391 178.432 60.4271 178.368C60.3205 178.299 60.1898 178.221 60.0351 178.136C59.8805 178.045 59.7018 177.957 59.4991 177.872C59.2965 177.781 59.0645 177.717 58.8031 177.68L58.5391 181.552C58.9231 181.669 59.3018 181.797 59.6751 181.936C60.0485 182.075 60.3845 182.253 60.6831 182.472C60.9818 182.691 61.2218 182.965 61.4031 183.296C61.5898 183.621 61.6831 184.029 61.6831 184.52C61.6831 185 61.6031 185.451 61.4431 185.872C61.2831 186.293 61.0485 186.664 60.7391 186.984C60.4351 187.304 60.0591 187.565 59.6111 187.768C59.1685 187.965 58.6618 188.08 58.0911 188.112L57.9951 189.52C57.9845 189.621 57.9418 189.709 57.8671 189.784C57.7978 189.864 57.7071 189.904 57.5951 189.904H57.0671L57.1871 188.096ZM60.3311 184.744C60.3311 184.477 60.2805 184.248 60.1791 184.056C60.0831 183.864 59.9498 183.699 59.7791 183.56C59.6085 183.421 59.4085 183.301 59.1791 183.2C58.9498 183.099 58.7045 183.005 58.4431 182.92L58.1711 186.904C58.5178 186.872 58.8245 186.797 59.0911 186.68C59.3631 186.557 59.5898 186.403 59.7711 186.216C59.9578 186.029 60.0965 185.813 60.1871 185.568C60.2831 185.317 60.3311 185.043 60.3311 184.744ZM55.8911 179.432C55.8911 179.688 55.9365 179.912 56.0271 180.104C56.1178 180.291 56.2431 180.456 56.4031 180.6C56.5631 180.744 56.7498 180.869 56.9631 180.976C57.1765 181.083 57.4085 181.179 57.6591 181.264L57.8991 177.656C57.5525 177.688 57.2511 177.757 56.9951 177.864C56.7445 177.971 56.5365 178.104 56.3711 178.264C56.2111 178.424 56.0911 178.605 56.0111 178.808C55.9311 179.005 55.8911 179.213 55.8911 179.432ZM67.2924 176.408C67.7777 176.408 68.231 176.48 68.6524 176.624C69.0737 176.768 69.4364 176.979 69.7404 177.256C70.0497 177.528 70.2924 177.861 70.4684 178.256C70.6444 178.651 70.7324 179.099 70.7324 179.6C70.7324 180.027 70.6684 180.421 70.5404 180.784C70.4124 181.147 70.239 181.496 70.0204 181.832C69.8017 182.163 69.5484 182.485 69.2604 182.8C68.9777 183.109 68.6764 183.427 68.3564 183.752L65.3404 186.84C65.5537 186.781 65.7697 186.736 65.9884 186.704C66.207 186.667 66.4177 186.648 66.6204 186.648H70.4604C70.615 186.648 70.7377 186.693 70.8284 186.784C70.919 186.875 70.9644 186.992 70.9644 187.136V188H63.3164V187.512C63.3164 187.411 63.335 187.307 63.3724 187.2C63.415 187.093 63.4817 186.995 63.5724 186.904L67.2444 183.216C67.5484 182.907 67.8257 182.611 68.0764 182.328C68.327 182.04 68.5404 181.752 68.7164 181.464C68.8977 181.176 69.0364 180.885 69.1324 180.592C69.2284 180.293 69.2764 179.976 69.2764 179.64C69.2764 179.304 69.223 179.011 69.1164 178.76C69.0097 178.504 68.863 178.293 68.6764 178.128C68.4897 177.963 68.271 177.84 68.0204 177.76C67.7697 177.675 67.5004 177.632 67.2124 177.632C66.9244 177.632 66.6577 177.675 66.4124 177.76C66.167 177.845 65.9484 177.965 65.7564 178.12C65.5697 178.269 65.4097 178.448 65.2764 178.656C65.1484 178.864 65.0577 179.093 65.0044 179.344C64.9617 179.499 64.8977 179.611 64.8124 179.68C64.727 179.749 64.615 179.784 64.4764 179.784C64.4497 179.784 64.4204 179.784 64.3884 179.784C64.3617 179.779 64.3297 179.773 64.2924 179.768L63.5484 179.64C63.623 179.117 63.767 178.656 63.9804 178.256C64.1937 177.851 64.463 177.512 64.7884 177.24C65.119 176.968 65.495 176.763 65.9164 176.624C66.343 176.48 66.8017 176.408 67.2924 176.408ZM80.5656 182.272C80.5656 183.275 80.4563 184.144 80.2376 184.88C80.0243 185.611 79.731 186.216 79.3576 186.696C78.9843 187.176 78.5416 187.533 78.0296 187.768C77.523 188.003 76.979 188.12 76.3976 188.12C75.811 188.12 75.2643 188.003 74.7576 187.768C74.2563 187.533 73.819 187.176 73.4456 186.696C73.0723 186.216 72.779 185.611 72.5656 184.88C72.3523 184.144 72.2456 183.275 72.2456 182.272C72.2456 181.269 72.3523 180.4 72.5656 179.664C72.779 178.928 73.0723 178.32 73.4456 177.84C73.819 177.355 74.2563 176.995 74.7576 176.76C75.2643 176.525 75.811 176.408 76.3976 176.408C76.979 176.408 77.523 176.525 78.0296 176.76C78.5416 176.995 78.9843 177.355 79.3576 177.84C79.731 178.32 80.0243 178.928 80.2376 179.664C80.4563 180.4 80.5656 181.269 80.5656 182.272ZM79.0856 182.272C79.0856 181.397 79.011 180.664 78.8616 180.072C78.7176 179.475 78.5203 178.995 78.2696 178.632C78.0243 178.269 77.739 178.011 77.4136 177.856C77.0883 177.696 76.7496 177.616 76.3976 177.616C76.0456 177.616 75.707 177.696 75.3816 177.856C75.0563 178.011 74.771 178.269 74.5256 178.632C74.2803 178.995 74.083 179.475 73.9336 180.072C73.7896 180.664 73.7176 181.397 73.7176 182.272C73.7176 183.147 73.7896 183.88 73.9336 184.472C74.083 185.064 74.2803 185.541 74.5256 185.904C74.771 186.267 75.0563 186.528 75.3816 186.688C75.707 186.843 76.0456 186.92 76.3976 186.92C76.7496 186.92 77.0883 186.843 77.4136 186.688C77.739 186.528 78.0243 186.267 78.2696 185.904C78.5203 185.541 78.7176 185.064 78.8616 184.472C79.011 183.88 79.0856 183.147 79.0856 182.272ZM81.7509 187.12C81.7509 186.981 81.7749 186.851 81.8229 186.728C81.8762 186.605 81.9455 186.499 82.0309 186.408C82.1215 186.317 82.2282 186.245 82.3509 186.192C82.4735 186.139 82.6042 186.112 82.7429 186.112C82.8815 186.112 83.0122 186.139 83.1349 186.192C83.2575 186.245 83.3642 186.317 83.4549 186.408C83.5455 186.499 83.6149 186.605 83.6629 186.728C83.7162 186.851 83.7429 186.981 83.7429 187.12C83.7429 187.264 83.7162 187.397 83.6629 187.52C83.6149 187.637 83.5455 187.741 83.4549 187.832C83.3642 187.923 83.2575 187.992 83.1349 188.04C83.0122 188.093 82.8815 188.12 82.7429 188.12C82.6042 188.12 82.4735 188.093 82.3509 188.04C82.2282 187.992 82.1215 187.923 82.0309 187.832C81.9455 187.741 81.8762 187.637 81.8229 187.52C81.7749 187.397 81.7509 187.264 81.7509 187.12ZM93.2375 182.272C93.2375 183.275 93.1282 184.144 92.9095 184.88C92.6962 185.611 92.4028 186.216 92.0295 186.696C91.6562 187.176 91.2135 187.533 90.7015 187.768C90.1948 188.003 89.6508 188.12 89.0695 188.12C88.4828 188.12 87.9362 188.003 87.4295 187.768C86.9282 187.533 86.4908 187.176 86.1175 186.696C85.7442 186.216 85.4508 185.611 85.2375 184.88C85.0242 184.144 84.9175 183.275 84.9175 182.272C84.9175 181.269 85.0242 180.4 85.2375 179.664C85.4508 178.928 85.7442 178.32 86.1175 177.84C86.4908 177.355 86.9282 176.995 87.4295 176.76C87.9362 176.525 88.4828 176.408 89.0695 176.408C89.6508 176.408 90.1948 176.525 90.7015 176.76C91.2135 176.995 91.6562 177.355 92.0295 177.84C92.4028 178.32 92.6962 178.928 92.9095 179.664C93.1282 180.4 93.2375 181.269 93.2375 182.272ZM91.7575 182.272C91.7575 181.397 91.6828 180.664 91.5335 180.072C91.3895 179.475 91.1922 178.995 90.9415 178.632C90.6962 178.269 90.4108 178.011 90.0855 177.856C89.7602 177.696 89.4215 177.616 89.0695 177.616C88.7175 177.616 88.3788 177.696 88.0535 177.856C87.7282 178.011 87.4428 178.269 87.1975 178.632C86.9522 178.995 86.7548 179.475 86.6055 180.072C86.4615 180.664 86.3895 181.397 86.3895 182.272C86.3895 183.147 86.4615 183.88 86.6055 184.472C86.7548 185.064 86.9522 185.541 87.1975 185.904C87.4428 186.267 87.7282 186.528 88.0535 186.688C88.3788 186.843 88.7175 186.92 89.0695 186.92C89.4215 186.92 89.7602 186.843 90.0855 186.688C90.4108 186.528 90.6962 186.267 90.9415 185.904C91.1922 185.541 91.3895 185.064 91.5335 184.472C91.6828 183.88 91.7575 183.147 91.7575 182.272ZM102.519 182.272C102.519 183.275 102.409 184.144 102.191 184.88C101.977 185.611 101.684 186.216 101.311 186.696C100.937 187.176 100.495 187.533 99.9828 187.768C99.4761 188.003 98.9321 188.12 98.3508 188.12C97.7641 188.12 97.2174 188.003 96.7108 187.768C96.2094 187.533 95.7721 187.176 95.3988 186.696C95.0254 186.216 94.7321 185.611 94.5188 184.88C94.3054 184.144 94.1988 183.275 94.1988 182.272C94.1988 181.269 94.3054 180.4 94.5188 179.664C94.7321 178.928 95.0254 178.32 95.3988 177.84C95.7721 177.355 96.2094 176.995 96.7108 176.76C97.2174 176.525 97.7641 176.408 98.3508 176.408C98.9321 176.408 99.4761 176.525 99.9828 176.76C100.495 176.995 100.937 177.355 101.311 177.84C101.684 178.32 101.977 178.928 102.191 179.664C102.409 180.4 102.519 181.269 102.519 182.272ZM101.039 182.272C101.039 181.397 100.964 180.664 100.815 180.072C100.671 179.475 100.473 178.995 100.223 178.632C99.9774 178.269 99.6921 178.011 99.3668 177.856C99.0414 177.696 98.7028 177.616 98.3508 177.616C97.9988 177.616 97.6601 177.696 97.3348 177.856C97.0094 178.011 96.7241 178.269 96.4788 178.632C96.2334 178.995 96.0361 179.475 95.8868 180.072C95.7428 180.664 95.6708 181.397 95.6708 182.272C95.6708 183.147 95.7428 183.88 95.8868 184.472C96.0361 185.064 96.2334 185.541 96.4788 185.904C96.7241 186.267 97.0094 186.528 97.3348 186.688C97.6601 186.843 97.9988 186.92 98.3508 186.92C98.7028 186.92 99.0414 186.843 99.3668 186.688C99.6921 186.528 99.9774 186.267 100.223 185.904C100.473 185.541 100.671 185.064 100.815 184.472C100.964 183.88 101.039 183.147 101.039 182.272Z" fill="#9D9D9D"/>
<path d="M57.1871 124.096C56.5418 124.037 55.9525 123.88 55.4191 123.624C54.8911 123.363 54.4351 123.032 54.0511 122.632L54.4751 121.976C54.5125 121.917 54.5658 121.869 54.6351 121.832C54.7045 121.795 54.7765 121.776 54.8511 121.776C54.9525 121.776 55.0671 121.827 55.1951 121.928C55.3231 122.029 55.4805 122.147 55.6671 122.28C55.8538 122.408 56.0751 122.533 56.3311 122.656C56.5925 122.779 56.9045 122.861 57.2671 122.904L57.5631 118.656C57.1898 118.544 56.8218 118.419 56.4591 118.28C56.1018 118.136 55.7791 117.952 55.4911 117.728C55.2085 117.499 54.9791 117.213 54.8031 116.872C54.6325 116.525 54.5471 116.093 54.5471 115.576C54.5471 115.187 54.6218 114.808 54.7711 114.44C54.9258 114.067 55.1471 113.736 55.4351 113.448C55.7285 113.16 56.0885 112.925 56.5151 112.744C56.9418 112.557 57.4325 112.453 57.9871 112.432L58.0671 111.28C58.0778 111.179 58.1178 111.088 58.1871 111.008C58.2565 110.928 58.3498 110.888 58.4671 110.888H58.9951L58.8831 112.472C59.4431 112.541 59.9258 112.685 60.3311 112.904C60.7365 113.123 61.0991 113.387 61.4191 113.696L61.0751 114.224C60.9685 114.384 60.8458 114.464 60.7071 114.464C60.6325 114.464 60.5391 114.432 60.4271 114.368C60.3205 114.299 60.1898 114.221 60.0351 114.136C59.8805 114.045 59.7018 113.957 59.4991 113.872C59.2965 113.781 59.0645 113.717 58.8031 113.68L58.5391 117.552C58.9231 117.669 59.3018 117.797 59.6751 117.936C60.0485 118.075 60.3845 118.253 60.6831 118.472C60.9818 118.691 61.2218 118.965 61.4031 119.296C61.5898 119.621 61.6831 120.029 61.6831 120.52C61.6831 121 61.6031 121.451 61.4431 121.872C61.2831 122.293 61.0485 122.664 60.7391 122.984C60.4351 123.304 60.0591 123.565 59.6111 123.768C59.1685 123.965 58.6618 124.08 58.0911 124.112L57.9951 125.52C57.9845 125.621 57.9418 125.709 57.8671 125.784C57.7978 125.864 57.7071 125.904 57.5951 125.904H57.0671L57.1871 124.096ZM60.3311 120.744C60.3311 120.477 60.2805 120.248 60.1791 120.056C60.0831 119.864 59.9498 119.699 59.7791 119.56C59.6085 119.421 59.4085 119.301 59.1791 119.2C58.9498 119.099 58.7045 119.005 58.4431 118.92L58.1711 122.904C58.5178 122.872 58.8245 122.797 59.0911 122.68C59.3631 122.557 59.5898 122.403 59.7711 122.216C59.9578 122.029 60.0965 121.813 60.1871 121.568C60.2831 121.317 60.3311 121.043 60.3311 120.744ZM55.8911 115.432C55.8911 115.688 55.9365 115.912 56.0271 116.104C56.1178 116.291 56.2431 116.456 56.4031 116.6C56.5631 116.744 56.7498 116.869 56.9631 116.976C57.1765 117.083 57.4085 117.179 57.6591 117.264L57.8991 113.656C57.5525 113.688 57.2511 113.757 56.9951 113.864C56.7445 113.971 56.5365 114.104 56.3711 114.264C56.2111 114.424 56.0911 114.605 56.0111 114.808C55.9311 115.005 55.8911 115.213 55.8911 115.432ZM70.3084 113.16C70.3084 113.363 70.2444 113.531 70.1164 113.664C69.9884 113.792 69.7724 113.856 69.4684 113.856H65.8684L65.3404 116.864C65.9377 116.736 66.4897 116.672 66.9964 116.672C67.5937 116.672 68.119 116.76 68.5724 116.936C69.031 117.112 69.415 117.355 69.7244 117.664C70.0337 117.973 70.2657 118.339 70.4204 118.76C70.5804 119.181 70.6604 119.64 70.6604 120.136C70.6604 120.744 70.5537 121.293 70.3404 121.784C70.127 122.275 69.8337 122.696 69.4604 123.048C69.0924 123.395 68.6577 123.661 68.1564 123.848C67.655 124.035 67.1137 124.128 66.5324 124.128C66.1964 124.128 65.8737 124.093 65.5644 124.024C65.255 123.96 64.967 123.872 64.7004 123.76C64.4337 123.648 64.1857 123.52 63.9564 123.376C63.727 123.232 63.5244 123.08 63.3484 122.92L63.7804 122.312C63.8764 122.173 64.0044 122.104 64.1644 122.104C64.2657 122.104 64.383 122.147 64.5164 122.232C64.655 122.312 64.8204 122.403 65.0124 122.504C65.2044 122.605 65.4284 122.699 65.6844 122.784C65.9457 122.864 66.255 122.904 66.6124 122.904C67.0124 122.904 67.3724 122.84 67.6924 122.712C68.0124 122.584 68.2844 122.403 68.5084 122.168C68.7377 121.928 68.9137 121.643 69.0364 121.312C69.159 120.981 69.2204 120.611 69.2204 120.2C69.2204 119.843 69.167 119.52 69.0604 119.232C68.959 118.944 68.8017 118.699 68.5884 118.496C68.3804 118.293 68.119 118.136 67.8044 118.024C67.4897 117.912 67.1217 117.856 66.7004 117.856C66.4124 117.856 66.1137 117.88 65.8044 117.928C65.495 117.976 65.175 118.053 64.8444 118.16L63.9484 117.896L64.8764 112.536H70.3084V113.16ZM80.5656 118.272C80.5656 119.275 80.4563 120.144 80.2376 120.88C80.0243 121.611 79.731 122.216 79.3576 122.696C78.9843 123.176 78.5416 123.533 78.0296 123.768C77.523 124.003 76.979 124.12 76.3976 124.12C75.811 124.12 75.2643 124.003 74.7576 123.768C74.2563 123.533 73.819 123.176 73.4456 122.696C73.0723 122.216 72.779 121.611 72.5656 120.88C72.3523 120.144 72.2456 119.275 72.2456 118.272C72.2456 117.269 72.3523 116.4 72.5656 115.664C72.779 114.928 73.0723 114.32 73.4456 113.84C73.819 113.355 74.2563 112.995 74.7576 112.76C75.2643 112.525 75.811 112.408 76.3976 112.408C76.979 112.408 77.523 112.525 78.0296 112.76C78.5416 112.995 78.9843 113.355 79.3576 113.84C79.731 114.32 80.0243 114.928 80.2376 115.664C80.4563 116.4 80.5656 117.269 80.5656 118.272ZM79.0856 118.272C79.0856 117.397 79.011 116.664 78.8616 116.072C78.7176 115.475 78.5203 114.995 78.2696 114.632C78.0243 114.269 77.739 114.011 77.4136 113.856C77.0883 113.696 76.7496 113.616 76.3976 113.616C76.0456 113.616 75.707 113.696 75.3816 113.856C75.0563 114.011 74.771 114.269 74.5256 114.632C74.2803 114.995 74.083 115.475 73.9336 116.072C73.7896 116.664 73.7176 117.397 73.7176 118.272C73.7176 119.147 73.7896 119.88 73.9336 120.472C74.083 121.064 74.2803 121.541 74.5256 121.904C74.771 122.267 75.0563 122.528 75.3816 122.688C75.707 122.843 76.0456 122.92 76.3976 122.92C76.7496 122.92 77.0883 122.843 77.4136 122.688C77.739 122.528 78.0243 122.267 78.2696 121.904C78.5203 121.541 78.7176 121.064 78.8616 120.472C79.011 119.88 79.0856 119.147 79.0856 118.272ZM81.7509 123.12C81.7509 122.981 81.7749 122.851 81.8229 122.728C81.8762 122.605 81.9455 122.499 82.0309 122.408C82.1215 122.317 82.2282 122.245 82.3509 122.192C82.4735 122.139 82.6042 122.112 82.7429 122.112C82.8815 122.112 83.0122 122.139 83.1349 122.192C83.2575 122.245 83.3642 122.317 83.4549 122.408C83.5455 122.499 83.6149 122.605 83.6629 122.728C83.7162 122.851 83.7429 122.981 83.7429 123.12C83.7429 123.264 83.7162 123.397 83.6629 123.52C83.6149 123.637 83.5455 123.741 83.4549 123.832C83.3642 123.923 83.2575 123.992 83.1349 124.04C83.0122 124.093 82.8815 124.12 82.7429 124.12C82.6042 124.12 82.4735 124.093 82.3509 124.04C82.2282 123.992 82.1215 123.923 82.0309 123.832C81.9455 123.741 81.8762 123.637 81.8229 123.52C81.7749 123.397 81.7509 123.264 81.7509 123.12ZM93.2375 118.272C93.2375 119.275 93.1282 120.144 92.9095 120.88C92.6962 121.611 92.4028 122.216 92.0295 122.696C91.6562 123.176 91.2135 123.533 90.7015 123.768C90.1948 124.003 89.6508 124.12 89.0695 124.12C88.4828 124.12 87.9362 124.003 87.4295 123.768C86.9282 123.533 86.4908 123.176 86.1175 122.696C85.7442 122.216 85.4508 121.611 85.2375 120.88C85.0242 120.144 84.9175 119.275 84.9175 118.272C84.9175 117.269 85.0242 116.4 85.2375 115.664C85.4508 114.928 85.7442 114.32 86.1175 113.84C86.4908 113.355 86.9282 112.995 87.4295 112.76C87.9362 112.525 88.4828 112.408 89.0695 112.408C89.6508 112.408 90.1948 112.525 90.7015 112.76C91.2135 112.995 91.6562 113.355 92.0295 113.84C92.4028 114.32 92.6962 114.928 92.9095 115.664C93.1282 116.4 93.2375 117.269 93.2375 118.272ZM91.7575 118.272C91.7575 117.397 91.6828 116.664 91.5335 116.072C91.3895 115.475 91.1922 114.995 90.9415 114.632C90.6962 114.269 90.4108 114.011 90.0855 113.856C89.7602 113.696 89.4215 113.616 89.0695 113.616C88.7175 113.616 88.3788 113.696 88.0535 113.856C87.7282 114.011 87.4428 114.269 87.1975 114.632C86.9522 114.995 86.7548 115.475 86.6055 116.072C86.4615 116.664 86.3895 117.397 86.3895 118.272C86.3895 119.147 86.4615 119.88 86.6055 120.472C86.7548 121.064 86.9522 121.541 87.1975 121.904C87.4428 122.267 87.7282 122.528 88.0535 122.688C88.3788 122.843 88.7175 122.92 89.0695 122.92C89.4215 122.92 89.7602 122.843 90.0855 122.688C90.4108 122.528 90.6962 122.267 90.9415 121.904C91.1922 121.541 91.3895 121.064 91.5335 120.472C91.6828 119.88 91.7575 119.147 91.7575 118.272ZM102.519 118.272C102.519 119.275 102.409 120.144 102.191 120.88C101.977 121.611 101.684 122.216 101.311 122.696C100.937 123.176 100.495 123.533 99.9828 123.768C99.4761 124.003 98.9321 124.12 98.3508 124.12C97.7641 124.12 97.2174 124.003 96.7108 123.768C96.2094 123.533 95.7721 123.176 95.3988 122.696C95.0254 122.216 94.7321 121.611 94.5188 120.88C94.3054 120.144 94.1988 119.275 94.1988 118.272C94.1988 117.269 94.3054 116.4 94.5188 115.664C94.7321 114.928 95.0254 114.32 95.3988 113.84C95.7721 113.355 96.2094 112.995 96.7108 112.76C97.2174 112.525 97.7641 112.408 98.3508 112.408C98.9321 112.408 99.4761 112.525 99.9828 112.76C100.495 112.995 100.937 113.355 101.311 113.84C101.684 114.32 101.977 114.928 102.191 115.664C102.409 116.4 102.519 117.269 102.519 118.272ZM101.039 118.272C101.039 117.397 100.964 116.664 100.815 116.072C100.671 115.475 100.473 114.995 100.223 114.632C99.9774 114.269 99.6921 114.011 99.3668 113.856C99.0414 113.696 98.7028 113.616 98.3508 113.616C97.9988 113.616 97.6601 113.696 97.3348 113.856C97.0094 114.011 96.7241 114.269 96.4788 114.632C96.2334 114.995 96.0361 115.475 95.8868 116.072C95.7428 116.664 95.6708 117.397 95.6708 118.272C95.6708 119.147 95.7428 119.88 95.8868 120.472C96.0361 121.064 96.2334 121.541 96.4788 121.904C96.7241 122.267 97.0094 122.528 97.3348 122.688C97.6601 122.843 97.9988 122.92 98.3508 122.92C98.7028 122.92 99.0414 122.843 99.3668 122.688C99.6921 122.528 99.9774 122.267 100.223 121.904C100.473 121.541 100.671 121.064 100.815 120.472C100.964 119.88 101.039 119.147 101.039 118.272Z" fill="#9D9D9D"/>
<path d="M47.9059 60.096C47.2605 60.0373 46.6712 59.88 46.1379 59.624C45.6099 59.3627 45.1539 59.032 44.7699 58.632L45.1939 57.976C45.2312 57.9173 45.2845 57.8693 45.3539 57.832C45.4232 57.7947 45.4952 57.776 45.5699 57.776C45.6712 57.776 45.7859 57.8267 45.9139 57.928C46.0419 58.0293 46.1992 58.1467 46.3859 58.28C46.5725 58.408 46.7939 58.5333 47.0499 58.656C47.3112 58.7787 47.6232 58.8613 47.9859 58.904L48.2819 54.656C47.9085 54.544 47.5405 54.4187 47.1779 54.28C46.8205 54.136 46.4979 53.952 46.2099 53.728C45.9272 53.4987 45.6979 53.2133 45.5219 52.872C45.3512 52.5253 45.2659 52.0933 45.2659 51.576C45.2659 51.1867 45.3405 50.808 45.4899 50.44C45.6445 50.0667 45.8659 49.736 46.1539 49.448C46.4472 49.16 46.8072 48.9253 47.2339 48.744C47.6605 48.5573 48.1512 48.4533 48.7059 48.432L48.7859 47.28C48.7965 47.1787 48.8365 47.088 48.9059 47.008C48.9752 46.928 49.0685 46.888 49.1859 46.888H49.7139L49.6019 48.472C50.1619 48.5413 50.6445 48.6853 51.0499 48.904C51.4552 49.1227 51.8179 49.3867 52.1379 49.696L51.7939 50.224C51.6872 50.384 51.5645 50.464 51.4259 50.464C51.3512 50.464 51.2579 50.432 51.1459 50.368C51.0392 50.2987 50.9085 50.2213 50.7539 50.136C50.5992 50.0453 50.4205 49.9573 50.2179 49.872C50.0152 49.7813 49.7832 49.7173 49.5219 49.68L49.2579 53.552C49.6419 53.6693 50.0205 53.7973 50.3939 53.936C50.7672 54.0747 51.1032 54.2533 51.4019 54.472C51.7005 54.6907 51.9405 54.9653 52.1219 55.296C52.3085 55.6213 52.4019 56.0293 52.4019 56.52C52.4019 57 52.3219 57.4507 52.1619 57.872C52.0019 58.2933 51.7672 58.664 51.4579 58.984C51.1539 59.304 50.7779 59.5653 50.3299 59.768C49.8872 59.9653 49.3805 60.08 48.8099 60.112L48.7139 61.52C48.7032 61.6213 48.6605 61.7093 48.5859 61.784C48.5165 61.864 48.4259 61.904 48.3139 61.904H47.7859L47.9059 60.096ZM51.0499 56.744C51.0499 56.4773 50.9992 56.248 50.8979 56.056C50.8019 55.864 50.6685 55.6987 50.4979 55.56C50.3272 55.4213 50.1272 55.3013 49.8979 55.2C49.6685 55.0987 49.4232 55.0053 49.1619 54.92L48.8899 58.904C49.2365 58.872 49.5432 58.7973 49.8099 58.68C50.0819 58.5573 50.3085 58.4027 50.4899 58.216C50.6765 58.0293 50.8152 57.8133 50.9059 57.568C51.0019 57.3173 51.0499 57.0427 51.0499 56.744ZM46.6099 51.432C46.6099 51.688 46.6552 51.912 46.7459 52.104C46.8365 52.2907 46.9619 52.456 47.1219 52.6C47.2819 52.744 47.4685 52.8693 47.6819 52.976C47.8952 53.0827 48.1272 53.1787 48.3779 53.264L48.6179 49.656C48.2712 49.688 47.9699 49.7573 47.7139 49.864C47.4632 49.9707 47.2552 50.104 47.0899 50.264C46.9299 50.424 46.8099 50.6053 46.7299 50.808C46.6499 51.0053 46.6099 51.2133 46.6099 51.432ZM55.4991 58.912H57.9631V51.096C57.9631 50.8613 57.9711 50.624 57.9871 50.384L55.9391 52.136C55.8858 52.1787 55.8325 52.2107 55.7791 52.232C55.7258 52.248 55.6751 52.256 55.6271 52.256C55.5471 52.256 55.4751 52.24 55.4111 52.208C55.3471 52.1707 55.2991 52.128 55.2671 52.08L54.8191 51.464L58.2271 48.512H59.3871V58.912H61.6431V60H55.4991V58.912ZM71.2844 54.272C71.2844 55.2747 71.175 56.144 70.9564 56.88C70.743 57.6107 70.4497 58.216 70.0764 58.696C69.703 59.176 69.2604 59.5333 68.7484 59.768C68.2417 60.0027 67.6977 60.12 67.1164 60.12C66.5297 60.12 65.983 60.0027 65.4764 59.768C64.975 59.5333 64.5377 59.176 64.1644 58.696C63.791 58.216 63.4977 57.6107 63.2844 56.88C63.071 56.144 62.9644 55.2747 62.9644 54.272C62.9644 53.2693 63.071 52.4 63.2844 51.664C63.4977 50.928 63.791 50.32 64.1644 49.84C64.5377 49.3547 64.975 48.9947 65.4764 48.76C65.983 48.5253 66.5297 48.408 67.1164 48.408C67.6977 48.408 68.2417 48.5253 68.7484 48.76C69.2604 48.9947 69.703 49.3547 70.0764 49.84C70.4497 50.32 70.743 50.928 70.9564 51.664C71.175 52.4 71.2844 53.2693 71.2844 54.272ZM69.8044 54.272C69.8044 53.3973 69.7297 52.664 69.5804 52.072C69.4364 51.4747 69.239 50.9947 68.9884 50.632C68.743 50.2693 68.4577 50.0107 68.1324 49.856C67.807 49.696 67.4684 49.616 67.1164 49.616C66.7644 49.616 66.4257 49.696 66.1004 49.856C65.775 50.0107 65.4897 50.2693 65.2444 50.632C64.999 50.9947 64.8017 51.4747 64.6524 52.072C64.5084 52.664 64.4364 53.3973 64.4364 54.272C64.4364 55.1467 64.5084 55.88 64.6524 56.472C64.8017 57.064 64.999 57.5413 65.2444 57.904C65.4897 58.2667 65.775 58.528 66.1004 58.688C66.4257 58.8427 66.7644 58.92 67.1164 58.92C67.4684 58.92 67.807 58.8427 68.1324 58.688C68.4577 58.528 68.743 58.2667 68.9884 57.904C69.239 57.5413 69.4364 57.064 69.5804 56.472C69.7297 55.88 69.8044 55.1467 69.8044 54.272ZM80.5656 54.272C80.5656 55.2747 80.4563 56.144 80.2376 56.88C80.0243 57.6107 79.731 58.216 79.3576 58.696C78.9843 59.176 78.5416 59.5333 78.0296 59.768C77.523 60.0027 76.979 60.12 76.3976 60.12C75.811 60.12 75.2643 60.0027 74.7576 59.768C74.2563 59.5333 73.819 59.176 73.4456 58.696C73.0723 58.216 72.779 57.6107 72.5656 56.88C72.3523 56.144 72.2456 55.2747 72.2456 54.272C72.2456 53.2693 72.3523 52.4 72.5656 51.664C72.779 50.928 73.0723 50.32 73.4456 49.84C73.819 49.3547 74.2563 48.9947 74.7576 48.76C75.2643 48.5253 75.811 48.408 76.3976 48.408C76.979 48.408 77.523 48.5253 78.0296 48.76C78.5416 48.9947 78.9843 49.3547 79.3576 49.84C79.731 50.32 80.0243 50.928 80.2376 51.664C80.4563 52.4 80.5656 53.2693 80.5656 54.272ZM79.0856 54.272C79.0856 53.3973 79.011 52.664 78.8616 52.072C78.7176 51.4747 78.5203 50.9947 78.2696 50.632C78.0243 50.2693 77.739 50.0107 77.4136 49.856C77.0883 49.696 76.7496 49.616 76.3976 49.616C76.0456 49.616 75.707 49.696 75.3816 49.856C75.0563 50.0107 74.771 50.2693 74.5256 50.632C74.2803 50.9947 74.083 51.4747 73.9336 52.072C73.7896 52.664 73.7176 53.3973 73.7176 54.272C73.7176 55.1467 73.7896 55.88 73.9336 56.472C74.083 57.064 74.2803 57.5413 74.5256 57.904C74.771 58.2667 75.0563 58.528 75.3816 58.688C75.707 58.8427 76.0456 58.92 76.3976 58.92C76.7496 58.92 77.0883 58.8427 77.4136 58.688C77.739 58.528 78.0243 58.2667 78.2696 57.904C78.5203 57.5413 78.7176 57.064 78.8616 56.472C79.011 55.88 79.0856 55.1467 79.0856 54.272ZM81.7509 59.12C81.7509 58.9813 81.7749 58.8507 81.8229 58.728C81.8762 58.6053 81.9455 58.4987 82.0309 58.408C82.1215 58.3173 82.2282 58.2453 82.3509 58.192C82.4735 58.1387 82.6042 58.112 82.7429 58.112C82.8815 58.112 83.0122 58.1387 83.1349 58.192C83.2575 58.2453 83.3642 58.3173 83.4549 58.408C83.5455 58.4987 83.6149 58.6053 83.6629 58.728C83.7162 58.8507 83.7429 58.9813 83.7429 59.12C83.7429 59.264 83.7162 59.3973 83.6629 59.52C83.6149 59.6373 83.5455 59.7413 83.4549 59.832C83.3642 59.9227 83.2575 59.992 83.1349 60.04C83.0122 60.0933 82.8815 60.12 82.7429 60.12C82.6042 60.12 82.4735 60.0933 82.3509 60.04C82.2282 59.992 82.1215 59.9227 82.0309 59.832C81.9455 59.7413 81.8762 59.6373 81.8229 59.52C81.7749 59.3973 81.7509 59.264 81.7509 59.12ZM93.2375 54.272C93.2375 55.2747 93.1282 56.144 92.9095 56.88C92.6962 57.6107 92.4028 58.216 92.0295 58.696C91.6562 59.176 91.2135 59.5333 90.7015 59.768C90.1948 60.0027 89.6508 60.12 89.0695 60.12C88.4828 60.12 87.9362 60.0027 87.4295 59.768C86.9282 59.5333 86.4908 59.176 86.1175 58.696C85.7442 58.216 85.4508 57.6107 85.2375 56.88C85.0242 56.144 84.9175 55.2747 84.9175 54.272C84.9175 53.2693 85.0242 52.4 85.2375 51.664C85.4508 50.928 85.7442 50.32 86.1175 49.84C86.4908 49.3547 86.9282 48.9947 87.4295 48.76C87.9362 48.5253 88.4828 48.408 89.0695 48.408C89.6508 48.408 90.1948 48.5253 90.7015 48.76C91.2135 48.9947 91.6562 49.3547 92.0295 49.84C92.4028 50.32 92.6962 50.928 92.9095 51.664C93.1282 52.4 93.2375 53.2693 93.2375 54.272ZM91.7575 54.272C91.7575 53.3973 91.6828 52.664 91.5335 52.072C91.3895 51.4747 91.1922 50.9947 90.9415 50.632C90.6962 50.2693 90.4108 50.0107 90.0855 49.856C89.7602 49.696 89.4215 49.616 89.0695 49.616C88.7175 49.616 88.3788 49.696 88.0535 49.856C87.7282 50.0107 87.4428 50.2693 87.1975 50.632C86.9522 50.9947 86.7548 51.4747 86.6055 52.072C86.4615 52.664 86.3895 53.3973 86.3895 54.272C86.3895 55.1467 86.4615 55.88 86.6055 56.472C86.7548 57.064 86.9522 57.5413 87.1975 57.904C87.4428 58.2667 87.7282 58.528 88.0535 58.688C88.3788 58.8427 88.7175 58.92 89.0695 58.92C89.4215 58.92 89.7602 58.8427 90.0855 58.688C90.4108 58.528 90.6962 58.2667 90.9415 57.904C91.1922 57.5413 91.3895 57.064 91.5335 56.472C91.6828 55.88 91.7575 55.1467 91.7575 54.272ZM102.519 54.272C102.519 55.2747 102.409 56.144 102.191 56.88C101.977 57.6107 101.684 58.216 101.311 58.696C100.937 59.176 100.495 59.5333 99.9828 59.768C99.4761 60.0027 98.9321 60.12 98.3508 60.12C97.7641 60.12 97.2174 60.0027 96.7108 59.768C96.2094 59.5333 95.7721 59.176 95.3988 58.696C95.0254 58.216 94.7321 57.6107 94.5188 56.88C94.3054 56.144 94.1988 55.2747 94.1988 54.272C94.1988 53.2693 94.3054 52.4 94.5188 51.664C94.7321 50.928 95.0254 50.32 95.3988 49.84C95.7721 49.3547 96.2094 48.9947 96.7108 48.76C97.2174 48.5253 97.7641 48.408 98.3508 48.408C98.9321 48.408 99.4761 48.5253 99.9828 48.76C100.495 48.9947 100.937 49.3547 101.311 49.84C101.684 50.32 101.977 50.928 102.191 51.664C102.409 52.4 102.519 53.2693 102.519 54.272ZM101.039 54.272C101.039 53.3973 100.964 52.664 100.815 52.072C100.671 51.4747 100.473 50.9947 100.223 50.632C99.9774 50.2693 99.6921 50.0107 99.3668 49.856C99.0414 49.696 98.7028 49.616 98.3508 49.616C97.9988 49.616 97.6601 49.696 97.3348 49.856C97.0094 50.0107 96.7241 50.2693 96.4788 50.632C96.2334 50.9947 96.0361 51.4747 95.8868 52.072C95.7428 52.664 95.6708 53.3973 95.6708 54.272C95.6708 55.1467 95.7428 55.88 95.8868 56.472C96.0361 57.064 96.2334 57.5413 96.4788 57.904C96.7241 58.2667 97.0094 58.528 97.3348 58.688C97.6601 58.8427 97.9988 58.92 98.3508 58.92C98.7028 58.92 99.0414 58.8427 99.3668 58.688C99.6921 58.528 99.9774 58.2667 100.223 57.904C100.473 57.5413 100.671 57.064 100.815 56.472C100.964 55.88 101.039 55.1467 101.039 54.272Z" fill="#9D9D9D"/>
<line x1="122.5" y1="318.5" x2="1147.5" y2="318.5" stroke="#9D9D9D" stroke-linecap="round"/>
<line x1="123" y1="308" x2="1147" y2="308" stroke="url(#paint0_radial_1086_3155)" stroke-width="2" stroke-linecap="round"/>
<line x1="122.5" y1="318.5" x2="122.5" y2="44.5" stroke="#9D9D9D" stroke-linecap="round"/>
<defs>
<filter id="filter0_dii_1086_3155" x="0" y="0" width="1272" height="410" filterUnits="userSpaceOnUse" color-interpolation-filters="sRGB">
<feFlood flood-opacity="0" result="BackgroundImageFix"/>
<feColorMatrix in="SourceAlpha" type="matrix" values="0 0 0 0 0 0 0 0 0 0 0 0 0 0 0 0 0 0 127 0" result="hardAlpha"/>
<feOffset dx="4" dy="4"/>
<feGaussianBlur stdDeviation="4"/>
<feComposite in2="hardAlpha" operator="out"/>
<feColorMatrix type="matrix" values="0 0 0 0 0 0 0 0 0 0 0 0 0 0 0 0 0 0 0.25 0"/>
<feBlend mode="normal" in2="BackgroundImageFix" result="effect1_dropShadow_1086_3155"/>
<feBlend mode="normal" in="SourceGraphic" in2="effect1_dropShadow_1086_3155" result="shape"/>
<feColorMatrix in="SourceAlpha" type="matrix" values="0 0 0 0 0 0 0 0 0 0 0 0 0 0 0 0 0 0 127 0" result="hardAlpha"/>
<feOffset dx="4" dy="4"/>
<feGaussianBlur stdDeviation="4"/>
<feComposite in2="hardAlpha" operator="arithmetic" k2="-1" k3="1"/>
<feColorMatrix type="matrix" values="0 0 0 0 0.247108 0 0 0 0 0.247108 0 0 0 0 0.247108 0 0 0 1 0"/>
<feBlend mode="normal" in2="shape" result="effect2_innerShadow_1086_3155"/>
<feColorMatrix in="SourceAlpha" type="matrix" values="0 0 0 0 0 0 0 0 0 0 0 0 0 0 0 0 0 0 127 0" result="hardAlpha"/>
<feOffset dx="-4" dy="-4"/>
<feGaussianBlur stdDeviation="4"/>
<feComposite in2="hardAlpha" operator="arithmetic" k2="-1" k3="1"/>
<feColorMatrix type="matrix" values="0 0 0 0 0 0 0 0 0 0 0 0 0 0 0 0 0 0 0.25 0"/>
<feBlend mode="normal" in2="effect2_innerShadow_1086_3155" result="effect3_innerShadow_1086_3155"/>
</filter>
<radialGradient id="paint0_radial_1086_3155" cx="0" cy="0" r="1" gradientUnits="userSpaceOnUse" gradientTransform="translate(2416.09 308.097) scale(461.7 0.45)">
<stop stop-color="#FFC942"/>
<stop offset="0.28" stop-color="#FEC73E"/>
<stop offset="0.57" stop-color="#FBC131"/>
<stop offset="0.86" stop-color="#F5B71D"/>
<stop offset="1" stop-color="#F2B110"/>
</radialGradient>
</defs>
</svg>
