<svg width="113" height="27" viewBox="0 0 113 27" fill="none" xmlns="http://www.w3.org/2000/svg">
<path d="M23.1431 0H3.85693C1.72681 0 0 1.72681 0 3.85693V23.1431C0 25.2732 1.72681 27 3.85693 27H23.1431C25.2732 27 27 25.2732 27 23.1431V3.85693C27 1.72681 25.2732 0 23.1431 0Z" fill="url(#paint0_radial_1536_3209)"/>
<path d="M18.7255 7.82295V12.8192C18.7255 13.0515 18.7079 13.2786 18.6728 13.4999C18.4464 14.9448 17.5129 16.153 16.238 16.7612C15.6687 17.0337 15.032 17.1854 14.3594 17.1854H12.6419C12.3818 17.1854 12.1276 17.1627 11.8806 17.1194C11.5575 17.0623 11.3253 16.7765 11.3253 16.4483V14.1579C11.6638 14.492 12.129 14.6979 12.6419 14.6979H14.3594C15.1353 14.6979 15.8028 14.2253 16.0893 13.5519C16.0966 13.5351 16.1032 13.5175 16.1098 13.4999C16.1926 13.2889 16.2373 13.0596 16.2373 12.8192V7.82295C16.2373 6.78544 15.3961 5.9443 14.3586 5.9443H12.6412C11.6037 5.9443 10.7625 6.78544 10.7625 7.82295V9.36455C9.73163 9.76827 8.86045 10.4936 8.27502 11.4176V7.82295C8.27502 5.41163 10.2299 3.45605 12.6419 3.45605H14.3594C16.7707 3.45605 18.7263 5.4109 18.7263 7.82295H18.7255Z" fill="#160100"/>
<path d="M18.7255 15.5823V19.1769C18.7255 21.5882 16.7707 23.5438 14.3586 23.5438H12.6412C10.2299 23.5438 8.27429 21.5889 8.27429 19.1769V14.1799C8.27429 13.9491 8.29188 13.7219 8.32705 13.4999C8.55272 12.0565 9.48691 10.8468 10.7618 10.238C11.3311 9.96612 11.9678 9.81445 12.6405 9.81445H14.3579C14.6195 9.81445 14.8767 9.8379 15.1258 9.88186C15.4482 9.93901 15.6804 10.2248 15.6804 10.5523V12.8478C15.3412 12.5108 14.873 12.302 14.3579 12.302H12.6405C11.9268 12.302 11.3047 12.7013 10.9882 13.2889C10.9508 13.3563 10.9179 13.4267 10.8893 13.4999C10.8065 13.711 10.7618 13.9396 10.7618 14.1799V19.1769C10.7618 20.2144 11.6029 21.0555 12.6405 21.0555H14.3579C15.3954 21.0555 16.2365 20.2144 16.2365 19.1769V17.6353C17.2675 17.2316 18.1386 16.5062 18.7241 15.5823H18.7255Z" fill="#FFFDFA"/>
<path d="M35.3185 20.6551H32.1428L36.9835 6.62793H40.8021L45.6364 20.6551H42.4607L38.9507 9.83579H38.8414L35.3185 20.6551ZM35.1193 15.1394H42.6278V17.4536H35.1193V15.1394V15.1394Z" fill="#FFFDFA"/>
<path d="M55.7744 13.1335L53.1065 13.3006C53.0615 13.0692 52.9651 12.8635 52.8108 12.6835C52.663 12.4971 52.4637 12.3492 52.2194 12.2399C51.9751 12.1306 51.6858 12.0728 51.3451 12.0728C50.8951 12.0728 50.5094 12.1692 50.2008 12.3556C49.8923 12.5421 49.738 12.7992 49.738 13.1142C49.738 13.3649 49.8408 13.5771 50.0401 13.7506C50.2394 13.9242 50.5865 14.0656 51.0751 14.1685L52.978 14.5542C54.0001 14.7663 54.7651 15.1006 55.2665 15.5699C55.768 16.0328 56.0187 16.6499 56.0187 17.4021C56.0187 18.0899 55.8194 18.6942 55.4144 19.2149C55.0094 19.7356 54.4565 20.1406 53.7558 20.4299C53.0551 20.7192 52.2451 20.8671 51.3323 20.8671C49.9373 20.8671 48.8315 20.5778 48.0087 19.9928C47.1858 19.4078 46.7037 18.6171 46.5623 17.6142L49.4294 17.4663C49.513 17.8906 49.7251 18.2121 50.0594 18.4371C50.3937 18.6621 50.818 18.7713 51.3387 18.7713C51.8594 18.7713 52.2644 18.6749 52.573 18.4756C52.888 18.2763 53.0423 18.0192 53.0487 17.7042C53.0487 17.4406 52.933 17.2221 52.7144 17.0485C52.4958 16.8749 52.1551 16.7463 51.6987 16.6563L49.8794 16.2963C48.8508 16.0906 48.0858 15.7371 47.5908 15.2292C47.0894 14.7213 46.8387 14.0785 46.8387 13.2942C46.8387 12.6192 47.0251 12.0342 47.3915 11.5456C47.758 11.0571 48.2787 10.6778 48.9473 10.4142C49.6158 10.1506 50.4001 10.0156 51.3001 10.0156C52.6308 10.0156 53.6723 10.2985 54.4373 10.8578C55.2023 11.4171 55.6458 12.1821 55.7744 13.1528V13.1335Z" fill="#FFFDFA"/>
<path d="M67.2109 11.1601C67.1144 10.8259 66.9794 10.5301 66.8059 10.273C66.6323 10.0159 66.4201 9.79728 66.1694 9.61728C65.9187 9.43728 65.6359 9.29585 65.3209 9.20585C65.0059 9.10942 64.6523 9.06442 64.2666 9.06442C63.5466 9.06442 62.923 9.24442 62.383 9.598C61.843 9.95157 61.4187 10.4723 61.1166 11.1473C60.8144 11.8223 60.6666 12.6516 60.6666 13.6287C60.6666 14.6059 60.8144 15.4351 61.1101 16.123C61.4059 16.8109 61.8301 17.3316 62.3701 17.6851C62.9101 18.0451 63.553 18.2251 64.2923 18.2251C64.9609 18.2251 65.5394 18.103 66.0151 17.8651C66.4909 17.6273 66.8573 17.2866 67.108 16.8494C67.3587 16.4123 67.4873 15.8916 67.4873 15.2937L68.0916 15.3837H64.4787V13.153H70.348V14.9209C70.348 16.1551 70.0844 17.2094 69.5701 18.0966C69.0494 18.9773 68.3359 19.6587 67.423 20.1344C66.5101 20.6101 65.4623 20.848 64.2859 20.848C62.9744 20.848 61.8173 20.5587 60.8209 19.9737C59.8244 19.3887 59.053 18.5594 58.4937 17.4859C57.9409 16.4123 57.6644 15.133 57.6644 13.6544C57.6644 12.5166 57.8316 11.5009 58.1594 10.6073C58.4873 9.71371 58.9566 8.95514 59.5544 8.338C60.1523 7.71442 60.8466 7.24514 61.6437 6.91728C62.4409 6.59585 63.3023 6.42871 64.228 6.42871C65.0251 6.42871 65.7644 6.54443 66.4459 6.77585C67.1273 7.00728 67.738 7.32871 68.2716 7.753C68.8051 8.17085 69.2359 8.67228 69.5766 9.25085C69.9173 9.82942 70.1294 10.4659 70.2259 11.1601H67.2109Z" fill="#FFFDFA"/>
<path d="M79.2706 16.1741V10.1377H82.1892V20.6548H79.3863V18.7456H79.2771C79.0392 19.3627 78.6471 19.8577 78.0942 20.2306C77.5413 20.6034 76.8728 20.7898 76.0821 20.7898C75.3813 20.7898 74.7578 20.6291 74.2242 20.3077C73.6906 19.9863 73.2728 19.5363 72.9771 18.9448C72.6813 18.3534 72.5271 17.6527 72.5206 16.8298V10.1377H75.4392V16.3156C75.4392 16.9391 75.6128 17.4277 75.9406 17.7877C76.2685 18.1477 76.7121 18.3277 77.2649 18.3277C77.6185 18.3277 77.9463 18.2441 78.2485 18.0834C78.5571 17.9227 78.8013 17.6784 78.9942 17.3634C79.1871 17.0484 79.2771 16.6498 79.2706 16.1806V16.1741Z" fill="#FFFDFA"/>
<path d="M87.5184 20.8543C86.8498 20.8543 86.252 20.7386 85.7249 20.5007C85.1977 20.2628 84.7863 19.9157 84.4841 19.4528C84.182 18.99 84.0277 18.4114 84.0277 17.7171C84.0277 17.1321 84.137 16.6436 84.3491 16.245C84.5613 15.8464 84.857 15.525 85.2234 15.2871C85.5963 15.0428 86.0141 14.8628 86.4899 14.7407C86.9656 14.6186 87.4606 14.5286 87.9813 14.4771C88.592 14.4128 89.087 14.355 89.4599 14.2971C89.8327 14.2393 90.1027 14.1557 90.2763 14.04C90.4499 13.9243 90.527 13.7571 90.527 13.5321V13.4936C90.527 13.0628 90.392 12.7221 90.122 12.4843C89.852 12.2464 89.4663 12.1307 88.9713 12.1307C88.4441 12.1307 88.0263 12.2464 87.7177 12.4778C87.4091 12.7093 87.2034 12.9986 87.1006 13.3457L84.4006 13.1271C84.5356 12.4907 84.8056 11.9314 85.2106 11.4686C85.6091 10.9993 86.1298 10.6393 86.7663 10.3886C87.4027 10.1378 88.142 10.0093 88.9841 10.0093C89.5691 10.0093 90.1284 10.08 90.6684 10.215C91.202 10.35 91.6841 10.5621 92.102 10.8514C92.5199 11.1407 92.8477 11.5071 93.092 11.9571C93.3363 12.4071 93.452 12.9471 93.452 13.5707V20.6678H90.6877V19.2086H90.6041C90.437 19.5364 90.212 19.8257 89.9291 20.0764C89.6463 20.3271 89.3056 20.52 88.907 20.6614C88.5084 20.8028 88.052 20.8671 87.5313 20.8671L87.5184 20.8543ZM88.3541 18.8421C88.7849 18.8421 89.1641 18.7586 89.492 18.585C89.8199 18.4114 90.077 18.18 90.2634 17.8907C90.4499 17.595 90.5463 17.2671 90.5463 16.9007V15.7821C90.4563 15.84 90.3277 15.8978 90.1734 15.9428C90.0191 15.9878 89.8391 16.0328 89.6399 16.0714C89.4406 16.11 89.2477 16.1421 89.0484 16.1743C88.8556 16.2064 88.6756 16.2321 88.5149 16.2514C88.1741 16.3028 87.872 16.38 87.6149 16.4893C87.3577 16.5986 87.1584 16.7464 87.017 16.9328C86.8756 17.1193 86.8048 17.3443 86.8048 17.6207C86.8048 18.0193 86.9527 18.3214 87.242 18.5271C87.5313 18.7328 87.8977 18.8357 88.3477 18.8357L88.3541 18.8421Z" fill="#FFFDFA"/>
<path d="M95.7084 20.6548V10.1377H98.5369V11.9698H98.6462C98.8391 11.3141 99.1605 10.8255 99.6105 10.4848C100.061 10.1505 100.581 9.9834 101.173 9.9834C101.321 9.9834 101.475 9.98983 101.648 10.0091C101.816 10.0284 101.963 10.0541 102.092 10.0863V12.677C101.957 12.6384 101.764 12.5998 101.526 12.5677C101.282 12.5355 101.063 12.5227 100.864 12.5227C100.433 12.5227 100.054 12.6127 99.7198 12.7991C99.3855 12.9855 99.1155 13.2427 98.9227 13.5705C98.7298 13.8984 98.6334 14.2777 98.6334 14.7084V20.6613H95.7148L95.7084 20.6548Z" fill="#FFFDFA"/>
<path d="M106.971 20.8286C106.174 20.8286 105.448 20.6229 104.805 20.2115C104.162 19.8001 103.648 19.1894 103.275 18.3858C102.896 17.5822 102.709 16.5922 102.709 15.4158C102.709 14.2394 102.902 13.2044 103.288 12.4072C103.674 11.6101 104.194 11.0058 104.837 10.6072C105.48 10.2086 106.194 10.0094 106.965 10.0094C107.556 10.0094 108.045 10.1122 108.444 10.3051C108.836 10.5044 109.157 10.7486 109.401 11.0444C109.646 11.3401 109.832 11.6294 109.961 11.9122H110.051V6.62793H112.963V20.6551H110.089V18.9708H109.967C109.832 19.2665 109.639 19.5494 109.389 19.8386C109.138 20.1215 108.816 20.3594 108.424 20.5458C108.026 20.7322 107.55 20.8286 106.984 20.8286H106.971ZM107.897 18.5079C108.366 18.5079 108.765 18.3794 109.093 18.1222C109.421 17.8651 109.671 17.5051 109.845 17.0358C110.019 16.5665 110.109 16.0265 110.109 15.3965C110.109 14.7665 110.025 14.2265 109.851 13.7636C109.678 13.3008 109.427 12.9472 109.099 12.6965C108.771 12.4458 108.373 12.3172 107.897 12.3172C107.421 12.3172 107.016 12.4458 106.689 12.7094C106.361 12.9729 106.11 13.3329 105.943 13.7894C105.776 14.2522 105.692 14.7858 105.692 15.3901C105.692 15.9944 105.776 16.5408 105.949 17.0101C106.123 17.4794 106.367 17.8458 106.695 18.1029C107.023 18.3665 107.421 18.4951 107.904 18.4951L107.897 18.5079Z" fill="#FFFDFA"/>
<defs>
<radialGradient id="paint0_radial_1536_3209" cx="0" cy="0" r="1" gradientUnits="userSpaceOnUse" gradientTransform="translate(13.5 13.5) scale(13.5 13.5)">
<stop offset="0.473958" stop-color="#FFC640"/>
<stop offset="1" stop-color="#F2AF13"/>
</radialGradient>
</defs>
</svg>
