<svg width="330" height="56" viewBox="0 0 330 56" fill="none" xmlns="http://www.w3.org/2000/svg">
<path d="M48 0H8C3.58172 0 0 3.58172 0 8V48C0 52.4183 3.58172 56 8 56H48C52.4183 56 56 52.4183 56 48V8C56 3.58172 52.4183 0 48 0Z" fill="url(#paint0_radial_6864_76856)"/>
<path d="M25.3333 14.667H12C10.9391 14.667 9.92172 15.0884 9.17157 15.8386C8.42143 16.5887 8 17.6061 8 18.667V37.3337C8.00152 38.1803 8.27163 39.0046 8.77145 39.6879C9.27127 40.3713 9.97502 40.8784 10.7814 41.1363C11.5878 41.3943 12.4552 41.3897 13.2588 41.1232C14.0624 40.8568 14.7608 40.3423 15.2533 39.6537V39.6537L28.5867 20.987C29.0124 20.3891 29.2654 19.6855 29.3179 18.9534C29.3705 18.2213 29.2206 17.4888 28.8847 16.8362C28.5487 16.1836 28.0397 15.636 27.4133 15.2534C26.7869 14.8708 26.0673 14.6679 25.3333 14.667ZM14.6667 24.0003C14.1393 24.0003 13.6237 23.8439 13.1851 23.5509C12.7466 23.2579 12.4048 22.8414 12.203 22.3541C12.0012 21.8669 11.9483 21.3307 12.0512 20.8134C12.1541 20.2961 12.4081 19.821 12.781 19.448C13.154 19.0751 13.6291 18.8211 14.1464 18.7182C14.6637 18.6153 15.1999 18.6681 15.6872 18.87C16.1744 19.0718 16.5909 19.4136 16.8839 19.8521C17.1769 20.2907 17.3333 20.8062 17.3333 21.3337C17.3333 22.0409 17.0524 22.7192 16.5523 23.2193C16.0522 23.7194 15.3739 24.0003 14.6667 24.0003Z" fill="#0D0A03"/>
<path d="M35.3333 39.9992C37.1743 39.9992 38.6667 38.5068 38.6667 36.6659C38.6667 34.8249 37.1743 33.3325 35.3333 33.3325C33.4924 33.3325 32 34.8249 32 36.6659C32 38.5068 33.4924 39.9992 35.3333 39.9992Z" fill="#0D0A03"/>
<path d="M47.9999 18.667V37.3337C48.0015 38.3318 47.6297 39.2945 46.9577 40.0326C46.2858 40.7707 45.3621 41.2309 44.3681 41.3228C43.3742 41.4147 42.3818 41.1316 41.5859 40.5292C40.79 39.9268 40.2481 39.0485 40.0666 38.067C40.024 37.8248 40.0017 37.5795 39.9999 37.3337V34.2937C39.9928 33.4493 39.7187 32.6289 39.2168 31.9498C38.715 31.2708 38.0111 30.768 37.206 30.5134C36.4009 30.2589 35.5359 30.2656 34.7348 30.5327C33.9338 30.7998 33.2378 31.3135 32.7466 32.0003L30.6666 34.9203L27.3199 39.6137C26.6817 40.4253 25.7543 40.9586 24.7318 41.1021C23.7093 41.2456 22.6709 40.9882 21.8338 40.3837C20.9968 39.7791 20.4259 38.8743 20.2407 37.8586C20.0555 36.8428 20.2702 35.7947 20.8399 34.9337V34.9337L34.1733 16.267C34.5418 15.7756 35.0185 15.3756 35.5665 15.0982C36.1145 14.8207 36.7191 14.6732 37.3333 14.667H43.9999C45.0608 14.667 46.0782 15.0884 46.8284 15.8386C47.5785 16.5887 47.9999 17.6061 47.9999 18.667V18.667Z" fill="#FFFDFA"/>
<path d="M74.5284 13.9091H82.1136L90.125 33.4545H90.4659L98.4773 13.9091H106.062V43H100.097V24.0653H99.8551L92.3267 42.858H88.2642L80.7358 23.9943H80.4943V43H74.5284V13.9091ZM117.238 43.4119C115.846 43.4119 114.605 43.1705 113.516 42.6875C112.427 42.1951 111.566 41.4706 110.931 40.5142C110.306 39.5483 109.994 38.3456 109.994 36.9062C109.994 35.6941 110.216 34.6761 110.661 33.8523C111.106 33.0284 111.712 32.3655 112.479 31.8636C113.246 31.3617 114.118 30.983 115.093 30.7273C116.078 30.4716 117.11 30.2917 118.19 30.1875C119.459 30.0549 120.481 29.9318 121.258 29.8182C122.034 29.6951 122.598 29.5152 122.948 29.2784C123.299 29.0417 123.474 28.6913 123.474 28.2273V28.142C123.474 27.2424 123.19 26.5464 122.621 26.054C122.063 25.5616 121.267 25.3153 120.235 25.3153C119.146 25.3153 118.28 25.5568 117.636 26.0398C116.992 26.5133 116.566 27.1098 116.357 27.8295L110.761 27.375C111.045 26.0492 111.603 24.9034 112.437 23.9375C113.27 22.9621 114.345 22.214 115.661 21.6932C116.987 21.1629 118.521 20.8977 120.263 20.8977C121.476 20.8977 122.636 21.0398 123.744 21.3239C124.861 21.608 125.851 22.0483 126.712 22.6449C127.584 23.2415 128.27 24.0085 128.772 24.946C129.274 25.8741 129.525 26.9867 129.525 28.2841V43H123.786V39.9744H123.616C123.265 40.6562 122.797 41.2576 122.21 41.7784C121.622 42.2898 120.917 42.6922 120.093 42.9858C119.269 43.2699 118.317 43.4119 117.238 43.4119ZM118.971 39.2358C119.861 39.2358 120.647 39.0606 121.329 38.7102C122.011 38.3504 122.546 37.8674 122.934 37.2614C123.322 36.6553 123.516 35.9687 123.516 35.2017V32.8864C123.327 33.0095 123.067 33.1231 122.735 33.2273C122.413 33.322 122.049 33.4119 121.641 33.4972C121.234 33.5729 120.827 33.6439 120.42 33.7102C120.013 33.767 119.643 33.8191 119.312 33.8665C118.602 33.9706 117.981 34.1364 117.451 34.3636C116.921 34.5909 116.509 34.8987 116.215 35.2869C115.922 35.6657 115.775 36.1392 115.775 36.7074C115.775 37.5312 116.073 38.161 116.67 38.5966C117.276 39.0227 118.043 39.2358 118.971 39.2358ZM140.271 30.3864V43H134.219V21.1818H139.987V25.0312H140.242C140.725 23.7623 141.535 22.7585 142.671 22.0199C143.808 21.2718 145.185 20.8977 146.805 20.8977C148.32 20.8977 149.641 21.2292 150.768 21.892C151.895 22.5549 152.771 23.5019 153.396 24.733C154.021 25.9545 154.333 27.4129 154.333 29.108V43H148.282V30.1875C148.291 28.8523 147.951 27.8106 147.259 27.0625C146.568 26.3049 145.616 25.9261 144.404 25.9261C143.59 25.9261 142.87 26.1013 142.245 26.4517C141.629 26.8021 141.147 27.3134 140.796 27.9858C140.455 28.6487 140.28 29.4489 140.271 30.3864ZM170.707 21.1818V25.7273H157.568V21.1818H170.707ZM160.551 15.9545H166.602V36.2955C166.602 36.8542 166.688 37.2898 166.858 37.6023C167.028 37.9053 167.265 38.1184 167.568 38.2415C167.881 38.3646 168.241 38.4261 168.648 38.4261C168.932 38.4261 169.216 38.4025 169.5 38.3551C169.784 38.2983 170.002 38.2557 170.153 38.2273L171.105 42.7301C170.802 42.8248 170.376 42.9337 169.827 43.0568C169.277 43.1894 168.61 43.2699 167.824 43.2983C166.366 43.3551 165.087 43.161 163.989 42.7159C162.9 42.2708 162.052 41.5795 161.446 40.642C160.84 39.7045 160.542 38.5208 160.551 37.0909V15.9545ZM181.169 13.9091V43H175.118V13.9091H181.169ZM195.96 43.4261C193.715 43.4261 191.783 42.9716 190.164 42.0625C188.554 41.1439 187.314 39.8466 186.442 38.1705C185.571 36.4848 185.136 34.4915 185.136 32.1903C185.136 29.946 185.571 27.9763 186.442 26.2812C187.314 24.5862 188.54 23.2652 190.121 22.3182C191.712 21.3712 193.578 20.8977 195.718 20.8977C197.157 20.8977 198.497 21.1297 199.738 21.5938C200.988 22.0483 202.077 22.7348 203.005 23.6534C203.942 24.572 204.672 25.7273 205.192 27.1193C205.713 28.5019 205.974 30.1212 205.974 31.9773V33.6392H187.55V29.8892H200.278C200.278 29.018 200.088 28.2462 199.71 27.5739C199.331 26.9015 198.805 26.3759 198.133 25.9972C197.47 25.6089 196.698 25.4148 195.817 25.4148C194.899 25.4148 194.085 25.6278 193.374 26.054C192.674 26.4706 192.124 27.0341 191.727 27.7443C191.329 28.4451 191.125 29.2263 191.116 30.0881V33.6534C191.116 34.733 191.315 35.6657 191.712 36.4517C192.12 37.2377 192.692 37.8438 193.431 38.2699C194.17 38.696 195.046 38.9091 196.059 38.9091C196.731 38.9091 197.347 38.8144 197.906 38.625C198.464 38.4356 198.942 38.1515 199.34 37.7727C199.738 37.3939 200.041 36.9299 200.249 36.3807L205.846 36.75C205.562 38.0947 204.979 39.2689 204.099 40.2727C203.228 41.267 202.101 42.0436 200.718 42.6023C199.345 43.1515 197.759 43.4261 195.96 43.4261ZM214.553 43L206.229 13.9091H212.948L217.763 34.1222H218.005L223.317 13.9091H229.07L234.369 34.1648H234.624L239.44 13.9091H246.158L237.835 43H231.84L226.3 23.9801H226.073L220.548 43H214.553ZM253.214 43.4119C251.822 43.4119 250.582 43.1705 249.493 42.6875C248.404 42.1951 247.542 41.4706 246.908 40.5142C246.283 39.5483 245.97 38.3456 245.97 36.9062C245.97 35.6941 246.193 34.6761 246.638 33.8523C247.083 33.0284 247.689 32.3655 248.456 31.8636C249.223 31.3617 250.094 30.983 251.07 30.7273C252.054 30.4716 253.087 30.2917 254.166 30.1875C255.435 30.0549 256.458 29.9318 257.234 29.8182C258.011 29.6951 258.574 29.5152 258.925 29.2784C259.275 29.0417 259.45 28.6913 259.45 28.2273V28.142C259.45 27.2424 259.166 26.5464 258.598 26.054C258.039 25.5616 257.244 25.3153 256.212 25.3153C255.123 25.3153 254.256 25.5568 253.612 26.0398C252.968 26.5133 252.542 27.1098 252.334 27.8295L246.737 27.375C247.021 26.0492 247.58 24.9034 248.413 23.9375C249.247 22.9621 250.321 22.214 251.638 21.6932C252.964 21.1629 254.498 20.8977 256.24 20.8977C257.452 20.8977 258.612 21.0398 259.72 21.3239C260.838 21.608 261.827 22.0483 262.689 22.6449C263.56 23.2415 264.247 24.0085 264.749 24.946C265.25 25.8741 265.501 26.9867 265.501 28.2841V43H259.763V39.9744H259.592C259.242 40.6562 258.773 41.2576 258.186 41.7784C257.599 42.2898 256.893 42.6922 256.07 42.9858C255.246 43.2699 254.294 43.4119 253.214 43.4119ZM254.947 39.2358C255.838 39.2358 256.624 39.0606 257.305 38.7102C257.987 38.3504 258.522 37.8674 258.911 37.2614C259.299 36.6553 259.493 35.9687 259.493 35.2017V32.8864C259.304 33.0095 259.043 33.1231 258.712 33.2273C258.39 33.322 258.025 33.4119 257.618 33.4972C257.211 33.5729 256.804 33.6439 256.396 33.7102C255.989 33.767 255.62 33.8191 255.288 33.8665C254.578 33.9706 253.958 34.1364 253.428 34.3636C252.897 34.5909 252.485 34.8987 252.192 35.2869C251.898 35.6657 251.751 36.1392 251.751 36.7074C251.751 37.5312 252.05 38.161 252.646 38.5966C253.252 39.0227 254.019 39.2358 254.947 39.2358ZM276.247 13.9091V43H270.196V13.9091H276.247ZM287.146 13.9091V43H281.094V13.9091H287.146ZM301.936 43.4261C299.692 43.4261 297.76 42.9716 296.141 42.0625C294.531 41.1439 293.29 39.8466 292.419 38.1705C291.548 36.4848 291.112 34.4915 291.112 32.1903C291.112 29.946 291.548 27.9763 292.419 26.2812C293.29 24.5862 294.517 23.2652 296.098 22.3182C297.689 21.3712 299.554 20.8977 301.695 20.8977C303.134 20.8977 304.474 21.1297 305.714 21.5938C306.964 22.0483 308.054 22.7348 308.982 23.6534C309.919 24.572 310.648 25.7273 311.169 27.1193C311.69 28.5019 311.95 30.1212 311.95 31.9773V33.6392H293.527V29.8892H306.254C306.254 29.018 306.065 28.2462 305.686 27.5739C305.307 26.9015 304.782 26.3759 304.109 25.9972C303.446 25.6089 302.675 25.4148 301.794 25.4148C300.875 25.4148 300.061 25.6278 299.351 26.054C298.65 26.4706 298.101 27.0341 297.703 27.7443C297.305 28.4451 297.102 29.2263 297.092 30.0881V33.6534C297.092 34.733 297.291 35.6657 297.689 36.4517C298.096 37.2377 298.669 37.8438 299.408 38.2699C300.146 38.696 301.022 38.9091 302.036 38.9091C302.708 38.9091 303.323 38.8144 303.882 38.625C304.441 38.4356 304.919 38.1515 305.317 37.7727C305.714 37.3939 306.018 36.9299 306.226 36.3807L311.822 36.75C311.538 38.0947 310.956 39.2689 310.075 40.2727C309.204 41.267 308.077 42.0436 306.695 42.6023C305.321 43.1515 303.735 43.4261 301.936 43.4261ZM327.504 21.1818V25.7273H314.365V21.1818H327.504ZM317.348 15.9545H323.399V36.2955C323.399 36.8542 323.484 37.2898 323.655 37.6023C323.825 37.9053 324.062 38.1184 324.365 38.2415C324.678 38.3646 325.037 38.4261 325.445 38.4261C325.729 38.4261 326.013 38.4025 326.297 38.3551C326.581 38.2983 326.799 38.2557 326.95 38.2273L327.902 42.7301C327.599 42.8248 327.173 42.9337 326.624 43.0568C326.074 43.1894 325.407 43.2699 324.621 43.2983C323.162 43.3551 321.884 43.161 320.786 42.7159C319.696 42.2708 318.849 41.5795 318.243 40.642C317.637 39.7045 317.339 38.5208 317.348 37.0909V15.9545Z" fill="#FFFDFA"/>
<defs>
<radialGradient id="paint0_radial_6864_76856" cx="0" cy="0" r="1" gradientUnits="userSpaceOnUse" gradientTransform="translate(28 28) scale(28 28)">
<stop offset="0.473958" stop-color="#FFC640"/>
<stop offset="1" stop-color="#F2AF13"/>
</radialGradient>
</defs>
</svg>
