<svg width="347" height="56" viewBox="0 0 347 56" fill="none" xmlns="http://www.w3.org/2000/svg">
<path d="M48 0H8C3.58172 0 0 3.58172 0 8V48C0 52.4183 3.58172 56 8 56H48C52.4183 56 56 52.4183 56 48V8C56 3.58172 52.4183 0 48 0Z" fill="url(#paint0_radial_6864_76856)"/>
<path d="M25.3333 14.667H12C10.9391 14.667 9.92172 15.0884 9.17157 15.8386C8.42143 16.5887 8 17.6061 8 18.667V37.3337C8.00152 38.1803 8.27163 39.0046 8.77145 39.6879C9.27127 40.3713 9.97502 40.8784 10.7814 41.1363C11.5878 41.3943 12.4552 41.3897 13.2588 41.1232C14.0624 40.8568 14.7608 40.3423 15.2533 39.6537V39.6537L28.5867 20.987C29.0124 20.3891 29.2654 19.6855 29.3179 18.9534C29.3705 18.2213 29.2206 17.4888 28.8847 16.8362C28.5487 16.1836 28.0397 15.636 27.4133 15.2534C26.7869 14.8708 26.0673 14.6679 25.3333 14.667ZM14.6667 24.0003C14.1393 24.0003 13.6237 23.8439 13.1851 23.5509C12.7466 23.2579 12.4048 22.8414 12.203 22.3541C12.0012 21.8669 11.9483 21.3307 12.0512 20.8134C12.1541 20.2961 12.4081 19.821 12.781 19.448C13.154 19.0751 13.6291 18.8211 14.1464 18.7182C14.6637 18.6153 15.1999 18.6681 15.6872 18.87C16.1744 19.0718 16.5909 19.4136 16.8839 19.8521C17.1769 20.2907 17.3333 20.8062 17.3333 21.3337C17.3333 22.0409 17.0524 22.7192 16.5523 23.2193C16.0522 23.7194 15.3739 24.0003 14.6667 24.0003Z" fill="#0D0A03"/>
<path d="M35.3333 39.9992C37.1743 39.9992 38.6667 38.5068 38.6667 36.6659C38.6667 34.8249 37.1743 33.3325 35.3333 33.3325C33.4924 33.3325 32 34.8249 32 36.6659C32 38.5068 33.4924 39.9992 35.3333 39.9992Z" fill="#0D0A03"/>
<path d="M47.9999 18.667V37.3337C48.0015 38.3318 47.6297 39.2945 46.9577 40.0326C46.2858 40.7707 45.3621 41.2309 44.3681 41.3228C43.3742 41.4147 42.3818 41.1316 41.5859 40.5292C40.79 39.9268 40.2481 39.0485 40.0666 38.067C40.024 37.8248 40.0017 37.5795 39.9999 37.3337V34.2937C39.9928 33.4493 39.7187 32.6289 39.2168 31.9498C38.715 31.2708 38.0111 30.768 37.206 30.5134C36.4009 30.2589 35.5359 30.2656 34.7348 30.5327C33.9338 30.7998 33.2378 31.3135 32.7466 32.0003L30.6666 34.9203L27.3199 39.6137C26.6817 40.4253 25.7543 40.9586 24.7318 41.1021C23.7093 41.2456 22.6709 40.9882 21.8338 40.3837C20.9968 39.7791 20.4259 38.8743 20.2407 37.8586C20.0555 36.8428 20.2702 35.7947 20.8399 34.9337V34.9337L34.1733 16.267C34.5418 15.7756 35.0185 15.3756 35.5665 15.0982C36.1145 14.8207 36.7191 14.6732 37.3333 14.667H43.9999C45.0608 14.667 46.0782 15.0884 46.8284 15.8386C47.5785 16.5887 47.9999 17.6061 47.9999 18.667V18.667Z" fill="#FFFDFA"/>
<path d="M74.5284 13.9091H82.1136L90.125 33.4545H90.4659L98.4773 13.9091H106.062V43H100.097V24.0653H99.8551L92.3267 42.858H88.2642L80.7358 23.9943H80.4943V43H74.5284V13.9091ZM117.238 43.4119C115.846 43.4119 114.605 43.1705 113.516 42.6875C112.427 42.1951 111.566 41.4706 110.931 40.5142C110.306 39.5483 109.994 38.3456 109.994 36.9062C109.994 35.6941 110.216 34.6761 110.661 33.8523C111.106 33.0284 111.712 32.3655 112.479 31.8636C113.246 31.3617 114.118 30.983 115.093 30.7273C116.078 30.4716 117.11 30.2917 118.19 30.1875C119.459 30.0549 120.481 29.9318 121.258 29.8182C122.034 29.6951 122.598 29.5152 122.948 29.2784C123.299 29.0417 123.474 28.6913 123.474 28.2273V28.142C123.474 27.2424 123.19 26.5464 122.621 26.054C122.063 25.5616 121.267 25.3153 120.235 25.3153C119.146 25.3153 118.28 25.5568 117.636 26.0398C116.992 26.5133 116.566 27.1098 116.357 27.8295L110.761 27.375C111.045 26.0492 111.603 24.9034 112.437 23.9375C113.27 22.9621 114.345 22.214 115.661 21.6932C116.987 21.1629 118.521 20.8977 120.263 20.8977C121.476 20.8977 122.636 21.0398 123.744 21.3239C124.861 21.608 125.851 22.0483 126.712 22.6449C127.584 23.2415 128.27 24.0085 128.772 24.946C129.274 25.8741 129.525 26.9867 129.525 28.2841V43H123.786V39.9744H123.616C123.265 40.6562 122.797 41.2576 122.21 41.7784C121.622 42.2898 120.917 42.6922 120.093 42.9858C119.269 43.2699 118.317 43.4119 117.238 43.4119ZM118.971 39.2358C119.861 39.2358 120.647 39.0606 121.329 38.7102C122.011 38.3504 122.546 37.8674 122.934 37.2614C123.322 36.6553 123.516 35.9687 123.516 35.2017V32.8864C123.327 33.0095 123.067 33.1231 122.735 33.2273C122.413 33.322 122.049 33.4119 121.641 33.4972C121.234 33.5729 120.827 33.6439 120.42 33.7102C120.013 33.767 119.643 33.8191 119.312 33.8665C118.602 33.9706 117.981 34.1364 117.451 34.3636C116.921 34.5909 116.509 34.8987 116.215 35.2869C115.922 35.6657 115.775 36.1392 115.775 36.7074C115.775 37.5312 116.073 38.161 116.67 38.5966C117.276 39.0227 118.043 39.2358 118.971 39.2358ZM140.271 30.3864V43H134.219V21.1818H139.987V25.0312H140.242C140.725 23.7623 141.535 22.7585 142.671 22.0199C143.808 21.2718 145.185 20.8977 146.805 20.8977C148.32 20.8977 149.641 21.2292 150.768 21.892C151.895 22.5549 152.771 23.5019 153.396 24.733C154.021 25.9545 154.333 27.4129 154.333 29.108V43H148.282V30.1875C148.291 28.8523 147.951 27.8106 147.259 27.0625C146.568 26.3049 145.616 25.9261 144.404 25.9261C143.59 25.9261 142.87 26.1013 142.245 26.4517C141.629 26.8021 141.147 27.3134 140.796 27.9858C140.455 28.6487 140.28 29.4489 140.271 30.3864ZM170.707 21.1818V25.7273H157.568V21.1818H170.707ZM160.551 15.9545H166.602V36.2955C166.602 36.8542 166.688 37.2898 166.858 37.6023C167.028 37.9053 167.265 38.1184 167.568 38.2415C167.881 38.3646 168.241 38.4261 168.648 38.4261C168.932 38.4261 169.216 38.4025 169.5 38.3551C169.784 38.2983 170.002 38.2557 170.153 38.2273L171.105 42.7301C170.802 42.8248 170.376 42.9337 169.827 43.0568C169.277 43.1894 168.61 43.2699 167.824 43.2983C166.366 43.3551 165.087 43.161 163.989 42.7159C162.9 42.2708 162.052 41.5795 161.446 40.642C160.84 39.7045 160.542 38.5208 160.551 37.0909V15.9545ZM181.169 13.9091V43H175.118V13.9091H181.169ZM195.96 43.4261C193.715 43.4261 191.783 42.9716 190.164 42.0625C188.554 41.1439 187.314 39.8466 186.442 38.1705C185.571 36.4848 185.136 34.4915 185.136 32.1903C185.136 29.946 185.571 27.9763 186.442 26.2812C187.314 24.5862 188.54 23.2652 190.121 22.3182C191.712 21.3712 193.578 20.8977 195.718 20.8977C197.157 20.8977 198.497 21.1297 199.738 21.5938C200.988 22.0483 202.077 22.7348 203.005 23.6534C203.942 24.572 204.672 25.7273 205.192 27.1193C205.713 28.5019 205.974 30.1212 205.974 31.9773V33.6392H187.55V29.8892H200.278C200.278 29.018 200.088 28.2462 199.71 27.5739C199.331 26.9015 198.805 26.3759 198.133 25.9972C197.47 25.6089 196.698 25.4148 195.817 25.4148C194.899 25.4148 194.085 25.6278 193.374 26.054C192.674 26.4706 192.124 27.0341 191.727 27.7443C191.329 28.4451 191.125 29.2263 191.116 30.0881V33.6534C191.116 34.733 191.315 35.6657 191.712 36.4517C192.12 37.2377 192.692 37.8438 193.431 38.2699C194.17 38.696 195.046 38.9091 196.059 38.9091C196.731 38.9091 197.347 38.8144 197.906 38.625C198.464 38.4356 198.942 38.1515 199.34 37.7727C199.738 37.3939 200.041 36.9299 200.249 36.3807L205.846 36.75C205.562 38.0947 204.979 39.2689 204.099 40.2727C203.228 41.267 202.101 42.0436 200.718 42.6023C199.345 43.1515 197.759 43.4261 195.96 43.4261ZM210.036 43V13.9091H221.684C223.824 13.9091 225.609 14.2263 227.039 14.8608C228.469 15.4953 229.544 16.3759 230.263 17.5028C230.983 18.6203 231.343 19.9081 231.343 21.3665C231.343 22.5028 231.116 23.5019 230.661 24.3636C230.207 25.2159 229.582 25.9167 228.786 26.4659C228 27.0057 227.101 27.3892 226.087 27.6165V27.9006C227.195 27.9479 228.232 28.2604 229.198 28.8381C230.174 29.4157 230.964 30.2254 231.57 31.267C232.176 32.2992 232.479 33.5303 232.479 34.9602C232.479 36.5038 232.096 37.8816 231.329 39.0938C230.571 40.2964 229.449 41.2481 227.962 41.9489C226.476 42.6496 224.643 43 222.465 43H210.036ZM216.187 37.9716H221.201C222.915 37.9716 224.165 37.6449 224.951 36.9915C225.737 36.3286 226.13 35.4479 226.13 34.3494C226.13 33.5445 225.936 32.8343 225.548 32.2188C225.159 31.6032 224.605 31.1203 223.886 30.7699C223.175 30.4195 222.328 30.2443 221.343 30.2443H216.187V37.9716ZM216.187 26.0824H220.746C221.589 26.0824 222.337 25.9356 222.991 25.642C223.654 25.339 224.174 24.9129 224.553 24.3636C224.942 23.8144 225.136 23.1562 225.136 22.3892C225.136 21.3381 224.762 20.4905 224.013 19.8466C223.275 19.2027 222.224 18.8807 220.86 18.8807H216.187V26.0824ZM250.359 33.7102V21.1818H256.411V43H250.601V39.0369H250.374C249.881 40.3153 249.062 41.3428 247.916 42.1193C246.78 42.8958 245.393 43.2841 243.754 43.2841C242.296 43.2841 241.013 42.9527 239.905 42.2898C238.797 41.6269 237.93 40.6847 237.305 39.4631C236.69 38.2415 236.377 36.7784 236.368 35.0739V21.1818H242.419V33.9943C242.429 35.2822 242.774 36.3002 243.456 37.0483C244.138 37.7964 245.052 38.1705 246.197 38.1705C246.927 38.1705 247.608 38.0047 248.243 37.6733C248.877 37.3324 249.389 36.8305 249.777 36.1676C250.175 35.5047 250.369 34.6856 250.359 33.7102ZM261.251 43V21.1818H267.302V43H261.251ZM264.29 18.3693C263.391 18.3693 262.619 18.071 261.975 17.4744C261.341 16.8684 261.023 16.1439 261.023 15.3011C261.023 14.4678 261.341 13.7528 261.975 13.1562C262.619 12.5502 263.391 12.2472 264.29 12.2472C265.19 12.2472 265.957 12.5502 266.592 13.1562C267.236 13.7528 267.558 14.4678 267.558 15.3011C267.558 16.1439 267.236 16.8684 266.592 17.4744C265.957 18.071 265.19 18.3693 264.29 18.3693ZM278.2 13.9091V43H272.149V13.9091H278.2ZM291.087 43.3551C289.43 43.3551 287.929 42.929 286.585 42.0767C285.249 41.215 284.189 39.9508 283.403 38.2841C282.626 36.608 282.238 34.553 282.238 32.1193C282.238 29.6193 282.64 27.5407 283.445 25.8835C284.25 24.2169 285.32 22.9716 286.656 22.1477C288 21.3144 289.473 20.8977 291.073 20.8977C292.295 20.8977 293.313 21.1061 294.127 21.5227C294.951 21.9299 295.614 22.4413 296.116 23.0568C296.627 23.6629 297.015 24.2595 297.281 24.8466H297.465V13.9091H303.502V43H297.536V39.5057H297.281C296.996 40.1117 296.594 40.7131 296.073 41.3097C295.562 41.8968 294.894 42.3845 294.07 42.7727C293.256 43.161 292.262 43.3551 291.087 43.3551ZM293.005 38.5398C293.98 38.5398 294.804 38.2746 295.477 37.7443C296.158 37.2045 296.679 36.4517 297.039 35.4858C297.408 34.5199 297.593 33.3883 297.593 32.0909C297.593 30.7936 297.413 29.6667 297.053 28.7102C296.693 27.7538 296.173 27.0152 295.491 26.4943C294.809 25.9735 293.98 25.7131 293.005 25.7131C292.011 25.7131 291.173 25.983 290.491 26.5227C289.809 27.0625 289.293 27.8106 288.942 28.767C288.592 29.7235 288.417 30.8314 288.417 32.0909C288.417 33.3598 288.592 34.482 288.942 35.4574C289.302 36.4233 289.818 37.1809 290.491 37.7301C291.173 38.2699 292.011 38.5398 293.005 38.5398ZM318.42 43.4261C316.176 43.4261 314.244 42.9716 312.625 42.0625C311.015 41.1439 309.775 39.8466 308.903 38.1705C308.032 36.4848 307.597 34.4915 307.597 32.1903C307.597 29.946 308.032 27.9763 308.903 26.2812C309.775 24.5862 311.001 23.2652 312.582 22.3182C314.173 21.3712 316.039 20.8977 318.179 20.8977C319.618 20.8977 320.958 21.1297 322.199 21.5938C323.449 22.0483 324.538 22.7348 325.466 23.6534C326.403 24.572 327.133 25.7273 327.653 27.1193C328.174 28.5019 328.435 30.1212 328.435 31.9773V33.6392H310.011V29.8892H322.739C322.739 29.018 322.549 28.2462 322.17 27.5739C321.792 26.9015 321.266 26.3759 320.594 25.9972C319.931 25.6089 319.159 25.4148 318.278 25.4148C317.36 25.4148 316.545 25.6278 315.835 26.054C315.134 26.4706 314.585 27.0341 314.188 27.7443C313.79 28.4451 313.586 29.2263 313.577 30.0881V33.6534C313.577 34.733 313.776 35.6657 314.173 36.4517C314.58 37.2377 315.153 37.8438 315.892 38.2699C316.631 38.696 317.507 38.9091 318.52 38.9091C319.192 38.9091 319.808 38.8144 320.366 38.625C320.925 38.4356 321.403 38.1515 321.801 37.7727C322.199 37.3939 322.502 36.9299 322.71 36.3807L328.307 36.75C328.023 38.0947 327.44 39.2689 326.56 40.2727C325.688 41.267 324.562 42.0436 323.179 42.6023C321.806 43.1515 320.22 43.4261 318.42 43.4261ZM332.384 43V21.1818H338.25V24.9886H338.477C338.875 23.6345 339.543 22.6117 340.48 21.9205C341.418 21.2197 342.497 20.8693 343.719 20.8693C344.022 20.8693 344.348 20.8883 344.699 20.9261C345.049 20.964 345.357 21.0161 345.622 21.0824V26.4517C345.338 26.3665 344.945 26.2907 344.443 26.2244C343.941 26.1581 343.482 26.125 343.065 26.125C342.175 26.125 341.38 26.3191 340.679 26.7074C339.988 27.0862 339.438 27.6165 339.031 28.2983C338.634 28.9801 338.435 29.7661 338.435 30.6562V43H332.384Z" fill="#FFFDFA"/>
<defs>
<radialGradient id="paint0_radial_6864_76856" cx="0" cy="0" r="1" gradientUnits="userSpaceOnUse" gradientTransform="translate(28 28) scale(28 28)">
<stop offset="0.473958" stop-color="#FFC640"/>
<stop offset="1" stop-color="#F2AF13"/>
</radialGradient>
</defs>
</svg>
