<svg width="315" height="56" viewBox="0 0 315 56" fill="none" xmlns="http://www.w3.org/2000/svg">
<path d="M48 0H8C3.58172 0 0 3.58172 0 8V48C0 52.4183 3.58172 56 8 56H48C52.4183 56 56 52.4183 56 48V8C56 3.58172 52.4183 0 48 0Z" fill="url(#paint0_radial_6863_76582)"/>
<path d="M25.3333 14.667H12C10.9391 14.667 9.92172 15.0884 9.17157 15.8386C8.42143 16.5887 8 17.6061 8 18.667V37.3337C8.00152 38.1803 8.27163 39.0046 8.77145 39.6879C9.27127 40.3713 9.97502 40.8784 10.7814 41.1363C11.5878 41.3943 12.4552 41.3897 13.2588 41.1232C14.0624 40.8568 14.7608 40.3423 15.2533 39.6537V39.6537L28.5867 20.987C29.0124 20.3891 29.2654 19.6855 29.3179 18.9534C29.3705 18.2213 29.2206 17.4888 28.8847 16.8362C28.5487 16.1836 28.0397 15.636 27.4133 15.2534C26.7869 14.8708 26.0673 14.6679 25.3333 14.667ZM14.6667 24.0003C14.1393 24.0003 13.6237 23.8439 13.1851 23.5509C12.7466 23.2579 12.4048 22.8414 12.203 22.3541C12.0012 21.8669 11.9483 21.3307 12.0512 20.8134C12.1541 20.2961 12.4081 19.821 12.781 19.448C13.154 19.0751 13.6291 18.8211 14.1464 18.7182C14.6637 18.6153 15.1999 18.6681 15.6872 18.87C16.1744 19.0718 16.5909 19.4136 16.8839 19.8521C17.1769 20.2907 17.3333 20.8062 17.3333 21.3337C17.3333 22.0409 17.0524 22.7192 16.5523 23.2193C16.0522 23.7194 15.3739 24.0003 14.6667 24.0003Z" fill="#0D0A03"/>
<path d="M35.3333 39.9992C37.1743 39.9992 38.6667 38.5068 38.6667 36.6659C38.6667 34.8249 37.1743 33.3325 35.3333 33.3325C33.4924 33.3325 32 34.8249 32 36.6659C32 38.5068 33.4924 39.9992 35.3333 39.9992Z" fill="#0D0A03"/>
<path d="M47.9999 18.667V37.3337C48.0015 38.3318 47.6297 39.2945 46.9577 40.0326C46.2858 40.7707 45.3621 41.2309 44.3681 41.3228C43.3742 41.4147 42.3818 41.1316 41.5859 40.5292C40.79 39.9268 40.2481 39.0485 40.0666 38.067C40.024 37.8248 40.0017 37.5795 39.9999 37.3337V34.2937C39.9928 33.4493 39.7187 32.6289 39.2168 31.9498C38.715 31.2708 38.0111 30.768 37.206 30.5134C36.4009 30.2589 35.5359 30.2656 34.7348 30.5327C33.9338 30.7998 33.2378 31.3135 32.7466 32.0003L30.6666 34.9203L27.3199 39.6137C26.6817 40.4253 25.7543 40.9586 24.7318 41.1021C23.7093 41.2456 22.6709 40.9882 21.8338 40.3837C20.9968 39.7791 20.4259 38.8743 20.2407 37.8586C20.0555 36.8428 20.2702 35.7947 20.8399 34.9337V34.9337L34.1733 16.267C34.5418 15.7756 35.0185 15.3756 35.5665 15.0982C36.1145 14.8207 36.7191 14.6732 37.3333 14.667H43.9999C45.0608 14.667 46.0782 15.0884 46.8284 15.8386C47.5785 16.5887 47.9999 17.6061 47.9999 18.667V18.667Z" fill="#FFFDFA"/>
<path d="M75.5831 13.9091H83.1683L91.1797 33.4545H91.5206L99.532 13.9091H107.117V43H101.151V24.0653H100.91L93.3814 42.858H89.3189L81.7905 23.9943H81.549V43H75.5831V13.9091ZM118.293 43.4119C116.901 43.4119 115.66 43.1705 114.571 42.6875C113.482 42.1951 112.62 41.4706 111.986 40.5142C111.361 39.5483 111.048 38.3456 111.048 36.9062C111.048 35.6941 111.271 34.6761 111.716 33.8523C112.161 33.0284 112.767 32.3655 113.534 31.8636C114.301 31.3617 115.172 30.983 116.148 30.7273C117.133 30.4716 118.165 30.2917 119.244 30.1875C120.513 30.0549 121.536 29.9318 122.312 29.8182C123.089 29.6951 123.652 29.5152 124.003 29.2784C124.353 29.0417 124.528 28.6913 124.528 28.2273V28.142C124.528 27.2424 124.244 26.5464 123.676 26.054C123.117 25.5616 122.322 25.3153 121.29 25.3153C120.201 25.3153 119.334 25.5568 118.69 26.0398C118.046 26.5133 117.62 27.1098 117.412 27.8295L111.815 27.375C112.099 26.0492 112.658 24.9034 113.491 23.9375C114.325 22.9621 115.4 22.214 116.716 21.6932C118.042 21.1629 119.576 20.8977 121.318 20.8977C122.53 20.8977 123.69 21.0398 124.798 21.3239C125.916 21.608 126.905 22.0483 127.767 22.6449C128.638 23.2415 129.325 24.0085 129.827 24.946C130.329 25.8741 130.58 26.9867 130.58 28.2841V43H124.841V39.9744H124.67C124.32 40.6562 123.851 41.2576 123.264 41.7784C122.677 42.2898 121.972 42.6922 121.148 42.9858C120.324 43.2699 119.372 43.4119 118.293 43.4119ZM120.026 39.2358C120.916 39.2358 121.702 39.0606 122.384 38.7102C123.065 38.3504 123.6 37.8674 123.989 37.2614C124.377 36.6553 124.571 35.9687 124.571 35.2017V32.8864C124.382 33.0095 124.121 33.1231 123.79 33.2273C123.468 33.322 123.103 33.4119 122.696 33.4972C122.289 33.5729 121.882 33.6439 121.474 33.7102C121.067 33.767 120.698 33.8191 120.366 33.8665C119.656 33.9706 119.036 34.1364 118.506 34.3636C117.975 34.5909 117.563 34.8987 117.27 35.2869C116.976 35.6657 116.83 36.1392 116.83 36.7074C116.83 37.5312 117.128 38.161 117.724 38.5966C118.33 39.0227 119.098 39.2358 120.026 39.2358ZM141.325 30.3864V43H135.274V21.1818H141.041V25.0312H141.297C141.78 23.7623 142.589 22.7585 143.726 22.0199C144.862 21.2718 146.24 20.8977 147.859 20.8977C149.375 20.8977 150.696 21.2292 151.822 21.892C152.949 22.5549 153.825 23.5019 154.45 24.733C155.075 25.9545 155.388 27.4129 155.388 29.108V43H149.337V30.1875C149.346 28.8523 149.005 27.8106 148.314 27.0625C147.623 26.3049 146.671 25.9261 145.459 25.9261C144.644 25.9261 143.925 26.1013 143.3 26.4517C142.684 26.8021 142.201 27.3134 141.851 27.9858C141.51 28.6487 141.335 29.4489 141.325 30.3864ZM171.762 21.1818V25.7273H158.623V21.1818H171.762ZM161.606 15.9545H167.657V36.2955C167.657 36.8542 167.742 37.2898 167.913 37.6023C168.083 37.9053 168.32 38.1184 168.623 38.2415C168.935 38.3646 169.295 38.4261 169.702 38.4261C169.987 38.4261 170.271 38.4025 170.555 38.3551C170.839 38.2983 171.057 38.2557 171.208 38.2273L172.16 42.7301C171.857 42.8248 171.431 42.9337 170.881 43.0568C170.332 43.1894 169.665 43.2699 168.879 43.2983C167.42 43.3551 166.142 43.161 165.043 42.7159C163.954 42.2708 163.107 41.5795 162.501 40.642C161.895 39.7045 161.596 38.5208 161.606 37.0909V15.9545ZM182.224 13.9091V43H176.173V13.9091H182.224ZM197.014 43.4261C194.77 43.4261 192.838 42.9716 191.219 42.0625C189.609 41.1439 188.368 39.8466 187.497 38.1705C186.626 36.4848 186.19 34.4915 186.19 32.1903C186.19 29.946 186.626 27.9763 187.497 26.2812C188.368 24.5862 189.595 23.2652 191.176 22.3182C192.767 21.3712 194.633 20.8977 196.773 20.8977C198.212 20.8977 199.552 21.1297 200.793 21.5938C202.043 22.0483 203.132 22.7348 204.06 23.6534C204.997 24.572 205.726 25.7273 206.247 27.1193C206.768 28.5019 207.028 30.1212 207.028 31.9773V33.6392H188.605V29.8892H201.332C201.332 29.018 201.143 28.2462 200.764 27.5739C200.385 26.9015 199.86 26.3759 199.188 25.9972C198.525 25.6089 197.753 25.4148 196.872 25.4148C195.954 25.4148 195.139 25.6278 194.429 26.054C193.728 26.4706 193.179 27.0341 192.781 27.7443C192.384 28.4451 192.18 29.2263 192.17 30.0881V33.6534C192.17 34.733 192.369 35.6657 192.767 36.4517C193.174 37.2377 193.747 37.8438 194.486 38.2699C195.224 38.696 196.1 38.9091 197.114 38.9091C197.786 38.9091 198.402 38.8144 198.96 38.625C199.519 38.4356 199.997 38.1515 200.395 37.7727C200.793 37.3939 201.096 36.9299 201.304 36.3807L206.901 36.75C206.616 38.0947 206.034 39.2689 205.153 40.2727C204.282 41.267 203.155 42.0436 201.773 42.6023C200.4 43.1515 198.813 43.4261 197.014 43.4261ZM211.091 43V13.9091H222.568C224.775 13.9091 226.654 14.3305 228.207 15.1733C229.76 16.0066 230.944 17.1667 231.759 18.6534C232.582 20.1307 232.994 21.8352 232.994 23.767C232.994 25.6989 232.578 27.4034 231.744 28.8807C230.911 30.358 229.704 31.5085 228.122 32.3324C226.55 33.1562 224.647 33.5682 222.412 33.5682H215.097V28.6392H221.418C222.601 28.6392 223.577 28.4356 224.344 28.0284C225.12 27.6117 225.698 27.0388 226.077 26.3097C226.465 25.571 226.659 24.7235 226.659 23.767C226.659 22.8011 226.465 21.9583 226.077 21.2386C225.698 20.5095 225.12 19.946 224.344 19.5483C223.567 19.1411 222.582 18.9375 221.389 18.9375H217.241V43H211.091ZM242.927 13.9091V43H236.876V13.9091H242.927ZM253.996 43.4119C252.604 43.4119 251.363 43.1705 250.274 42.6875C249.185 42.1951 248.323 41.4706 247.689 40.5142C247.064 39.5483 246.751 38.3456 246.751 36.9062C246.751 35.6941 246.974 34.6761 247.419 33.8523C247.864 33.0284 248.47 32.3655 249.237 31.8636C250.004 31.3617 250.875 30.983 251.851 30.7273C252.836 30.4716 253.868 30.2917 254.947 30.1875C256.216 30.0549 257.239 29.9318 258.016 29.8182C258.792 29.6951 259.356 29.5152 259.706 29.2784C260.056 29.0417 260.232 28.6913 260.232 28.2273V28.142C260.232 27.2424 259.947 26.5464 259.379 26.054C258.821 25.5616 258.025 25.3153 256.993 25.3153C255.904 25.3153 255.037 25.5568 254.393 26.0398C253.75 26.5133 253.323 27.1098 253.115 27.8295L247.518 27.375C247.803 26.0492 248.361 24.9034 249.195 23.9375C250.028 22.9621 251.103 22.214 252.419 21.6932C253.745 21.1629 255.279 20.8977 257.021 20.8977C258.233 20.8977 259.393 21.0398 260.501 21.3239C261.619 21.608 262.608 22.0483 263.47 22.6449C264.341 23.2415 265.028 24.0085 265.53 24.946C266.032 25.8741 266.283 26.9867 266.283 28.2841V43H260.544V39.9744H260.374C260.023 40.6562 259.554 41.2576 258.967 41.7784C258.38 42.2898 257.675 42.6922 256.851 42.9858C256.027 43.2699 255.075 43.4119 253.996 43.4119ZM255.729 39.2358C256.619 39.2358 257.405 39.0606 258.087 38.7102C258.768 38.3504 259.304 37.8674 259.692 37.2614C260.08 36.6553 260.274 35.9687 260.274 35.2017V32.8864C260.085 33.0095 259.824 33.1231 259.493 33.2273C259.171 33.322 258.806 33.4119 258.399 33.4972C257.992 33.5729 257.585 33.6439 257.178 33.7102C256.77 33.767 256.401 33.8191 256.07 33.8665C255.359 33.9706 254.739 34.1364 254.209 34.3636C253.679 34.5909 253.267 34.8987 252.973 35.2869C252.679 35.6657 252.533 36.1392 252.533 36.7074C252.533 37.5312 252.831 38.161 253.428 38.5966C254.034 39.0227 254.801 39.2358 255.729 39.2358ZM280.835 43.4261C278.6 43.4261 276.678 42.9527 275.068 42.0057C273.468 41.0492 272.237 39.7235 271.375 38.0284C270.523 36.3333 270.097 34.3826 270.097 32.1761C270.097 29.9413 270.527 27.9811 271.389 26.2955C272.26 24.6004 273.496 23.2794 275.097 22.3324C276.697 21.3759 278.6 20.8977 280.807 20.8977C282.71 20.8977 284.377 21.2434 285.807 21.9347C287.237 22.6259 288.368 23.5966 289.202 24.8466C290.035 26.0966 290.494 27.5644 290.58 29.25H284.869C284.708 28.161 284.282 27.285 283.591 26.6222C282.909 25.9498 282.014 25.6136 280.906 25.6136C279.969 25.6136 279.15 25.8693 278.449 26.3807C277.758 26.8826 277.218 27.6165 276.83 28.5824C276.441 29.5483 276.247 30.7178 276.247 32.0909C276.247 33.483 276.437 34.6667 276.815 35.642C277.204 36.6174 277.748 37.3608 278.449 37.8722C279.15 38.3835 279.969 38.6392 280.906 38.6392C281.598 38.6392 282.218 38.4972 282.767 38.2131C283.326 37.929 283.785 37.517 284.145 36.9773C284.514 36.428 284.756 35.7699 284.869 35.0028H290.58C290.485 36.6695 290.03 38.1373 289.216 39.4062C288.411 40.6657 287.298 41.6506 285.878 42.3608C284.457 43.071 282.777 43.4261 280.835 43.4261ZM304.397 43.4261C302.153 43.4261 300.221 42.9716 298.602 42.0625C296.992 41.1439 295.751 39.8466 294.88 38.1705C294.009 36.4848 293.573 34.4915 293.573 32.1903C293.573 29.946 294.009 27.9763 294.88 26.2812C295.751 24.5862 296.978 23.2652 298.559 22.3182C300.15 21.3712 302.015 20.8977 304.156 20.8977C305.595 20.8977 306.935 21.1297 308.175 21.5938C309.425 22.0483 310.514 22.7348 311.442 23.6534C312.38 24.572 313.109 25.7273 313.63 27.1193C314.151 28.5019 314.411 30.1212 314.411 31.9773V33.6392H295.988V29.8892H308.715C308.715 29.018 308.526 28.2462 308.147 27.5739C307.768 26.9015 307.243 26.3759 306.57 25.9972C305.907 25.6089 305.136 25.4148 304.255 25.4148C303.336 25.4148 302.522 25.6278 301.812 26.054C301.111 26.4706 300.562 27.0341 300.164 27.7443C299.766 28.4451 299.563 29.2263 299.553 30.0881V33.6534C299.553 34.733 299.752 35.6657 300.15 36.4517C300.557 37.2377 301.13 37.8438 301.869 38.2699C302.607 38.696 303.483 38.9091 304.496 38.9091C305.169 38.9091 305.784 38.8144 306.343 38.625C306.902 38.4356 307.38 38.1515 307.778 37.7727C308.175 37.3939 308.478 36.9299 308.687 36.3807L314.283 36.75C313.999 38.0947 313.417 39.2689 312.536 40.2727C311.665 41.267 310.538 42.0436 309.156 42.6023C307.782 43.1515 306.196 43.4261 304.397 43.4261Z" fill="#FFFDFA"/>
<defs>
<radialGradient id="paint0_radial_6863_76582" cx="0" cy="0" r="1" gradientUnits="userSpaceOnUse" gradientTransform="translate(28 28) scale(28 28)">
<stop offset="0.473958" stop-color="#FFC640"/>
<stop offset="1" stop-color="#F2AF13"/>
</radialGradient>
</defs>
</svg>
