<svg width="137" height="36" viewBox="0 0 137 36" fill="none" xmlns="http://www.w3.org/2000/svg">
<path d="M56.8858 11.7565C56.1643 11.3675 55.2733 11.173 54.213 11.173H49.0356V24.75H51.5362V20.1627H54.1787C55.2439 20.1627 56.1408 19.9692 56.8682 19.583C57.5966 19.1959 58.1469 18.6644 58.5199 17.9884C58.8929 17.3125 59.079 16.5393 59.079 15.6678C59.079 14.806 58.8939 14.0357 58.5228 13.3578C58.1537 12.679 57.6074 12.1455 56.8858 11.7565ZM56.2455 16.9475C56.0546 17.3192 55.7609 17.611 55.3653 17.8228C54.9698 18.0347 54.4617 18.1406 53.8419 18.1406H51.5362V13.2278H53.8282C54.4529 13.2278 54.9639 13.3309 55.3614 13.536C55.7589 13.7411 56.0536 14.028 56.2446 14.3949C56.4355 14.7617 56.5314 15.1864 56.5314 15.6678C56.5324 16.1503 56.4365 16.5768 56.2455 16.9475Z" fill="white"/>
<path d="M72.9905 19.8382C72.9905 20.4044 72.8642 20.908 72.6126 21.35C72.361 21.7919 72.0027 22.1376 71.5376 22.388C71.0725 22.6374 70.5233 22.7625 69.8898 22.7625C69.2564 22.7625 68.7081 22.6374 68.245 22.388C67.7819 22.1386 67.4236 21.7929 67.17 21.35C66.9164 20.908 66.7891 20.4044 66.7891 19.8382V11.173H64.2886V20.0433C64.2886 21.0158 64.5196 21.8709 64.9827 22.6094C65.4458 23.348 66.0969 23.9229 66.9379 24.3369C67.778 24.75 68.7619 24.957 69.8908 24.957C71.0138 24.957 71.9958 24.75 72.8368 24.3369C73.6769 23.9238 74.3299 23.348 74.795 22.6094C75.26 21.8709 75.493 21.0158 75.493 20.0433V11.173H72.9925V19.8382H72.9905Z" fill="white"/>
<path d="M83.7535 11.173H81.2529V24.751H89.8335V22.6894H83.7535V11.173Z" fill="white"/>
<path d="M103.121 18.281C102.737 17.9719 102.303 17.7158 101.819 17.5117C101.336 17.3085 100.835 17.1467 100.313 17.0273L99.0183 16.7095C98.7354 16.6431 98.4544 16.5613 98.1754 16.464C97.8963 16.3668 97.6427 16.2464 97.4136 16.1029C97.1845 15.9594 97.0034 15.7832 96.8712 15.5762C96.7391 15.3682 96.6725 15.1236 96.6725 14.8405C96.6774 14.5006 96.7782 14.1973 96.976 13.9325C97.1738 13.6677 97.4587 13.4578 97.8317 13.3028C98.2047 13.1477 98.6522 13.0707 99.173 13.0707C99.9142 13.0707 100.518 13.2325 100.983 13.5551C101.448 13.8776 101.713 14.3283 101.775 14.9079H104.182C104.168 14.1434 103.951 13.4655 103.528 12.8762C103.106 12.2859 102.524 11.8247 101.785 11.4906C101.046 11.1574 100.186 10.9899 99.2063 10.9899C98.24 10.9899 97.3755 11.1565 96.6108 11.4906C95.8471 11.8247 95.243 12.2917 94.8005 12.8926C94.3579 13.4934 94.1367 14.1944 94.1367 14.9946C94.1367 15.9671 94.4656 16.7461 95.1246 17.3316C95.7825 17.917 96.6803 18.3542 97.818 18.6411L99.3884 19.0388C99.8829 19.163 100.316 19.3027 100.686 19.4596C101.057 19.6166 101.346 19.8111 101.552 20.0431C101.759 20.2752 101.865 20.5679 101.869 20.9213C101.865 21.3103 101.746 21.6493 101.512 21.9391C101.278 22.2289 100.956 22.4543 100.545 22.6151C100.134 22.7768 99.6557 22.8568 99.1123 22.8568C98.5905 22.8568 98.1205 22.7797 97.7005 22.6247C97.2805 22.4697 96.9398 22.2357 96.6793 21.9218C96.4189 21.6079 96.2701 21.215 96.2348 20.7422H93.7744C93.8106 21.6435 94.0495 22.408 94.4921 23.0359C94.9346 23.6637 95.5505 24.1413 96.3386 24.4677C97.1277 24.7951 98.0588 24.9588 99.1329 24.9588C100.238 24.9588 101.181 24.7893 101.96 24.4513C102.74 24.1134 103.337 23.6425 103.75 23.0388C104.163 22.435 104.37 21.7359 104.37 20.9406C104.37 20.3532 104.257 19.84 104.033 19.4028C103.81 18.9637 103.505 18.5901 103.121 18.281Z" fill="white"/>
<path d="M113.011 11.173L108.151 24.75H110.82L111.962 21.402H117.152L118.295 24.75H120.965L116.098 11.173H113.011ZM112.636 19.427L114.502 13.9577H114.609L116.477 19.427H112.636Z" fill="white"/>
<path d="M133.582 24.751H136.373L133.386 19.3731C133.476 19.3375 133.564 19.299 133.65 19.2585C134.378 18.9119 134.93 18.4189 135.305 17.7805C135.68 17.1421 135.868 16.3871 135.868 15.5167C135.868 14.6501 135.683 13.8913 135.311 13.2394C134.94 12.5875 134.395 12.08 133.673 11.718C132.952 11.3559 132.061 11.174 131.001 11.174H125.823V24.751H128.324V19.7785H130.868L133.582 24.751ZM128.325 13.2288H130.617C131.241 13.2288 131.752 13.3184 132.147 13.4975C132.543 13.6766 132.837 13.9375 133.03 14.2793C133.223 14.6221 133.32 15.0343 133.32 15.5157C133.32 15.9972 133.224 16.4025 133.033 16.7319C132.842 17.0612 132.549 17.3106 132.154 17.481C131.758 17.6514 131.25 17.7362 130.63 17.7362H128.325V13.2288Z" fill="white"/>
<path fill-rule="evenodd" clip-rule="evenodd" d="M21.2379 10.4211L23.5366 0.273403C23.5793 0.0816236 23.772 -0.0351874 23.962 0.0118857C32.0473 2.00116 38.0447 9.29923 38.0447 17.999C38.0447 26.6988 32.0473 33.9969 23.962 35.9862C23.772 36.0324 23.5802 35.9156 23.5366 35.7247L21.2379 25.5769C21.1586 25.2274 21.3565 24.8717 21.6973 24.7619C24.5557 23.8431 26.6252 21.1634 26.6252 17.999C26.6252 14.8347 24.5557 12.155 21.6973 11.2362C21.3565 11.1272 21.1586 10.7707 21.2379 10.4211ZM17.3434 24.7623C17.6843 24.8712 17.8822 25.2278 17.8028 25.5773L15.5032 35.7251C15.4605 35.9169 15.2679 36.0337 15.0778 35.9866C6.99258 33.9973 0.995117 26.6992 0.995117 17.9994C0.995117 9.29964 6.99258 2.00156 15.0778 0.0122894C15.2679 -0.033912 15.4596 0.082899 15.5032 0.273807L17.802 10.4215C17.8813 10.7711 17.6834 11.1268 17.3426 11.2366C14.4842 12.1554 12.4147 14.8351 12.4147 17.9994C12.4147 21.1638 14.4842 23.8435 17.3434 24.7623Z" fill="url(#paint0_radial_720_3014)"/>
<defs>
<radialGradient id="paint0_radial_720_3014" cx="0" cy="0" r="1" gradientUnits="userSpaceOnUse" gradientTransform="translate(19.5199 17.9991) scale(18.4199 18.3406)">
<stop offset="0.256717" stop-color="#FF4B94"/>
<stop offset="1" stop-color="#FF2E79"/>
</radialGradient>
</defs>
</svg>
