<svg width="430" height="416" viewBox="0 0 430 416" fill="none" xmlns="http://www.w3.org/2000/svg">
<path d="M26.1322 118.379L35.186 127.432L26.1322 136.486L17.0784 127.432L26.1322 118.379Z" fill="#7B7B7B"/>
<path d="M15.1507 48.998L32.2523 66.0997L10.1208 72.1356L15.1507 48.998ZM17.1627 57.0459L15.1507 67.1057L25.2105 65.0937L17.1627 57.0459Z" fill="#7B7B7B"/>
<path d="M9.32324 147.14L59.6962 302.851L80.1516 281.143L31.3093 131.972L9.32324 147.14Z" fill="#A8181E"/>
<path d="M59.6963 302.851L67.9063 305.355L64.7058 302.016L84.6045 281.004L80.1516 281.143L59.6963 302.851Z" fill="url(#paint0_linear_238_339)"/>
<path d="M64.7056 302.016L70.1325 315.096L90.3095 292.693L84.6043 281.004L64.7056 302.016Z" fill="url(#paint1_linear_238_339)"/>
<path d="M18.6464 142.965L0 155.628L44.6678 293.11L61.6443 273.629L18.6464 142.965Z" fill="url(#paint2_linear_238_339)"/>
<path d="M18.646 142.965H21.9856L64.8444 273.351L61.6439 273.629L18.646 142.965Z" fill="#FB020D"/>
<path d="M64.845 273.351L47.3119 292.832L44.668 293.11L61.6445 273.629L64.845 273.351Z" fill="#85262A"/>
<path d="M90.3094 292.693L93.5099 293.11L74.1677 314.818L70.1323 315.096L90.3094 292.693Z" fill="url(#paint3_linear_238_339)"/>
<path d="M175.067 23.3789H173.644C167.953 23.3789 162.263 27.647 160.84 34.7603C160.84 37.6057 160.84 41.8736 163.685 44.719C166.531 47.5643 169.376 48.987 172.221 48.987C179.335 50.4097 185.025 44.719 186.448 37.6056C186.448 34.7603 186.448 30.4923 183.603 27.647C182.18 26.2243 179.335 23.3789 175.067 23.3789ZM183.603 37.6056C182.18 43.2963 177.912 46.1417 173.644 46.1417H172.221C169.376 46.1417 166.531 44.719 165.108 41.8737C163.685 39.0283 162.263 36.183 163.685 33.3376C165.108 27.6469 169.376 23.3789 176.489 24.8016C179.335 24.8016 182.18 26.2243 183.603 29.0696C183.603 31.915 185.025 34.7603 183.603 37.6056Z" fill="#7B7B7B"/>
<path d="M175.07 29.0684C173.648 29.0684 173.648 29.0684 175.07 29.0684C172.225 29.0684 170.802 29.0683 169.38 30.491C167.957 31.9137 166.534 33.3364 166.534 34.7591C166.534 36.1817 166.534 39.0271 167.957 40.4497C169.379 41.8724 170.802 43.2951 172.225 43.2951C173.648 43.2951 176.493 43.2951 177.916 41.8724C179.338 40.4498 180.761 39.027 180.761 37.6044C180.761 36.1817 180.761 33.3364 179.338 31.9137C177.916 30.4911 176.493 29.0684 175.07 29.0684ZM177.916 36.1817C177.916 37.6044 176.493 39.0271 176.493 39.0271C175.07 39.0271 175.07 40.4497 173.648 40.4497C172.225 40.4497 170.802 39.0271 170.802 39.0271C169.38 37.6044 169.38 36.1817 169.38 34.7591C169.38 33.3364 170.802 31.9137 170.802 31.9137C172.225 30.4911 173.648 30.491 175.07 30.491C176.493 30.491 177.916 31.9137 177.916 31.9137C177.916 34.7591 177.916 36.1817 177.916 36.1817Z" fill="#7B7B7B"/>
<path d="M176.493 17.6855C175.07 17.6855 175.07 17.6855 173.648 17.6855C169.38 17.6855 165.112 19.1082 162.266 21.9535C157.998 24.7989 155.153 29.0669 155.153 34.7576C155.153 39.0256 155.153 44.7163 159.421 48.9843C162.266 53.2523 166.534 56.0977 172.225 56.0977C176.493 56.0977 182.184 56.0976 186.452 51.8296C190.72 48.9843 193.565 44.7163 193.565 39.0256C193.565 34.7576 193.565 29.0669 189.297 24.7989C185.029 20.5309 180.761 19.1082 176.493 17.6855ZM189.297 39.0256C189.297 43.2936 186.452 47.5616 182.184 50.407C179.338 53.2523 176.493 53.2523 172.225 53.2523C170.802 53.2523 170.802 53.2523 169.38 53.2523C165.112 53.2523 160.844 50.407 157.998 46.139C155.153 43.2936 153.73 37.6029 155.153 33.3349C155.153 29.0669 157.998 24.7989 162.266 21.9535C165.112 19.1082 170.802 17.6855 175.07 19.1082C179.338 19.1082 183.606 21.9535 186.452 26.2215C189.297 29.0669 190.72 34.7576 189.297 39.0256Z" fill="#7B7B7B"/>
<path d="M197.829 39.0257C199.251 31.9123 196.406 26.2217 193.56 20.531C189.292 14.8403 183.602 11.9949 177.911 10.5723C176.488 10.5723 175.066 10.5723 175.066 10.5723C163.684 10.5723 152.303 19.1083 150.88 31.9123C149.458 39.0257 152.303 44.7164 155.148 50.407C159.416 56.0977 165.107 58.9431 170.798 60.3658C183.602 61.7884 196.406 53.2524 197.829 39.0257ZM173.643 58.943C172.22 58.943 172.22 58.943 170.798 58.943C165.107 57.5204 159.416 54.6751 156.571 50.407C152.303 46.139 150.88 39.0257 152.303 33.335C153.726 21.9536 163.684 13.4176 175.066 13.4176C176.488 13.4176 176.488 13.4176 177.911 13.4176C183.602 14.8403 189.292 17.6856 192.138 21.9536C196.406 26.2216 197.828 33.335 196.406 39.0257C193.56 50.4071 185.024 58.943 173.643 58.943Z" fill="#7B7B7B"/>
<path d="M304.782 93.4222C308.806 97.4462 315.848 98.4521 320.878 93.4222C324.902 89.3983 325.908 82.3565 320.878 77.3266C316.854 73.3026 309.812 72.2966 304.782 77.3265C300.758 81.3505 300.758 89.3983 304.782 93.4222Z" fill="#7B7B7B"/>
<path d="M334.055 398.55L325.001 389.496L315.948 398.55L325.001 407.604L334.055 398.55Z" fill="#7B7B7B"/>
<path d="M312.828 234.893C308.804 238.917 308.804 244.953 312.828 248.977C316.852 253.001 322.888 253.001 326.912 248.977C330.936 244.953 330.936 238.917 326.912 234.893C322.888 230.869 316.852 230.869 312.828 234.893ZM322.888 244.953C320.876 246.965 318.864 246.965 316.852 244.953C314.84 242.941 314.84 240.929 316.852 238.917C318.864 236.905 320.876 236.905 322.888 238.917C324.9 240.929 323.894 243.947 322.888 244.953Z" fill="#7B7B7B"/>
<path d="M107.599 21.1251C103.575 25.149 97.5394 25.149 93.5155 21.1251C89.4916 17.1012 89.4916 11.0653 93.5155 7.04137C97.5394 3.01745 103.575 3.01747 107.599 7.04139C111.623 11.0653 111.623 17.1012 107.599 21.1251ZM97.5395 11.0653C95.5275 13.0772 95.5275 15.0892 97.5394 17.1012C99.5514 19.1131 101.563 19.1131 103.575 17.1012C105.587 15.0892 105.587 13.0772 103.575 11.0653C101.563 9.05335 98.5454 10.0593 97.5395 11.0653Z" fill="#7B7B7B"/>
<path d="M311.909 336.15L294.807 319.048L288.771 341.18L311.909 336.15ZM303.861 334.138L293.801 336.15L295.813 326.09L303.861 334.138Z" fill="#7B7B7B"/>
<path d="M388.279 306.317C390.291 306.317 390.291 306.317 391.297 307.323C392.303 308.329 392.303 308.329 392.303 310.341C392.303 312.353 392.303 314.365 393.309 315.371C394.315 316.377 397.333 317.383 398.339 316.377C400.351 316.377 400.351 316.377 401.357 317.383C402.363 318.389 402.363 318.389 402.363 320.401C402.363 322.413 402.363 324.425 403.369 325.431C405.381 327.443 407.393 327.443 408.399 326.437C410.411 326.437 410.411 326.437 411.417 327.443C412.423 328.449 412.423 328.449 412.423 330.461C412.423 332.473 412.423 334.485 413.429 335.491C414.435 336.497 417.453 337.503 418.459 336.497C420.471 336.497 420.471 336.497 421.477 337.503C422.483 338.509 422.483 338.509 422.483 340.521C422.483 342.533 422.483 344.544 423.488 345.55L426.506 342.533C425.5 341.527 425.5 341.527 425.5 339.515C425.5 337.503 425.5 335.491 424.494 334.485C422.483 332.473 420.471 332.473 419.465 333.479C417.453 333.479 417.453 333.479 416.447 332.473C415.441 331.467 415.441 331.467 415.441 329.455C415.441 327.443 415.441 325.431 414.435 324.425C412.423 322.413 410.411 322.413 409.405 323.419C407.393 323.419 407.393 323.419 406.387 322.413C405.381 321.407 405.381 321.407 405.381 319.395C405.381 317.383 405.381 315.371 404.375 314.365C402.363 312.353 400.351 312.353 399.345 313.359C397.333 313.359 397.333 313.359 396.327 312.353C395.321 311.347 395.321 311.347 395.321 309.335C395.321 307.323 395.321 305.311 394.315 304.305C393.309 303.299 390.291 302.293 389.285 303.299C387.273 303.299 387.273 303.299 386.267 302.293L383.249 305.311C385.261 305.311 387.273 305.311 388.279 306.317Z" fill="#7B7B7B"/>
<path d="M380.235 314.368C382.247 314.368 382.247 314.368 383.253 315.374C384.259 316.38 384.259 316.38 384.259 318.392C384.259 320.404 384.259 322.416 385.265 323.422C386.271 324.428 388.283 324.428 389.289 323.422C391.301 323.422 391.301 323.422 392.307 324.428C393.313 325.434 393.313 325.434 393.313 327.446C393.313 329.458 393.313 331.47 394.319 332.476C396.331 334.488 398.343 334.488 399.348 333.482C401.36 333.482 401.36 333.482 402.366 334.488C403.372 335.494 403.372 335.494 403.372 337.506C403.372 339.518 403.372 341.53 404.378 342.536C405.384 343.542 408.402 344.548 409.408 343.542C411.42 343.542 411.42 343.542 412.426 344.548C413.432 345.554 413.432 345.554 413.432 347.565C413.432 349.577 413.432 351.589 414.438 352.595L417.456 349.577C416.45 348.571 416.45 348.571 416.45 346.56C416.45 344.548 416.45 342.536 415.444 341.53C413.432 339.518 411.42 339.518 410.414 340.524C408.402 340.524 408.402 340.524 407.396 339.518C406.39 338.512 406.39 338.512 406.39 336.5C406.39 334.488 406.39 332.476 405.384 331.47C403.372 329.458 401.36 329.458 400.354 330.464C398.342 330.464 398.343 330.464 397.337 329.458C396.331 328.452 396.331 328.452 396.331 326.44C396.331 324.428 396.331 322.416 395.325 321.41C393.313 319.398 391.301 319.398 390.295 320.404C388.283 320.404 388.283 320.404 387.277 319.398C386.271 318.392 386.271 318.392 386.271 316.38C386.271 314.368 386.271 312.356 385.265 311.35C384.259 310.344 381.241 309.338 380.235 310.344C378.223 310.344 378.223 310.344 377.217 309.338L374.199 312.356C376.211 314.368 378.223 314.368 380.235 314.368Z" fill="#7B7B7B"/>
<path d="M226.287 314.06C226.287 324.019 234.823 332.555 244.781 332.555V324.019C239.091 324.019 234.823 319.751 234.823 314.06C234.823 308.369 239.091 304.101 244.781 304.101V295.565C233.4 295.565 226.287 304.101 226.287 314.06Z" fill="#7B7B7B"/>
<path d="M148.354 356.388C149.14 356.388 149.777 355.751 149.777 354.965C149.777 354.179 149.14 353.542 148.354 353.542C147.568 353.542 146.931 354.179 146.931 354.965C146.931 355.751 147.568 356.388 148.354 356.388Z" fill="#7B7B7B"/>
<path d="M138.391 353.542C136.968 353.542 136.968 353.542 138.391 353.542C136.968 356.388 136.968 356.388 138.391 356.388C138.391 356.388 139.813 356.388 138.391 353.542C138.391 353.542 139.813 353.542 138.391 353.542Z" fill="#7B7B7B"/>
<path d="M127.012 356.388C127.798 356.388 128.435 355.751 128.435 354.965C128.435 354.179 127.798 353.542 127.012 353.542C126.226 353.542 125.589 354.179 125.589 354.965C125.589 355.751 126.226 356.388 127.012 356.388Z" fill="#7B7B7B"/>
<path d="M115.627 356.388C116.413 356.388 117.049 355.751 117.049 354.965C117.049 354.179 116.413 353.542 115.627 353.542C114.841 353.542 114.204 354.179 114.204 354.965C114.204 355.751 114.841 356.388 115.627 356.388Z" fill="#7B7B7B"/>
<path d="M105.671 356.388C105.671 356.388 107.094 356.388 105.671 356.388C107.094 353.542 107.094 353.542 105.671 353.542C104.249 353.542 104.249 353.542 105.671 356.388C104.249 356.388 104.249 356.388 105.671 356.388Z" fill="#7B7B7B"/>
<path d="M148.354 345.005C149.14 345.005 149.777 344.368 149.777 343.582C149.777 342.797 149.14 342.16 148.354 342.16C147.568 342.16 146.931 342.797 146.931 343.582C146.931 344.368 147.568 345.005 148.354 345.005Z" fill="#7B7B7B"/>
<path d="M138.391 342.16C136.968 342.16 136.968 343.582 138.391 342.16C136.968 345.005 136.968 345.005 138.391 345.005C138.391 345.005 139.813 345.005 138.391 342.16C138.391 342.16 139.813 343.582 138.391 342.16Z" fill="#7B7B7B"/>
<path d="M127.012 345.005C127.798 345.005 128.435 344.368 128.435 343.582C128.435 342.797 127.798 342.16 127.012 342.16C126.226 342.16 125.589 342.797 125.589 343.582C125.589 344.368 126.226 345.005 127.012 345.005Z" fill="#7B7B7B"/>
<path d="M115.627 345.005C116.413 345.005 117.049 344.368 117.049 343.582C117.049 342.797 116.413 342.16 115.627 342.16C114.841 342.16 114.204 342.797 114.204 343.582C114.204 344.368 114.841 345.005 115.627 345.005Z" fill="#7B7B7B"/>
<path d="M105.671 345.005C105.671 345.005 107.094 345.005 105.671 345.005C107.094 342.16 107.094 342.16 105.671 342.16C104.249 342.16 104.249 343.582 105.671 345.005C104.249 345.005 104.249 345.005 105.671 345.005Z" fill="#7B7B7B"/>
<path d="M148.352 335.048C149.774 335.048 149.774 333.625 148.352 335.048C149.774 332.203 149.774 332.203 148.352 332.203C146.929 332.203 146.929 332.203 148.352 335.048C148.352 335.048 146.929 333.625 148.352 335.048Z" fill="#7B7B7B"/>
<path d="M138.391 332.203C136.968 332.203 136.968 332.203 138.391 332.203C136.968 335.048 136.968 335.048 138.391 335.048C138.391 335.048 139.813 333.625 138.391 332.203C138.391 332.203 139.813 332.203 138.391 332.203Z" fill="#7B7B7B"/>
<path d="M127.011 332.203C127.011 332.203 125.589 332.203 127.011 332.203C125.589 335.048 125.589 335.048 127.011 335.048C128.434 335.048 128.434 333.625 127.011 332.203C128.434 332.203 128.434 332.203 127.011 332.203Z" fill="#7B7B7B"/>
<path d="M115.633 332.203C115.633 332.203 114.21 332.203 115.633 332.203C114.21 335.048 114.21 335.048 115.633 335.048C117.056 335.048 117.056 333.625 115.633 332.203C117.056 332.203 117.056 332.203 115.633 332.203Z" fill="#7B7B7B"/>
<path d="M105.671 335.048C105.671 335.048 107.094 333.625 105.671 335.048C107.094 332.203 107.094 332.203 105.671 332.203C104.249 332.203 104.249 332.203 105.671 335.048C104.249 335.048 104.249 333.625 105.671 335.048Z" fill="#7B7B7B"/>
<path d="M148.354 323.665C149.14 323.665 149.777 323.028 149.777 322.243C149.777 321.457 149.14 320.82 148.354 320.82C147.568 320.82 146.931 321.457 146.931 322.243C146.931 323.028 147.568 323.665 148.354 323.665Z" fill="#7B7B7B"/>
<path d="M138.391 320.82C136.968 320.82 136.968 320.82 138.391 320.82C136.968 323.665 136.968 323.665 138.391 323.665C138.391 323.665 139.813 322.243 138.391 320.82C138.391 320.82 139.813 320.82 138.391 320.82Z" fill="#7B7B7B"/>
<path d="M127.012 323.665C127.798 323.665 128.435 323.028 128.435 322.243C128.435 321.457 127.798 320.82 127.012 320.82C126.226 320.82 125.589 321.457 125.589 322.243C125.589 323.028 126.226 323.665 127.012 323.665Z" fill="#7B7B7B"/>
<path d="M115.627 323.665C116.413 323.665 117.049 323.028 117.049 322.243C117.049 321.457 116.413 320.82 115.627 320.82C114.841 320.82 114.204 321.457 114.204 322.243C114.204 323.028 114.841 323.665 115.627 323.665Z" fill="#7B7B7B"/>
<path d="M105.671 323.665C105.671 323.665 107.094 322.243 105.671 323.665C107.094 320.82 107.094 320.82 105.671 320.82C104.249 320.82 104.249 320.82 105.671 323.665C104.249 323.665 104.249 322.243 105.671 323.665Z" fill="#7B7B7B"/>
<path d="M148.354 312.287C149.14 312.287 149.777 311.65 149.777 310.864C149.777 310.078 149.14 309.441 148.354 309.441C147.568 309.441 146.931 310.078 146.931 310.864C146.931 311.65 147.568 312.287 148.354 312.287Z" fill="#7B7B7B"/>
<path d="M138.391 309.441C136.968 309.441 136.968 310.864 138.391 309.441C136.968 312.287 136.968 312.287 138.391 312.287C138.391 312.287 139.813 312.287 138.391 309.441C138.391 309.441 139.813 310.864 138.391 309.441Z" fill="#7B7B7B"/>
<path d="M127.012 312.287C127.798 312.287 128.435 311.65 128.435 310.864C128.435 310.078 127.798 309.441 127.012 309.441C126.226 309.441 125.589 310.078 125.589 310.864C125.589 311.65 126.226 312.287 127.012 312.287Z" fill="#7B7B7B"/>
<path d="M115.627 312.287C116.413 312.287 117.049 311.65 117.049 310.864C117.049 310.078 116.413 309.441 115.627 309.441C114.841 309.441 114.204 310.078 114.204 310.864C114.204 311.65 114.841 312.287 115.627 312.287Z" fill="#7B7B7B"/>
<path d="M105.671 312.287C105.671 312.287 107.094 312.287 105.671 312.287C107.094 309.441 107.094 309.441 105.671 309.441C104.249 309.441 104.249 310.864 105.671 312.287C104.249 312.287 104.249 312.287 105.671 312.287Z" fill="#7B7B7B"/>
<path d="M185.726 389.496V395.187L192.839 402.3L185.726 409.413V415.104L198.53 402.3L185.726 389.496Z" fill="#7B7B7B"/>
<path d="M206.293 295.545L207.128 296.102L97.6162 322.819L97.4771 322.123L206.293 295.545Z" fill="#435453"/>
<path d="M226.121 307.164L206.362 295.893L131.637 313.426L100.467 321.636L74.1675 314.818L93.5096 293.11L221.112 278.917L226.121 307.164Z" fill="url(#paint4_radial_238_339)"/>
<path d="M112.017 354.059H113.269L118.418 346.962V345.292L112.017 354.059Z" fill="#002E3D"/>
<path d="M80.1514 281.143L111.6 253.034L231.688 258.74L286.931 144.774L260.353 89.9483L113.548 49.7334L31.3091 131.972L80.1514 281.143Z" fill="url(#paint5_linear_238_339)"/>
<path opacity="0.032258" d="M257.153 87.3038C258.962 84.6599 261.884 84.6598 263.554 87.4429L265.502 90.6434L277.191 110.682L280.53 116.387L290.828 134.059C292.219 136.425 292.637 140.46 291.941 143.243C291.802 143.661 291.663 144.217 291.523 144.635C291.523 144.774 286.792 154.793 286.792 154.793L284.566 159.663C283.174 162.585 280.809 162.725 279.278 159.802L277.608 156.741L265.224 132.807L262.58 127.658L251.169 105.811C250.056 103.724 249.917 100.524 250.613 98.0184C250.891 97.1835 251.169 96.3486 251.726 95.6529C251.587 95.3745 257.153 87.3038 257.153 87.3038Z" fill="#EC030E"/>
<path opacity="0.064516" d="M257.152 87.5824C258.961 85.0777 261.744 84.9385 263.414 87.5824L265.362 90.6437L276.912 110.543L280.251 116.248L290.409 133.781C291.801 136.147 292.218 140.043 291.522 142.826C291.383 143.243 291.244 143.8 291.105 144.078C291.105 144.218 286.513 154.097 286.513 154.236L284.287 159.107C282.895 162.029 280.529 162.168 279.138 159.385L277.468 156.324L265.362 132.529L262.718 127.38L251.447 105.812C250.334 103.724 250.194 100.524 250.89 98.0188C251.168 97.1839 251.447 96.349 251.864 95.6532C251.864 95.5141 257.152 87.7215 257.152 87.5824Z" fill="#ED040F"/>
<path opacity="0.096774" d="M257.292 88.0004C258.961 85.4956 261.884 85.3565 263.553 87.8612C263.693 87.8612 265.502 90.7834 265.502 90.9226L277.051 110.682L280.391 116.248L290.549 133.642C291.801 135.868 292.497 139.904 291.801 142.687C291.662 143.104 291.523 143.521 291.384 143.939C291.523 144.217 286.931 153.68 286.792 153.958L284.565 158.689C283.174 161.611 280.947 161.75 279.417 158.967C279.417 158.967 277.886 156.045 277.747 155.906L265.641 132.528L262.997 127.519L251.865 106.09C250.891 104.141 250.612 100.802 251.169 98.4368C251.447 97.6019 251.726 96.7669 252.143 96.0712C252.004 95.7929 257.152 88.1395 257.292 88.0004Z" fill="#EE0610"/>
<path opacity="0.129" d="M257.292 88.2789C258.962 85.9133 261.745 85.635 263.415 88.0005C263.554 88.0005 265.363 90.7836 265.363 90.9227L276.773 110.543L279.974 116.109L289.993 133.224C291.245 135.312 291.941 139.486 291.245 142.13C291.106 142.548 290.967 142.965 290.828 143.383C290.967 143.661 286.514 152.984 286.375 153.401L284.148 158.133C282.757 161.055 280.53 161.194 279 158.411C278.86 158.411 277.469 155.489 277.33 155.489L265.363 132.25L262.858 127.241L252.143 106.09C251.169 104.142 250.752 100.802 251.448 98.5761C251.726 97.7412 252.004 96.9063 252.282 96.2105C252.143 95.9322 257.153 88.5572 257.292 88.2789Z" fill="#E40812"/>
<path opacity="0.1613" d="M257.431 88.6959C258.961 86.4694 261.744 86.052 263.553 88.2784C263.692 88.1393 265.501 90.9223 265.501 91.0615L276.773 110.543L279.973 116.109L289.853 133.085C291.105 135.173 291.801 139.347 291.245 141.852C291.105 142.269 291.105 142.687 290.966 143.104C291.105 143.522 286.792 152.567 286.513 152.984L284.287 157.715C282.895 160.637 280.669 160.777 279.277 158.133C279.138 158.133 277.747 155.35 277.608 155.211L265.78 132.25L263.275 127.38L252.421 106.368C251.447 104.559 251.03 101.08 251.586 98.9931C251.865 98.1582 252.004 97.3233 252.421 96.7667C252.421 96.2101 257.152 88.9742 257.431 88.6959Z" fill="#E4050F"/>
<path opacity="0.1935" d="M257.431 88.9741C258.962 86.7477 261.745 86.3302 263.554 88.4175C263.693 88.2783 265.502 90.9222 265.641 91.2005L276.773 110.404L279.974 115.831L289.714 132.668C290.828 134.616 291.662 138.93 291.106 141.295C290.967 141.713 290.967 142.13 290.828 142.548C290.967 143.104 286.792 151.871 286.514 152.428L284.287 157.159C283.035 159.942 280.809 160.081 279.278 157.576C279.139 157.576 277.747 154.793 277.608 154.654L265.919 131.972L263.415 127.102L252.839 106.368C251.865 104.559 251.448 101.22 252.004 98.993C252.143 98.1581 252.422 97.4624 252.7 96.7666C252.561 96.3492 257.153 89.3916 257.431 88.9741Z" fill="#DE0610"/>
<path opacity="0.2258" d="M257.57 89.2526C258.961 87.1653 261.744 86.6087 263.553 88.5569C263.832 88.4177 265.502 90.9224 265.641 91.2007L276.634 110.265L279.834 115.691L289.575 132.39C290.688 134.338 291.523 138.652 291.105 141.017C290.966 141.435 290.966 141.852 290.827 142.27C290.966 142.826 286.792 151.454 286.513 152.01L284.426 156.602C283.174 159.385 280.947 159.524 279.417 157.159C279.278 157.02 277.886 154.515 277.747 154.237L266.197 131.833L263.693 126.963L253.117 106.368C252.282 104.698 251.725 101.22 252.143 99.1324C252.282 98.2975 252.56 97.6017 252.839 96.906C252.7 96.6277 257.152 89.8092 257.57 89.2526Z" fill="#DE0610"/>
<path opacity="0.2581" d="M257.57 89.6697C258.961 87.5824 261.744 87.0258 263.553 88.8348C263.832 88.6957 265.502 91.0612 265.641 91.3396L276.495 110.264L279.556 115.691L289.157 132.25C290.271 134.059 291.245 138.512 290.827 140.739C290.688 141.156 290.688 141.574 290.549 141.991C290.688 142.687 286.653 150.897 286.374 151.593L284.287 156.185C283.035 158.968 280.808 159.107 279.417 156.741C279.278 156.602 277.886 154.097 277.747 153.958L266.336 131.833L263.832 127.102L253.395 106.786C252.56 105.116 252.004 101.637 252.421 99.6887C252.56 98.8538 252.7 98.158 253.117 97.4622C252.978 96.9056 257.152 90.2263 257.57 89.6697Z" fill="#D80A13"/>
<path opacity="0.2903" d="M257.57 90.9476C258.961 88.9995 261.605 88.3037 263.414 89.9735C263.692 89.8344 265.362 92.1999 265.501 92.4783L276.355 111.264L279.417 116.552L288.879 132.972C289.853 134.781 290.966 139.233 290.549 141.32C290.41 141.738 290.41 142.155 290.27 142.572C290.549 143.268 286.513 151.34 286.096 152.175L284.009 156.767C282.756 159.55 280.669 159.689 279.138 157.463C278.999 157.324 277.608 154.957 277.468 154.679L266.197 132.694L263.831 127.961L253.534 107.925C252.699 106.394 252.143 102.776 252.421 100.827C252.56 99.9925 252.699 99.2967 252.978 98.6009C253.117 98.0443 257.152 91.6433 257.57 90.9476Z" fill="#D50C15"/>
<path opacity="0.3226" d="M257.709 90.3656C258.961 88.5567 261.744 87.7218 263.553 89.2524C263.832 89.1133 265.501 91.3397 265.64 91.618L276.355 110.264L279.417 115.552L288.879 131.833C289.853 133.503 290.966 138.095 290.688 140.182C290.549 140.599 290.549 141.017 290.549 141.434C290.827 142.269 286.931 150.062 286.513 150.897L284.426 155.35C283.174 157.993 281.086 158.272 279.556 156.045C279.417 155.906 278.164 153.541 277.886 153.262L266.754 131.555L264.388 126.963L254.23 107.064C253.534 105.533 252.699 101.915 253.117 100.106C253.256 99.2714 253.395 98.5756 253.673 97.8799C253.256 97.3232 257.152 91.0614 257.709 90.3656Z" fill="#D00F18"/>
<path opacity="0.3548" d="M257.709 90.6436C258.962 88.8346 261.606 87.8606 263.415 89.3912C263.832 89.2521 265.363 91.3394 265.502 91.6177L276.077 109.986L279.139 115.274L288.462 131.416C289.436 132.946 290.549 137.677 290.271 139.626C290.271 140.043 290.132 140.46 290.132 140.878C290.41 141.713 286.653 149.366 286.235 150.34L284.148 154.793C282.896 157.437 280.809 157.715 279.417 155.489C279.278 155.35 278.026 153.123 277.886 152.845L266.893 131.416L264.528 126.824L254.509 107.203C253.813 105.812 252.978 102.055 253.396 100.385C253.535 99.6885 253.674 98.8536 253.813 98.297C253.396 97.4621 257.292 91.4785 257.709 90.6436Z" fill="#CE0E16"/>
<path opacity="0.3871" d="M257.848 91.0609C258.961 89.391 261.744 88.2778 263.553 89.6693C263.971 89.5302 265.502 91.4783 265.641 91.8958L276.077 110.125L278.999 115.274L288.183 131.276C289.018 132.807 290.41 137.538 290.131 139.347C290.131 139.765 290.131 140.182 289.992 140.599C290.271 141.574 286.653 148.949 286.096 149.923L284.009 154.375C282.756 157.019 280.808 157.298 279.278 155.21C278.999 155.071 277.886 152.845 277.747 152.567L266.893 131.415L264.527 126.823L254.648 107.481C253.952 106.09 253.117 102.333 253.395 100.663C253.534 99.9666 253.534 99.1317 253.813 98.5751C253.674 97.7402 257.292 91.8958 257.848 91.0609Z" fill="#CA0F18"/>
<path opacity="0.4194" d="M257.849 91.3396C258.962 89.8089 261.606 88.5565 263.415 89.8089C263.832 89.6698 265.363 91.4787 265.502 91.8962L275.938 109.986L278.861 115.135L287.905 130.998C288.74 132.39 290.132 137.26 289.854 138.93C289.854 139.347 289.854 139.765 289.714 140.043C289.993 141.156 286.375 148.114 285.957 149.227L283.87 153.68C282.618 156.324 280.67 156.602 279.278 154.515C279 154.376 277.886 152.288 277.747 151.871L267.033 130.998L264.667 126.545L254.787 107.342C254.092 106.09 253.257 102.194 253.535 100.663C253.674 99.967 253.674 99.2712 253.952 98.5755C253.813 97.8797 257.292 92.3136 257.849 91.3396Z" fill="#C41018"/>
<path opacity="0.4516" d="M257.988 91.7574C258.962 90.2268 261.745 88.9744 263.554 90.0876C263.971 89.8093 265.502 91.6183 265.78 92.0357L276.078 109.986L279 115.135L288.045 130.859C288.88 132.251 290.271 137.121 290.132 138.791C290.132 139.208 290.132 139.626 289.993 139.904C290.271 141.017 286.792 147.836 286.236 149.088L284.288 153.402C283.035 156.046 281.087 156.324 279.695 154.376C279.417 154.237 278.304 152.149 278.165 151.871L267.311 131.137L265.085 126.685L255.344 107.76C254.787 106.508 253.813 102.611 253.952 101.22C254.092 100.524 254.092 99.8282 254.231 99.1325C253.952 98.1584 257.292 92.7315 257.988 91.7574Z" fill="#C1141C"/>
<path opacity="0.4839" d="M257.988 92.0349C258.962 90.6434 261.606 89.2518 263.415 90.2259C263.971 89.9476 265.363 91.6174 265.641 92.174L275.799 109.986L278.721 114.995L287.627 130.58C288.323 131.833 289.993 136.842 289.853 138.373C289.853 138.79 289.853 139.208 289.853 139.486C290.271 140.739 286.792 147.279 286.235 148.531L284.287 152.845C283.035 155.349 281.087 155.767 279.695 153.819C279.417 153.68 278.304 151.732 278.165 151.314L267.728 130.859L265.502 126.406L255.9 107.62C255.344 106.507 254.23 102.611 254.509 101.219C254.648 100.524 254.648 99.8274 254.787 99.1316C254.23 98.2967 257.292 93.1481 257.988 92.0349Z" fill="#C0171F"/>
<path opacity="0.5161" d="M258.126 92.4529C258.961 91.2005 261.605 89.6699 263.553 90.5048C264.11 90.2265 265.501 91.7572 265.78 92.3138L275.799 109.986L278.721 114.996L287.488 130.442C288.183 131.694 290.131 136.704 289.714 138.095C289.714 138.513 289.714 138.93 289.714 139.208C290.131 140.461 286.792 146.862 286.096 148.253L284.148 152.567C283.035 155.072 281.087 155.489 279.695 153.68C279.417 153.541 278.304 151.593 278.164 151.175L267.867 130.998L265.641 126.685L256.178 108.177C255.622 107.064 254.509 103.168 254.648 101.776C254.787 101.081 254.648 100.385 254.787 99.828C254.369 98.5756 257.292 93.5661 258.126 92.4529Z" fill="#BC141B"/>
<path opacity="0.5484" d="M258.127 92.7312C258.961 91.4788 261.605 89.9482 263.553 90.6439C264.11 90.3656 265.502 91.8963 265.78 92.3138L275.66 109.708L278.443 114.717L287.209 130.024C287.905 131.137 289.853 136.286 289.575 137.538C289.575 137.956 289.575 138.373 289.575 138.652C289.992 140.043 286.792 146.166 286.096 147.557L284.148 151.732C283.035 154.237 281.365 154.376 279.695 152.845C279.417 152.567 278.304 150.897 278.164 150.479L268.006 130.581L265.78 126.267L256.457 108.038C255.9 107.064 254.509 102.89 254.926 101.776C254.926 101.081 254.926 100.385 255.065 99.828C254.509 98.7147 257.292 93.9836 258.127 92.7312Z" fill="#B9141C"/>
<path opacity="0.5806" d="M258.127 93.1486C258.962 92.0353 261.466 90.3655 263.414 90.9221C263.971 90.6438 265.363 92.0353 265.641 92.592L275.521 109.847L278.304 114.717L286.931 129.885C287.488 130.859 289.714 136.147 289.297 137.399C289.297 137.817 289.297 138.095 289.297 138.512C289.714 140.043 286.653 145.748 285.818 147.418L283.87 151.593C282.757 154.097 281.087 154.236 279.417 152.706C279.139 152.427 278.165 150.758 277.886 150.34L267.867 130.72L265.78 126.545L256.596 108.455C256.179 107.481 254.648 103.307 254.926 102.333C254.926 101.637 254.926 100.941 254.926 100.385C254.787 98.9929 257.292 94.4009 258.127 93.1486Z" fill="#B61A22"/>
<path opacity="0.6129" d="M258.266 93.4269C258.962 92.3137 261.605 90.6438 263.554 91.2004C264.11 90.9221 265.502 92.1745 265.78 92.7311L275.521 109.847L278.304 114.717L286.792 129.746C287.349 130.72 289.575 136.008 289.297 137.121C289.297 137.538 289.297 137.817 289.297 138.234C289.436 139.904 286.653 145.331 285.957 147.001L284.009 151.175C282.896 153.68 281.226 153.819 279.695 152.428C279.417 152.149 278.443 150.619 278.165 150.062L268.285 130.581L266.197 126.406L257.013 108.455C256.596 107.621 255.065 103.446 255.344 102.333C255.204 101.637 255.204 100.941 255.344 100.385C254.926 99.1321 257.292 94.8184 258.266 93.4269Z" fill="#B1181F"/>
<path opacity="0.6452" d="M258.266 93.7054C258.962 92.7313 261.466 90.9223 263.414 91.3398C264.11 91.0615 265.363 92.1747 265.641 92.7313L275.242 109.708L278.025 114.578L286.375 129.467C286.931 130.302 289.158 135.729 288.879 136.703C289.018 137.121 288.879 137.399 289.018 137.816C289.297 139.486 286.514 144.774 285.818 146.444L284.009 150.479C282.896 152.845 281.365 153.123 279.695 151.732C279.417 151.453 278.443 150.062 278.165 149.366L268.424 130.163L266.337 125.988L257.431 108.455C257.013 107.62 255.344 103.446 255.622 102.472C255.483 101.776 255.483 101.08 255.622 100.524C255.065 99.4106 257.292 95.236 258.266 93.7054Z" fill="#B01B22"/>
<path opacity="0.6774" d="M258.405 94.1229C258.961 93.288 261.605 91.3398 263.553 91.6181C264.249 91.3398 265.501 92.3139 265.919 93.0096L275.381 109.847L277.886 114.439L286.235 129.189C286.653 130.024 289.157 135.451 288.879 136.425C289.018 136.842 289.018 137.121 289.018 137.538C289.296 139.347 286.653 144.356 285.818 146.165L284.009 150.201C282.895 152.566 281.365 152.845 279.695 151.592C279.417 151.314 278.443 149.922 278.164 149.366L268.563 130.441L266.475 126.406L257.709 108.873C257.291 108.177 255.622 103.863 255.9 103.028C255.761 102.333 255.761 101.776 255.761 101.08C255.343 99.5498 257.291 95.6535 258.405 94.1229Z" fill="#AA1D23"/>
<path opacity="0.7097" d="M258.405 94.401C258.962 93.5661 261.466 91.618 263.415 91.7571C264.11 91.4788 265.363 92.3137 265.78 93.0095L275.103 109.708L277.747 114.439L285.957 129.05C286.375 129.746 288.879 135.312 288.601 136.147C288.74 136.564 288.74 136.843 288.74 137.26C289.019 139.069 286.514 143.939 285.679 145.748L283.87 149.784C282.757 152.149 281.226 152.428 279.695 151.175C279.278 150.897 278.443 149.645 278.165 148.949L268.702 130.302L266.615 126.267L257.988 109.151C257.709 108.456 255.9 104.142 256.179 103.307C256.04 102.611 256.04 102.055 256.04 101.498C255.761 99.6888 257.292 96.0708 258.405 94.401Z" fill="#A51E24"/>
<path opacity="0.7419" d="M258.544 94.8188C258.962 94.1231 261.606 92.0358 263.554 92.0358C264.25 91.6183 265.502 92.4533 265.919 93.149L275.103 109.569L277.747 114.3L285.818 128.772C286.236 129.467 288.74 135.033 288.601 135.729C288.74 136.147 288.74 136.425 288.74 136.842C289.019 138.791 286.653 143.243 285.679 145.331L283.87 149.366C282.757 151.732 281.226 152.01 279.695 150.758C279.278 150.479 278.443 149.227 278.165 148.531L268.842 130.024L266.893 126.128L258.405 109.29C258.127 108.734 256.318 104.281 256.457 103.585C256.318 102.889 256.318 102.333 256.179 101.776C255.9 99.9675 257.431 96.4887 258.544 94.8188Z" fill="#A92228"/>
<path opacity="0.7742" d="M258.544 95.0968C258.962 94.5402 261.466 92.3138 263.414 92.1746C264.249 91.7572 265.363 92.4529 265.78 93.2878L274.964 109.569L277.608 114.161L285.679 128.493C285.957 129.05 288.74 134.755 288.601 135.312C288.74 135.729 288.74 136.008 288.879 136.425C289.297 138.512 286.931 142.687 285.957 144.774L284.148 148.671C283.035 151.036 281.504 151.314 279.973 150.201C279.556 149.923 278.721 148.81 278.443 148.114L269.259 129.885L267.311 125.989L258.822 109.291C258.544 108.734 256.596 104.281 256.874 103.724C256.735 103.029 256.735 102.472 256.596 101.915C256.039 100.106 257.431 96.9058 258.544 95.0968Z" fill="#A32026"/>
<path opacity="0.8065" d="M258.545 95.5143C258.962 94.9577 261.467 93.0096 263.415 92.453C264.25 92.1747 265.363 92.5922 265.78 93.4271L274.825 109.568L277.33 114.161L285.262 128.354C285.54 128.771 288.323 134.616 288.184 135.172C288.323 135.59 288.323 135.868 288.462 136.147C288.88 138.234 286.514 142.269 285.54 144.496L283.731 148.392C282.618 150.618 281.087 151.036 279.696 149.923C279.278 149.644 278.443 148.531 278.165 147.835L269.259 129.746L267.311 125.849L258.962 109.429C258.684 109.012 256.736 104.42 256.875 104.002C256.736 103.307 256.596 102.75 256.596 102.193C256.179 100.384 257.431 97.1842 258.545 95.5143Z" fill="#9B2127"/>
<path opacity="0.8387" d="M258.683 95.7925C258.962 95.3751 261.466 93.1487 263.554 92.5921C264.389 92.3138 265.502 92.7312 265.919 93.427L274.825 109.429L277.33 114.021L285.122 128.076C285.401 128.493 288.323 134.338 288.184 134.755C288.323 135.033 288.323 135.451 288.462 135.729C288.879 137.956 286.653 141.713 285.679 143.939L283.87 147.835C282.757 150.062 281.226 150.479 279.834 149.505C279.417 149.227 278.721 148.253 278.304 147.418L269.398 129.746L267.45 125.989L259.24 109.708C259.101 109.29 257.014 104.698 257.153 104.281C257.014 103.724 256.874 103.028 256.735 102.472C256.318 100.524 257.431 97.6015 258.683 95.7925Z" fill="#A3292E"/>
<path opacity="0.871" d="M258.683 96.2106C258.962 95.7932 261.466 93.5667 263.415 92.871C264.389 92.5927 265.363 92.871 265.78 93.7059L274.547 109.569L277.051 114.022L284.705 127.937C284.844 128.215 287.905 134.199 287.766 134.477C287.905 134.755 288.044 135.173 288.044 135.451C288.601 137.677 286.375 141.295 285.261 143.522L283.592 147.279C282.618 149.505 281.087 149.923 279.695 148.949C279.278 148.67 278.582 147.696 278.165 147.001L269.537 129.607L267.589 125.849L259.518 109.847C259.379 109.569 257.292 104.838 257.292 104.559C257.014 104.003 257.014 103.307 256.874 102.75C256.457 100.802 257.431 98.0196 258.683 96.2106Z" fill="#992328"/>
<path opacity="0.9032" d="M258.823 96.4879C258.962 96.2096 261.467 93.844 263.554 93.0091C264.528 92.5917 265.502 92.87 265.919 93.7049L274.547 109.29L277.052 113.743L284.705 127.519C284.844 127.797 287.906 133.642 287.906 134.059C288.045 134.338 288.184 134.755 288.184 135.033C288.74 137.399 286.653 140.599 285.54 143.104L283.87 146.861C282.896 149.088 281.365 149.644 279.974 148.67C279.556 148.392 278.861 147.557 278.443 146.722L269.816 129.467L268.007 125.71L260.075 109.986C259.936 109.708 257.71 104.976 257.849 104.837C257.57 104.281 257.431 103.585 257.292 103.168C256.596 100.941 257.431 98.436 258.823 96.4879Z" fill="#9F292E"/>
<path opacity="0.9355" d="M258.822 96.9065C258.961 96.7673 261.466 94.1234 263.414 93.2885C264.388 92.8711 265.362 93.0102 265.919 93.8451L274.546 109.29L277.051 113.743L284.565 127.38C284.704 127.519 287.905 133.503 287.766 133.781C287.905 134.06 288.044 134.477 288.183 134.755C288.879 137.121 286.792 140.182 285.539 142.687L283.87 146.444C282.895 148.67 281.365 149.227 279.973 148.253C279.417 147.975 278.86 147.14 278.443 146.305L269.954 129.328L268.145 125.71L260.353 110.125C260.214 109.986 257.987 105.255 257.987 104.977C257.709 104.42 257.57 103.864 257.431 103.307C256.735 101.22 257.431 98.8546 258.822 96.9065Z" fill="#96292E"/>
<path opacity="0.9677" d="M258.961 97.1841C258.961 97.045 261.466 94.4011 263.553 93.427C264.527 93.0096 265.501 93.0096 266.058 93.9837L274.546 109.29L276.912 113.604L284.287 127.102C284.287 127.241 287.627 133.224 287.627 133.363C287.766 133.642 287.905 134.059 288.044 134.338C288.74 136.842 286.792 139.625 285.539 142.269L283.87 146.026C282.895 148.114 281.365 148.809 280.112 147.835C279.556 147.557 278.999 146.861 278.582 146.026L270.233 129.328L268.424 125.71L260.77 110.403C260.77 110.264 258.405 105.533 258.405 105.394C258.126 104.837 257.987 104.281 257.709 103.724C257.013 101.498 257.431 99.2714 258.961 97.1841Z" fill="#8E2A2E"/>
<path d="M113.548 49.733L112.017 42.4971L9.32324 147.14L31.3093 131.972L113.548 49.733Z" fill="url(#paint6_linear_238_339)"/>
<path d="M231.688 258.74L239.341 286.709L304.743 150.619L286.931 144.774L231.688 258.74Z" fill="url(#paint7_linear_238_339)"/>
<path d="M286.932 144.774L260.354 89.9486L279.696 88.1396L304.743 150.619L286.932 144.774Z" fill="url(#paint8_linear_238_339)"/>
<path d="M260.353 89.9479L113.548 49.733L112.017 42.4971L279.695 88.1389L260.353 89.9479Z" fill="url(#paint9_linear_238_339)"/>
<path d="M84.6047 281.004L111.183 255.261L111.6 253.034L80.1519 281.143L84.6047 281.004Z" fill="url(#paint10_linear_238_339)"/>
<path d="M111.182 255.261L111.6 253.034L231.688 258.74L226.817 262.775L111.182 255.261Z" fill="url(#paint11_linear_238_339)"/>
<path d="M226.818 262.775L232.941 288.24L239.342 286.709L231.688 258.74L226.818 262.775Z" fill="url(#paint12_linear_238_339)"/>
<path d="M84.604 281.004L90.3092 292.693L224.73 277.803L226.817 262.775L111.182 255.261L84.604 281.004Z" fill="#E50913"/>
<path d="M224.73 277.804L229.74 306.886L232.94 288.24L226.818 262.775L224.73 277.804Z" fill="url(#paint13_linear_238_339)"/>
<path d="M128.576 52.9341L145.831 36.6533L218.607 38.8798L247.273 84.939L128.576 52.9341Z" fill="url(#paint14_linear_238_339)"/>
<path d="M128.576 52.9336L126.628 47.2283L143.326 35.1221L145.831 36.6528L128.576 52.9336Z" fill="url(#paint15_linear_238_339)"/>
<path d="M247.273 84.9387L261.466 83.6863L232.662 37.9053L218.607 38.8794L247.273 84.9387Z" fill="#FF6A71"/>
<path d="M143.326 35.1221L145.831 36.6528L218.607 38.8792L232.662 37.9052L143.326 35.1221Z" fill="#F4030E"/>
<path d="M291.662 136.981L294.167 135.59L268.702 79.6514L266.197 81.0429L291.662 136.981Z" fill="#D7020B"/>
<path d="M291.662 136.981L313.509 143.104L315.457 141.852L294.167 135.59L291.662 136.981Z" fill="#A9060D"/>
<path d="M315.458 141.852L288.462 79.6514H268.703L294.167 135.59L315.458 141.852Z" fill="#FF363F"/>
<path opacity="0.032258" d="M263.852 209.587C260.513 212.38 251.115 229.776 249.259 233.459C247.404 237.141 232.069 268.884 232.069 268.884L241.592 291.612L285 204C285 204 276.838 204.762 274.364 205.143C271.891 205.651 267.316 206.794 263.852 209.587Z" fill="#CD2830"/>
<path opacity="0.064516" d="M263.606 210.222C260.266 212.888 251.115 229.903 249.383 233.458C247.529 237.14 232.193 269.138 232.193 269.138L241.716 291.739L284.754 204.762C284.754 204.762 276.591 205.524 274.118 206.032C271.52 206.412 266.945 207.429 263.606 210.222Z" fill="#C62229"/>
<path opacity="0.096774" d="M263.358 210.858C260.143 213.524 251.238 229.903 249.507 233.459C247.776 237.014 232.193 269.393 232.193 269.393L241.593 291.74L284.259 205.397C284.259 205.397 276.096 206.286 273.623 206.668C271.15 207.048 266.697 208.064 263.358 210.858Z" fill="#C9222A"/>
<path opacity="0.129" d="M263.111 211.493C259.896 214.159 251.363 230.031 249.631 233.459C247.899 236.887 232.193 269.519 232.193 269.519L241.468 291.74L283.764 206.032C283.764 206.032 275.478 206.921 273.004 207.302C270.655 207.683 266.45 208.699 263.111 211.493Z" fill="#C6232A"/>
<path opacity="0.1613" d="M262.864 212.126C259.648 214.665 251.363 230.029 249.755 233.458C248.023 236.886 232.317 269.772 232.317 269.772L241.468 291.738L283.393 206.793C283.393 206.793 275.107 207.682 272.634 208.189C270.284 208.444 266.079 209.459 262.864 212.126Z" fill="#C2232A"/>
<path opacity="0.1935" d="M262.616 212.634C259.525 215.174 251.486 230.03 249.878 233.331C248.271 236.633 232.317 269.772 232.317 269.772L241.345 291.612L282.898 207.302C282.898 207.302 274.612 208.317 272.139 208.698C269.913 209.079 265.831 210.095 262.616 212.634Z" fill="#C1232B"/>
<path opacity="0.2258" d="M262.369 213.269C259.277 215.808 251.609 230.03 250.001 233.331C248.394 236.632 232.441 270.027 232.441 270.027L241.469 291.612L282.651 207.936C282.651 207.936 274.241 208.952 271.891 209.333C269.418 209.841 265.585 210.73 262.369 213.269Z" fill="#C2232A"/>
<path opacity="0.2581" d="M262.121 213.904C259.154 216.316 251.609 230.157 250.126 233.332C248.518 236.505 232.441 270.154 232.441 270.154L241.345 291.612L282.156 208.571C282.156 208.571 273.747 209.587 271.397 209.968C269.047 210.476 265.337 211.364 262.121 213.904Z" fill="#BF2128"/>
<path opacity="0.2903" d="M261.997 214.539C259.029 216.951 251.857 230.157 250.373 233.331C248.765 236.505 232.688 270.408 232.688 270.408L241.468 291.74L281.909 209.333C281.909 209.333 273.499 210.475 271.149 210.857C268.675 211.111 264.966 212.126 261.997 214.539Z" fill="#BD2027"/>
<path opacity="0.3226" d="M261.75 215.174C258.782 217.586 251.98 230.284 250.496 233.331C249.012 236.379 232.688 270.662 232.688 270.662L241.345 291.739L281.537 209.968C281.537 209.968 273.004 211.111 270.655 211.492C268.181 211.872 264.719 212.762 261.75 215.174Z" fill="#BA2128"/>
<path opacity="0.3548" d="M261.503 215.808C258.659 218.094 252.104 230.284 250.62 233.331C249.136 236.252 232.811 270.788 232.811 270.788L241.345 291.739L281.167 210.603C281.167 210.603 272.633 211.745 270.283 212.126C267.81 212.507 264.471 213.396 261.503 215.808Z" fill="#BB1F26"/>
<path opacity="0.3871" d="M261.255 216.443C258.411 218.729 252.104 230.41 250.62 233.33C249.135 236.251 232.688 271.042 232.688 271.042L241.097 291.739L280.548 211.237C280.548 211.237 272.014 212.507 269.665 212.888C267.439 213.142 264.1 214.03 261.255 216.443Z" fill="#BB2027"/>
<path opacity="0.4194" d="M261.008 216.952C258.288 219.111 252.228 230.284 250.743 233.077C249.384 235.871 232.811 270.916 232.811 270.916L241.221 291.486L280.301 211.746C280.301 211.746 271.644 213.015 269.418 213.397C267.068 213.904 263.852 214.793 261.008 216.952Z" fill="#BB1E26"/>
<path opacity="0.4516" d="M260.761 217.587C258.04 219.746 252.351 230.412 250.867 233.078C249.507 235.871 232.811 271.171 232.811 271.171L241.097 291.613L279.806 212.508C279.806 212.508 271.149 213.778 268.924 214.158C266.574 214.54 263.605 215.429 260.761 217.587Z" fill="#B71E25"/>
<path opacity="0.4839" d="M260.513 218.22C257.793 220.379 252.351 230.41 250.991 233.077C249.631 235.743 232.811 271.423 232.811 271.423L240.973 291.612L279.311 213.142C279.311 213.142 270.655 214.539 268.305 214.919C266.202 215.301 263.235 216.062 260.513 218.22Z" fill="#B82229"/>
<path opacity="0.5161" d="M260.267 218.856C257.669 220.888 252.475 230.538 251.115 233.077C249.755 235.744 232.936 271.55 232.936 271.55L240.974 291.612L278.94 213.777C278.94 213.777 270.161 215.174 267.934 215.555C265.832 215.936 262.988 216.698 260.267 218.856Z" fill="#B41C23"/>
<path opacity="0.5484" d="M260.019 219.492C257.422 221.523 252.599 230.539 251.238 233.078C250.002 235.617 232.936 271.805 232.936 271.805L240.851 291.613L278.446 214.413C278.446 214.413 269.666 215.809 267.439 216.191C265.337 216.571 262.74 217.46 260.019 219.492Z" fill="#B71D24"/>
<path opacity="0.5806" d="M259.896 220.126C257.422 222.157 252.723 230.664 251.485 233.077C250.249 235.616 233.183 271.931 233.183 271.931L240.973 291.612L278.198 215.047C278.198 215.047 269.418 216.57 267.192 216.951C264.966 217.332 262.369 218.094 259.896 220.126Z" fill="#B31920"/>
<path opacity="0.6129" d="M259.648 220.761C257.174 222.666 252.846 230.665 251.609 233.077C250.373 235.49 233.183 272.186 233.183 272.186L240.973 291.612L277.828 215.682C277.828 215.682 268.923 217.205 266.821 217.587C264.594 217.967 262.121 218.729 259.648 220.761Z" fill="#B11C23"/>
<path opacity="0.6452" d="M259.401 221.269C256.927 223.174 252.97 230.665 251.733 232.951C250.62 235.237 233.306 272.313 233.306 272.313L240.973 291.613L277.456 216.317C277.456 216.317 268.552 217.841 266.327 218.222C264.1 218.603 261.874 219.365 259.401 221.269Z" fill="#B01A21"/>
<path opacity="0.6774" d="M259.153 221.903C256.804 223.808 252.97 230.664 251.857 232.95C250.743 235.236 233.306 272.439 233.306 272.439L240.85 291.612L276.962 217.078C276.962 217.078 268.058 218.602 265.832 218.982C263.729 219.364 261.503 219.999 259.153 221.903Z" fill="#AD1A21"/>
<path opacity="0.7097" d="M258.906 222.539C256.556 224.317 253.093 230.793 251.98 232.951C250.868 235.109 233.43 272.694 233.43 272.694L240.85 291.612L276.591 217.714C276.591 217.714 267.563 219.365 265.46 219.745C263.358 220 261.255 220.762 258.906 222.539Z" fill="#AD1A21"/>
<path opacity="0.7419" d="M258.658 223.173C256.432 224.95 253.217 230.791 252.104 232.95C250.991 235.109 233.43 272.82 233.43 272.82L240.726 291.612L276.096 218.349C276.096 218.349 267.068 219.999 264.966 220.38C262.863 220.76 261.008 221.395 258.658 223.173Z" fill="#AA181F"/>
<path opacity="0.7742" d="M258.411 223.808C256.186 225.458 253.218 230.919 252.228 232.95C251.238 234.981 233.554 273.074 233.554 273.074L240.851 291.612L275.849 218.982C275.849 218.982 266.822 220.633 264.719 221.015C262.493 221.395 260.761 222.03 258.411 223.808Z" fill="#A7171D"/>
<path opacity="0.8065" d="M258.164 224.443C255.938 226.094 253.341 230.919 252.352 232.95C251.363 234.983 233.554 273.201 233.554 273.201L240.727 291.612L275.354 219.618C275.354 219.618 266.203 221.396 264.1 221.777C262.122 222.031 260.391 222.666 258.164 224.443Z" fill="#A9191F"/>
<path opacity="0.8387" d="M257.916 225.078C255.814 226.729 253.465 231.047 252.475 232.951C251.485 234.856 233.677 273.456 233.677 273.456L240.726 291.74L274.983 220.381C274.983 220.381 265.831 222.158 263.729 222.539C261.75 222.793 260.143 223.429 257.916 225.078Z" fill="#A8181F"/>
<path opacity="0.871" d="M257.793 225.586C255.69 227.11 253.588 230.919 252.723 232.697C251.857 234.474 233.801 273.455 233.801 273.455L240.726 291.486L274.612 220.761C274.612 220.761 265.46 222.538 263.358 222.92C261.255 223.428 259.896 224.062 257.793 225.586Z" fill="#A6171E"/>
<path opacity="0.9032" d="M257.546 226.22C255.567 227.744 253.712 231.045 252.846 232.696C251.981 234.473 233.801 273.581 233.801 273.581L240.603 291.484L274.117 221.395C274.117 221.395 264.842 223.299 262.863 223.68C260.885 224.061 259.524 224.696 257.546 226.22Z" fill="#A4181E"/>
<path opacity="0.9355" d="M257.298 226.855C255.32 228.379 253.835 231.046 252.97 232.696C252.104 234.347 233.925 273.836 233.925 273.836L240.603 291.485L273.747 222.03C273.747 222.03 264.471 223.935 262.493 224.316C260.513 224.823 259.277 225.332 257.298 226.855Z" fill="#A2171D"/>
<path opacity="0.9677" d="M257.051 227.491C255.072 228.887 253.835 231.046 253.093 232.697C252.351 234.348 233.925 273.963 233.925 273.963L240.603 291.486L273.375 222.793C273.375 222.793 264.1 224.697 261.998 225.079C260.019 225.459 259.03 226.094 257.051 227.491Z" fill="#A0151C"/>
<path d="M256.803 228.125C254.949 229.522 253.959 231.173 253.217 232.697C252.475 234.221 234.048 274.217 234.048 274.217L240.603 291.485L273.004 223.428C273.004 223.428 263.605 225.459 261.627 225.84C259.647 226.221 258.658 226.729 256.803 228.125Z" fill="#A2141B"/>
<path d="M256.804 228.633C254.949 230.029 253.96 231.68 253.217 233.204C252.475 234.727 234.173 274.343 234.173 274.343L240.727 291.612L273.004 223.935C273.004 223.935 263.606 225.967 261.627 226.22C259.648 226.601 258.659 227.236 256.804 228.633Z" fill="#A2161D"/>
<path d="M256.804 229.014C254.949 230.411 253.959 232.062 253.217 233.586C252.476 235.109 234.295 274.344 234.295 274.344L240.85 291.612L272.881 224.443C272.881 224.443 263.605 226.475 261.627 226.729C259.648 227.11 258.659 227.745 256.804 229.014Z" fill="#99181D"/>
<path d="M256.68 229.522C254.824 230.919 253.835 232.568 253.093 234.092C252.351 235.616 234.295 274.471 234.295 274.471L240.726 291.612L272.633 224.823C272.633 224.823 263.358 226.855 261.379 227.109C259.524 227.617 258.659 228.125 256.68 229.522Z" fill="#96191F"/>
<path d="M256.68 230.029C254.824 231.426 253.835 233.076 253.093 234.6C252.351 236.124 234.543 274.597 234.543 274.597L240.973 291.738L272.633 225.458C272.633 225.458 263.358 227.362 261.38 227.744C259.524 228.124 258.535 228.633 256.68 230.029Z" fill="#92191E"/>
<path d="M256.68 230.537C254.824 231.934 253.835 233.585 253.093 235.109C252.351 236.633 234.667 274.725 234.667 274.725L241.098 291.867L272.633 225.967C272.633 225.967 263.358 227.871 261.38 228.253C259.524 228.633 258.535 229.141 256.68 230.537Z" fill="#8D191F"/>
<path d="M256.68 231.045C254.825 232.442 253.836 234.093 253.094 235.616C252.352 237.14 234.791 274.851 234.791 274.851L241.221 291.993L272.511 226.602C272.511 226.602 263.235 228.506 261.38 228.886C259.525 229.141 258.536 229.648 256.68 231.045Z" fill="#871B20"/>
<path d="M256.68 231.426C254.824 232.823 253.959 234.474 253.093 235.997C252.351 237.521 234.914 274.851 234.914 274.851L241.345 291.866L272.509 226.855C272.509 226.855 263.235 228.76 261.38 229.14C259.4 229.522 258.535 230.156 256.68 231.426Z" fill="#8B1E23"/>
<path d="M256.68 231.935C254.825 233.331 253.959 234.982 253.218 236.506C252.476 238.029 235.161 274.979 235.161 274.979L241.592 291.994L272.633 227.49C272.633 227.49 263.482 229.396 261.503 229.776C259.401 230.03 258.535 230.538 256.68 231.935Z" fill="#841F23"/>
<path d="M256.557 232.442C254.701 233.839 253.835 235.363 253.093 236.886C252.351 238.409 235.161 274.978 235.161 274.978L241.592 291.993L272.386 227.871C272.386 227.871 263.235 229.775 261.256 230.157C259.401 230.537 258.412 231.046 256.557 232.442Z" fill="#7D1F24"/>
<path d="M256.557 232.95C254.702 234.347 253.836 235.87 253.094 237.394C252.352 238.918 235.409 275.105 235.409 275.105L241.84 291.994L272.51 228.379C272.51 228.379 263.358 230.284 261.38 230.665C259.401 231.046 258.411 231.553 256.557 232.95Z" fill="#891B20"/>
<path d="M256.556 233.458C254.701 234.854 253.835 236.378 253.093 237.902C252.351 239.426 235.532 275.233 235.532 275.233L241.963 292.12L272.386 228.887C272.386 228.887 263.234 230.791 261.379 231.172C259.276 231.553 258.411 232.061 256.556 233.458Z" fill="#782124"/>
<path d="M256.557 233.839C254.701 235.236 253.835 236.76 253.093 238.283C252.351 239.807 235.656 275.233 235.656 275.233L241.963 292.121L272.262 229.396C272.262 229.396 263.111 231.3 261.255 231.68C259.277 232.062 258.411 232.57 256.557 233.839Z" fill="#742125"/>
<path d="M256.557 234.347C254.701 235.743 253.835 237.267 253.093 238.791C252.352 240.315 235.78 275.36 235.78 275.36L242.087 292.12L272.139 229.775C272.139 229.775 262.988 231.681 261.132 232.061C259.277 232.442 258.288 233.077 256.557 234.347Z" fill="#6F2326"/>
<path d="M256.433 234.854C254.577 236.251 253.712 237.775 252.97 239.299C252.228 240.822 235.78 275.486 235.78 275.486L242.087 292.247L272.015 230.41C272.015 230.41 262.988 232.315 261.008 232.696C259.277 232.95 258.288 233.458 256.433 234.854Z" fill="#6F2427"/>
<path d="M256.433 235.363C254.577 236.759 253.712 238.283 252.97 239.806C252.228 241.33 235.903 275.613 235.903 275.613L242.21 292.374L272.015 230.918C272.015 230.918 262.988 232.823 261.008 233.204C259.154 233.457 258.288 233.966 256.433 235.363Z" fill="#612326"/>
<path d="M256.432 235.871C254.577 237.267 253.711 238.79 252.969 240.314C252.227 241.838 236.15 275.74 236.15 275.74L242.457 292.373L272.014 231.426C272.014 231.426 262.986 233.331 261.132 233.712C259.152 233.965 258.287 234.473 256.432 235.871Z" fill="#60272B"/>
<path d="M256.433 236.251C254.577 237.521 253.712 239.171 252.97 240.695C252.228 242.219 236.275 275.74 236.275 275.74L242.582 292.374L272.015 231.808C272.015 231.808 262.988 233.712 261.132 234.092C259.154 234.474 258.164 234.981 256.433 236.251Z" fill="#63282B"/>
<path d="M256.433 236.76C254.577 238.029 253.712 239.68 252.969 241.204C252.227 242.728 236.398 275.868 236.398 275.868L242.705 292.501L271.892 232.315C271.892 232.315 262.863 234.221 261.008 234.601C259.153 234.855 258.164 235.49 256.433 236.76Z" fill="#5B272A"/>
<path d="M256.308 237.267C254.454 238.537 253.588 240.188 252.846 241.711C252.104 243.235 236.398 275.994 236.398 275.994L242.705 292.501L271.767 232.823C271.767 232.823 262.739 234.728 260.885 235.109C259.03 235.363 258.164 235.87 256.308 237.267Z" fill="#542629"/>
<path d="M256.309 237.776C254.454 239.045 253.588 240.696 252.846 242.093C252.104 243.616 236.522 275.994 236.522 275.994L242.706 292.501L271.644 233.204C271.644 233.204 262.74 235.109 260.761 235.49C259.03 235.87 258.164 236.379 256.309 237.776Z" fill="#55292B"/>
<path d="M256.308 238.283C254.454 239.553 253.588 241.204 252.846 242.601C252.104 244.124 236.769 276.122 236.769 276.122L242.952 292.628L271.644 233.839C271.644 233.839 262.739 235.743 260.885 236.125C259.029 236.378 258.163 236.887 256.308 238.283Z" fill="#522B2D"/>
<path d="M256.309 238.665C254.577 239.934 253.588 241.584 252.846 242.981C252.104 244.505 236.893 276.122 236.893 276.122L243.076 292.628L271.644 234.221C271.644 234.221 262.74 236.125 260.885 236.506C259.03 236.887 258.041 237.394 256.309 238.665Z" fill="#4E2D2E"/>
<path d="M256.309 239.172C254.577 240.442 253.588 242.092 252.97 243.489C252.227 245.013 237.14 276.248 237.14 276.248L243.323 292.628L271.644 234.728C271.644 234.728 262.74 236.633 260.885 237.013C258.906 237.394 258.041 237.902 256.309 239.172Z" fill="#4B342F"/>
<path d="M256.309 239.679C254.577 240.949 253.588 242.6 252.97 243.997C252.227 245.52 237.264 276.375 237.264 276.375L243.448 292.755L271.644 235.235C271.644 235.235 262.74 237.14 260.885 237.521C258.906 237.775 258.041 238.41 256.309 239.679Z" fill="#432C2D"/>
<path d="M256.185 240.188C254.454 241.457 253.465 243.108 252.846 244.505C252.104 245.901 237.264 276.502 237.264 276.502L243.448 292.882L271.397 235.87C271.397 235.87 262.616 237.775 260.761 238.029C258.906 238.283 258.041 238.791 256.185 240.188Z" fill="#423031"/>
<path d="M256.185 240.569C254.454 241.839 253.588 243.49 252.846 244.886C252.104 246.283 237.387 276.503 237.387 276.503L243.57 292.755L271.397 236.125C271.397 236.125 262.616 238.029 260.76 238.283C258.905 238.791 257.916 239.3 256.185 240.569Z" fill="#423435"/>
<path d="M256.185 241.077C254.454 242.346 253.588 243.997 252.846 245.394C252.104 246.791 237.635 276.629 237.635 276.629L243.818 292.882L271.52 236.76C271.52 236.76 262.74 238.664 260.885 238.918C258.906 239.299 257.916 239.807 256.185 241.077Z" fill="#3C3334"/>
<path d="M256.185 241.585C254.454 242.855 253.588 244.378 252.846 245.902C252.104 247.299 237.759 276.756 237.759 276.756L243.818 293.01L271.273 237.268C271.273 237.268 262.493 239.172 260.638 239.427C258.783 239.807 257.916 240.315 256.185 241.585Z" fill="#363535"/>
<path d="M256.185 242.092C254.454 243.362 253.588 244.885 252.846 246.409C252.104 247.806 237.882 276.884 237.882 276.884L243.942 293.009L271.273 237.775C271.273 237.775 262.493 239.68 260.638 239.933C258.783 240.315 257.916 240.822 256.185 242.092Z" fill="#353232"/>
<path d="M256.062 242.601C254.33 243.87 253.465 245.394 252.723 246.918C251.98 248.314 237.882 277.011 237.882 277.011L243.942 293.136L271.026 238.283C271.026 238.283 262.245 240.188 260.514 240.442C258.783 240.696 257.916 241.204 256.062 242.601Z" fill="#342D2D"/>
<path d="M256.062 242.981C254.33 244.25 253.465 245.774 252.723 247.298C251.98 248.695 238.006 277.01 238.006 277.01L244.065 293.136L271.025 238.791C271.025 238.791 262.368 240.569 260.513 240.949C258.782 241.204 257.793 241.711 256.062 242.981Z" fill="#342828"/>
<path d="M273.573 202.522L277.052 203.496L233.358 292.971L229.74 292.136L273.573 202.522Z" fill="#EF000B"/>
<path d="M229.74 292.136L235.724 311.2L238.785 311.896L233.358 292.971L229.74 292.136Z" fill="#9E3439"/>
<path d="M277.052 203.496L290.271 204.331L285.818 203.496L273.573 202.522L277.052 203.496Z" fill="#FF000F"/>
<path d="M290.272 204.331L238.785 311.895L233.358 292.971L277.052 203.496L290.272 204.331Z" fill="url(#paint16_linear_238_339)"/>
<path d="M70.1323 315.096L97.5452 322.471L100.467 321.636L74.1677 314.818L70.1323 315.096Z" fill="url(#paint17_linear_238_339)"/>
<path d="M93.5101 293.11L221.112 278.916L224.73 277.803L90.3096 292.692L93.5101 293.11Z" fill="url(#paint18_linear_238_339)"/>
<path d="M221.112 278.916L226.122 307.164L229.74 306.886L224.73 277.803L221.112 278.916Z" fill="url(#paint19_linear_238_339)"/>
<defs>
<linearGradient id="paint0_linear_238_339" x1="84.2046" y1="281.868" x2="63.4812" y2="304.424" gradientUnits="userSpaceOnUse">
<stop stop-color="#972126"/>
<stop offset="1" stop-color="#E50913"/>
</linearGradient>
<linearGradient id="paint1_linear_238_339" x1="73.0136" y1="292.932" x2="81.0961" y2="302.455" gradientUnits="userSpaceOnUse">
<stop stop-color="#892C30"/>
<stop offset="1" stop-color="#C0020A"/>
</linearGradient>
<linearGradient id="paint2_linear_238_339" x1="7.96812" y1="147.952" x2="52.0317" y2="278.29" gradientUnits="userSpaceOnUse">
<stop stop-color="#8E282D"/>
<stop offset="1" stop-color="#CF050E"/>
</linearGradient>
<linearGradient id="paint3_linear_238_339" x1="80.7733" y1="303.187" x2="82.9038" y2="305.068" gradientUnits="userSpaceOnUse">
<stop stop-color="#002A37"/>
<stop offset="0.7804" stop-color="#3F5151"/>
<stop offset="0.881" stop-color="#435453"/>
<stop offset="0.9838" stop-color="#4F5D5A"/>
<stop offset="1" stop-color="#525F5B"/>
</linearGradient>
<radialGradient id="paint4_radial_238_339" cx="0" cy="0" r="1" gradientUnits="userSpaceOnUse" gradientTransform="translate(226.209 305.793) scale(152.19)">
<stop stop-color="#05323D"/>
<stop offset="0.0226311" stop-color="#05303C"/>
<stop offset="0.2502" stop-color="#012433"/>
<stop offset="0.473" stop-color="#002030"/>
<stop offset="1" stop-color="#002132"/>
</radialGradient>
<linearGradient id="paint5_linear_238_339" x1="253.425" y1="77.341" x2="64.7069" y2="257.037" gradientUnits="userSpaceOnUse">
<stop stop-color="#E02831"/>
<stop offset="1" stop-color="#EE363E"/>
</linearGradient>
<linearGradient id="paint6_linear_238_339" x1="113.263" y1="43.1714" x2="18.0265" y2="144.673" gradientUnits="userSpaceOnUse">
<stop stop-color="#B60109"/>
<stop offset="1" stop-color="#C2050D"/>
</linearGradient>
<linearGradient id="paint7_linear_238_339" x1="314.302" y1="154.111" x2="223.326" y2="263.507" gradientUnits="userSpaceOnUse">
<stop offset="0.0844595" stop-color="#AE0A12"/>
<stop offset="0.0848254" stop-color="#AD0B12"/>
<stop offset="0.1204" stop-color="#CA030C"/>
<stop offset="0.1518" stop-color="#D6030C"/>
<stop offset="0.1757" stop-color="#DC030D"/>
<stop offset="1" stop-color="#DC050E"/>
</linearGradient>
<linearGradient id="paint8_linear_238_339" x1="279.888" y1="88.1723" x2="284.525" y2="144.062" gradientUnits="userSpaceOnUse">
<stop stop-color="#E10811"/>
<stop offset="0.0472973" stop-color="#6C2A2D"/>
<stop offset="0.0844595" stop-color="#152533"/>
<stop offset="0.7331" stop-color="#34090B"/>
<stop offset="0.8716" stop-color="#343232"/>
<stop offset="1" stop-color="#4B3839"/>
</linearGradient>
<linearGradient id="paint9_linear_238_339" x1="110.733" y1="43.7621" x2="275.767" y2="92.2574" gradientUnits="userSpaceOnUse">
<stop stop-color="#F7333C"/>
<stop offset="1" stop-color="#FF444D"/>
</linearGradient>
<linearGradient id="paint10_linear_238_339" x1="112.011" y1="254.164" x2="81.9361" y2="281.419" gradientUnits="userSpaceOnUse">
<stop stop-color="#991A1F"/>
<stop offset="1" stop-color="#C1030A"/>
</linearGradient>
<linearGradient id="paint11_linear_238_339" x1="111.347" y1="253.163" x2="229.014" y2="260.806" gradientUnits="userSpaceOnUse">
<stop stop-color="#9C2026"/>
<stop offset="1" stop-color="#A8030A"/>
</linearGradient>
<linearGradient id="paint12_linear_238_339" x1="228.728" y1="259.346" x2="236.153" y2="287.495" gradientUnits="userSpaceOnUse">
<stop stop-color="#AA0B13"/>
<stop offset="0.2534" stop-color="#4B362D"/>
<stop offset="0.4392" stop-color="#00242F"/>
<stop offset="1" stop-color="#00242F"/>
</linearGradient>
<linearGradient id="paint13_linear_238_339" x1="222.623" y1="283.732" x2="233.787" y2="285.914" gradientUnits="userSpaceOnUse">
<stop stop-color="#E50913"/>
<stop offset="0.2534" stop-color="#E4020C"/>
<stop offset="0.4054" stop-color="#702E31"/>
<stop offset="0.5169" stop-color="#00242F"/>
<stop offset="0.848" stop-color="#00242F"/>
<stop offset="0.9287" stop-color="#662C2E"/>
<stop offset="0.9358" stop-color="#712E31"/>
<stop offset="1" stop-color="#DE030D"/>
</linearGradient>
<linearGradient id="paint14_linear_238_339" x1="187.951" y1="68.7992" x2="198.225" y2="34.2143" gradientUnits="userSpaceOnUse">
<stop stop-color="#E50913"/>
<stop offset="0.276042" stop-color="#E50913"/>
<stop offset="0.3421" stop-color="#E50913"/>
<stop offset="1" stop-color="#E50913"/>
</linearGradient>
<linearGradient id="paint15_linear_238_339" x1="145.047" y1="36.6279" x2="127.879" y2="49.8482" gradientUnits="userSpaceOnUse">
<stop stop-color="#CA020B"/>
<stop offset="0.4644" stop-color="#C7040D"/>
<stop offset="0.8858" stop-color="#B0040C"/>
<stop offset="1" stop-color="#B7020A"/>
</linearGradient>
<linearGradient id="paint16_linear_238_339" x1="287.593" y1="202.021" x2="231.237" y2="307.776" gradientUnits="userSpaceOnUse">
<stop stop-color="#D11216"/>
<stop offset="1" stop-color="#FB4242"/>
</linearGradient>
<linearGradient id="paint17_linear_238_339" x1="85.1024" y1="319.2" x2="85.5256" y2="317.743" gradientUnits="userSpaceOnUse">
<stop stop-color="#002A37"/>
<stop offset="0.7804" stop-color="#3F5151"/>
<stop offset="0.881" stop-color="#435453"/>
<stop offset="0.9838" stop-color="#4F5D5A"/>
<stop offset="1" stop-color="#525F5B"/>
</linearGradient>
<linearGradient id="paint18_linear_238_339" x1="157.513" y1="285.261" x2="157.631" y2="286.01" gradientUnits="userSpaceOnUse">
<stop stop-color="#002A37"/>
<stop offset="0.7804" stop-color="#3F5151"/>
<stop offset="0.881" stop-color="#435453"/>
<stop offset="0.9838" stop-color="#4F5D5A"/>
<stop offset="1" stop-color="#525F5B"/>
</linearGradient>
<linearGradient id="paint19_linear_238_339" x1="222.633" y1="278.04" x2="228.147" y2="306.235" gradientUnits="userSpaceOnUse">
<stop stop-color="#032E38"/>
<stop offset="0.5338" stop-color="#2D454B"/>
<stop offset="1" stop-color="#06323F"/>
</linearGradient>
</defs>
</svg>
