<svg width="430" height="416" viewBox="0 0 430 416" fill="none" xmlns="http://www.w3.org/2000/svg">
<path d="M175.067 23.3789H173.644C167.953 23.3789 162.263 27.647 160.84 34.7603C160.84 37.6057 160.84 41.8736 163.685 44.719C166.531 47.5643 169.376 48.987 172.221 48.987C179.335 50.4097 185.025 44.719 186.448 37.6056C186.448 34.7603 186.448 30.4923 183.603 27.647C182.18 26.2243 179.335 23.3789 175.067 23.3789ZM183.603 37.6056C182.18 43.2963 177.912 46.1417 173.644 46.1417H172.221C169.376 46.1417 166.531 44.719 165.108 41.8737C163.685 39.0283 162.263 36.183 163.685 33.3376C165.108 27.6469 169.376 23.3789 176.489 24.8016C179.335 24.8016 182.18 26.2243 183.603 29.0696C183.603 31.915 185.025 34.7603 183.603 37.6056Z" fill="#7B7B7B"/>
<path d="M175.07 29.0679C173.648 29.0679 173.648 29.0679 175.07 29.0679C172.225 29.0679 170.802 29.0678 169.38 30.4905C167.957 31.9132 166.534 33.3359 166.534 34.7586C166.534 36.1812 166.534 39.0266 167.957 40.4492C169.379 41.8719 170.802 43.2946 172.225 43.2946C173.648 43.2946 176.493 43.2946 177.916 41.8719C179.338 40.4493 180.761 39.0265 180.761 37.6039C180.761 36.1812 180.761 33.3359 179.338 31.9132C177.916 30.4906 176.493 29.0679 175.07 29.0679ZM177.916 36.1812C177.916 37.6039 176.493 39.0266 176.493 39.0266C175.07 39.0266 175.07 40.4492 173.648 40.4492C172.225 40.4492 170.802 39.0266 170.802 39.0266C169.38 37.6039 169.38 36.1812 169.38 34.7586C169.38 33.3359 170.802 31.9132 170.802 31.9132C172.225 30.4906 173.648 30.4905 175.07 30.4905C176.493 30.4905 177.916 31.9132 177.916 31.9132C177.916 34.7586 177.916 36.1812 177.916 36.1812Z" fill="#7B7B7B"/>
<path d="M176.493 17.686C175.07 17.686 175.07 17.686 173.648 17.686C169.38 17.686 165.112 19.1087 162.266 21.954C157.998 24.7994 155.153 29.0674 155.153 34.7581C155.153 39.0261 155.153 44.7168 159.421 48.9848C162.266 53.2528 166.534 56.0982 172.225 56.0982C176.493 56.0982 182.184 56.0981 186.452 51.8301C190.72 48.9848 193.565 44.7168 193.565 39.0261C193.565 34.7581 193.565 29.0674 189.297 24.7994C185.029 20.5314 180.761 19.1087 176.493 17.686ZM189.297 39.0261C189.297 43.2941 186.452 47.5621 182.184 50.4075C179.338 53.2528 176.493 53.2528 172.225 53.2528C170.802 53.2528 170.802 53.2528 169.38 53.2528C165.112 53.2528 160.844 50.4075 157.998 46.1395C155.153 43.2941 153.73 37.6034 155.153 33.3354C155.153 29.0674 157.998 24.7994 162.266 21.954C165.112 19.1087 170.802 17.686 175.07 19.1087C179.338 19.1087 183.606 21.954 186.452 26.222C189.297 29.0674 190.72 34.7581 189.297 39.0261Z" fill="#7B7B7B"/>
<path d="M197.829 39.0257C199.251 31.9123 196.406 26.2217 193.56 20.531C189.292 14.8403 183.602 11.9949 177.911 10.5723C176.488 10.5723 175.066 10.5723 175.066 10.5723C163.684 10.5723 152.303 19.1083 150.88 31.9123C149.458 39.0257 152.303 44.7164 155.148 50.407C159.416 56.0977 165.107 58.9431 170.798 60.3658C183.602 61.7884 196.406 53.2524 197.829 39.0257ZM173.643 58.943C172.22 58.943 172.22 58.943 170.798 58.943C165.107 57.5204 159.416 54.6751 156.571 50.407C152.303 46.139 150.88 39.0257 152.303 33.335C153.726 21.9536 163.684 13.4176 175.066 13.4176C176.488 13.4176 176.488 13.4176 177.911 13.4176C183.602 14.8403 189.292 17.6856 192.138 21.9536C196.406 26.2216 197.828 33.335 196.406 39.0257C193.56 50.4071 185.024 58.943 173.643 58.943Z" fill="#7B7B7B"/>
<path d="M304.782 93.4222C308.806 97.4462 315.848 98.4521 320.878 93.4222C324.902 89.3983 325.908 82.3565 320.878 77.3266C316.854 73.3026 309.812 72.2966 304.782 77.3265C300.758 81.3505 300.758 89.3983 304.782 93.4222Z" fill="#7B7B7B"/>
<path d="M334.055 398.55L325.001 389.496L315.948 398.55L325.001 407.604L334.055 398.55Z" fill="#7B7B7B"/>
<path d="M26.1322 118.379L35.186 127.432L26.1322 136.486L17.0784 127.432L26.1322 118.379Z" fill="#7B7B7B"/>
<path d="M312.828 234.893C308.804 238.917 308.804 244.953 312.828 248.977C316.852 253.001 322.888 253.001 326.912 248.977C330.936 244.953 330.936 238.917 326.912 234.893C322.888 230.869 316.852 230.869 312.828 234.893ZM322.888 244.953C320.876 246.965 318.864 246.965 316.852 244.953C314.84 242.941 314.84 240.929 316.852 238.917C318.864 236.905 320.876 236.905 322.888 238.917C324.9 240.929 323.894 243.947 322.888 244.953Z" fill="#7B7B7B"/>
<path d="M107.599 21.1256C103.575 25.1495 97.5394 25.1495 93.5155 21.1256C89.4916 17.1017 89.4916 11.0658 93.5155 7.04186C97.5394 3.01794 103.575 3.01796 107.599 7.04188C111.623 11.0658 111.623 17.1017 107.599 21.1256ZM97.5395 11.0658C95.5275 13.0777 95.5275 15.0897 97.5394 17.1017C99.5514 19.1136 101.563 19.1136 103.575 17.1017C105.587 15.0897 105.587 13.0777 103.575 11.0658C101.563 9.05384 98.5454 10.0598 97.5395 11.0658Z" fill="#7B7B7B"/>
<path d="M311.909 336.15L294.807 319.048L288.771 341.18L311.909 336.15ZM303.861 334.138L293.801 336.15L295.813 326.09L303.861 334.138Z" fill="#7B7B7B"/>
<path d="M15.1507 48.9983L32.2523 66.1L10.1208 72.1359L15.1507 48.9983ZM17.1627 57.0462L15.1507 67.106L25.2105 65.094L17.1627 57.0462Z" fill="#7B7B7B"/>
<path d="M388.279 306.317C390.291 306.317 390.291 306.317 391.297 307.323C392.303 308.329 392.303 308.329 392.303 310.341C392.303 312.353 392.303 314.365 393.309 315.371C394.315 316.377 397.333 317.383 398.339 316.377C400.351 316.377 400.351 316.377 401.357 317.383C402.363 318.389 402.363 318.389 402.363 320.401C402.363 322.413 402.363 324.425 403.369 325.431C405.381 327.443 407.393 327.443 408.399 326.437C410.411 326.437 410.411 326.437 411.417 327.443C412.423 328.449 412.423 328.449 412.423 330.461C412.423 332.473 412.423 334.485 413.429 335.491C414.435 336.497 417.453 337.503 418.459 336.497C420.471 336.497 420.471 336.497 421.477 337.503C422.483 338.509 422.483 338.509 422.483 340.521C422.483 342.533 422.483 344.544 423.488 345.55L426.506 342.533C425.5 341.527 425.5 341.527 425.5 339.515C425.5 337.503 425.5 335.491 424.494 334.485C422.483 332.473 420.471 332.473 419.465 333.479C417.453 333.479 417.453 333.479 416.447 332.473C415.441 331.467 415.441 331.467 415.441 329.455C415.441 327.443 415.441 325.431 414.435 324.425C412.423 322.413 410.411 322.413 409.405 323.419C407.393 323.419 407.393 323.419 406.387 322.413C405.381 321.407 405.381 321.407 405.381 319.395C405.381 317.383 405.381 315.371 404.375 314.365C402.363 312.353 400.351 312.353 399.345 313.359C397.333 313.359 397.333 313.359 396.327 312.353C395.321 311.347 395.321 311.347 395.321 309.335C395.321 307.323 395.321 305.311 394.315 304.305C393.309 303.299 390.291 302.293 389.285 303.299C387.273 303.299 387.273 303.299 386.267 302.293L383.249 305.311C385.261 305.311 387.273 305.311 388.279 306.317Z" fill="#7B7B7B"/>
<path d="M380.235 314.368C382.247 314.368 382.247 314.368 383.253 315.374C384.259 316.38 384.259 316.38 384.259 318.392C384.259 320.404 384.259 322.416 385.265 323.422C386.271 324.428 388.283 324.428 389.289 323.422C391.301 323.422 391.301 323.422 392.307 324.428C393.313 325.434 393.313 325.434 393.313 327.446C393.313 329.458 393.313 331.47 394.319 332.476C396.331 334.488 398.343 334.488 399.348 333.482C401.36 333.482 401.36 333.482 402.366 334.488C403.372 335.494 403.372 335.494 403.372 337.506C403.372 339.518 403.372 341.53 404.378 342.536C405.384 343.542 408.402 344.548 409.408 343.542C411.42 343.542 411.42 343.542 412.426 344.548C413.432 345.554 413.432 345.554 413.432 347.565C413.432 349.577 413.432 351.589 414.438 352.595L417.456 349.577C416.45 348.571 416.45 348.571 416.45 346.56C416.45 344.548 416.45 342.536 415.444 341.53C413.432 339.518 411.42 339.518 410.414 340.524C408.402 340.524 408.402 340.524 407.396 339.518C406.39 338.512 406.39 338.512 406.39 336.5C406.39 334.488 406.39 332.476 405.384 331.47C403.372 329.458 401.36 329.458 400.354 330.464C398.342 330.464 398.343 330.464 397.337 329.458C396.331 328.452 396.331 328.452 396.331 326.44C396.331 324.428 396.331 322.416 395.325 321.41C393.313 319.398 391.301 319.398 390.295 320.404C388.283 320.404 388.283 320.404 387.277 319.398C386.271 318.392 386.271 318.392 386.271 316.38C386.271 314.368 386.271 312.356 385.265 311.35C384.259 310.344 381.241 309.338 380.235 310.344C378.223 310.344 378.223 310.344 377.217 309.338L374.199 312.356C376.211 314.368 378.223 314.368 380.235 314.368Z" fill="#7B7B7B"/>
<path d="M226.287 314.06C226.287 324.019 234.823 332.555 244.781 332.555V324.019C239.091 324.019 234.823 319.751 234.823 314.06C234.823 308.369 239.091 304.101 244.781 304.101V295.565C233.4 295.565 226.287 304.101 226.287 314.06Z" fill="#7B7B7B"/>
<path d="M148.354 356.388C149.14 356.388 149.777 355.751 149.777 354.965C149.777 354.179 149.14 353.542 148.354 353.542C147.568 353.542 146.931 354.179 146.931 354.965C146.931 355.751 147.568 356.388 148.354 356.388Z" fill="#7B7B7B"/>
<path d="M138.391 353.542C136.968 353.542 136.968 353.542 138.391 353.542C136.968 356.388 136.968 356.388 138.391 356.388C138.391 356.388 139.813 356.388 138.391 353.542C139.813 353.542 138.391 353.542 138.391 353.542Z" fill="#7B7B7B"/>
<path d="M127.012 356.388C127.798 356.388 128.435 355.751 128.435 354.965C128.435 354.179 127.798 353.542 127.012 353.542C126.226 353.542 125.589 354.179 125.589 354.965C125.589 355.751 126.226 356.388 127.012 356.388Z" fill="#7B7B7B"/>
<path d="M115.627 356.388C116.413 356.388 117.049 355.751 117.049 354.965C117.049 354.179 116.413 353.542 115.627 353.542C114.841 353.542 114.204 354.179 114.204 354.965C114.204 355.751 114.841 356.388 115.627 356.388Z" fill="#7B7B7B"/>
<path d="M105.671 356.388C105.671 356.388 107.094 356.388 105.671 356.388C107.094 353.542 107.094 353.542 105.671 353.542C104.249 353.542 104.249 353.542 105.671 356.388C104.249 356.388 104.249 356.388 105.671 356.388Z" fill="#7B7B7B"/>
<path d="M148.354 345.005C149.14 345.005 149.777 344.368 149.777 343.582C149.777 342.797 149.14 342.16 148.354 342.16C147.568 342.16 146.931 342.797 146.931 343.582C146.931 344.368 147.568 345.005 148.354 345.005Z" fill="#7B7B7B"/>
<path d="M138.391 342.16C136.968 342.16 136.968 343.582 138.391 342.16C136.968 345.005 136.968 345.005 138.391 345.005C138.391 345.005 139.813 345.005 138.391 342.16C139.813 343.582 138.391 342.16 138.391 342.16Z" fill="#7B7B7B"/>
<path d="M127.012 345.005C127.798 345.005 128.435 344.368 128.435 343.582C128.435 342.797 127.798 342.16 127.012 342.16C126.226 342.16 125.589 342.797 125.589 343.582C125.589 344.368 126.226 345.005 127.012 345.005Z" fill="#7B7B7B"/>
<path d="M115.627 345.005C116.413 345.005 117.049 344.368 117.049 343.582C117.049 342.797 116.413 342.16 115.627 342.16C114.841 342.16 114.204 342.797 114.204 343.582C114.204 344.368 114.841 345.005 115.627 345.005Z" fill="#7B7B7B"/>
<path d="M105.671 345.005C105.671 345.005 107.094 345.005 105.671 345.005C107.094 342.16 107.094 342.16 105.671 342.16C104.249 342.16 104.249 343.582 105.671 345.005C104.249 345.005 104.249 345.005 105.671 345.005Z" fill="#7B7B7B"/>
<path d="M148.352 335.048C149.774 335.048 149.774 333.625 148.352 335.048C149.774 332.203 149.774 332.203 148.352 332.203C146.929 332.203 146.929 332.203 148.352 335.048C146.929 333.625 148.352 335.048 148.352 335.048Z" fill="#7B7B7B"/>
<path d="M138.391 332.203C136.968 332.203 136.968 332.203 138.391 332.203C136.968 335.048 136.968 335.048 138.391 335.048C138.391 335.048 139.813 333.625 138.391 332.203C139.813 332.203 138.391 332.203 138.391 332.203Z" fill="#7B7B7B"/>
<path d="M127.011 332.203C127.011 332.203 125.589 332.203 127.011 332.203C125.589 335.048 125.589 335.048 127.011 335.048C128.434 335.048 128.434 333.625 127.011 332.203C128.434 332.203 128.434 332.203 127.011 332.203Z" fill="#7B7B7B"/>
<path d="M115.633 332.203C115.633 332.203 114.21 332.203 115.633 332.203C114.21 335.048 114.21 335.048 115.633 335.048C117.056 335.048 117.056 333.625 115.633 332.203C117.056 332.203 117.056 332.203 115.633 332.203Z" fill="#7B7B7B"/>
<path d="M105.671 335.048C105.671 335.048 107.094 333.625 105.671 335.048C107.094 332.203 107.094 332.203 105.671 332.203C104.249 332.203 104.249 332.203 105.671 335.048C104.249 333.625 104.249 335.048 105.671 335.048Z" fill="#7B7B7B"/>
<path d="M148.354 323.665C149.14 323.665 149.777 323.028 149.777 322.243C149.777 321.457 149.14 320.82 148.354 320.82C147.568 320.82 146.931 321.457 146.931 322.243C146.931 323.028 147.568 323.665 148.354 323.665Z" fill="#7B7B7B"/>
<path d="M138.391 320.82C136.968 320.82 136.968 320.82 138.391 320.82C136.968 323.665 136.968 323.665 138.391 323.665C138.391 323.665 139.813 322.243 138.391 320.82C139.813 320.82 138.391 320.82 138.391 320.82Z" fill="#7B7B7B"/>
<path d="M127.012 323.665C127.798 323.665 128.435 323.028 128.435 322.243C128.435 321.457 127.798 320.82 127.012 320.82C126.226 320.82 125.589 321.457 125.589 322.243C125.589 323.028 126.226 323.665 127.012 323.665Z" fill="#7B7B7B"/>
<path d="M115.627 323.665C116.413 323.665 117.049 323.028 117.049 322.243C117.049 321.457 116.413 320.82 115.627 320.82C114.841 320.82 114.204 321.457 114.204 322.243C114.204 323.028 114.841 323.665 115.627 323.665Z" fill="#7B7B7B"/>
<path d="M105.671 323.665C105.671 323.665 107.094 322.243 105.671 323.665C107.094 320.82 107.094 320.82 105.671 320.82C104.249 320.82 104.249 320.82 105.671 323.665C104.249 322.243 104.249 323.665 105.671 323.665Z" fill="#7B7B7B"/>
<path d="M148.354 312.287C149.14 312.287 149.777 311.65 149.777 310.864C149.777 310.078 149.14 309.441 148.354 309.441C147.568 309.441 146.931 310.078 146.931 310.864C146.931 311.65 147.568 312.287 148.354 312.287Z" fill="#7B7B7B"/>
<path d="M138.391 309.441C136.968 309.441 136.968 310.864 138.391 309.441C136.968 312.287 136.968 312.287 138.391 312.287C138.391 312.287 139.813 312.287 138.391 309.441C139.813 310.864 138.391 309.441 138.391 309.441Z" fill="#7B7B7B"/>
<path d="M127.012 312.287C127.798 312.287 128.435 311.65 128.435 310.864C128.435 310.078 127.798 309.441 127.012 309.441C126.226 309.441 125.589 310.078 125.589 310.864C125.589 311.65 126.226 312.287 127.012 312.287Z" fill="#7B7B7B"/>
<path d="M115.627 312.287C116.413 312.287 117.049 311.65 117.049 310.864C117.049 310.078 116.413 309.441 115.627 309.441C114.841 309.441 114.204 310.078 114.204 310.864C114.204 311.65 114.841 312.287 115.627 312.287Z" fill="#7B7B7B"/>
<path d="M105.671 312.287C105.671 312.287 107.094 312.287 105.671 312.287C107.094 309.441 107.094 309.441 105.671 309.441C104.249 309.441 104.249 310.864 105.671 312.287C104.249 312.287 104.249 312.287 105.671 312.287Z" fill="#7B7B7B"/>
<path d="M185.726 389.496V395.187L192.839 402.3L185.726 409.413V415.104L198.53 402.3L185.726 389.496Z" fill="#7B7B7B"/>
<path d="M206.293 295.545L207.128 296.102L97.6162 322.819L97.4771 322.123L206.293 295.545Z" fill="#435453"/>
<path d="M226.121 307.164L206.362 295.893L131.637 313.426L100.467 321.636L74.1675 314.818L93.5096 293.11L221.112 278.917L226.121 307.164Z" fill="url(#paint0_radial_238_170)"/>
<path d="M112.017 354.059H113.269L118.418 346.962V345.292L112.017 354.059Z" fill="#002E3D"/>
<path d="M80.1514 281.143L111.6 253.034L231.688 258.74L286.931 144.774L260.353 89.9483L113.548 49.7334L31.3091 131.972L80.1514 281.143Z" fill="url(#paint1_linear_238_170)"/>
<path opacity="0.032258" d="M257.153 87.3042C258.962 84.6603 261.884 84.6603 263.554 87.4434L265.502 90.6439L277.191 110.682L280.53 116.387L290.828 134.059C292.219 136.425 292.637 140.46 291.941 143.243C291.802 143.661 291.663 144.217 291.523 144.635C291.523 144.774 286.792 154.793 286.792 154.793L284.566 159.663C283.174 162.585 280.809 162.725 279.278 159.802L277.608 156.741L265.224 132.807L262.58 127.658L251.169 105.811C250.056 103.724 249.917 100.524 250.613 98.0189C250.891 97.184 251.169 96.3491 251.726 95.6534C251.587 95.375 257.153 87.3042 257.153 87.3042Z" fill="#EBC301"/>
<path opacity="0.064516" d="M257.152 87.5827C258.961 85.078 261.744 84.9388 263.414 87.5827L265.362 90.644L276.912 110.543L280.251 116.248L290.409 133.781C291.801 136.147 292.218 140.043 291.522 142.826C291.383 143.243 291.244 143.8 291.105 144.078C291.105 144.218 286.513 154.097 286.513 154.236L284.287 159.107C282.895 162.029 280.529 162.168 279.138 159.385L277.468 156.324L265.362 132.529L262.718 127.38L251.447 105.812C250.334 103.724 250.194 100.524 250.89 98.0191C251.168 97.1842 251.447 96.3493 251.864 95.6535C251.864 95.5144 257.152 87.7218 257.152 87.5827Z" fill="#E7BF03"/>
<path opacity="0.096774" d="M257.292 87.9999C258.961 85.4951 261.884 85.356 263.553 87.8607C263.693 87.8607 265.502 90.7829 265.502 90.9221L277.051 110.682L280.391 116.248L290.549 133.642C291.801 135.868 292.497 139.904 291.801 142.687C291.662 143.104 291.523 143.521 291.384 143.939C291.523 144.217 286.931 153.68 286.792 153.958L284.565 158.689C283.174 161.611 280.947 161.75 279.417 158.967C279.417 158.967 277.886 156.045 277.747 155.906L265.641 132.528L262.997 127.519L251.865 106.09C250.891 104.141 250.612 100.802 251.169 98.4363C251.447 97.6014 251.726 96.7664 252.143 96.0707C252.004 95.7924 257.152 88.139 257.292 87.9999Z" fill="#E4BC04"/>
<path opacity="0.129" d="M257.292 88.2784C258.962 85.9128 261.745 85.6345 263.415 88C263.554 88 265.363 90.7831 265.363 90.9222L276.773 110.543L279.974 116.109L289.993 133.224C291.245 135.312 291.941 139.486 291.245 142.13C291.106 142.548 290.967 142.965 290.828 143.383C290.967 143.661 286.514 152.984 286.375 153.401L284.148 158.133C282.757 161.055 280.53 161.194 279 158.411C278.86 158.411 277.469 155.489 277.33 155.489L265.363 132.25L262.858 127.241L252.143 106.09C251.169 104.142 250.752 100.802 251.448 98.5756C251.726 97.7407 252.004 96.9058 252.282 96.21C252.143 95.9317 257.153 88.5567 257.292 88.2784Z" fill="#E0B905"/>
<path opacity="0.1613" d="M257.431 88.6959C258.961 86.4694 261.744 86.052 263.553 88.2784C263.692 88.1393 265.501 90.9223 265.501 91.0615L276.773 110.543L279.973 116.109L289.853 133.085C291.105 135.173 291.801 139.347 291.245 141.852C291.105 142.269 291.105 142.687 290.966 143.104C291.105 143.522 286.792 152.567 286.513 152.984L284.287 157.715C282.895 160.637 280.669 160.777 279.277 158.133C279.138 158.133 277.747 155.35 277.608 155.211L265.78 132.25L263.275 127.38L252.421 106.368C251.447 104.559 251.03 101.08 251.586 98.9931C251.865 98.1582 252.004 97.3233 252.421 96.7667C252.421 96.2101 257.152 88.9742 257.431 88.6959Z" fill="#DDB506"/>
<path opacity="0.1935" d="M257.431 88.9743C258.962 86.7479 261.745 86.3304 263.554 88.4177C263.693 88.2785 265.502 90.9224 265.641 91.2007L276.773 110.404L279.974 115.831L289.714 132.668C290.828 134.616 291.662 138.93 291.106 141.295C290.967 141.713 290.967 142.13 290.828 142.548C290.967 143.104 286.792 151.871 286.514 152.428L284.287 157.159C283.035 159.942 280.809 160.081 279.278 157.576C279.139 157.576 277.747 154.793 277.608 154.654L265.919 131.972L263.415 127.102L252.839 106.368C251.865 104.559 251.448 101.22 252.004 98.9932C252.143 98.1583 252.422 97.4626 252.7 96.7668C252.561 96.3494 257.153 89.3918 257.431 88.9743Z" fill="#D9B208"/>
<path opacity="0.2258" d="M257.57 89.2526C258.961 87.1653 261.744 86.6087 263.553 88.5569C263.832 88.4177 265.502 90.9224 265.641 91.2007L276.634 110.265L279.834 115.691L289.575 132.39C290.688 134.338 291.523 138.652 291.105 141.017C290.966 141.435 290.966 141.852 290.827 142.27C290.966 142.826 286.792 151.454 286.513 152.01L284.426 156.602C283.174 159.385 280.947 159.524 279.417 157.159C279.278 157.02 277.886 154.515 277.747 154.237L266.197 131.833L263.693 126.963L253.117 106.368C252.282 104.698 251.725 101.22 252.143 99.1324C252.282 98.2975 252.56 97.6017 252.839 96.906C252.7 96.6277 257.152 89.8092 257.57 89.2526Z" fill="#D6AF09"/>
<path opacity="0.2581" d="M257.57 89.6699C258.961 87.5826 261.744 87.026 263.553 88.835C263.832 88.6959 265.502 91.0614 265.641 91.3398L276.495 110.264L279.556 115.691L289.157 132.25C290.271 134.059 291.245 138.512 290.827 140.739C290.688 141.156 290.688 141.574 290.549 141.991C290.688 142.687 286.653 150.897 286.374 151.593L284.287 156.185C283.035 158.968 280.808 159.107 279.417 156.741C279.278 156.602 277.886 154.097 277.747 153.958L266.336 131.833L263.832 127.102L253.395 106.786C252.56 105.116 252.004 101.637 252.421 99.6889C252.56 98.854 252.7 98.1582 253.117 97.4624C252.978 96.9058 257.152 90.2265 257.57 89.6699Z" fill="#D2AB0A"/>
<path opacity="0.2903" d="M257.57 89.9481C258.961 88 261.605 87.3042 263.414 88.974C263.692 88.8349 265.362 91.2004 265.501 91.4788L276.355 110.264L279.417 115.552L288.879 131.972C289.853 133.781 290.966 138.234 290.549 140.321C290.41 140.739 290.41 141.156 290.27 141.573C290.549 142.269 286.513 150.34 286.096 151.175L284.009 155.767C282.756 158.55 280.669 158.689 279.138 156.463C278.999 156.324 277.608 153.958 277.468 153.68L266.197 131.694L263.831 126.962L253.534 106.925C252.699 105.394 252.143 101.776 252.421 99.8279C252.56 98.993 252.699 98.2972 252.978 97.6014C253.117 97.0448 257.152 90.6438 257.57 89.9481Z" fill="#CFA80B"/>
<path opacity="0.3226" d="M257.709 90.3656C258.961 88.5567 261.744 87.7218 263.553 89.2524C263.832 89.1133 265.501 91.3397 265.64 91.618L276.355 110.264L279.417 115.552L288.879 131.833C289.853 133.503 290.966 138.095 290.688 140.182C290.549 140.599 290.549 141.017 290.549 141.434C290.827 142.269 286.931 150.062 286.513 150.897L284.426 155.35C283.174 157.993 281.086 158.272 279.556 156.045C279.417 155.906 278.164 153.541 277.886 153.262L266.754 131.555L264.388 126.963L254.23 107.064C253.534 105.533 252.699 101.915 253.117 100.106C253.256 99.2714 253.395 98.5756 253.673 97.8799C253.256 97.3232 257.152 91.0614 257.709 90.3656Z" fill="#CBA40D"/>
<path opacity="0.3548" d="M257.709 90.6441C258.962 88.8351 261.606 87.8611 263.415 89.3917C263.832 89.2526 265.363 91.3399 265.502 91.6182L276.077 109.986L279.139 115.274L288.462 131.416C289.436 132.946 290.549 137.677 290.271 139.626C290.271 140.043 290.132 140.46 290.132 140.878C290.41 141.713 286.653 149.366 286.235 150.34L284.148 154.793C282.896 157.437 280.809 157.715 279.417 155.489C279.278 155.35 278.026 153.123 277.886 152.845L266.893 131.416L264.528 126.824L254.509 107.203C253.813 105.812 252.978 102.055 253.396 100.385C253.535 99.689 253.674 98.8541 253.813 98.2975C253.396 97.4626 257.292 91.479 257.709 90.6441Z" fill="#C8A10E"/>
<path opacity="0.3871" d="M257.848 91.0614C258.961 89.3915 261.744 88.2783 263.553 89.6698C263.971 89.5307 265.502 91.4788 265.641 91.8963L276.077 110.125L278.999 115.274L288.183 131.276C289.018 132.807 290.41 137.538 290.131 139.347C290.131 139.765 290.131 140.182 289.992 140.599C290.271 141.574 286.653 148.949 286.096 149.923L284.009 154.375C282.756 157.019 280.808 157.298 279.278 155.21C278.999 155.071 277.886 152.845 277.747 152.567L266.893 131.415L264.527 126.823L254.648 107.481C253.952 106.09 253.117 102.333 253.395 100.663C253.534 99.9671 253.534 99.1322 253.813 98.5756C253.674 97.7407 257.292 91.8963 257.848 91.0614Z" fill="#C59E0F"/>
<path opacity="0.4194" d="M257.849 91.3398C258.962 89.8091 261.606 88.5567 263.415 89.8091C263.832 89.67 265.363 91.4789 265.502 91.8964L275.938 109.986L278.861 115.135L287.905 130.998C288.74 132.39 290.132 137.26 289.854 138.93C289.854 139.347 289.854 139.765 289.714 140.043C289.993 141.156 286.375 148.114 285.957 149.227L283.87 153.68C282.618 156.324 280.67 156.602 279.278 154.515C279 154.376 277.886 152.288 277.747 151.871L267.033 130.998L264.667 126.545L254.787 107.342C254.092 106.09 253.257 102.194 253.535 100.663C253.674 99.9672 253.674 99.2714 253.952 98.5757C253.813 97.8799 257.292 92.3138 257.849 91.3398Z" fill="#C19A10"/>
<path opacity="0.4516" d="M257.988 91.7574C258.962 90.2268 261.745 88.9744 263.554 90.0876C263.971 89.8093 265.502 91.6183 265.78 92.0357L276.078 109.986L279 115.135L288.045 130.859C288.88 132.251 290.271 137.121 290.132 138.791C290.132 139.208 290.132 139.626 289.993 139.904C290.271 141.017 286.792 147.836 286.236 149.088L284.288 153.402C283.035 156.046 281.087 156.324 279.695 154.376C279.417 154.237 278.304 152.149 278.165 151.871L267.311 131.137L265.085 126.685L255.344 107.76C254.787 106.508 253.813 102.611 253.952 101.22C254.092 100.524 254.092 99.8282 254.231 99.1325C253.952 98.1584 257.292 92.7315 257.988 91.7574Z" fill="#BE9712"/>
<path opacity="0.4839" d="M257.988 92.0354C258.962 90.6439 261.606 89.2523 263.415 90.2264C263.971 89.9481 265.363 91.6179 265.641 92.1745L275.799 109.986L278.721 114.995L287.627 130.58C288.323 131.833 289.993 136.842 289.853 138.373C289.853 138.79 289.853 139.208 289.853 139.486C290.271 140.739 286.792 147.279 286.235 148.531L284.287 152.845C283.035 155.349 281.087 155.767 279.695 153.819C279.417 153.68 278.304 151.732 278.165 151.314L267.728 130.859L265.502 126.406L255.9 107.62C255.344 106.507 254.23 102.611 254.509 101.219C254.648 100.524 254.648 99.8279 254.787 99.1321C254.23 98.2972 257.292 93.1486 257.988 92.0354Z" fill="#BA9413"/>
<path opacity="0.5161" d="M258.126 92.4532C258.961 91.2008 261.605 89.6702 263.553 90.5051C264.11 90.2268 265.501 91.7575 265.78 92.3141L275.799 109.986L278.721 114.996L287.488 130.442C288.183 131.694 290.131 136.704 289.714 138.095C289.714 138.513 289.714 138.93 289.714 139.208C290.131 140.461 286.792 146.862 286.096 148.253L284.148 152.567C283.035 155.072 281.087 155.489 279.695 153.68C279.417 153.541 278.304 151.593 278.164 151.175L267.867 130.998L265.641 126.685L256.178 108.177C255.622 107.064 254.509 103.168 254.648 101.776C254.787 101.081 254.648 100.385 254.787 99.8283C254.369 98.5759 257.292 93.5664 258.126 92.4532Z" fill="#B79014"/>
<path opacity="0.5484" d="M258.127 92.7314C258.961 91.479 261.605 89.9484 263.553 90.6441C264.11 90.3658 265.502 91.8965 265.78 92.314L275.66 109.708L278.443 114.717L287.209 130.024C287.905 131.137 289.853 136.286 289.575 137.538C289.575 137.956 289.575 138.373 289.575 138.652C289.992 140.043 286.792 146.166 286.096 147.557L284.148 151.732C283.035 154.237 281.365 154.376 279.695 152.845C279.417 152.567 278.304 150.897 278.164 150.479L268.006 130.581L265.78 126.267L256.457 108.038C255.9 107.064 254.509 102.89 254.926 101.776C254.926 101.081 254.926 100.385 255.065 99.8282C254.509 98.7149 257.292 93.9838 258.127 92.7314Z" fill="#B38D15"/>
<path opacity="0.5806" d="M258.127 93.1488C258.962 92.0355 261.466 90.3657 263.414 90.9223C263.971 90.644 265.363 92.0355 265.641 92.5922L275.521 109.847L278.304 114.717L286.931 129.885C287.488 130.859 289.714 136.147 289.297 137.399C289.297 137.817 289.297 138.095 289.297 138.512C289.714 140.043 286.653 145.748 285.818 147.418L283.87 151.593C282.757 154.097 281.087 154.236 279.417 152.706C279.139 152.427 278.165 150.758 277.886 150.34L267.867 130.72L265.78 126.545L256.596 108.455C256.179 107.481 254.648 103.307 254.926 102.333C254.926 101.637 254.926 100.941 254.926 100.385C254.787 98.9931 257.292 94.4011 258.127 93.1488Z" fill="#B08A17"/>
<path opacity="0.6129" d="M258.266 93.4271C258.962 92.3139 261.605 90.644 263.554 91.2006C264.11 90.9223 265.502 92.1747 265.78 92.7313L275.521 109.847L278.304 114.717L286.792 129.746C287.349 130.72 289.575 136.008 289.297 137.121C289.297 137.538 289.297 137.817 289.297 138.234C289.436 139.904 286.653 145.331 285.957 147.001L284.009 151.175C282.896 153.68 281.226 153.819 279.695 152.428C279.417 152.149 278.443 150.619 278.165 150.062L268.285 130.581L266.197 126.406L257.013 108.455C256.596 107.621 255.065 103.446 255.344 102.333C255.204 101.637 255.204 100.941 255.344 100.385C254.926 99.1323 257.292 94.8186 258.266 93.4271Z" fill="#AC8618"/>
<path opacity="0.6452" d="M258.266 93.7052C258.962 92.7311 261.466 90.9221 263.414 91.3396C264.11 91.0613 265.363 92.1745 265.641 92.7311L275.242 109.708L278.025 114.578L286.375 129.467C286.931 130.302 289.158 135.729 288.879 136.703C289.018 137.121 288.879 137.399 289.018 137.816C289.297 139.486 286.514 144.774 285.818 146.444L284.009 150.479C282.896 152.845 281.365 153.123 279.695 151.732C279.417 151.453 278.443 150.062 278.165 149.366L268.424 130.163L266.337 125.988L257.431 108.455C257.013 107.62 255.344 103.446 255.622 102.472C255.483 101.776 255.483 101.08 255.622 100.524C255.065 99.4104 257.292 95.2358 258.266 93.7052Z" fill="#A98319"/>
<path opacity="0.6774" d="M258.405 94.1226C258.961 93.2877 261.605 91.3395 263.553 91.6178C264.249 91.3395 265.501 92.3136 265.919 93.0093L275.381 109.847L277.886 114.439L286.235 129.189C286.653 130.024 289.157 135.451 288.879 136.425C289.018 136.842 289.018 137.121 289.018 137.538C289.296 139.347 286.653 144.356 285.818 146.165L284.009 150.201C282.895 152.566 281.365 152.845 279.695 151.592C279.417 151.314 278.443 149.922 278.164 149.366L268.563 130.441L266.475 126.406L257.709 108.873C257.291 108.177 255.622 103.863 255.9 103.028C255.761 102.333 255.761 101.776 255.761 101.08C255.343 99.5495 257.291 95.6532 258.405 94.1226Z" fill="#A6801A"/>
<path opacity="0.7097" d="M258.405 94.4012C258.962 93.5663 261.466 91.6182 263.415 91.7573C264.11 91.479 265.363 92.3139 265.78 93.0097L275.103 109.708L277.747 114.439L285.957 129.05C286.375 129.746 288.879 135.312 288.601 136.147C288.74 136.564 288.74 136.843 288.74 137.26C289.019 139.069 286.514 143.939 285.679 145.748L283.87 149.784C282.757 152.149 281.226 152.428 279.695 151.175C279.278 150.897 278.443 149.645 278.165 148.949L268.702 130.302L266.615 126.267L257.988 109.151C257.709 108.456 255.9 104.142 256.179 103.307C256.04 102.611 256.04 102.055 256.04 101.498C255.761 99.689 257.292 96.071 258.405 94.4012Z" fill="#A27C1C"/>
<path opacity="0.7419" d="M258.544 94.8185C258.962 94.1228 261.606 92.0355 263.554 92.0355C264.25 91.618 265.502 92.453 265.919 93.1487L275.103 109.569L277.747 114.3L285.818 128.772C286.236 129.467 288.74 135.033 288.601 135.729C288.74 136.147 288.74 136.425 288.74 136.842C289.019 138.791 286.653 143.243 285.679 145.331L283.87 149.366C282.757 151.732 281.226 152.01 279.695 150.758C279.278 150.479 278.443 149.227 278.165 148.531L268.842 130.024L266.893 126.128L258.405 109.29C258.127 108.734 256.318 104.281 256.457 103.585C256.318 102.889 256.318 102.333 256.179 101.776C255.9 99.9672 257.431 96.4884 258.544 94.8185Z" fill="#9F791D"/>
<path opacity="0.7742" d="M258.544 95.097C258.962 94.5404 261.466 92.314 263.414 92.1748C264.249 91.7574 265.363 92.4531 265.78 93.288L274.964 109.569L277.608 114.161L285.679 128.493C285.957 129.05 288.74 134.755 288.601 135.312C288.74 135.729 288.74 136.008 288.879 136.425C289.297 138.512 286.931 142.687 285.957 144.774L284.148 148.671C283.035 151.036 281.504 151.314 279.973 150.201C279.556 149.923 278.721 148.81 278.443 148.114L269.259 129.885L267.311 125.989L258.822 109.291C258.544 108.734 256.596 104.281 256.874 103.724C256.735 103.029 256.735 102.472 256.596 101.915C256.039 100.106 257.431 96.906 258.544 95.097Z" fill="#9B751E"/>
<path opacity="0.8065" d="M258.545 95.5141C258.962 94.9575 261.467 93.0094 263.415 92.4528C264.25 92.1745 265.363 92.592 265.78 93.4269L274.825 109.568L277.33 114.161L285.262 128.354C285.54 128.771 288.323 134.616 288.184 135.172C288.323 135.59 288.323 135.868 288.462 136.147C288.88 138.234 286.514 142.269 285.54 144.496L283.731 148.392C282.618 150.618 281.087 151.036 279.696 149.923C279.278 149.644 278.443 148.531 278.165 147.835L269.259 129.746L267.311 125.849L258.962 109.429C258.684 109.012 256.736 104.42 256.875 104.002C256.736 103.307 256.596 102.75 256.596 102.193C256.179 100.384 257.431 97.184 258.545 95.5141Z" fill="#98721F"/>
<path opacity="0.8387" d="M258.683 95.7925C258.962 95.3751 261.466 93.1487 263.554 92.5921C264.389 92.3138 265.502 92.7312 265.919 93.427L274.825 109.429L277.33 114.021L285.122 128.076C285.401 128.493 288.323 134.338 288.184 134.755C288.323 135.033 288.323 135.451 288.462 135.729C288.879 137.956 286.653 141.713 285.679 143.939L283.87 147.835C282.757 150.062 281.226 150.479 279.834 149.505C279.417 149.227 278.721 148.253 278.304 147.418L269.398 129.746L267.45 125.989L259.24 109.708C259.101 109.29 257.014 104.698 257.153 104.281C257.014 103.724 256.874 103.028 256.735 102.472C256.318 100.524 257.431 97.6015 258.683 95.7925Z" fill="#946F21"/>
<path opacity="0.871" d="M258.683 96.2101C258.962 95.7927 261.466 93.5662 263.415 92.8705C264.389 92.5922 265.363 92.8705 265.78 93.7054L274.547 109.569L277.051 114.022L284.705 127.937C284.844 128.215 287.905 134.199 287.766 134.477C287.905 134.755 288.044 135.173 288.044 135.451C288.601 137.677 286.375 141.295 285.261 143.522L283.592 147.279C282.618 149.505 281.087 149.923 279.695 148.949C279.278 148.67 278.582 147.696 278.165 147.001L269.537 129.607L267.589 125.849L259.518 109.847C259.379 109.569 257.292 104.838 257.292 104.559C257.014 104.003 257.014 103.307 256.874 102.75C256.457 100.802 257.431 98.0191 258.683 96.2101Z" fill="#916B22"/>
<path opacity="0.9032" d="M258.823 96.4882C258.962 96.2099 261.467 93.8443 263.554 93.0094C264.528 92.592 265.502 92.8703 265.919 93.7052L274.547 109.29L277.052 113.743L284.705 127.519C284.844 127.797 287.906 133.642 287.906 134.059C288.045 134.338 288.184 134.755 288.184 135.033C288.74 137.399 286.653 140.599 285.54 143.104L283.87 146.861C282.896 149.088 281.365 149.644 279.974 148.67C279.556 148.392 278.861 147.557 278.443 146.722L269.816 129.467L268.007 125.71L260.075 109.986C259.936 109.708 257.71 104.976 257.849 104.837C257.57 104.281 257.431 103.585 257.292 103.168C256.596 100.941 257.431 98.4363 258.823 96.4882Z" fill="#8D6823"/>
<path opacity="0.9355" d="M258.822 96.906C258.961 96.7668 261.466 94.1229 263.414 93.288C264.388 92.8706 265.362 93.0097 265.919 93.8446L274.546 109.29L277.051 113.743L284.565 127.38C284.704 127.519 287.905 133.503 287.766 133.781C287.905 134.06 288.044 134.477 288.183 134.755C288.879 137.121 286.792 140.182 285.539 142.687L283.87 146.444C282.895 148.67 281.365 149.227 279.973 148.253C279.417 147.975 278.86 147.14 278.443 146.305L269.954 129.328L268.145 125.71L260.353 110.125C260.214 109.986 257.987 105.255 257.987 104.977C257.709 104.42 257.57 103.864 257.431 103.307C256.735 101.22 257.431 98.8541 258.822 96.906Z" fill="#8A6524"/>
<path opacity="0.9677" d="M258.961 97.1839C258.961 97.0448 261.466 94.4009 263.553 93.4268C264.527 93.0094 265.501 93.0094 266.058 93.9835L274.546 109.29L276.912 113.604L284.287 127.102C284.287 127.241 287.627 133.224 287.627 133.363C287.766 133.642 287.905 134.059 288.044 134.338C288.74 136.842 286.792 139.625 285.539 142.269L283.87 146.026C282.895 148.114 281.365 148.809 280.112 147.835C279.556 147.557 278.999 146.861 278.582 146.026L270.233 129.328L268.424 125.71L260.77 110.403C260.77 110.264 258.405 105.533 258.405 105.394C258.126 104.837 257.987 104.281 257.709 103.724C257.013 101.498 257.431 99.2712 258.961 97.1839Z" fill="#866126"/>
<path d="M258.544 105.533C257.013 102.611 257.153 100.246 258.961 97.4627C258.961 97.4627 264.249 91.0617 265.919 93.9839L276.634 113.465L287.348 132.946C289.018 135.729 286.792 138.652 285.4 141.713L283.731 145.331C282.339 148.392 279.973 148.392 278.443 145.47L268.424 125.571L258.544 105.533Z" fill="#835E27"/>
<path d="M113.548 49.7332L112.017 42.4973L9.32324 147.14L31.3093 131.972L113.548 49.7332Z" fill="url(#paint2_linear_238_170)"/>
<path d="M9.32324 147.14L59.6962 302.851L80.1516 281.143L31.3093 131.972L9.32324 147.14Z" fill="#9D7510"/>
<path d="M231.688 258.74L239.341 286.709L304.743 150.619L286.931 144.774L231.688 258.74Z" fill="url(#paint3_linear_238_170)"/>
<path d="M286.932 144.774L260.354 89.9486L279.696 88.1396L304.743 150.619L286.932 144.774Z" fill="url(#paint4_linear_238_170)"/>
<path d="M260.353 89.9481L113.548 49.7332L112.017 42.4973L279.695 88.1391L260.353 89.9481Z" fill="url(#paint5_linear_238_170)"/>
<path d="M59.6963 302.851L67.9063 305.355L64.7058 302.016L84.6045 281.004L80.1516 281.143L59.6963 302.851Z" fill="url(#paint6_linear_238_170)"/>
<path d="M84.6047 281.004L111.183 255.261L111.6 253.034L80.1519 281.143L84.6047 281.004Z" fill="url(#paint7_linear_238_170)"/>
<path d="M111.182 255.261L111.6 253.034L231.688 258.74L226.817 262.775L111.182 255.261Z" fill="url(#paint8_linear_238_170)"/>
<path d="M226.818 262.775L232.941 288.24L239.342 286.709L231.688 258.74L226.818 262.775Z" fill="url(#paint9_linear_238_170)"/>
<path d="M64.7056 302.016L70.1325 315.096L90.3095 292.693L84.6043 281.004L64.7056 302.016Z" fill="url(#paint10_linear_238_170)"/>
<path d="M84.604 281.004L90.3092 292.693L224.73 277.803L226.817 262.775L111.182 255.261L84.604 281.004Z" fill="#E5C62F"/>
<path d="M224.73 277.804L229.74 306.886L232.94 288.24L226.818 262.775L224.73 277.804Z" fill="url(#paint11_linear_238_170)"/>
<path d="M128.576 52.9341L145.831 36.6533L218.607 38.8798L247.273 84.939L128.576 52.9341Z" fill="url(#paint12_linear_238_170)"/>
<path d="M128.576 52.9338L126.628 47.2285L143.326 35.1223L145.831 36.653L128.576 52.9338Z" fill="url(#paint13_linear_238_170)"/>
<path d="M247.273 84.9389L261.466 83.6865L232.662 37.9055L218.607 38.8796L247.273 84.9389Z" fill="#FFE768"/>
<path d="M143.326 35.1223L145.831 36.653L218.607 38.8794L232.662 37.9054L143.326 35.1223Z" fill="#F5D004"/>
<path d="M291.662 136.981L294.167 135.59L268.702 79.6509L266.197 81.0424L291.662 136.981Z" fill="#D4B200"/>
<path d="M291.662 136.981L313.509 143.104L315.457 141.852L294.167 135.59L291.662 136.981Z" fill="#9F7704"/>
<path d="M315.458 141.852L288.462 79.6509H268.703L294.167 135.59L315.458 141.852Z" fill="#FFDE32"/>
<path opacity="0.032258" d="M263.831 200.574C260.074 203.635 249.499 222.699 247.411 226.735C245.324 230.77 228.069 265.558 228.069 265.558L238.784 290.466L287.626 194.451C287.626 194.451 278.442 195.286 275.659 195.704C272.876 196.26 267.728 197.513 263.831 200.574Z" fill="#C39823"/>
<path opacity="0.064516" d="M263.554 201.27C259.796 204.192 249.499 222.838 247.551 226.735C245.464 230.77 228.209 265.836 228.209 265.836L238.924 290.605L287.349 195.286C287.349 195.286 278.165 196.121 275.382 196.678C272.459 197.095 267.311 198.209 263.554 201.27Z" fill="#C19622"/>
<path opacity="0.096774" d="M263.275 201.966C259.657 204.888 249.638 222.838 247.69 226.735C245.742 230.631 228.209 266.115 228.209 266.115L238.785 290.605L286.792 195.982C286.792 195.982 277.608 196.956 274.825 197.374C272.042 197.791 267.032 198.904 263.275 201.966Z" fill="#C09522"/>
<path opacity="0.129" d="M262.997 202.662C259.379 205.584 249.778 222.978 247.829 226.735C245.881 230.492 228.209 266.254 228.209 266.254L238.645 290.606L286.235 196.678C286.235 196.678 276.912 197.652 274.129 198.069C271.485 198.487 266.754 199.6 262.997 202.662Z" fill="#BF9321"/>
<path opacity="0.1613" d="M262.719 203.357C259.101 206.14 249.778 222.977 247.969 226.735C246.02 230.492 228.348 266.532 228.348 266.532L238.645 290.605L285.818 197.513C285.818 197.513 276.495 198.487 273.712 199.043C271.068 199.322 266.337 200.435 262.719 203.357Z" fill="#BD9221"/>
<path opacity="0.1935" d="M262.44 203.914C258.962 206.697 249.917 222.978 248.108 226.596C246.299 230.214 228.348 266.532 228.348 266.532L238.506 290.466L285.261 198.07C285.261 198.07 275.938 199.183 273.155 199.6C270.65 200.018 266.058 201.131 262.44 203.914Z" fill="#BC9120"/>
<path opacity="0.2258" d="M262.162 204.61C258.683 207.393 250.055 222.978 248.246 226.596C246.437 230.214 228.487 266.811 228.487 266.811L238.645 290.467L284.983 198.765C284.983 198.765 275.52 199.879 272.876 200.296C270.093 200.853 265.78 201.827 262.162 204.61Z" fill="#BB8F20"/>
<path opacity="0.2581" d="M261.883 205.305C258.544 207.949 250.055 223.117 248.386 226.596C246.577 230.074 228.487 266.95 228.487 266.95L238.506 290.466L284.426 199.461C284.426 199.461 274.964 200.574 272.32 200.992C269.676 201.548 265.501 202.522 261.883 205.305Z" fill="#B98E1F"/>
<path opacity="0.2903" d="M261.744 206.001C258.404 208.645 250.334 223.117 248.664 226.596C246.855 230.074 228.765 267.228 228.765 267.228L238.645 290.606L284.148 200.296C284.148 200.296 274.685 201.548 272.041 201.966C269.258 202.244 265.084 203.357 261.744 206.001Z" fill="#B88D1F"/>
<path opacity="0.3226" d="M261.466 206.696C258.126 209.34 250.473 223.256 248.803 226.595C247.133 229.935 228.765 267.506 228.765 267.506L238.506 290.605L283.73 200.991C283.73 200.991 274.129 202.244 271.485 202.661C268.702 203.078 264.806 204.053 261.466 206.696Z" fill="#B68B1E"/>
<path opacity="0.3548" d="M261.188 207.392C257.987 209.897 250.612 223.256 248.942 226.595C247.272 229.796 228.904 267.645 228.904 267.645L238.506 290.605L283.313 201.687C283.313 201.687 273.711 202.939 271.067 203.357C268.284 203.774 264.527 204.748 261.188 207.392Z" fill="#B58A1E"/>
<path opacity="0.3871" d="M260.909 208.088C257.709 210.593 250.612 223.395 248.942 226.595C247.272 229.796 228.765 267.923 228.765 267.923L238.227 290.605L282.617 202.383C282.617 202.383 273.015 203.774 270.372 204.192C267.867 204.47 264.11 205.444 260.909 208.088Z" fill="#B4881D"/>
<path opacity="0.4194" d="M260.631 208.645C257.57 211.011 250.751 223.256 249.081 226.317C247.551 229.379 228.904 267.785 228.904 267.785L238.367 290.327L282.339 202.94C282.339 202.94 272.598 204.331 270.093 204.749C267.449 205.305 263.831 206.279 260.631 208.645Z" fill="#B2871D"/>
<path opacity="0.4516" d="M260.353 209.34C257.291 211.706 250.89 223.395 249.22 226.317C247.69 229.378 228.904 268.063 228.904 268.063L238.227 290.466L281.782 203.774C281.782 203.774 272.041 205.166 269.537 205.583C266.893 206.001 263.553 206.975 260.353 209.34Z" fill="#B1861C"/>
<path opacity="0.4839" d="M260.074 210.036C257.013 212.402 250.89 223.395 249.36 226.317C247.829 229.239 228.904 268.341 228.904 268.341L238.088 290.466L281.225 204.47C281.225 204.47 271.485 206.001 268.841 206.418C266.475 206.836 263.136 207.671 260.074 210.036Z" fill="#B0841C"/>
<path opacity="0.5161" d="M259.797 210.732C256.874 212.959 251.03 223.534 249.499 226.317C247.969 229.239 229.044 268.48 229.044 268.48L238.089 290.466L280.808 205.166C280.808 205.166 270.929 206.697 268.424 207.114C266.058 207.532 262.858 208.367 259.797 210.732Z" fill="#AE831B"/>
<path opacity="0.5484" d="M259.518 211.428C256.596 213.654 251.169 223.534 249.638 226.317C248.247 229.1 229.044 268.758 229.044 268.758L237.95 290.466L280.252 205.862C280.252 205.862 270.372 207.392 267.867 207.81C265.502 208.227 262.58 209.201 259.518 211.428Z" fill="#AD811B"/>
<path opacity="0.5806" d="M259.379 212.124C256.596 214.35 251.308 223.673 249.916 226.317C248.525 229.1 229.322 268.898 229.322 268.898L238.088 290.466L279.973 206.558C279.973 206.558 270.093 208.227 267.589 208.645C265.084 209.062 262.162 209.897 259.379 212.124Z" fill="#AC801A"/>
<path opacity="0.6129" d="M259.1 212.819C256.317 214.907 251.447 223.673 250.055 226.317C248.664 228.961 229.322 269.176 229.322 269.176L238.088 290.466L279.556 207.253C279.556 207.253 269.537 208.923 267.171 209.341C264.666 209.758 261.883 210.593 259.1 212.819Z" fill="#AA7F1A"/>
<path opacity="0.6452" d="M258.822 213.376C256.039 215.463 251.586 223.673 250.195 226.178C248.942 228.683 229.461 269.315 229.461 269.315L238.088 290.466L279.138 207.949C279.138 207.949 269.119 209.619 266.615 210.036C264.11 210.454 261.605 211.289 258.822 213.376Z" fill="#A97D19"/>
<path opacity="0.6774" d="M258.544 214.072C255.9 216.159 251.586 223.673 250.334 226.178C249.081 228.683 229.461 269.454 229.461 269.454L237.949 290.466L278.582 208.784C278.582 208.784 268.563 210.454 266.058 210.871C263.692 211.289 261.188 211.985 258.544 214.072Z" fill="#A87C19"/>
<path opacity="0.7097" d="M258.265 214.768C255.621 216.716 251.725 223.813 250.473 226.178C249.221 228.544 229.6 269.733 229.6 269.733L237.949 290.466L278.164 209.48C278.164 209.48 268.006 211.289 265.64 211.706C263.275 211.985 260.909 212.82 258.265 214.768Z" fill="#A67A18"/>
<path opacity="0.7419" d="M257.987 215.463C255.482 217.411 251.864 223.812 250.612 226.178C249.36 228.544 229.6 269.872 229.6 269.872L237.81 290.466L277.607 210.176C277.607 210.176 267.449 211.985 265.084 212.402C262.718 212.819 260.631 213.515 257.987 215.463Z" fill="#A57918"/>
<path opacity="0.7742" d="M257.709 216.159C255.205 217.968 251.865 223.952 250.752 226.178C249.638 228.404 229.74 270.15 229.74 270.15L237.95 290.466L277.33 210.871C277.33 210.871 267.172 212.68 264.806 213.098C262.301 213.515 260.353 214.211 257.709 216.159Z" fill="#A37817"/>
<path opacity="0.8065" d="M257.431 216.855C254.926 218.664 252.004 223.952 250.891 226.178C249.778 228.405 229.74 270.289 229.74 270.289L237.811 290.466L276.773 211.567C276.773 211.567 266.476 213.515 264.11 213.933C261.884 214.211 259.936 214.907 257.431 216.855Z" fill="#A27617"/>
<path opacity="0.8387" d="M257.152 217.55C254.787 219.359 252.143 224.091 251.03 226.178C249.916 228.265 229.878 270.567 229.878 270.567L237.81 290.605L276.355 212.402C276.355 212.402 266.058 214.35 263.692 214.767C261.466 215.046 259.657 215.742 257.152 217.55Z" fill="#A17516"/>
<path opacity="0.871" d="M257.013 218.107C254.647 219.777 252.282 223.952 251.308 225.9C250.334 227.848 230.018 270.567 230.018 270.567L237.81 290.327L275.938 212.819C275.938 212.819 265.64 214.767 263.275 215.185C260.909 215.742 259.379 216.437 257.013 218.107Z" fill="#9F7416"/>
<path opacity="0.9032" d="M256.735 218.803C254.508 220.473 252.421 224.091 251.447 225.9C250.473 227.848 230.018 270.707 230.018 270.707L237.671 290.327L275.381 213.515C275.381 213.515 264.945 215.602 262.718 216.02C260.492 216.437 258.961 217.133 256.735 218.803Z" fill="#9E7215"/>
<path opacity="0.9355" d="M256.456 219.499C254.23 221.169 252.56 224.091 251.586 225.9C250.612 227.709 230.157 270.985 230.157 270.985L237.671 290.327L274.964 214.211C274.964 214.211 264.527 216.298 262.301 216.716C260.074 217.272 258.683 217.829 256.456 219.499Z" fill="#9D7115"/>
<path opacity="0.9677" d="M256.178 220.195C253.952 221.725 252.56 224.091 251.725 225.9C250.89 227.709 230.157 271.124 230.157 271.124L237.671 290.327L274.546 215.046C274.546 215.046 264.11 217.133 261.744 217.551C259.518 217.968 258.405 218.664 256.178 220.195Z" fill="#9B6F14"/>
<path d="M255.9 220.89C253.813 222.421 252.699 224.23 251.864 225.9C251.03 227.57 230.296 271.402 230.296 271.402L237.671 290.327L274.129 215.742C274.129 215.742 263.553 217.968 261.327 218.386C259.1 218.803 257.987 219.36 255.9 220.89Z" fill="#9A6E14"/>
<path d="M255.9 221.447C253.813 222.977 252.7 224.786 251.865 226.456C251.03 228.126 230.436 271.541 230.436 271.541L237.811 290.466L274.129 216.298C274.129 216.298 263.554 218.525 261.327 218.803C259.101 219.22 257.988 219.916 255.9 221.447Z" fill="#966C15"/>
<path d="M255.9 221.864C253.813 223.395 252.699 225.204 251.864 226.874C251.03 228.544 230.574 271.542 230.574 271.542L237.949 290.466L273.99 216.855C273.99 216.855 263.553 219.081 261.327 219.36C259.1 219.777 257.987 220.473 255.9 221.864Z" fill="#936A16"/>
<path d="M255.761 222.421C253.673 223.952 252.56 225.76 251.725 227.43C250.89 229.1 230.574 271.681 230.574 271.681L237.81 290.466L273.711 217.272C273.711 217.272 263.275 219.499 261.048 219.777C258.961 220.334 257.987 220.89 255.761 222.421Z" fill="#8F6817"/>
<path d="M255.761 222.977C253.673 224.508 252.56 226.317 251.725 227.987C250.89 229.657 230.853 271.82 230.853 271.82L238.088 290.605L273.711 217.968C273.711 217.968 263.275 220.055 261.049 220.473C258.961 220.89 257.848 221.447 255.761 222.977Z" fill="#8B6518"/>
<path d="M255.761 223.534C253.673 225.065 252.56 226.874 251.725 228.544C250.89 230.214 230.992 271.959 230.992 271.959L238.228 290.745L273.711 218.525C273.711 218.525 263.275 220.612 261.049 221.03C258.961 221.447 257.848 222.004 255.761 223.534Z" fill="#876319"/>
<path d="M255.761 224.091C253.674 225.622 252.561 227.431 251.726 229.1C250.891 230.77 231.131 272.098 231.131 272.098L238.367 290.884L273.573 219.221C273.573 219.221 263.136 221.308 261.049 221.725C258.962 222.004 257.849 222.56 255.761 224.091Z" fill="#84611A"/>
<path d="M255.761 224.508C253.673 226.039 252.699 227.848 251.725 229.517C250.89 231.187 231.27 272.098 231.27 272.098L238.506 290.744L273.572 219.499C273.572 219.499 263.136 221.586 261.049 222.003C258.822 222.421 257.848 223.116 255.761 224.508Z" fill="#805F1B"/>
<path d="M255.761 225.065C253.674 226.595 252.699 228.404 251.865 230.074C251.03 231.744 231.548 272.237 231.548 272.237L238.784 290.884L273.711 220.194C273.711 220.194 263.414 222.282 261.188 222.699C258.822 222.977 257.848 223.534 255.761 225.065Z" fill="#7C5D1C"/>
<path d="M255.622 225.621C253.534 227.152 252.56 228.822 251.725 230.492C250.89 232.161 231.548 272.237 231.548 272.237L238.784 290.884L273.433 220.612C273.433 220.612 263.136 222.699 260.909 223.117C258.822 223.534 257.709 224.091 255.622 225.621Z" fill="#785B1D"/>
<path d="M255.622 226.178C253.535 227.709 252.561 229.378 251.726 231.048C250.891 232.718 231.827 272.376 231.827 272.376L239.063 290.884L273.573 221.168C273.573 221.168 263.275 223.256 261.049 223.673C258.823 224.091 257.709 224.647 255.622 226.178Z" fill="#75581E"/>
<path d="M255.621 226.735C253.534 228.265 252.56 229.935 251.725 231.605C250.89 233.275 231.965 272.516 231.965 272.516L239.201 291.023L273.433 221.725C273.433 221.725 263.135 223.812 261.048 224.23C258.682 224.647 257.708 225.204 255.621 226.735Z" fill="#71561F"/>
<path d="M255.622 227.152C253.534 228.683 252.56 230.353 251.725 232.022C250.89 233.692 232.105 272.516 232.105 272.516L239.202 291.023L273.294 222.282C273.294 222.282 262.997 224.369 260.909 224.786C258.683 225.204 257.709 225.761 255.622 227.152Z" fill="#6D5420"/>
<path d="M255.622 227.709C253.534 229.239 252.56 230.909 251.725 232.579C250.891 234.249 232.244 272.655 232.244 272.655L239.341 291.023L273.155 222.699C273.155 222.699 262.858 224.787 260.77 225.204C258.683 225.621 257.57 226.317 255.622 227.709Z" fill="#695221"/>
<path d="M255.483 228.265C253.395 229.796 252.421 231.466 251.586 233.136C250.751 234.805 232.244 272.794 232.244 272.794L239.341 291.162L273.016 223.395C273.016 223.395 262.858 225.482 260.631 225.9C258.683 226.178 257.57 226.735 255.483 228.265Z" fill="#665022"/>
<path d="M255.483 228.822C253.395 230.352 252.421 232.022 251.586 233.692C250.751 235.362 232.383 272.933 232.383 272.933L239.48 291.301L273.016 223.951C273.016 223.951 262.858 226.039 260.631 226.456C258.544 226.734 257.57 227.291 255.483 228.822Z" fill="#624E23"/>
<path d="M255.482 229.379C253.395 230.909 252.421 232.579 251.586 234.249C250.751 235.919 232.661 273.072 232.661 273.072L239.758 291.301L273.015 224.508C273.015 224.508 262.857 226.596 260.77 227.013C258.543 227.291 257.569 227.848 255.482 229.379Z" fill="#5E4B23"/>
<path d="M255.483 229.796C253.395 231.187 252.421 232.996 251.586 234.666C250.751 236.336 232.801 273.072 232.801 273.072L239.898 291.301L273.016 224.926C273.016 224.926 262.858 227.013 260.77 227.43C258.544 227.848 257.431 228.404 255.483 229.796Z" fill="#5A4924"/>
<path d="M255.483 230.353C253.395 231.744 252.421 233.553 251.586 235.223C250.751 236.893 232.94 273.212 232.94 273.212L240.037 291.44L272.877 225.482C272.877 225.482 262.718 227.57 260.631 227.987C258.544 228.265 257.431 228.961 255.483 230.353Z" fill="#574725"/>
<path d="M255.343 230.909C253.256 232.301 252.282 234.11 251.447 235.779C250.612 237.449 232.94 273.35 232.94 273.35L240.037 291.44L272.737 226.039C272.737 226.039 262.579 228.126 260.492 228.544C258.405 228.822 257.431 229.378 255.343 230.909Z" fill="#534526"/>
<path d="M255.343 231.466C253.256 232.857 252.282 234.666 251.447 236.197C250.612 237.867 233.079 273.35 233.079 273.35L240.037 291.44L272.598 226.456C272.598 226.456 262.579 228.544 260.353 228.961C258.405 229.378 257.431 229.935 255.343 231.466Z" fill="#4F4327"/>
<path d="M255.343 232.022C253.256 233.414 252.282 235.223 251.447 236.754C250.612 238.423 233.357 273.49 233.357 273.49L240.315 291.579L272.598 227.152C272.598 227.152 262.579 229.239 260.492 229.657C258.404 229.935 257.43 230.492 255.343 232.022Z" fill="#4B4128"/>
<path d="M255.343 232.44C253.395 233.831 252.282 235.64 251.447 237.171C250.612 238.841 233.497 273.49 233.497 273.49L240.454 291.579L272.598 227.57C272.598 227.57 262.579 229.657 260.492 230.074C258.405 230.492 257.292 231.048 255.343 232.44Z" fill="#483E29"/>
<path d="M255.343 232.997C253.395 234.388 252.282 236.197 251.586 237.728C250.751 239.398 233.775 273.629 233.775 273.629L240.732 291.58L272.598 228.126C272.598 228.126 262.579 230.214 260.492 230.631C258.266 231.048 257.292 231.605 255.343 232.997Z" fill="#443C2A"/>
<path d="M255.343 233.553C253.395 234.945 252.282 236.754 251.586 238.285C250.751 239.954 233.914 273.768 233.914 273.768L240.872 291.719L272.598 228.683C272.598 228.683 262.579 230.77 260.492 231.188C258.266 231.466 257.292 232.162 255.343 233.553Z" fill="#403A2B"/>
<path d="M255.204 234.11C253.256 235.501 252.143 237.31 251.447 238.841C250.612 240.371 233.914 273.907 233.914 273.907L240.872 291.858L272.32 229.378C272.32 229.378 262.44 231.466 260.353 231.744C258.266 232.022 257.292 232.579 255.204 234.11Z" fill="#3C382C"/>
<path d="M255.204 234.527C253.256 235.919 252.282 237.728 251.447 239.258C250.612 240.789 234.053 273.907 234.053 273.907L241.01 291.718L272.32 229.657C272.32 229.657 262.44 231.744 260.352 232.022C258.265 232.579 257.152 233.136 255.204 234.527Z" fill="#39362D"/>
<path d="M255.204 235.084C253.256 236.475 252.282 238.284 251.447 239.815C250.612 241.346 234.332 274.046 234.332 274.046L241.289 291.858L272.459 230.353C272.459 230.353 262.579 232.44 260.492 232.718C258.266 233.136 257.152 233.692 255.204 235.084Z" fill="#35342E"/>
<path d="M255.204 235.64C253.256 237.032 252.282 238.701 251.447 240.371C250.612 241.902 234.471 274.185 234.471 274.185L241.289 291.997L272.181 230.909C272.181 230.909 262.301 232.996 260.214 233.275C258.127 233.692 257.152 234.249 255.204 235.64Z" fill="#31312F"/>
<path d="M255.204 236.197C253.256 237.588 252.282 239.258 251.447 240.928C250.612 242.459 234.61 274.325 234.61 274.325L241.428 291.997L272.181 231.466C272.181 231.466 262.301 233.553 260.214 233.831C258.127 234.249 257.152 234.805 255.204 236.197Z" fill="#2D2F30"/>
<path d="M255.065 236.754C253.117 238.145 252.143 239.815 251.308 241.485C250.473 243.015 234.61 274.464 234.61 274.464L241.428 292.136L271.903 232.022C271.903 232.022 262.023 234.11 260.075 234.388C258.127 234.666 257.152 235.223 255.065 236.754Z" fill="#2A2D31"/>
<path d="M255.065 237.171C253.117 238.562 252.143 240.232 251.308 241.902C250.473 243.433 234.749 274.464 234.749 274.464L241.567 292.136L271.902 232.579C271.902 232.579 262.161 234.527 260.074 234.944C258.126 235.223 257.013 235.779 255.065 237.171Z" fill="#262B32"/>
<path d="M273.573 202.522L277.052 203.496L233.358 292.971L229.74 292.136L273.573 202.522Z" fill="#EDC400"/>
<path d="M229.74 292.136L235.724 311.2L238.785 311.896L233.358 292.971L229.74 292.136Z" fill="#998432"/>
<path d="M277.052 203.496L290.271 204.331L285.818 203.496L273.573 202.522L277.052 203.496Z" fill="#FCCC01"/>
<path d="M290.272 204.331L238.785 311.895L233.358 292.971L277.052 203.496L290.272 204.331Z" fill="url(#paint14_linear_238_170)"/>
<path d="M18.6464 142.965L0 155.628L44.6678 293.11L61.6443 273.629L18.6464 142.965Z" fill="url(#paint15_linear_238_170)"/>
<path d="M18.646 142.965H21.9856L64.8444 273.351L61.6439 273.629L18.646 142.965Z" fill="#F7D000"/>
<path d="M64.845 273.351L47.3119 292.832L44.668 293.11L61.6445 273.629L64.845 273.351Z" fill="#805E24"/>
<path d="M90.3094 292.693L93.5099 293.11L74.1677 314.818L70.1323 315.096L90.3094 292.693Z" fill="url(#paint16_linear_238_170)"/>
<path d="M70.1323 315.096L97.5452 322.471L100.467 321.636L74.1677 314.818L70.1323 315.096Z" fill="url(#paint17_linear_238_170)"/>
<path d="M93.5101 293.11L221.112 278.916L224.73 277.803L90.3096 292.692L93.5101 293.11Z" fill="url(#paint18_linear_238_170)"/>
<path d="M221.112 278.916L226.122 307.164L229.74 306.886L224.73 277.803L221.112 278.916Z" fill="url(#paint19_linear_238_170)"/>
<defs>
<radialGradient id="paint0_radial_238_170" cx="0" cy="0" r="1" gradientUnits="userSpaceOnUse" gradientTransform="translate(226.209 305.793) scale(152.19)">
<stop stop-color="#05323D"/>
<stop offset="0.0226311" stop-color="#05303C"/>
<stop offset="0.2502" stop-color="#012433"/>
<stop offset="0.473" stop-color="#002030"/>
<stop offset="1" stop-color="#002132"/>
</radialGradient>
<linearGradient id="paint1_linear_238_170" x1="253.425" y1="77.341" x2="64.7069" y2="257.037" gradientUnits="userSpaceOnUse">
<stop stop-color="#EECF2F"/>
<stop offset="1" stop-color="#EFC830"/>
</linearGradient>
<linearGradient id="paint2_linear_238_170" x1="113.263" y1="43.1716" x2="18.0265" y2="144.673" gradientUnits="userSpaceOnUse">
<stop stop-color="#B0A401"/>
<stop offset="1" stop-color="#BF9B04"/>
</linearGradient>
<linearGradient id="paint3_linear_238_170" x1="314.302" y1="154.111" x2="223.326" y2="263.507" gradientUnits="userSpaceOnUse">
<stop offset="0.0844595" stop-color="#A98209"/>
<stop offset="0.0848254" stop-color="#A98209"/>
<stop offset="0.1204" stop-color="#C29E04"/>
<stop offset="0.1518" stop-color="#D2AE01"/>
<stop offset="0.1757" stop-color="#D7B400"/>
<stop offset="1" stop-color="#D7B000"/>
</linearGradient>
<linearGradient id="paint4_linear_238_170" x1="279.888" y1="88.1723" x2="284.525" y2="144.062" gradientUnits="userSpaceOnUse">
<stop stop-color="#E0B404"/>
<stop offset="0.0472973" stop-color="#674428"/>
<stop offset="0.0844595" stop-color="#152533"/>
<stop offset="0.7331" stop-color="#08242E"/>
<stop offset="0.8716" stop-color="#302F2E"/>
<stop offset="1" stop-color="#473A34"/>
</linearGradient>
<linearGradient id="paint5_linear_238_170" x1="110.733" y1="43.7623" x2="275.767" y2="92.2576" gradientUnits="userSpaceOnUse">
<stop stop-color="#F1D12F"/>
<stop offset="1" stop-color="#FFDD44"/>
</linearGradient>
<linearGradient id="paint6_linear_238_170" x1="84.2046" y1="281.868" x2="63.4812" y2="304.424" gradientUnits="userSpaceOnUse">
<stop stop-color="#8E671E"/>
<stop offset="1" stop-color="#63462C"/>
</linearGradient>
<linearGradient id="paint7_linear_238_170" x1="112.011" y1="254.164" x2="81.9361" y2="281.419" gradientUnits="userSpaceOnUse">
<stop stop-color="#916919"/>
<stop offset="1" stop-color="#BD8F00"/>
</linearGradient>
<linearGradient id="paint8_linear_238_170" x1="111.347" y1="253.163" x2="229.014" y2="260.806" gradientUnits="userSpaceOnUse">
<stop stop-color="#8A6023"/>
<stop offset="1" stop-color="#A17E00"/>
</linearGradient>
<linearGradient id="paint9_linear_238_170" x1="228.728" y1="259.346" x2="236.153" y2="287.495" gradientUnits="userSpaceOnUse">
<stop stop-color="#A37C0B"/>
<stop offset="0.2534" stop-color="#4B362D"/>
<stop offset="0.4392" stop-color="#00242F"/>
<stop offset="1" stop-color="#00242F"/>
</linearGradient>
<linearGradient id="paint10_linear_238_170" x1="73.0136" y1="292.932" x2="81.0961" y2="302.455" gradientUnits="userSpaceOnUse">
<stop stop-color="#855A2A"/>
<stop offset="1" stop-color="#BD9701"/>
</linearGradient>
<linearGradient id="paint11_linear_238_170" x1="222.623" y1="283.732" x2="233.787" y2="285.914" gradientUnits="userSpaceOnUse">
<stop stop-color="#ECC000"/>
<stop offset="0.2534" stop-color="#DEB402"/>
<stop offset="0.4054" stop-color="#6A4A2B"/>
<stop offset="0.5169" stop-color="#00242F"/>
<stop offset="0.848" stop-color="#00242F"/>
<stop offset="0.9287" stop-color="#61472B"/>
<stop offset="0.9358" stop-color="#6A4A2B"/>
<stop offset="1" stop-color="#DEB402"/>
</linearGradient>
<linearGradient id="paint12_linear_238_170" x1="187.951" y1="68.7992" x2="198.225" y2="34.2143" gradientUnits="userSpaceOnUse">
<stop stop-color="#F7D630"/>
<stop offset="0.3421" stop-color="#F3D030"/>
<stop offset="1" stop-color="#EFC830"/>
</linearGradient>
<linearGradient id="paint13_linear_238_170" x1="145.047" y1="36.6281" x2="127.879" y2="49.8484" gradientUnits="userSpaceOnUse">
<stop stop-color="#C39F02"/>
<stop offset="0.4644" stop-color="#BF9C02"/>
<stop offset="0.8858" stop-color="#B49302"/>
<stop offset="1" stop-color="#B08F02"/>
</linearGradient>
<linearGradient id="paint14_linear_238_170" x1="287.593" y1="202.021" x2="231.237" y2="307.776" gradientUnits="userSpaceOnUse">
<stop stop-color="#D4AC2C"/>
<stop offset="1" stop-color="#FAD634"/>
</linearGradient>
<linearGradient id="paint15_linear_238_170" x1="7.96812" y1="147.952" x2="52.0317" y2="278.29" gradientUnits="userSpaceOnUse">
<stop stop-color="#8E6B1B"/>
<stop offset="1" stop-color="#BF9B04"/>
</linearGradient>
<linearGradient id="paint16_linear_238_170" x1="80.7733" y1="303.187" x2="82.9038" y2="305.068" gradientUnits="userSpaceOnUse">
<stop stop-color="#002A37"/>
<stop offset="0.7804" stop-color="#3F5151"/>
<stop offset="0.881" stop-color="#435453"/>
<stop offset="0.9838" stop-color="#4F5D5A"/>
<stop offset="1" stop-color="#525F5B"/>
</linearGradient>
<linearGradient id="paint17_linear_238_170" x1="85.1024" y1="319.2" x2="85.5256" y2="317.743" gradientUnits="userSpaceOnUse">
<stop stop-color="#002A37"/>
<stop offset="0.7804" stop-color="#3F5151"/>
<stop offset="0.881" stop-color="#435453"/>
<stop offset="0.9838" stop-color="#4F5D5A"/>
<stop offset="1" stop-color="#525F5B"/>
</linearGradient>
<linearGradient id="paint18_linear_238_170" x1="157.513" y1="285.261" x2="157.631" y2="286.01" gradientUnits="userSpaceOnUse">
<stop stop-color="#002A37"/>
<stop offset="0.7804" stop-color="#3F5151"/>
<stop offset="0.881" stop-color="#435453"/>
<stop offset="0.9838" stop-color="#4F5D5A"/>
<stop offset="1" stop-color="#525F5B"/>
</linearGradient>
<linearGradient id="paint19_linear_238_170" x1="222.633" y1="278.04" x2="228.147" y2="306.235" gradientUnits="userSpaceOnUse">
<stop stop-color="#032E38"/>
<stop offset="0.5338" stop-color="#2D454B"/>
<stop offset="1" stop-color="#06323F"/>
</linearGradient>
</defs>
</svg>
