<svg xmlns="http://www.w3.org/2000/svg" xmlns:xlink="http://www.w3.org/1999/xlink">
    <defs>
        <symbol id="icon-arrow" viewBox="0 0 19 8" >
            <path d="M18.354 4.354a.5.5 0 0 0 0-.708L15.172.464a.5.5 0 1 0-.708.708L17.293 4l-2.829 2.828a.5.5 0 1 0 .708.708l3.182-3.182zM0 4.5h18v-1H0v1z"/>
        </symbol>
        <symbol id="icon-copy" viewBox="0 0 78 90" >
            <path d="M17.678 80.357c-4.604 0-8.036-5.242-8.036-9.73v-57.77H7.941c-4.388 0-7.941 3.491-7.941 7.8v61.546C0 86.51 3.553 90 7.941 90h48.402c4.382 0 7.941-3.49 7.941-7.797v-1.846H17.678z" />
            <path d="M54.371 23.417V0H20.796c-4.384 0-7.94 3.491-7.94 7.8v61.545c0 4.307 3.557 7.797 7.94 7.797H69.2c4.382 0 7.94-3.49 7.94-7.797V23.401l-22.769.016zm4.017-20.661v16.53l16.072-.013L58.389 2.756z" />
        </symbol>
        <symbol id="icon-private-key" viewBox="0 0 13 7">
            <path d="M9.589.039a2.697 2.697 0 0 0-2.61 2.03H.858v1.446h.481v1.714h.775v.825h.776V4.679h.775V3.515h3.342A2.696 2.696 0 1 0 9.588.039zm0 1.496a1.2 1.2 0 1 1 0 2.4 1.2 1.2 0 0 1 0-2.4z" fill="#000"/>
        </symbol>
        <symbol id="icon-search"  viewBox="0 0 14 14">
            <path d="M6 11A5 5 0 1 0 6 1a5 5 0 0 0 0 10zM10 10l3 3" stroke="#434849" stroke-width="2" stroke-linecap="round" stroke-linejoin="round"/>
        </symbol>
        <symbol id="icon-minus" fill="none" viewBox="0 0 34 4">
            <path d="M34 2a2 2 0 0 1-2 2H2a2 2 0 1 1 0-4h30a2 2 0 0 1 2 2z" fill="#000"/>
        </symbol>
        <symbol id="icon-cross" fill="none" viewBox="0 0 49 49">
            <path d="M36.203 35.917a2 2 0 0 1-2.828.033l-9.301-9.082-9.083 9.301a2 2 0 0 1-2.861-2.794l9.082-9.301-9.301-9.083a2 2 0 0 1 2.794-2.861l9.301 9.082 9.083-9.301a2 2 0 1 1 2.861 2.794l-9.082 9.301 9.302 9.083a2 2 0 0 1 .033 2.828z" fill="#c4c4c4"/>
        </symbol>
        <symbol id="icon-keplr" fill="none" viewBox="0 0 32 32">
            <path d="M0 5a5 5 0 0 1 5-5h22a5 5 0 0 1 5 5v22a5 5 0 0 1-5 5H5a5 5 0 0 1-5-5V5z" fill="#C4C4C4"/>
            <path d="M12.993 6H9v20h3.993v-8.652L21.094 26H26l-9.47-10.337L25.43 6h-4.792l-7.645 8.315V6z" fill="#E5E5E5"/>
        </symbol>
        <symbol id="icon-ledger" fill="none" viewBox="0 0 32 32" >
            <path d="M26.814 0H12.187v19.733h19.749V5.106C31.936 2.304 29.63 0 26.83 0h-.016zM7.627 0H5.106C2.306 0 0 2.306 0 5.106v2.52h7.627V0zM0 12.187h7.627v7.626H0v-7.626zM24.373 31.936h2.521c2.802 0 5.106-2.306 5.106-5.106v-2.456h-7.627v7.562zM12.187 24.373h7.627V32h-7.627v-7.627zM0 24.373v2.521C0 29.694 2.306 32 5.106 32h2.52v-7.627H0z" fill="#C4C4C4"/>
        </symbol>
        <symbol id="icon-keystore" fill="none" viewBox="0 0 32 32">
            <path d="M22.45 14.771c-5.267 0-9.55 3.864-9.55 8.614 0 4.751 4.283 8.615 9.55 8.615 5.266 0 9.55-3.864 9.55-8.614 0-4.751-4.284-8.615-9.55-8.615zm5.674 12.933l-1.838 1.658a.665.665 0 0 1-.456.166.717.717 0 0 1-.455-.166.54.54 0 0 1 0-.815l1.39-1.254-.847-.764-1.247 1.124a.665.665 0 0 1-.455.166.717.717 0 0 1-.456-.166.54.54 0 0 1 0-.814l1.255-1.132-3.02-2.74c-.584.36-1.272.548-1.951.548-.887 0-1.782-.303-2.462-.915-.655-.591-1.015-1.377-1.023-2.206 0-.836.352-1.622 1.008-2.206 1.35-1.218 3.54-1.211 4.899.007 1.198 1.081 1.334 2.747.431 3.958l3.413 3.085c.024.015.048.036.072.058.024.021.04.043.064.065l1.678 1.52c.248.239.248.6 0 .823zM18.462 6.56h3.916L16.384.872V4.68c0 1.03.927 1.881 2.078 1.881z" fill="#C4C4C4"/>
            <path d="M11.964 20.906H5.019c-.352 0-.64-.26-.64-.577 0-.317.288-.577.64-.577h7.369c.407-.937.95-1.73 1.622-2.523H5.019c-.352 0-.64-.26-.64-.577 0-.317.288-.576.64-.576h10.206c1.918-1.514 4.46-2.48 7.232-2.48.264 0 .48.021.8.043V7.713H18.46c-1.854 0-3.356-1.37-3.356-3.034V0H2.845C1.263 0 0 1.168 0 2.602v22.002c0 1.434 1.263 2.573 2.845 2.573h9.63a8.82 8.82 0 0 1-.855-3.806c-.008-.85.12-1.672.344-2.465zM5.019 12.47h8.096c.351 0 .64.26.64.577 0 .317-.289.577-.64.577H5.019c-.352 0-.64-.26-.64-.577 0-.317.288-.577.64-.577z" fill="#C4C4C4"/>
            <path d="M20.012 18.44c-.56 0-1.11.188-1.535.57-.407.367-.639.865-.63 1.391 0 .526.23 1.024.646 1.398.856.772 2.238.78 3.085.008.848-.764.84-2.012-.008-2.783a2.346 2.346 0 0 0-1.558-.584z" fill="#C4C4C4"/>
        </symbol>
<!--        <symbol id="icon-up-arrow" fill="none" viewBox="0 0 12 12">-->
<!--            <path d="M0 6a6 6 0 1 0 12 0A6 6 0 0 0 0 6zm9.158 1.137l-.896.884L6 5.765 3.738 8.021l-.896-.89L6 3.973l3.158 3.164z"-->
<!--                  fill="#E50913"/>-->
<!--        </symbol>-->
<!--        <symbol id="icon-down-arrow" fill="none" viewBox="0 0 12 12">-->
<!--            <path d="M12 6A6 6 0 1 0 0 6a6 6 0 0 0 12 0zM2.842 4.863l.896-.884L6 6.235l2.262-2.256.896.89L6 8.027 2.842 4.863z"-->
<!--                  fill="#8D9CB5" fill-opacity=".48"/>-->
<!--        </symbol>-->
        <symbol id="icon-upload" fill="none" viewBox="0 0 96 88">
            <path d="M47.909 88a4 4 0 0 0 4-4V41.66l5.17 5.17a4.003 4.003 0 0 0 5.66-5.66l-12-12a4 4 0 0 0-5.66 0l-12 12a4.002 4.002 0 0 0 5.66 5.66l5.17-5.17V84a4 4 0 0 0 4 4z" fill="#979797"/>
            <path d="M75.849 20.32A22 22 0 0 0 53.909 0c-6.88 0-12.18 2.62-16.13 8h-3.87a22 22 0 0 0-22 21.71 20 20 0 0 0 8 38.29h12a4 4 0 1 0 0-8h-12a12 12 0 0 1-2.81-23.62 4.38 4.38 0 0 0 3-4.82c-.1-.515-.163-1.036-.19-1.56a14 14 0 0 1 14-14h6a4 4 0 0 0 3.42-1.92C45.909 9.82 49.089 8 53.909 8a14 14 0 0 1 14 14v2a4 4 0 0 0 4 4 16 16 0 0 1 0 32h-8a4 4 0 1 0 0 8h8a24 24 0 0 0 3.94-47.68z" fill="#979797"/>
        </symbol>
        <symbol id="icon-plus" fill="none" viewBox="0 0 32 32">
            <path d="M16.12 31.99a2.672 2.672 0 0 1-2.677-2.66l-.1-26.653A2.66 2.66 0 0 1 16 .006a2.671 2.671 0 0 1 2.677 2.66l.1 26.654a2.66 2.66 0 0 1-2.657 2.67z" fill="#C4C4C4"/>
            <path d="M32 15.993a2.666 2.666 0 0 1-2.667 2.665H2.667a2.666 2.666 0 1 1 0-5.33h26.666A2.666 2.666 0 0 1 32 15.992z" fill="#C4C4C4"/>
        </symbol>
        <symbol id="icon-minus" fill="none" viewBox="0 0 32 4">
            <path d="M32 2c0 1.104-1.193 2-2.667 2H2.667C1.193 4 0 3.104 0 2s1.193-2 2.667-2h26.666C30.807 0 32 .896 32 2z" fill="#C4C4C4"/>
        </symbol>
        <symbol id="icon-dayMode" fill="none" viewBox="0 0 48 55">
            <path d="M21.205.043c1.447-.34 2.455 1.406 1.436 2.488-7.347 7.808-8.807 19.61-3.364 29.038 5.444 9.429 16.394 14.065 26.83 11.606 1.447-.341 2.455 1.405 1.436 2.488a27.495 27.495 0 0 1-6.288 4.972C28.1 58.229 11.283 53.722 3.689 40.569-3.905 27.416.602 10.597 13.755 3.003a27.5 27.5 0 0 1 7.45-2.96z" fill="#5F646C"/>
        </symbol>
        <symbol id="icon-darkMode" fill="none" viewBox="0 0 68 68">
            <path d="M34 48c7.732 0 14-6.268 14-14s-6.268-14-14-14-14 6.268-14 14 6.268 14 14 14z" stroke="#fff" stroke-width="4"/>
            <path d="M34 12V2M34 66V56M56 34h10M2 34h10M49.556 18.444l7.071-7.071M11.372 56.627l7.071-7.07M49.556 49.556l7.071 7.071M11.372 11.373l7.071 7.07" stroke="#fff" stroke-width="4" stroke-linecap="round"/>
        </symbol>
        <symbol id="icon-info" fill="none" viewBox="0 0 15 15">
            <path d="M9.472 3.302a.803.803 0 1 1-1.55-.415.803.803 0 0 1 1.55.415zM7.544 10.5l1.263-4.715c.234-.873-1.106-1.233-1.972-.814A3.366 3.366 0 0 0 5.5 6.135c.544-.24 1.76-.78 1.318.87L5.554 11.72c-.233.872 1.106 1.233 1.973.814a3.365 3.365 0 0 0 1.335-1.165c-.545.239-1.76.78-1.318-.87zM15 7.5a7.5 7.5 0 1 1-15 0 7.5 7.5 0 0 1 15 0zm-.833 0A6.666 6.666 0 1 0 7.5 14.167 6.674 6.674 0 0 0 14.167 7.5z"
                  fill="#8D9CB5"/>
        </symbol>
        <symbol id="icon-up-arrow" fill="none" viewBox="0 0 32 18">
            <path fill-rule="evenodd" clip-rule="evenodd" d="M17.39.576l14.035 14.016c.767.816.767 2.064 0 2.832a2.022 2.022 0 0 1-2.826 0L16 4.8 3.401 17.424c-.814.768-2.06.768-2.826 0-.767-.768-.767-2.016 0-2.832L14.563.576c.814-.768 2.06-.768 2.826 0z" fill="#C4C4C4"/>
        </symbol>

        <symbol id="icon-down-arrow" fill="none" viewBox="0 0 32 18">
            <path fill-rule="evenodd" clip-rule="evenodd" d="M17.39 17.424L31.424 3.408c.767-.816.767-2.064 0-2.832a2.022 2.022 0 0 0-2.826 0L16 13.2 3.401.576c-.814-.768-2.06-.768-2.826 0-.767.768-.767 2.016 0 2.832l13.988 14.016c.814.768 2.06.768 2.826 0z" fill="#C4C4C4"/>
        </symbol>

        <symbol id="icon-edit" fill="none" viewBox="0 0 32 32">
            <path d="M27.71.003a1.997 1.997 0 0 0-1.437.603L12.45 14.784l-.025.025c-.293.286-.39.542-.537.898-.152.368-.292.81-.413 1.32-.24 1.02-.386 2.275-.175 3.525.052.335.325.62.65.68 1.22.216 2.443.067 3.438-.18.497-.123.94-.28 1.3-.436.346-.15.596-.237.874-.538l.025-.025L31.41 5.875c.917-.94.703-2.472-.212-3.41l-1.6-1.641c-.457-.47-1.061-.765-1.662-.82-.076-.008-.15-.002-.225 0zm0 1.64c.045-.002.09-.005.138 0 .19.025.404.12.613.334.539.552 1.061 1.102 1.6 1.654.416.427.388.896.212 1.077L29.198 5.81l-2.875-2.948 1.075-1.103a.477.477 0 0 1 .313-.115zm-2.512 2.385l2.863 2.936-11.637 11.935c-.018.004-.166.12-.363.205a6.897 6.897 0 0 1-1.05.346c-.651.162-1.418.219-2.162.18-.037-.76.018-1.553.175-2.218.101-.429.226-.795.338-1.064.083-.202.197-.363.2-.385L25.198 4.028zM3.6 5.746c-1.98 0-3.6 1.66-3.6 3.692v18.87C0 30.34 1.62 32 3.6 32h18.398c1.98 0 3.6-1.66 3.6-3.692V15.591c.006-.433-.377-.832-.8-.832-.422 0-.806.399-.8.832v12.717c0 1.15-.878 2.051-2 2.051H3.6c-1.122 0-2-.9-2-2.05V9.438c0-1.151.878-2.052 2-2.052h13.999c.422.006.811-.387.811-.82 0-.434-.389-.827-.811-.82h-14z" fill="#C4C4C4"/>
        </symbol>
        <symbol id="icon-delete" fill="none" viewBox="0 0 32 32">
            <path d="M13.008 12.847c-.718 0-1.3.51-1.3 1.138v9.335c0 .629.582 1.138 1.3 1.138.718 0 1.3-.51 1.3-1.138v-9.334c0-.63-.582-1.14-1.3-1.14zM19.512 13c-.718 0-1.3.51-1.3 1.138v9.335c0 .629.582 1.138 1.3 1.138.719 0 1.301-.51 1.301-1.138v-9.334c0-.63-.582-1.139-1.3-1.139z" fill="#C4C4C4"/>
            <path d="M29.412 26.73V7.61h1.287c.719 0 1.301-.509 1.301-1.138 0-.628-.582-1.138-1.3-1.138h-6.623V3.369C24.077 1.511 22.35 0 20.227 0H12.07C9.948 0 8.22 1.511 8.22 3.369v1.965H1.3c-.718 0-1.3.51-1.3 1.138C0 7.101.582 7.61 1.3 7.61h1.586v19.12c0 2.91 2.696 5.27 6.022 5.27H23.39c3.327 0 6.023-2.36 6.023-5.27zM10.822 3.369c0-.602.56-1.092 1.248-1.092h8.157c.689 0 1.248.49 1.248 1.092v1.965H10.822V3.369zm-5.334 23.36V7.79H26.81v18.94c0 1.651-1.534 2.994-3.42 2.994H8.908c-1.886 0-3.42-1.343-3.42-2.993z" fill="#C4C4C4"/>
        </symbol>
        <symbol id="icon-user" fill="none" viewBox="0 0 32 32">
            <path d="M16 17.143c5.523 0 10-3.838 10-8.572C26 3.838 21.523 0 16 0S6 3.838 6 8.571c0 4.734 4.477 8.572 10 8.572zM24 19.428H8c-2.121.002-4.155.726-5.654 2.011C.846 22.725.002 24.468 0 26.286v4.571c0 .303.14.594.39.808.25.215.59.335.943.335h29.334c.353 0 .692-.12.942-.335.25-.214.391-.505.391-.808v-4.571c-.002-1.818-.846-3.561-2.346-4.847-1.5-1.285-3.533-2.009-5.654-2.01z" fill="#C4C4C4"/>
        </symbol>
        <symbol id="icon-logout" fill="none" viewBox="0 0 32 32">
            <path d="M29.848 23.929v1.026c0 1.94-1.493 3.423-3.33 3.537H17.22c0 1.027-.46 2.053-1.378 2.738-.803.684-1.837.913-2.87.684L2.64 29.404C1.148 28.949 0 27.58 0 25.983V6.018c0-1.597 1.033-3.08 2.64-3.423L12.972.085c1.033-.228 2.067 0 2.87.685.918.57 1.378 1.597 1.378 2.624h9.184c1.951 0 3.444 1.483 3.444 3.422v1.141c0 .685-.46 1.141-1.148 1.141-.69 0-1.148-.456-1.148-1.14V6.93c0-.684-.46-1.14-1.034-1.254H17.22V26.21h9.184c.688 0 1.148-.456 1.148-1.14v-1.141c0-.685.459-1.141 1.148-1.141.688 0 1.148.456 1.148 1.14zm1.722-8.899l-6.888-4.563c-.574-.342-1.263-.228-1.608.342 0 .114-.114.343-.114.57v1.142h-2.296a2.296 2.296 0 0 0-2.296 2.281v2.282a2.296 2.296 0 0 0 2.296 2.281h2.296v1.141c0 .685.574 1.141 1.148 1.141a.88.88 0 0 0 .574-.228l6.888-4.563c.574-.343.574-1.483 0-1.826z" fill="#C4C4C4"/>
        </symbol>
        <symbol id="icon-add-user" fill="none" viewBox="0 0 32 32" >
            <path d="M5.922 7.819c0-4.31 3.6-7.819 8.023-7.819s8.023 3.508 8.023 7.819c0 4.31-3.6 7.818-8.023 7.818S5.922 12.13 5.922 7.82zM27.887 24.966v5.86c0 .648-.54 1.174-1.205 1.174H1.205C.54 32 0 31.474 0 30.826v-5.86c0-2.183.873-4.237 2.455-5.783 1.587-1.546 3.69-2.397 5.934-2.4h.151l.132.073a10.89 10.89 0 0 0 5.273 1.358c1.851 0 3.675-.47 5.273-1.358l.132-.074h.151c2.24 0 4.348.855 5.934 2.4 1.58 1.547 2.452 3.6 2.452 5.784zM32 11.323v1.472h-3.4v3.313h-1.51v-3.313h-3.438v-1.472h3.438v-3.35h1.51v3.35H32z" fill="#C4C4C4"/>
        </symbol>
        <symbol id="icon-share" fill="none" viewBox="0 0 32 32" >
            <path fill-rule="evenodd" clip-rule="evenodd" d="M0 16c0 3.096 2.636 5.6 5.895 5.6a6.03 6.03 0 0 0 4.05-1.536l12.8 7.296-.008.24c0 2.432 2.071 4.4 4.631 4.4S32 30.032 32 27.6c0-2.432-2.071-4.4-4.632-4.4a4.77 4.77 0 0 0-2.981 1.032l-12.792-6.8c.127-.456.194-.936.194-1.432 0-.36-.033-.72-.1-1.064l12.648-7.208A4.727 4.727 0 0 0 27.367 8.8C29.928 8.8 32 6.832 32 4.4 32 1.968 29.929 0 27.368 0c-2.56 0-4.631 1.968-4.631 4.4 0 .224.017.448.05.656L9.92 11.904A6.077 6.077 0 0 0 5.895 10.4C2.635 10.4 0 12.904 0 16z" fill="#C4C4C4"/>
        </symbol>
        <symbol id="icon-navigate" fill="none" viewBox="0 0 32 32" >
            <path fill-rule="evenodd" clip-rule="evenodd" d="M29.333 29.333V18.661c0-.733.592-1.328 1.334-1.328A1.33 1.33 0 0 1 32 18.661v12.012c0 .733-.592 1.327-1.333 1.327H1.333c-.369 0-.702-.149-.943-.39A1.321 1.321 0 0 1 0 30.667V1.333A1.33 1.33 0 0 1 1.327 0H13.34c.733 0 1.328.592 1.328 1.333a1.33 1.33 0 0 1-1.328 1.334H2.667v26.666h26.666zm0-24.78l-17.15 17.149a1.332 1.332 0 0 1-1.887.002c-.52-.52-.52-1.366.002-1.888l17.15-17.15h-4.785c-.735 0-1.33-.591-1.33-1.333 0-.736.597-1.333 1.33-1.333h8.008A1.324 1.324 0 0 1 32 1.33v8.007c0 .735-.592 1.33-1.333 1.33a1.332 1.332 0 0 1-1.334-1.33V4.552z" fill="#C4C4C4"/>
        </symbol>
        <symbol id="icon-twitter" fill="none" viewBox="0 0 30 30">
            <path d="M29.271 3.441A10.79 10.79 0 0 1 25.814 4.6c1.244-.908 2.194-2.335 2.64-4.054a10.775 10.775 0 0 1-3.806 1.775C23.548.888 21.978 0 20.265 0c-3.322 0-5.997 3.296-5.997 7.336 0 .582.04 1.14.14 1.673-4.99-.297-9.404-3.22-12.37-7.672a8.672 8.672 0 0 0-.821 3.707c0 2.54 1.07 4.792 2.665 6.096-.964-.023-1.91-.365-2.711-.904v.081c0 3.564 2.08 6.525 4.808 7.207a4.966 4.966 0 0 1-1.574.241c-.384 0-.772-.027-1.136-.125.778 2.905 2.984 5.04 5.608 5.11-2.042 1.951-4.634 3.128-7.44 3.128-.493 0-.965-.027-1.437-.101 2.658 2.095 5.809 3.291 9.206 3.291 11.043 0 17.08-11.18 17.08-20.87 0-.325-.01-.638-.022-.949 1.19-1.033 2.192-2.323 3.008-3.808z" fill="#C4C4C4"/>
        </symbol>
        <symbol id="icon-github-alt" viewBox="0 0 32 32">
            <path d="M11.631 20.544c0 1.306-0.681 3.444-2.294 3.444s-2.294-2.137-2.294-3.444 0.681-3.444 2.294-3.444 2.294 2.137 2.294 3.444zM30 17.387c0 1.994-0.2 4.106-1.094 5.938-2.369 4.787-8.881 4.675-13.544 4.675-4.738 0-11.637 0.169-14.1-4.675-0.912-1.813-1.262-3.944-1.262-5.938 0-2.619 0.869-5.094 2.594-7.1-0.325-0.988-0.481-2.025-0.481-3.050 0-1.344 0.306-2.019 0.913-3.237 2.831 0 4.644 0.563 6.8 2.25 1.813-0.431 3.675-0.625 5.544-0.625 1.688 0 3.387 0.181 5.025 0.575 2.125-1.669 3.938-2.2 6.738-2.2 0.613 1.219 0.913 1.894 0.913 3.237 0 1.025-0.163 2.044-0.481 3.013 1.719 2.025 2.438 4.519 2.438 7.137zM25.981 20.544c0-2.744-1.669-5.162-4.594-5.162-1.181 0-2.313 0.213-3.5 0.375-0.931 0.144-1.863 0.2-2.819 0.2-0.95 0-1.881-0.056-2.819-0.2-1.169-0.162-2.313-0.375-3.5-0.375-2.925 0-4.594 2.419-4.594 5.162 0 5.488 5.025 6.331 9.4 6.331h3.013c4.394 0 9.413-0.837 9.413-6.331zM20.819 17.1c-1.613 0-2.294 2.137-2.294 3.444s0.681 3.444 2.294 3.444 2.294-2.137 2.294-3.444-0.681-3.444-2.294-3.444z"></path>
        </symbol>
        <symbol id="icon-telegram-plane" viewBox="0 0 32 32">
            <path d="M27.919 6.162l-4.225 19.925c-0.319 1.406-1.15 1.756-2.331 1.094l-6.438-4.744-3.106 2.988c-0.344 0.344-0.631 0.631-1.294 0.631l0.463-6.556 11.931-10.781c0.519-0.463-0.113-0.719-0.806-0.256l-14.75 9.287-6.35-1.988c-1.381-0.431-1.406-1.381 0.288-2.044l24.837-9.569c1.15-0.431 2.156 0.256 1.781 2.013z"></path>
        </symbol>
        <symbol id="icon-twitter-logo" viewBox="0 0 32 32">
            <path d="M32 6.079c-1.178 0.522-2.442 0.876-3.769 1.034 1.356-0.812 2.394-2.1 2.885-3.629-1.272 0.752-2.675 1.298-4.171 1.594-1.198-1.278-2.901-2.074-4.791-2.074-3.625 0-6.565 2.939-6.565 6.563 0 0.514 0.058 1.016 0.17 1.496-5.455-0.274-10.292-2.887-13.529-6.859-0.566 0.968-0.888 2.096-0.888 3.299 0 2.278 1.16 4.287 2.919 5.463-1.076-0.036-2.088-0.332-2.973-0.824v0.082c0 3.179 2.264 5.833 5.265 6.437-0.55 0.148-1.13 0.23-1.73 0.23-0.424 0-0.834-0.042-1.236-0.122 0.836 2.61 3.259 4.507 6.131 4.559-2.246 1.76-5.077 2.805-8.152 2.805-0.53 0-1.052-0.032-1.566-0.090 2.905 1.866 6.355 2.953 10.062 2.953 12.076 0 18.677-10.002 18.677-18.677l-0.022-0.85c1.29-0.92 2.405-2.076 3.283-3.391z"></path>
        </symbol>
        <!-- <symbol id="icon-twitter-logo" viewBox="0 0 32 32">
           <path d="M32 6.079c-1.178 0.522-2.442 0.876-3.769 1.034 1.356-0.812 2.394-2.1 2.885-3.629-1.272 0.752-2.675 1.298-4.171 1.594-1.198-1.278-2.901-2.074-4.791-2.074-3.625 0-6.565 2.939-6.565 6.563 0 0.514 0.058 1.016 0.17 1.496-5.455-0.274-10.292-2.887-13.529-6.859-0.566 0.968-0.888 2.096-0.888 3.299 0 2.278 1.16 4.287 2.919 5.463-1.076-0.036-2.088-0.332-2.973-0.824v0.082c0 3.179 2.264 5.833 5.265 6.437-0.55 0.148-1.13 0.23-1.73 0.23-0.424 0-0.834-0.042-1.236-0.122 0.836 2.61 3.259 4.507 6.131 4.559-2.246 1.76-5.077 2.805-8.152 2.805-0.53 0-1.052-0.032-1.566-0.090 2.905 1.866 6.355 2.953 10.062 2.953 12.076 0 18.677-10.002 18.677-18.677l-0.022-0.85c1.29-0.92 2.405-2.076 3.283-3.391z"></path>
       </symbol> -->
        <symbol id="icon-medium" viewBox="0 0 32 32">
            <path d="M4.469 8.894c0.037-0.369-0.106-0.738-0.381-0.987l-2.819-3.4v-0.506h8.762l6.775 14.856 5.956-14.856h8.356v0.506l-2.413 2.313c-0.206 0.156-0.313 0.419-0.269 0.675v17c-0.044 0.256 0.063 0.519 0.269 0.675l2.356 2.313v0.506h-11.856v-0.506l2.444-2.369c0.238-0.238 0.238-0.313 0.238-0.675v-13.738l-6.794 17.244h-0.919l-7.9-17.244v11.556c-0.069 0.488 0.094 0.975 0.438 1.325l3.175 3.85v0.506h-9v-0.5l3.175-3.856c0.338-0.35 0.494-0.844 0.406-1.325v-13.363z"></path>
        </symbol>
        <symbol id="icon-linkedin" viewBox="0 0 512 512">
            <path d="M475.074 0H36.926C16.53 0 0 16.531 0 36.926v438.148C0 495.47 16.531 512 36.926 512h438.148C495.47 512 512 495.469 512 475.074V36.926C512 16.53 495.469 0 475.074 0zM181.61 387h-62.347V199.426h62.347zm-31.172-213.188h-.406c-20.922 0-34.453-14.402-34.453-32.402 0-18.406 13.945-32.41 35.274-32.41 21.328 0 34.453 14.004 34.859 32.41 0 18-13.531 32.403-35.274 32.403zM406.423 387h-62.34V286.652c0-25.218-9.027-42.418-31.586-42.418-17.223 0-27.48 11.602-31.988 22.801-1.649 4.008-2.051 9.61-2.051 15.215V387h-62.344s.817-169.977 0-187.574h62.344v26.558c8.285-12.78 23.11-30.96 56.188-30.96 41.02 0 71.777 26.808 71.777 84.421zm0 0"/>
        </symbol>
    </defs>
</svg>
