<svg width="130" height="26" viewBox="0 0 130 26" fill="none" xmlns="http://www.w3.org/2000/svg">
<path d="M9.98 19.52H4.74L3.9 22H0.32L5.4 7.96H9.36L14.44 22H10.82L9.98 19.52ZM9.1 16.88L7.36 11.74L5.64 16.88H9.1ZM20.5261 22.16C19.5528 22.16 18.6861 21.9933 17.9261 21.66C17.1661 21.3267 16.5661 20.8733 16.1261 20.3C15.6861 19.7133 15.4394 19.06 15.3861 18.34H18.7661C18.8061 18.7267 18.9861 19.04 19.3061 19.28C19.6261 19.52 20.0194 19.64 20.4861 19.64C20.9128 19.64 21.2394 19.56 21.4661 19.4C21.7061 19.2267 21.8261 19.0067 21.8261 18.74C21.8261 18.42 21.6594 18.1867 21.3261 18.04C20.9928 17.88 20.4528 17.7067 19.7061 17.52C18.9061 17.3333 18.2394 17.14 17.7061 16.94C17.1728 16.7267 16.7128 16.4 16.3261 15.96C15.9394 15.5067 15.7461 14.9 15.7461 14.14C15.7461 13.5 15.9194 12.92 16.2661 12.4C16.6261 11.8667 17.1461 11.4467 17.8261 11.14C18.5194 10.8333 19.3394 10.68 20.2861 10.68C21.6861 10.68 22.7861 11.0267 23.5861 11.72C24.3994 12.4133 24.8661 13.3333 24.9861 14.48H21.8261C21.7728 14.0933 21.5994 13.7867 21.3061 13.56C21.0261 13.3333 20.6528 13.22 20.1861 13.22C19.7861 13.22 19.4794 13.3 19.2661 13.46C19.0528 13.6067 18.9461 13.8133 18.9461 14.08C18.9461 14.4 19.1128 14.64 19.4461 14.8C19.7928 14.96 20.3261 15.12 21.0461 15.28C21.8728 15.4933 22.5461 15.7067 23.0661 15.92C23.5861 16.12 24.0394 16.4533 24.4261 16.92C24.8261 17.3733 25.0328 17.9867 25.0461 18.76C25.0461 19.4133 24.8594 20 24.4861 20.52C24.1261 21.0267 23.5994 21.4267 22.9061 21.72C22.2261 22.0133 21.4328 22.16 20.5261 22.16ZM31.6784 22.16C30.7051 22.16 29.8384 21.9933 29.0784 21.66C28.3184 21.3267 27.7184 20.8733 27.2784 20.3C26.8384 19.7133 26.5918 19.06 26.5384 18.34H29.9184C29.9584 18.7267 30.1384 19.04 30.4584 19.28C30.7784 19.52 31.1718 19.64 31.6384 19.64C32.0651 19.64 32.3918 19.56 32.6184 19.4C32.8584 19.2267 32.9784 19.0067 32.9784 18.74C32.9784 18.42 32.8118 18.1867 32.4784 18.04C32.1451 17.88 31.6051 17.7067 30.8584 17.52C30.0584 17.3333 29.3918 17.14 28.8584 16.94C28.3251 16.7267 27.8651 16.4 27.4784 15.96C27.0918 15.5067 26.8984 14.9 26.8984 14.14C26.8984 13.5 27.0718 12.92 27.4184 12.4C27.7784 11.8667 28.2984 11.4467 28.9784 11.14C29.6718 10.8333 30.4918 10.68 31.4384 10.68C32.8384 10.68 33.9384 11.0267 34.7384 11.72C35.5518 12.4133 36.0184 13.3333 36.1384 14.48H32.9784C32.9251 14.0933 32.7518 13.7867 32.4584 13.56C32.1784 13.3333 31.8051 13.22 31.3384 13.22C30.9384 13.22 30.6318 13.3 30.4184 13.46C30.2051 13.6067 30.0984 13.8133 30.0984 14.08C30.0984 14.4 30.2651 14.64 30.5984 14.8C30.9451 14.96 31.4784 15.12 32.1984 15.28C33.0251 15.4933 33.6984 15.7067 34.2184 15.92C34.7384 16.12 35.1918 16.4533 35.5784 16.92C35.9784 17.3733 36.1851 17.9867 36.1984 18.76C36.1984 19.4133 36.0118 20 35.6384 20.52C35.2784 21.0267 34.7518 21.4267 34.0584 21.72C33.3784 22.0133 32.5851 22.16 31.6784 22.16ZM48.8108 16.24C48.8108 16.56 48.7908 16.8933 48.7508 17.24H41.0108C41.0641 17.9333 41.2841 18.4667 41.6708 18.84C42.0708 19.2 42.5574 19.38 43.1308 19.38C43.9841 19.38 44.5774 19.02 44.9108 18.3H48.5508C48.3641 19.0333 48.0241 19.6933 47.5308 20.28C47.0508 20.8667 46.4441 21.3267 45.7108 21.66C44.9774 21.9933 44.1574 22.16 43.2508 22.16C42.1574 22.16 41.1841 21.9267 40.3308 21.46C39.4774 20.9933 38.8108 20.3267 38.3308 19.46C37.8508 18.5933 37.6108 17.58 37.6108 16.42C37.6108 15.26 37.8441 14.2467 38.3108 13.38C38.7908 12.5133 39.4574 11.8467 40.3108 11.38C41.1641 10.9133 42.1441 10.68 43.2508 10.68C44.3308 10.68 45.2908 10.9067 46.1308 11.36C46.9708 11.8133 47.6241 12.46 48.0908 13.3C48.5708 14.14 48.8108 15.12 48.8108 16.24ZM45.3108 15.34C45.3108 14.7533 45.1108 14.2867 44.7108 13.94C44.3108 13.5933 43.8108 13.42 43.2108 13.42C42.6374 13.42 42.1508 13.5867 41.7508 13.92C41.3641 14.2533 41.1241 14.7267 41.0308 15.34H45.3108ZM56.835 19.1V22H55.095C53.855 22 52.8883 21.7 52.195 21.1C51.5017 20.4867 51.155 19.4933 51.155 18.12V13.68H49.795V10.84H51.155V8.12H54.575V10.84H56.815V13.68H54.575V18.16C54.575 18.4933 54.655 18.7333 54.815 18.88C54.975 19.0267 55.2417 19.1 55.615 19.1H56.835Z" fill="#EFCB30"/>
<path d="M74.64 7.96V22H71.22V13.58L68.08 22H65.32L62.16 13.56V22H58.74V7.96H62.78L66.72 17.68L70.62 7.96H74.64ZM76.4194 16.4C76.4194 15.2533 76.6327 14.2467 77.0594 13.38C77.4994 12.5133 78.0927 11.8467 78.8394 11.38C79.586 10.9133 80.4194 10.68 81.3394 10.68C82.126 10.68 82.8127 10.84 83.3994 11.16C83.9994 11.48 84.4594 11.9 84.7794 12.42V10.84H88.1994V22H84.7794V20.42C84.446 20.94 83.9794 21.36 83.3794 21.68C82.7927 22 82.106 22.16 81.3194 22.16C80.4127 22.16 79.586 21.9267 78.8394 21.46C78.0927 20.98 77.4994 20.3067 77.0594 19.44C76.6327 18.56 76.4194 17.5467 76.4194 16.4ZM84.7794 16.42C84.7794 15.5667 84.5394 14.8933 84.0594 14.4C83.5927 13.9067 83.0194 13.66 82.3394 13.66C81.6594 13.66 81.0794 13.9067 80.5994 14.4C80.1327 14.88 79.8994 15.5467 79.8994 16.4C79.8994 17.2533 80.1327 17.9333 80.5994 18.44C81.0794 18.9333 81.6594 19.18 82.3394 19.18C83.0194 19.18 83.5927 18.9333 84.0594 18.44C84.5394 17.9467 84.7794 17.2733 84.7794 16.42ZM97.4736 10.72C98.7803 10.72 99.8203 11.1467 100.594 12C101.38 12.84 101.774 14 101.774 15.48V22H98.3736V15.94C98.3736 15.1933 98.1803 14.6133 97.7936 14.2C97.4069 13.7867 96.8869 13.58 96.2336 13.58C95.5803 13.58 95.0603 13.7867 94.6736 14.2C94.2869 14.6133 94.0936 15.1933 94.0936 15.94V22H90.6736V10.84H94.0936V12.32C94.4403 11.8267 94.9069 11.44 95.4936 11.16C96.0803 10.8667 96.7403 10.72 97.4736 10.72ZM110.37 19.1V22H108.63C107.39 22 106.423 21.7 105.73 21.1C105.037 20.4867 104.69 19.4933 104.69 18.12V13.68H103.33V10.84H104.69V8.12H108.11V10.84H110.35V13.68H108.11V18.16C108.11 18.4933 108.19 18.7333 108.35 18.88C108.51 19.0267 108.777 19.1 109.15 19.1H110.37ZM115.695 7.2V22H112.275V7.2H115.695ZM128.694 16.24C128.694 16.56 128.674 16.8933 128.634 17.24H120.894C120.947 17.9333 121.167 18.4667 121.554 18.84C121.954 19.2 122.44 19.38 123.014 19.38C123.867 19.38 124.46 19.02 124.794 18.3H128.434C128.247 19.0333 127.907 19.6933 127.414 20.28C126.934 20.8667 126.327 21.3267 125.594 21.66C124.86 21.9933 124.04 22.16 123.134 22.16C122.04 22.16 121.067 21.9267 120.214 21.46C119.36 20.9933 118.694 20.3267 118.214 19.46C117.734 18.5933 117.494 17.58 117.494 16.42C117.494 15.26 117.727 14.2467 118.194 13.38C118.674 12.5133 119.34 11.8467 120.194 11.38C121.047 10.9133 122.027 10.68 123.134 10.68C124.214 10.68 125.174 10.9067 126.014 11.36C126.854 11.8133 127.507 12.46 127.974 13.3C128.454 14.14 128.694 15.12 128.694 16.24ZM125.194 15.34C125.194 14.7533 124.994 14.2867 124.594 13.94C124.194 13.5933 123.694 13.42 123.094 13.42C122.52 13.42 122.034 13.5867 121.634 13.92C121.247 14.2533 121.007 14.7267 120.914 15.34H125.194Z" fill="white"/>
<path d="M0 21.6665H126.389L130 24.2665H3.61111L0 21.6665Z" fill="#EFCB30"/>
</svg>
