<svg width="130" height="28" viewBox="0 0 130 28" fill="none" xmlns="http://www.w3.org/2000/svg">
<path d="M9.98001 21.0215H4.74001L3.90001 23.6923H0.320007L5.40001 8.57227H9.36001L14.44 23.6923H10.82L9.98001 21.0215ZM9.10001 18.1784L7.36001 12.643L5.64001 18.1784H9.10001ZM20.5261 23.8646C19.5528 23.8646 18.6861 23.685 17.9261 23.3261C17.1661 22.9672 16.5661 22.4789 16.1261 21.8615C15.6861 21.2297 15.4394 20.5261 15.3861 19.7507H18.7661C18.8061 20.1672 18.9861 20.5046 19.3061 20.763C19.6261 21.0215 20.0194 21.1507 20.4861 21.1507C20.9128 21.1507 21.2394 21.0646 21.4661 20.8923C21.7061 20.7056 21.8261 20.4687 21.8261 20.1815C21.8261 19.8369 21.6594 19.5856 21.3261 19.4277C20.9928 19.2553 20.4528 19.0687 19.7061 18.8677C18.9061 18.6666 18.2394 18.4584 17.7061 18.243C17.1728 18.0133 16.7128 17.6615 16.3261 17.1876C15.9394 16.6995 15.7461 16.0461 15.7461 15.2277C15.7461 14.5384 15.9194 13.9138 16.2661 13.3538C16.6261 12.7795 17.1461 12.3272 17.8261 11.9969C18.5194 11.6666 19.3394 11.5015 20.2861 11.5015C21.6861 11.5015 22.7861 11.8749 23.5861 12.6215C24.3994 13.3681 24.8661 14.3589 24.9861 15.5938H21.8261C21.7728 15.1774 21.5994 14.8472 21.3061 14.603C21.0261 14.3589 20.6528 14.2369 20.1861 14.2369C19.7861 14.2369 19.4794 14.323 19.2661 14.4953C19.0528 14.6533 18.9461 14.8758 18.9461 15.163C18.9461 15.5076 19.1128 15.7661 19.4461 15.9384C19.7928 16.1107 20.3261 16.283 21.0461 16.4553C21.8728 16.685 22.5461 16.9149 23.0661 17.1446C23.5861 17.36 24.0394 17.7189 24.4261 18.2215C24.8261 18.7097 25.0328 19.3702 25.0461 20.203C25.0461 20.9066 24.8594 21.5384 24.4861 22.0984C24.1261 22.6441 23.5994 23.0749 22.9061 23.3907C22.2261 23.7066 21.4328 23.8646 20.5261 23.8646ZM31.6784 23.8646C30.7051 23.8646 29.8384 23.685 29.0784 23.3261C28.3184 22.9672 27.7184 22.4789 27.2784 21.8615C26.8384 21.2297 26.5918 20.5261 26.5384 19.7507H29.9184C29.9584 20.1672 30.1384 20.5046 30.4584 20.763C30.7784 21.0215 31.1718 21.1507 31.6384 21.1507C32.0651 21.1507 32.3918 21.0646 32.6184 20.8923C32.8584 20.7056 32.9784 20.4687 32.9784 20.1815C32.9784 19.8369 32.8118 19.5856 32.4784 19.4277C32.1451 19.2553 31.6051 19.0687 30.8584 18.8677C30.0584 18.6666 29.3918 18.4584 28.8584 18.243C28.3251 18.0133 27.8651 17.6615 27.4784 17.1876C27.0918 16.6995 26.8984 16.0461 26.8984 15.2277C26.8984 14.5384 27.0718 13.9138 27.4184 13.3538C27.7784 12.7795 28.2984 12.3272 28.9784 11.9969C29.6718 11.6666 30.4918 11.5015 31.4384 11.5015C32.8384 11.5015 33.9384 11.8749 34.7384 12.6215C35.5518 13.3681 36.0184 14.3589 36.1384 15.5938H32.9784C32.9251 15.1774 32.7518 14.8472 32.4584 14.603C32.1784 14.3589 31.8051 14.2369 31.3384 14.2369C30.9384 14.2369 30.6318 14.323 30.4184 14.4953C30.2051 14.6533 30.0984 14.8758 30.0984 15.163C30.0984 15.5076 30.2651 15.7661 30.5984 15.9384C30.9451 16.1107 31.4784 16.283 32.1984 16.4553C33.0251 16.685 33.6984 16.9149 34.2184 17.1446C34.7384 17.36 35.1918 17.7189 35.5784 18.2215C35.9784 18.7097 36.1851 19.3702 36.1984 20.203C36.1984 20.9066 36.0118 21.5384 35.6384 22.0984C35.2784 22.6441 34.7518 23.0749 34.0584 23.3907C33.3784 23.7066 32.5851 23.8646 31.6784 23.8646ZM48.8108 17.4892C48.8108 17.8338 48.7908 18.1927 48.7508 18.5661H41.0108C41.0641 19.3127 41.2841 19.8872 41.6708 20.2892C42.0708 20.6769 42.5574 20.8707 43.1308 20.8707C43.9841 20.8707 44.5774 20.483 44.9108 19.7076H48.5508C48.3641 20.4974 48.0241 21.2081 47.5308 21.84C47.0508 22.4718 46.4441 22.9672 45.7108 23.3261C44.9774 23.685 44.1574 23.8646 43.2508 23.8646C42.1574 23.8646 41.1841 23.6133 40.3308 23.1107C39.4774 22.6081 38.8108 21.8902 38.3308 20.9569C37.8508 20.0235 37.6108 18.9323 37.6108 17.683C37.6108 16.4338 37.8441 15.3426 38.3108 14.4092C38.7908 13.4758 39.4574 12.7579 40.3108 12.2553C41.1641 11.7527 42.1441 11.5015 43.2508 11.5015C44.3308 11.5015 45.2908 11.7456 46.1308 12.2338C46.9708 12.722 47.6241 13.4184 48.0908 14.323C48.5708 15.2277 48.8108 16.283 48.8108 17.4892ZM45.3108 16.52C45.3108 15.8881 45.1108 15.3856 44.7108 15.0123C44.3108 14.6389 43.8108 14.4523 43.2108 14.4523C42.6374 14.4523 42.1508 14.6318 41.7508 14.9907C41.3641 15.3497 41.1241 15.8595 41.0308 16.52H45.3108ZM56.835 20.5692V23.6923H55.095C53.855 23.6923 52.8883 23.3692 52.195 22.723C51.5017 22.0626 51.155 20.9927 51.155 19.5138V14.7323H49.795V11.6738H51.155V8.74457H54.575V11.6738H56.815V14.7323H54.575V19.5569C54.575 19.9158 54.655 20.1743 54.815 20.3323C54.975 20.4902 55.2417 20.5692 55.615 20.5692H56.835Z" fill="#EFCC30"/>
<path d="M74.64 8.57237V23.6924H71.22V14.6247L68.08 23.6924H65.32L62.16 14.6031V23.6924H58.74V8.57237H62.78L66.72 19.0401L70.62 8.57237H74.64ZM76.4194 17.6616C76.4194 16.4267 76.6327 15.3427 77.0594 14.4093C77.4994 13.4759 78.0927 12.758 78.8394 12.2554C79.586 11.7528 80.4194 11.5016 81.3394 11.5016C82.126 11.5016 82.8127 11.6739 83.3994 12.0185C83.9994 12.3631 84.4594 12.8154 84.7794 13.3754V11.6739H88.1994V23.6924H84.7794V21.9908C84.446 22.5508 83.9794 23.0031 83.3794 23.3478C82.7927 23.6924 82.106 23.8647 81.3194 23.8647C80.4127 23.8647 79.586 23.6134 78.8394 23.1108C78.0927 22.5939 77.4994 21.8688 77.0594 20.9354C76.6327 19.9878 76.4194 18.8965 76.4194 17.6616ZM84.7794 17.6831C84.7794 16.7642 84.5394 16.039 84.0594 15.5078C83.5927 14.9765 83.0194 14.7108 82.3394 14.7108C81.6594 14.7108 81.0794 14.9765 80.5994 15.5078C80.1327 16.0247 79.8994 16.7427 79.8994 17.6616C79.8994 18.5805 80.1327 19.3128 80.5994 19.8585C81.0794 20.3898 81.6594 20.6554 82.3394 20.6554C83.0194 20.6554 83.5927 20.3898 84.0594 19.8585C84.5394 19.3273 84.7794 18.6021 84.7794 17.6831ZM97.4736 11.5447C98.7803 11.5447 99.8203 12.0042 100.594 12.9231C101.38 13.8278 101.774 15.077 101.774 16.6708V23.6924H98.3736V17.1662C98.3736 16.3621 98.1803 15.7375 97.7936 15.2924C97.4069 14.8473 96.8869 14.6247 96.2336 14.6247C95.5803 14.6247 95.0603 14.8473 94.6736 15.2924C94.2869 15.7375 94.0936 16.3621 94.0936 17.1662V23.6924H90.6736V11.6739H94.0936V13.2678C94.4403 12.7365 94.9069 12.3201 95.4936 12.0185C96.0803 11.7027 96.7403 11.5447 97.4736 11.5447ZM110.37 20.5693V23.6924H108.63C107.39 23.6924 106.423 23.3693 105.73 22.7231C105.037 22.0627 104.69 20.9928 104.69 19.5139V14.7324H103.33V11.6739H104.69V8.74468H108.11V11.6739H110.35V14.7324H108.11V19.557C108.11 19.9159 108.19 20.1744 108.35 20.3324C108.51 20.4904 108.777 20.5693 109.15 20.5693H110.37ZM115.695 7.75391V23.6924H112.275V7.75391H115.695ZM128.694 17.4893C128.694 17.8339 128.674 18.1928 128.634 18.5662H120.894C120.947 19.3128 121.167 19.8873 121.554 20.2893C121.954 20.677 122.44 20.8708 123.014 20.8708C123.867 20.8708 124.46 20.4831 124.794 19.7078H128.434C128.247 20.4975 127.907 21.2082 127.414 21.8401C126.934 22.4719 126.327 22.9673 125.594 23.3262C124.86 23.6852 124.04 23.8647 123.134 23.8647C122.04 23.8647 121.067 23.6134 120.214 23.1108C119.36 22.6082 118.694 21.8904 118.214 20.957C117.734 20.0236 117.494 18.9324 117.494 17.6831C117.494 16.4339 117.727 15.3427 118.194 14.4093C118.674 13.4759 119.34 12.758 120.194 12.2554C121.047 11.7528 122.027 11.5016 123.134 11.5016C124.214 11.5016 125.174 11.7457 126.014 12.2339C126.854 12.7221 127.507 13.4185 127.974 14.3231C128.454 15.2278 128.694 16.2831 128.694 17.4893ZM125.194 16.5201C125.194 15.8882 124.994 15.3857 124.594 15.0124C124.194 14.639 123.694 14.4524 123.094 14.4524C122.52 14.4524 122.034 14.6319 121.634 14.9908C121.247 15.3498 121.007 15.8596 120.914 16.5201H125.194Z" fill="white"/>
<path d="M0 23.3333H126.389L130 26.1333H3.61111L0 23.3333Z" fill="#EFCC30"/>
</svg>
