<svg width="654" height="86" viewBox="0 0 654 86" fill="none" xmlns="http://www.w3.org/2000/svg">
<path d="M2.81726 46.283C2.81726 40.5144 3.89049 35.4501 6.03695 31.0901C8.25049 26.7301 11.2354 23.3762 14.9917 21.0285C18.748 18.6808 22.9403 17.507 27.5686 17.507C31.5262 17.507 34.9806 18.3119 37.932 19.9218C40.9505 21.5316 43.2646 23.6445 44.8745 26.2605V18.3119H62.0797V74.4553H44.8745V66.5063C43.1975 69.1223 40.8498 71.2353 37.8314 72.8453C34.88 74.4553 31.4255 75.2603 27.468 75.2603C22.9068 75.2603 18.748 74.0863 14.9917 71.7383C11.2354 69.3243 8.25049 65.9363 6.03695 61.5765C3.89049 57.1495 2.81726 52.0516 2.81726 46.283ZM44.8745 46.3836C44.8745 42.0907 43.6671 38.7033 41.2523 36.2215C38.9046 33.7396 36.0203 32.4987 32.5994 32.4987C29.1785 32.4987 26.2606 33.7396 23.8458 36.2215C21.4982 38.6362 20.3243 41.9901 20.3243 46.283C20.3243 50.5759 21.4982 53.9968 23.8458 56.5458C26.2606 59.0276 29.1785 60.2685 32.5994 60.2685C36.0203 60.2685 38.9046 59.0276 41.2523 56.5458C43.6671 54.0639 44.8745 50.6765 44.8745 46.3836ZM97.3666 75.2603C92.47 75.2603 88.11 74.4213 84.2866 72.7453C80.4632 71.0683 77.4448 68.7873 75.2312 65.9033C73.0177 62.9516 71.7768 59.6648 71.5085 56.0427H88.5125C88.7137 57.9879 89.6192 59.5642 91.2291 60.7716C92.8389 61.979 94.8177 62.5827 97.1654 62.5827C99.3118 62.5827 100.955 62.1802 102.096 61.3753C103.303 60.5033 103.907 59.3965 103.907 58.055C103.907 56.4451 103.068 55.2713 101.391 54.5335C99.7143 53.7285 96.9977 52.8565 93.2414 51.9175C89.2168 50.9784 85.8629 50.0058 83.1798 48.9996C80.4968 47.9264 78.1826 46.283 76.2374 44.0695C74.2921 41.7888 73.3195 38.7368 73.3195 34.9135C73.3195 31.6938 74.1915 28.7759 75.9355 26.1599C77.7466 23.4768 80.3626 21.3639 83.7835 19.8211C87.2715 18.2784 91.3968 17.507 96.1592 17.507C103.202 17.507 108.736 19.251 112.761 22.739C116.852 26.227 119.2 30.8553 119.804 36.6239H103.907C103.638 34.6787 102.766 33.1359 101.291 31.9956C99.882 30.8553 98.0038 30.2851 95.6562 30.2851C93.6438 30.2851 92.1011 30.6876 91.0278 31.4925C89.9546 32.2304 89.418 33.2701 89.418 34.6116C89.418 36.2215 90.2565 37.4288 91.9334 38.2338C93.6774 39.0387 96.3605 39.8436 99.9826 40.6485C104.141 41.7218 107.529 42.795 110.145 43.8682C112.761 44.8744 115.041 46.5513 116.987 48.899C118.999 51.1796 120.039 54.2651 120.106 58.1556C120.106 61.4424 119.167 64.3933 117.288 67.0093C115.477 69.5583 112.828 71.5713 109.34 73.0463C105.919 74.5223 101.928 75.2603 97.3666 75.2603ZM153.471 75.2603C148.575 75.2603 144.215 74.4213 140.391 72.7453C136.568 71.0683 133.55 68.7873 131.336 65.9033C129.123 62.9516 127.882 59.6648 127.613 56.0427H144.617C144.819 57.9879 145.724 59.5642 147.334 60.7716C148.944 61.979 150.923 62.5827 153.27 62.5827C155.417 62.5827 157.06 62.1802 158.2 61.3753C159.408 60.5033 160.011 59.3965 160.011 58.055C160.011 56.4451 159.173 55.2713 157.496 54.5335C155.819 53.7285 153.103 52.8565 149.346 51.9175C145.322 50.9784 141.968 50.0058 139.285 48.9996C136.602 47.9264 134.287 46.283 132.342 44.0695C130.397 41.7888 129.424 38.7368 129.424 34.9135C129.424 31.6938 130.296 28.7759 132.04 26.1599C133.851 23.4768 136.467 21.3639 139.888 19.8211C143.376 18.2784 147.502 17.507 152.264 17.507C159.307 17.507 164.841 19.251 168.866 22.739C172.957 26.227 175.305 30.8553 175.909 36.6239H160.011C159.743 34.6787 158.871 33.1359 157.395 31.9956C155.987 30.8553 154.109 30.2851 151.761 30.2851C149.749 30.2851 148.206 30.6876 147.133 31.4925C146.059 32.2304 145.523 33.2701 145.523 34.6116C145.523 36.2215 146.361 37.4288 148.038 38.2338C149.782 39.0387 152.465 39.8436 156.087 40.6485C160.246 41.7218 163.634 42.795 166.25 43.8682C168.866 44.8744 171.146 46.5513 173.091 48.899C175.104 51.1796 176.143 54.2651 176.211 58.1556C176.211 61.4424 175.271 64.3933 173.393 67.0093C171.582 69.5583 168.933 71.5713 165.445 73.0463C162.024 74.5223 158.033 75.2603 153.471 75.2603ZM239.66 45.4781C239.66 47.0879 239.56 48.7648 239.359 50.5088H200.42C200.689 53.9968 201.795 56.6799 203.741 58.5581C205.753 60.3691 208.201 61.2747 211.086 61.2747C215.379 61.2747 218.363 59.4636 220.04 55.8415H238.352C237.413 59.5307 235.703 62.851 233.221 65.8023C230.806 68.7533 227.754 71.0683 224.065 72.7453C220.376 74.4213 216.251 75.2603 211.689 75.2603C206.189 75.2603 201.292 74.0863 196.999 71.7383C192.707 69.3913 189.353 66.0373 186.938 61.6771C184.523 57.3171 183.316 52.2193 183.316 46.3836C183.316 40.5479 184.49 35.4501 186.837 31.0901C189.252 26.7301 192.606 23.3762 196.899 21.0285C201.192 18.6808 206.122 17.507 211.689 17.507C217.123 17.507 221.952 18.6473 226.178 20.9279C230.404 23.2085 233.691 26.4618 236.038 30.6876C238.453 34.9135 239.66 39.8436 239.66 45.4781ZM222.053 40.9504C222.053 37.999 221.047 35.6513 219.034 33.9073C217.022 32.1633 214.507 31.2913 211.488 31.2913C208.604 31.2913 206.155 32.1298 204.143 33.8067C202.198 35.4836 200.991 37.8648 200.521 40.9504H222.053ZM280.028 59.8661V74.4553H271.275C265.037 74.4553 260.174 72.9463 256.686 69.9273C253.198 66.8423 251.454 61.8448 251.454 54.9359V32.5993H244.612V18.3119H251.454V4.62817H268.659V18.3119H279.928V32.5993H268.659V55.1371C268.659 56.8141 269.061 58.0215 269.866 58.7593C270.671 59.4971 272.013 59.8661 273.891 59.8661H280.028Z" fill="#EFCB30"/>
<path d="M369.601 3.8234V74.4554H352.396V32.0963L336.599 74.4554H322.714L306.817 31.9957V74.4554H289.612V3.8234H309.936L329.758 52.7225L349.378 3.8234H369.601ZM378.553 46.2831C378.553 40.5145 379.626 35.4502 381.773 31.0902C383.986 26.7302 386.971 23.3763 390.727 21.0286C394.484 18.6809 398.676 17.5071 403.304 17.5071C407.262 17.5071 410.716 18.312 413.668 19.9219C416.686 21.5317 419 23.6446 420.61 26.2606V18.312H437.815V74.4554H420.61V66.5064C418.933 69.1224 416.585 71.2354 413.567 72.8454C410.616 74.4554 407.161 75.2604 403.204 75.2604C398.642 75.2604 394.484 74.0864 390.727 71.7384C386.971 69.3244 383.986 65.9364 381.773 61.5766C379.626 57.1496 378.553 52.0517 378.553 46.2831ZM420.61 46.3837C420.61 42.0908 419.403 38.7034 416.988 36.2216C414.64 33.7397 411.756 32.4988 408.335 32.4988C404.914 32.4988 401.996 33.7397 399.581 36.2216C397.234 38.6363 396.06 41.9902 396.06 46.2831C396.06 50.576 397.234 53.9969 399.581 56.5459C401.996 59.0277 404.914 60.2686 408.335 60.2686C411.756 60.2686 414.64 59.0277 416.988 56.5459C419.403 54.064 420.61 50.6766 420.61 46.3837ZM484.472 17.7083C491.045 17.7083 496.277 19.8548 500.168 24.1477C504.125 28.3736 506.104 34.2092 506.104 41.6548V74.4554H488.999V43.9689C488.999 40.2126 488.027 37.2948 486.082 35.2154C484.136 33.136 481.52 32.0963 478.234 32.0963C474.947 32.0963 472.331 33.136 470.386 35.2154C468.44 37.2948 467.468 40.2126 467.468 43.9689V74.4554H450.263V18.312H467.468V25.7575C469.212 23.2757 471.559 21.3305 474.511 19.9219C477.462 18.4462 480.783 17.7083 484.472 17.7083ZM549.351 59.8662V74.4554H540.598C534.36 74.4554 529.497 72.9464 526.009 69.9274C522.521 66.8424 520.777 61.8449 520.777 54.936V32.5994H513.935V18.312H520.777V4.6283H537.982V18.312H549.251V32.5994H537.982V55.1372C537.982 56.8142 538.384 58.0216 539.189 58.7594C539.994 59.4972 541.336 59.8662 543.214 59.8662H549.351ZM576.14 0V74.4554H558.935V0H576.14ZM641.532 45.4782C641.532 47.088 641.432 48.7649 641.23 50.5089H602.292C602.561 53.9969 603.667 56.68 605.613 58.5582C607.625 60.3692 610.073 61.2748 612.958 61.2748C617.25 61.2748 620.235 59.4637 621.912 55.8416H640.224C639.285 59.5308 637.575 62.8511 635.093 65.8024C632.678 68.7534 629.626 71.0684 625.937 72.7454C622.248 74.4214 618.122 75.2604 613.561 75.2604C608.061 75.2604 603.164 74.0864 598.871 71.7384C594.578 69.3914 591.225 66.0374 588.81 61.6772C586.395 57.3172 585.188 52.2194 585.188 46.3837C585.188 40.548 586.362 35.4502 588.709 31.0902C591.124 26.7302 594.478 23.3763 598.771 21.0286C603.064 18.6809 607.994 17.5071 613.561 17.5071C618.994 17.5071 623.824 18.6474 628.05 20.928C632.276 23.2086 635.562 26.4619 637.91 30.6877C640.325 34.9136 641.532 39.8437 641.532 45.4782ZM623.925 40.9505C623.925 37.9991 622.918 35.6514 620.906 33.9074C618.894 32.1634 616.378 31.2914 613.36 31.2914C610.476 31.2914 608.027 32.1299 606.015 33.8068C604.07 35.4837 602.862 37.8649 602.393 40.9505H623.925Z" fill="white"/>
<path d="M0 72.4573H635.833L654 85.5373H18.1667L0 72.4573Z" fill="#EFCB30"/>
</svg>
