<svg width="1440" height="9656" viewBox="0 0 1440 9656" fill="none" xmlns="http://www.w3.org/2000/svg">
<rect width="1440" height="9656" fill="#1E1E1E"/>
<g opacity="0.95" filter="url(#filter0_i_457_2542)">
<path d="M341.728 200H78.8603C57.9453 200 37.8868 208.322 23.0977 223.135C8.30848 237.948 0 258.038 0 278.987V647.592C0.029973 664.31 5.35521 680.587 15.2092 694.081C25.0631 707.575 38.9376 717.589 54.8355 722.682C70.7334 727.775 87.8347 727.685 103.678 722.424C119.521 717.162 133.289 707.002 143 693.404L405.868 324.799C414.261 312.992 419.249 299.1 420.285 284.643C421.321 270.186 418.366 255.722 411.743 242.835C405.12 229.949 395.084 219.136 382.735 211.58C370.386 204.025 356.199 200.019 341.728 200ZM131.434 384.303C121.036 384.303 110.871 381.214 102.226 375.428C93.5799 369.642 86.8414 361.418 82.8623 351.796C78.8831 342.174 77.8419 331.586 79.8705 321.372C81.8991 311.157 86.9062 301.774 94.2588 294.41C101.611 287.046 110.979 282.03 121.177 279.999C131.376 277.967 141.946 279.01 151.553 282.995C161.159 286.981 169.37 293.73 175.147 302.39C180.924 311.049 184.007 321.23 184.007 331.645C184.007 345.61 178.468 359.004 168.609 368.879C158.75 378.755 145.377 384.303 131.434 384.303Z" fill="#1E1E1E"/>
</g>
<g opacity="0.95" filter="url(#filter1_i_457_2542)">
<path d="M538.853 699.95C574.967 699.95 604.244 670.303 604.244 633.731C604.244 597.16 574.967 567.513 538.853 567.513C502.739 567.513 473.462 597.16 473.462 633.731C473.462 670.303 502.739 699.95 538.853 699.95Z" fill="#1E1E1E"/>
</g>
<g opacity="0.95" filter="url(#filter2_i_457_2542)">
<path d="M788 278.947V647.369C788.03 667.07 780.709 686.07 767.475 700.638C754.241 715.206 736.051 724.288 716.476 726.102C696.902 727.915 677.358 722.328 661.684 710.438C646.01 698.548 635.338 681.215 631.764 661.842C630.925 657.063 630.486 652.221 630.451 647.369V587.369C630.311 570.704 624.913 554.511 615.029 541.108C605.145 527.706 591.283 517.783 575.427 512.758C559.572 507.734 542.537 507.868 526.762 513.139C510.987 518.411 497.281 528.55 487.607 542.105L446.644 599.737L380.736 692.369C368.166 708.387 349.902 718.914 329.766 721.746C309.629 724.579 289.179 719.498 272.695 707.566C256.211 695.635 244.968 677.777 241.32 657.729C237.672 637.681 241.901 616.995 253.122 600L515.703 231.579C522.96 221.88 532.349 213.986 543.141 208.51C553.933 203.034 565.839 200.122 577.935 200H709.225C730.118 200 750.154 208.318 764.927 223.123C779.7 237.929 788 258.009 788 278.947Z" fill="#1E1E1E"/>
</g>
<g opacity="0.95" filter="url(#filter3_i_457_2542)">
<path d="M341.728 1653H78.8603C57.9453 1653 37.8868 1661.32 23.0977 1676.13C8.30848 1690.95 0 1711.04 0 1731.99V2100.59C0.029973 2117.31 5.35521 2133.59 15.2092 2147.08C25.0631 2160.57 38.9376 2170.59 54.8355 2175.68C70.7334 2180.78 87.8347 2180.68 103.678 2175.42C119.521 2170.16 133.289 2160 143 2146.4L405.868 1777.8C414.261 1765.99 419.249 1752.1 420.285 1737.64C421.321 1723.19 418.366 1708.72 411.743 1695.84C405.12 1682.95 395.084 1672.14 382.735 1664.58C370.386 1657.02 356.199 1653.02 341.728 1653ZM131.434 1837.3C121.036 1837.3 110.871 1834.21 102.226 1828.43C93.5799 1822.64 86.8414 1814.42 82.8623 1804.8C78.8831 1795.17 77.8419 1784.59 79.8705 1774.37C81.8991 1764.16 86.9062 1754.77 94.2588 1747.41C101.611 1740.05 110.979 1735.03 121.177 1733C131.376 1730.97 141.946 1732.01 151.553 1736C161.159 1739.98 169.37 1746.73 175.147 1755.39C180.924 1764.05 184.007 1774.23 184.007 1784.64C184.007 1798.61 178.468 1812 168.609 1821.88C158.75 1831.75 145.377 1837.3 131.434 1837.3Z" fill="#1E1E1E"/>
</g>
<g opacity="0.95" filter="url(#filter4_i_457_2542)">
<path d="M538.853 2152.95C574.967 2152.95 604.244 2123.3 604.244 2086.73C604.244 2050.16 574.967 2020.51 538.853 2020.51C502.739 2020.51 473.462 2050.16 473.462 2086.73C473.462 2123.3 502.739 2152.95 538.853 2152.95Z" fill="#1E1E1E"/>
</g>
<g opacity="0.95" filter="url(#filter5_i_457_2542)">
<path d="M788 1731.95V2100.37C788.03 2120.07 780.709 2139.07 767.475 2153.64C754.241 2168.21 736.051 2177.29 716.476 2179.1C696.902 2180.91 677.358 2175.33 661.684 2163.44C646.01 2151.55 635.338 2134.21 631.764 2114.84C630.925 2110.06 630.486 2105.22 630.451 2100.37V2040.37C630.311 2023.7 624.913 2007.51 615.029 1994.11C605.145 1980.71 591.283 1970.78 575.427 1965.76C559.572 1960.73 542.537 1960.87 526.762 1966.14C510.987 1971.41 497.281 1981.55 487.607 1995.11L446.644 2052.74L380.736 2145.37C368.166 2161.39 349.902 2171.91 329.766 2174.75C309.629 2177.58 289.179 2172.5 272.695 2160.57C256.211 2148.63 244.968 2130.78 241.32 2110.73C237.672 2090.68 241.901 2070 253.122 2053L515.703 1684.58C522.96 1674.88 532.349 1666.99 543.141 1661.51C553.933 1656.03 565.839 1653.12 577.935 1653H709.225C730.118 1653 750.154 1661.32 764.927 1676.12C779.7 1690.93 788 1711.01 788 1731.95Z" fill="#1E1E1E"/>
</g>
<g opacity="0.95" filter="url(#filter6_i_457_2542)">
<path d="M341.728 3106H78.8603C57.9453 3106 37.8868 3114.32 23.0977 3129.13C8.30848 3143.95 0 3164.04 0 3184.99V3553.59C0.029973 3570.31 5.35521 3586.59 15.2092 3600.08C25.0631 3613.57 38.9376 3623.59 54.8355 3628.68C70.7334 3633.78 87.8347 3633.68 103.678 3628.42C119.521 3623.16 133.289 3613 143 3599.4L405.868 3230.8C414.261 3218.99 419.249 3205.1 420.285 3190.64C421.321 3176.19 418.366 3161.72 411.743 3148.84C405.12 3135.95 395.084 3125.14 382.735 3117.58C370.386 3110.02 356.199 3106.02 341.728 3106ZM131.434 3290.3C121.036 3290.3 110.871 3287.21 102.226 3281.43C93.5799 3275.64 86.8414 3267.42 82.8623 3257.8C78.8831 3248.17 77.8419 3237.59 79.8705 3227.37C81.8991 3217.16 86.9062 3207.77 94.2588 3200.41C101.611 3193.05 110.979 3188.03 121.177 3186C131.376 3183.97 141.946 3185.01 151.553 3189C161.159 3192.98 169.37 3199.73 175.147 3208.39C180.924 3217.05 184.007 3227.23 184.007 3237.64C184.007 3251.61 178.468 3265 168.609 3274.88C158.75 3284.75 145.377 3290.3 131.434 3290.3Z" fill="#1E1E1E"/>
</g>
<g opacity="0.95" filter="url(#filter7_i_457_2542)">
<path d="M538.853 3605.95C574.967 3605.95 604.244 3576.3 604.244 3539.73C604.244 3503.16 574.967 3473.51 538.853 3473.51C502.739 3473.51 473.462 3503.16 473.462 3539.73C473.462 3576.3 502.739 3605.95 538.853 3605.95Z" fill="#1E1E1E"/>
</g>
<g opacity="0.95" filter="url(#filter8_i_457_2542)">
<path d="M788 3184.95V3553.37C788.03 3573.07 780.709 3592.07 767.475 3606.64C754.241 3621.21 736.051 3630.29 716.476 3632.1C696.902 3633.91 677.358 3628.33 661.684 3616.44C646.01 3604.55 635.338 3587.21 631.764 3567.84C630.925 3563.06 630.486 3558.22 630.451 3553.37V3493.37C630.311 3476.7 624.913 3460.51 615.029 3447.11C605.145 3433.71 591.283 3423.78 575.427 3418.76C559.572 3413.73 542.537 3413.87 526.762 3419.14C510.987 3424.41 497.281 3434.55 487.607 3448.11L446.644 3505.74L380.736 3598.37C368.166 3614.39 349.902 3624.91 329.766 3627.75C309.629 3630.58 289.179 3625.5 272.695 3613.57C256.211 3601.63 244.968 3583.78 241.32 3563.73C237.672 3543.68 241.901 3523 253.122 3506L515.703 3137.58C522.96 3127.88 532.349 3119.99 543.141 3114.51C553.933 3109.03 565.839 3106.12 577.935 3106H709.225C730.118 3106 750.154 3114.32 764.927 3129.12C779.7 3143.93 788 3164.01 788 3184.95Z" fill="#1E1E1E"/>
</g>
<g opacity="0.95" filter="url(#filter9_i_457_2542)">
<path d="M341.728 4559H78.8603C57.9453 4559 37.8868 4567.32 23.0977 4582.13C8.30848 4596.95 0 4617.04 0 4637.99V5006.59C0.029973 5023.31 5.35521 5039.59 15.2092 5053.08C25.0631 5066.57 38.9376 5076.59 54.8355 5081.68C70.7334 5086.78 87.8347 5086.68 103.678 5081.42C119.521 5076.16 133.289 5066 143 5052.4L405.868 4683.8C414.261 4671.99 419.249 4658.1 420.285 4643.64C421.321 4629.19 418.366 4614.72 411.743 4601.84C405.12 4588.95 395.084 4578.14 382.735 4570.58C370.386 4563.02 356.199 4559.02 341.728 4559ZM131.434 4743.3C121.036 4743.3 110.871 4740.21 102.226 4734.43C93.5799 4728.64 86.8414 4720.42 82.8623 4710.8C78.8831 4701.17 77.8419 4690.59 79.8705 4680.37C81.8991 4670.16 86.9062 4660.77 94.2588 4653.41C101.611 4646.05 110.979 4641.03 121.177 4639C131.376 4636.97 141.946 4638.01 151.553 4642C161.159 4645.98 169.37 4652.73 175.147 4661.39C180.924 4670.05 184.007 4680.23 184.007 4690.64C184.007 4704.61 178.468 4718 168.609 4727.88C158.75 4737.75 145.377 4743.3 131.434 4743.3Z" fill="#1E1E1E"/>
</g>
<g opacity="0.95" filter="url(#filter10_i_457_2542)">
<path d="M538.853 5058.95C574.967 5058.95 604.244 5029.3 604.244 4992.73C604.244 4956.16 574.967 4926.51 538.853 4926.51C502.739 4926.51 473.462 4956.16 473.462 4992.73C473.462 5029.3 502.739 5058.95 538.853 5058.95Z" fill="#1E1E1E"/>
</g>
<g opacity="0.95" filter="url(#filter11_i_457_2542)">
<path d="M788 4637.95V5006.37C788.03 5026.07 780.709 5045.07 767.475 5059.64C754.241 5074.21 736.051 5083.29 716.476 5085.1C696.902 5086.91 677.358 5081.33 661.684 5069.44C646.01 5057.55 635.338 5040.21 631.764 5020.84C630.925 5016.06 630.486 5011.22 630.451 5006.37V4946.37C630.311 4929.7 624.913 4913.51 615.029 4900.11C605.145 4886.71 591.283 4876.78 575.427 4871.76C559.572 4866.73 542.537 4866.87 526.762 4872.14C510.987 4877.41 497.281 4887.55 487.607 4901.11L446.644 4958.74L380.736 5051.37C368.166 5067.39 349.902 5077.91 329.766 5080.75C309.629 5083.58 289.179 5078.5 272.695 5066.57C256.211 5054.63 244.968 5036.78 241.32 5016.73C237.672 4996.68 241.901 4976 253.122 4959L515.703 4590.58C522.96 4580.88 532.349 4572.99 543.141 4567.51C553.933 4562.03 565.839 4559.12 577.935 4559H709.225C730.118 4559 750.154 4567.32 764.927 4582.12C779.7 4596.93 788 4617.01 788 4637.95Z" fill="#1E1E1E"/>
</g>
<g opacity="0.95" filter="url(#filter12_i_457_2542)">
<path d="M341.728 6012H78.8603C57.9453 6012 37.8868 6020.32 23.0977 6035.13C8.30848 6049.95 0 6070.04 0 6090.99V6459.59C0.029973 6476.31 5.35521 6492.59 15.2092 6506.08C25.0631 6519.57 38.9376 6529.59 54.8355 6534.68C70.7334 6539.78 87.8347 6539.68 103.678 6534.42C119.521 6529.16 133.289 6519 143 6505.4L405.868 6136.8C414.261 6124.99 419.249 6111.1 420.285 6096.64C421.321 6082.19 418.366 6067.72 411.743 6054.84C405.12 6041.95 395.084 6031.14 382.735 6023.58C370.386 6016.02 356.199 6012.02 341.728 6012ZM131.434 6196.3C121.036 6196.3 110.871 6193.21 102.226 6187.43C93.5799 6181.64 86.8414 6173.42 82.8623 6163.8C78.8831 6154.17 77.8419 6143.59 79.8705 6133.37C81.8991 6123.16 86.9062 6113.77 94.2588 6106.41C101.611 6099.05 110.979 6094.03 121.177 6092C131.376 6089.97 141.946 6091.01 151.553 6095C161.159 6098.98 169.37 6105.73 175.147 6114.39C180.924 6123.05 184.007 6133.23 184.007 6143.64C184.007 6157.61 178.468 6171 168.609 6180.88C158.75 6190.75 145.377 6196.3 131.434 6196.3Z" fill="#1E1E1E"/>
</g>
<g opacity="0.95" filter="url(#filter13_i_457_2542)">
<path d="M538.853 6511.95C574.967 6511.95 604.244 6482.3 604.244 6445.73C604.244 6409.16 574.967 6379.51 538.853 6379.51C502.739 6379.51 473.462 6409.16 473.462 6445.73C473.462 6482.3 502.739 6511.95 538.853 6511.95Z" fill="#1E1E1E"/>
</g>
<g opacity="0.95" filter="url(#filter14_i_457_2542)">
<path d="M788 6090.95V6459.37C788.03 6479.07 780.709 6498.07 767.475 6512.64C754.241 6527.21 736.051 6536.29 716.476 6538.1C696.902 6539.91 677.358 6534.33 661.684 6522.44C646.01 6510.55 635.338 6493.21 631.764 6473.84C630.925 6469.06 630.486 6464.22 630.451 6459.37V6399.37C630.311 6382.7 624.913 6366.51 615.029 6353.11C605.145 6339.71 591.283 6329.78 575.427 6324.76C559.572 6319.73 542.537 6319.87 526.762 6325.14C510.987 6330.41 497.281 6340.55 487.607 6354.11L446.644 6411.74L380.736 6504.37C368.166 6520.39 349.902 6530.91 329.766 6533.75C309.629 6536.58 289.179 6531.5 272.695 6519.57C256.211 6507.63 244.968 6489.78 241.32 6469.73C237.672 6449.68 241.901 6429 253.122 6412L515.703 6043.58C522.96 6033.88 532.349 6025.99 543.141 6020.51C553.933 6015.03 565.839 6012.12 577.935 6012H709.225C730.118 6012 750.154 6020.32 764.927 6035.12C779.7 6049.93 788 6070.01 788 6090.95Z" fill="#1E1E1E"/>
</g>
<g opacity="0.95" filter="url(#filter15_i_457_2542)">
<path d="M341.728 7465H78.8603C57.9453 7465 37.8868 7473.32 23.0977 7488.13C8.30848 7502.95 0 7523.04 0 7543.99V7912.59C0.029973 7929.31 5.35521 7945.59 15.2092 7959.08C25.0631 7972.57 38.9376 7982.59 54.8355 7987.68C70.7334 7992.78 87.8347 7992.68 103.678 7987.42C119.521 7982.16 133.289 7972 143 7958.4L405.868 7589.8C414.261 7577.99 419.249 7564.1 420.285 7549.64C421.321 7535.19 418.366 7520.72 411.743 7507.84C405.12 7494.95 395.084 7484.14 382.735 7476.58C370.386 7469.02 356.199 7465.02 341.728 7465ZM131.434 7649.3C121.036 7649.3 110.871 7646.21 102.226 7640.43C93.5799 7634.64 86.8414 7626.42 82.8623 7616.8C78.8831 7607.17 77.8419 7596.59 79.8705 7586.37C81.8991 7576.16 86.9062 7566.77 94.2588 7559.41C101.611 7552.05 110.979 7547.03 121.177 7545C131.376 7542.97 141.946 7544.01 151.553 7548C161.159 7551.98 169.37 7558.73 175.147 7567.39C180.924 7576.05 184.007 7586.23 184.007 7596.64C184.007 7610.61 178.468 7624 168.609 7633.88C158.75 7643.75 145.377 7649.3 131.434 7649.3Z" fill="#1E1E1E"/>
</g>
<g opacity="0.95" filter="url(#filter16_i_457_2542)">
<path d="M538.853 7964.95C574.967 7964.95 604.244 7935.3 604.244 7898.73C604.244 7862.16 574.967 7832.51 538.853 7832.51C502.739 7832.51 473.462 7862.16 473.462 7898.73C473.462 7935.3 502.739 7964.95 538.853 7964.95Z" fill="#1E1E1E"/>
</g>
<g opacity="0.95" filter="url(#filter17_i_457_2542)">
<path d="M788 7543.95V7912.37C788.03 7932.07 780.709 7951.07 767.475 7965.64C754.241 7980.21 736.051 7989.29 716.476 7991.1C696.902 7992.91 677.358 7987.33 661.684 7975.44C646.01 7963.55 635.338 7946.21 631.764 7926.84C630.925 7922.06 630.486 7917.22 630.451 7912.37V7852.37C630.311 7835.7 624.913 7819.51 615.029 7806.11C605.145 7792.71 591.283 7782.78 575.427 7777.76C559.572 7772.73 542.537 7772.87 526.762 7778.14C510.987 7783.41 497.281 7793.55 487.607 7807.11L446.644 7864.74L380.736 7957.37C368.166 7973.39 349.902 7983.91 329.766 7986.75C309.629 7989.58 289.179 7984.5 272.695 7972.57C256.211 7960.63 244.968 7942.78 241.32 7922.73C237.672 7902.68 241.901 7882 253.122 7865L515.703 7496.58C522.96 7486.88 532.349 7478.99 543.141 7473.51C553.933 7468.03 565.839 7465.12 577.935 7465H709.225C730.118 7465 750.154 7473.32 764.927 7488.12C779.7 7502.93 788 7523.01 788 7543.95Z" fill="#1E1E1E"/>
</g>
<g opacity="0.95" filter="url(#filter18_i_457_2542)">
<path d="M341.728 8918H78.8603C57.9453 8918 37.8868 8926.32 23.0977 8941.13C8.30848 8955.95 0 8976.04 0 8996.99V9365.59C0.029973 9382.31 5.35521 9398.59 15.2092 9412.08C25.0631 9425.57 38.9376 9435.59 54.8355 9440.68C70.7334 9445.78 87.8347 9445.68 103.678 9440.42C119.521 9435.16 133.289 9425 143 9411.4L405.868 9042.8C414.261 9030.99 419.249 9017.1 420.285 9002.64C421.321 8988.19 418.366 8973.72 411.743 8960.84C405.12 8947.95 395.084 8937.14 382.735 8929.58C370.386 8922.02 356.199 8918.02 341.728 8918ZM131.434 9102.3C121.036 9102.3 110.871 9099.21 102.226 9093.43C93.5799 9087.64 86.8414 9079.42 82.8623 9069.8C78.8831 9060.17 77.8419 9049.59 79.8705 9039.37C81.8991 9029.16 86.9062 9019.77 94.2588 9012.41C101.611 9005.05 110.979 9000.03 121.177 8998C131.376 8995.97 141.946 8997.01 151.553 9001C161.159 9004.98 169.37 9011.73 175.147 9020.39C180.924 9029.05 184.007 9039.23 184.007 9049.64C184.007 9063.61 178.468 9077 168.609 9086.88C158.75 9096.75 145.377 9102.3 131.434 9102.3Z" fill="#1E1E1E"/>
</g>
<g opacity="0.95" filter="url(#filter19_i_457_2542)">
<path d="M538.853 9417.95C574.967 9417.95 604.244 9388.3 604.244 9351.73C604.244 9315.16 574.967 9285.51 538.853 9285.51C502.739 9285.51 473.462 9315.16 473.462 9351.73C473.462 9388.3 502.739 9417.95 538.853 9417.95Z" fill="#1E1E1E"/>
</g>
<g opacity="0.95" filter="url(#filter20_i_457_2542)">
<path d="M788 8996.95V9365.37C788.03 9385.07 780.709 9404.07 767.475 9418.64C754.241 9433.21 736.051 9442.29 716.476 9444.1C696.902 9445.91 677.358 9440.33 661.684 9428.44C646.01 9416.55 635.338 9399.21 631.764 9379.84C630.925 9375.06 630.486 9370.22 630.451 9365.37V9305.37C630.311 9288.7 624.913 9272.51 615.029 9259.11C605.145 9245.71 591.283 9235.78 575.427 9230.76C559.572 9225.73 542.537 9225.87 526.762 9231.14C510.987 9236.41 497.281 9246.55 487.607 9260.11L446.644 9317.74L380.736 9410.37C368.166 9426.39 349.902 9436.91 329.766 9439.75C309.629 9442.58 289.179 9437.5 272.695 9425.57C256.211 9413.63 244.968 9395.78 241.32 9375.73C237.672 9355.68 241.901 9335 253.122 9318L515.703 8949.58C522.96 8939.88 532.349 8931.99 543.141 8926.51C553.933 8921.03 565.839 8918.12 577.935 8918H709.225C730.118 8918 750.154 8926.32 764.927 8941.12C779.7 8955.93 788 8976.01 788 8996.95Z" fill="#1E1E1E"/>
</g>
<g opacity="0.95" filter="url(#filter21_i_457_2542)">
<path d="M993.728 926.437H730.86C709.945 926.437 689.887 934.759 675.098 949.572C660.308 964.384 652 984.475 652 1005.42V1374.03C652.03 1390.75 657.355 1407.02 667.209 1420.52C677.063 1434.01 690.938 1444.03 706.836 1449.12C722.733 1454.21 739.835 1454.12 755.678 1448.86C771.521 1443.6 785.289 1433.44 795 1419.84L1057.87 1051.24C1066.26 1039.43 1071.25 1025.54 1072.28 1011.08C1073.32 996.623 1070.37 982.159 1063.74 969.272C1057.12 956.386 1047.08 945.572 1034.73 938.017C1022.39 930.462 1008.2 926.455 993.728 926.437ZM783.434 1110.74C773.036 1110.74 762.871 1107.65 754.226 1101.86C745.58 1096.08 738.841 1087.85 734.862 1078.23C730.883 1068.61 729.842 1058.02 731.871 1047.81C733.899 1037.59 738.906 1028.21 746.259 1020.85C753.611 1013.48 762.979 1008.47 773.177 1006.44C783.376 1004.4 793.946 1005.45 803.553 1009.43C813.159 1013.42 821.37 1020.17 827.147 1028.83C832.924 1037.49 836.007 1047.67 836.007 1058.08C836.007 1072.05 830.468 1085.44 820.609 1095.32C810.75 1105.19 797.377 1110.74 783.434 1110.74Z" fill="#1E1E1E"/>
</g>
<g opacity="0.95" filter="url(#filter22_i_457_2542)">
<path d="M1190.85 1426.39C1226.97 1426.39 1256.24 1396.74 1256.24 1360.17C1256.24 1323.6 1226.97 1293.95 1190.85 1293.95C1154.74 1293.95 1125.46 1323.6 1125.46 1360.17C1125.46 1396.74 1154.74 1426.39 1190.85 1426.39Z" fill="#1E1E1E"/>
</g>
<g opacity="0.95" filter="url(#filter23_i_457_2542)">
<path d="M1440 1005.38V1373.81C1440.03 1393.51 1432.71 1412.51 1419.47 1427.07C1406.24 1441.64 1388.05 1450.73 1368.48 1452.54C1348.9 1454.35 1329.36 1448.76 1313.68 1436.88C1298.01 1424.99 1287.34 1407.65 1283.76 1388.28C1282.92 1383.5 1282.49 1378.66 1282.45 1373.81V1313.81C1282.31 1297.14 1276.91 1280.95 1267.03 1267.55C1257.14 1254.14 1243.28 1244.22 1227.43 1239.2C1211.57 1234.17 1194.54 1234.3 1178.76 1239.58C1162.99 1244.85 1149.28 1254.99 1139.61 1268.54L1098.64 1326.17L1032.74 1418.81C1020.17 1434.82 1001.9 1445.35 981.766 1448.18C961.629 1451.02 941.179 1445.93 924.695 1434C908.211 1422.07 896.968 1404.21 893.32 1384.17C889.672 1364.12 893.901 1343.43 905.122 1326.44L1167.7 958.016C1174.96 948.317 1184.35 940.423 1195.14 934.947C1205.93 929.47 1217.84 926.559 1229.93 926.437H1361.23C1382.12 926.437 1402.15 934.755 1416.93 949.56C1431.7 964.366 1440 984.446 1440 1005.38Z" fill="#1E1E1E"/>
</g>
<g opacity="0.95" filter="url(#filter24_i_457_2542)">
<path d="M993.728 2379.44H730.86C709.945 2379.44 689.887 2387.76 675.098 2402.57C660.308 2417.38 652 2437.48 652 2458.42V2827.03C652.03 2843.75 657.355 2860.02 667.209 2873.52C677.063 2887.01 690.938 2897.03 706.836 2902.12C722.733 2907.21 739.835 2907.12 755.678 2901.86C771.521 2896.6 785.289 2886.44 795 2872.84L1057.87 2504.24C1066.26 2492.43 1071.25 2478.54 1072.28 2464.08C1073.32 2449.62 1070.37 2435.16 1063.74 2422.27C1057.12 2409.39 1047.08 2398.57 1034.73 2391.02C1022.39 2383.46 1008.2 2379.46 993.728 2379.44ZM783.434 2563.74C773.036 2563.74 762.871 2560.65 754.226 2554.87C745.58 2549.08 738.841 2540.85 734.862 2531.23C730.883 2521.61 729.842 2511.02 731.871 2500.81C733.899 2490.59 738.906 2481.21 746.259 2473.85C753.611 2466.48 762.979 2461.47 773.177 2459.44C783.376 2457.4 793.946 2458.45 803.553 2462.43C813.159 2466.42 821.37 2473.17 827.147 2481.83C832.924 2490.49 836.007 2500.67 836.007 2511.08C836.007 2525.05 830.468 2538.44 820.609 2548.32C810.75 2558.19 797.377 2563.74 783.434 2563.74Z" fill="#1E1E1E"/>
</g>
<g opacity="0.95" filter="url(#filter25_i_457_2542)">
<path d="M1190.85 2879.39C1226.97 2879.39 1256.24 2849.74 1256.24 2813.17C1256.24 2776.6 1226.97 2746.95 1190.85 2746.95C1154.74 2746.95 1125.46 2776.6 1125.46 2813.17C1125.46 2849.74 1154.74 2879.39 1190.85 2879.39Z" fill="#1E1E1E"/>
</g>
<g opacity="0.95" filter="url(#filter26_i_457_2542)">
<path d="M1440 2458.38V2826.81C1440.03 2846.51 1432.71 2865.51 1419.47 2880.07C1406.24 2894.64 1388.05 2903.73 1368.48 2905.54C1348.9 2907.35 1329.36 2901.77 1313.68 2889.88C1298.01 2877.99 1287.34 2860.65 1283.76 2841.28C1282.92 2836.5 1282.49 2831.66 1282.45 2826.81V2766.81C1282.31 2750.14 1276.91 2733.95 1267.03 2720.55C1257.14 2707.14 1243.28 2697.22 1227.43 2692.2C1211.57 2687.17 1194.54 2687.3 1178.76 2692.58C1162.99 2697.85 1149.28 2707.99 1139.61 2721.54L1098.64 2779.17L1032.74 2871.81C1020.17 2887.82 1001.9 2898.35 981.766 2901.18C961.629 2904.02 941.179 2898.93 924.695 2887C908.211 2875.07 896.968 2857.21 893.32 2837.17C889.672 2817.12 893.901 2796.43 905.122 2779.44L1167.7 2411.02C1174.96 2401.32 1184.35 2393.42 1195.14 2387.95C1205.93 2382.47 1217.84 2379.56 1229.93 2379.44H1361.23C1382.12 2379.44 1402.15 2387.75 1416.93 2402.56C1431.7 2417.37 1440 2437.45 1440 2458.38Z" fill="#1E1E1E"/>
</g>
<g opacity="0.95" filter="url(#filter27_i_457_2542)">
<path d="M993.728 3832.44H730.86C709.945 3832.44 689.887 3840.76 675.098 3855.57C660.308 3870.38 652 3890.48 652 3911.42V4280.03C652.03 4296.75 657.355 4313.02 667.209 4326.52C677.063 4340.01 690.938 4350.03 706.836 4355.12C722.733 4360.21 739.835 4360.12 755.678 4354.86C771.521 4349.6 785.289 4339.44 795 4325.84L1057.87 3957.24C1066.26 3945.43 1071.25 3931.54 1072.28 3917.08C1073.32 3902.62 1070.37 3888.16 1063.74 3875.27C1057.12 3862.39 1047.08 3851.57 1034.73 3844.02C1022.39 3836.46 1008.2 3832.46 993.728 3832.44ZM783.434 4016.74C773.036 4016.74 762.871 4013.65 754.226 4007.87C745.58 4002.08 738.841 3993.85 734.862 3984.23C730.883 3974.61 729.842 3964.02 731.871 3953.81C733.899 3943.59 738.906 3934.21 746.259 3926.85C753.611 3919.48 762.979 3914.47 773.177 3912.44C783.376 3910.4 793.946 3911.45 803.553 3915.43C813.159 3919.42 821.37 3926.17 827.147 3934.83C832.924 3943.49 836.007 3953.67 836.007 3964.08C836.007 3978.05 830.468 3991.44 820.609 4001.32C810.75 4011.19 797.377 4016.74 783.434 4016.74Z" fill="#1E1E1E"/>
</g>
<g opacity="0.95" filter="url(#filter28_i_457_2542)">
<path d="M1190.85 4332.39C1226.97 4332.39 1256.24 4302.74 1256.24 4266.17C1256.24 4229.6 1226.97 4199.95 1190.85 4199.95C1154.74 4199.95 1125.46 4229.6 1125.46 4266.17C1125.46 4302.74 1154.74 4332.39 1190.85 4332.39Z" fill="#1E1E1E"/>
</g>
<g opacity="0.95" filter="url(#filter29_i_457_2542)">
<path d="M1440 3911.38V4279.81C1440.03 4299.51 1432.71 4318.51 1419.47 4333.07C1406.24 4347.64 1388.05 4356.73 1368.48 4358.54C1348.9 4360.35 1329.36 4354.77 1313.68 4342.88C1298.01 4330.99 1287.34 4313.65 1283.76 4294.28C1282.92 4289.5 1282.49 4284.66 1282.45 4279.81V4219.81C1282.31 4203.14 1276.91 4186.95 1267.03 4173.55C1257.14 4160.14 1243.28 4150.22 1227.43 4145.2C1211.57 4140.17 1194.54 4140.3 1178.76 4145.58C1162.99 4150.85 1149.28 4160.99 1139.61 4174.54L1098.64 4232.17L1032.74 4324.81C1020.17 4340.82 1001.9 4351.35 981.766 4354.18C961.629 4357.02 941.179 4351.93 924.695 4340C908.211 4328.07 896.968 4310.21 893.32 4290.17C889.672 4270.12 893.901 4249.43 905.122 4232.44L1167.7 3864.02C1174.96 3854.32 1184.35 3846.42 1195.14 3840.95C1205.93 3835.47 1217.84 3832.56 1229.93 3832.44H1361.23C1382.12 3832.44 1402.15 3840.75 1416.93 3855.56C1431.7 3870.37 1440 3890.45 1440 3911.38Z" fill="#1E1E1E"/>
</g>
<g opacity="0.95" filter="url(#filter30_i_457_2542)">
<path d="M993.728 5285.44H730.86C709.945 5285.44 689.887 5293.76 675.098 5308.57C660.308 5323.38 652 5343.48 652 5364.42V5733.03C652.03 5749.75 657.355 5766.02 667.209 5779.52C677.063 5793.01 690.938 5803.03 706.836 5808.12C722.733 5813.21 739.835 5813.12 755.678 5807.86C771.521 5802.6 785.289 5792.44 795 5778.84L1057.87 5410.24C1066.26 5398.43 1071.25 5384.54 1072.28 5370.08C1073.32 5355.62 1070.37 5341.16 1063.74 5328.27C1057.12 5315.39 1047.08 5304.57 1034.73 5297.02C1022.39 5289.46 1008.2 5285.46 993.728 5285.44ZM783.434 5469.74C773.036 5469.74 762.871 5466.65 754.226 5460.87C745.58 5455.08 738.841 5446.85 734.862 5437.23C730.883 5427.61 729.842 5417.02 731.871 5406.81C733.899 5396.59 738.906 5387.21 746.259 5379.85C753.611 5372.48 762.979 5367.47 773.177 5365.44C783.376 5363.4 793.946 5364.45 803.553 5368.43C813.159 5372.42 821.37 5379.17 827.147 5387.83C832.924 5396.49 836.007 5406.67 836.007 5417.08C836.007 5431.05 830.468 5444.44 820.609 5454.32C810.75 5464.19 797.377 5469.74 783.434 5469.74Z" fill="#1E1E1E"/>
</g>
<g opacity="0.95" filter="url(#filter31_i_457_2542)">
<path d="M1190.85 5785.39C1226.97 5785.39 1256.24 5755.74 1256.24 5719.17C1256.24 5682.6 1226.97 5652.95 1190.85 5652.95C1154.74 5652.95 1125.46 5682.6 1125.46 5719.17C1125.46 5755.74 1154.74 5785.39 1190.85 5785.39Z" fill="#1E1E1E"/>
</g>
<g opacity="0.95" filter="url(#filter32_i_457_2542)">
<path d="M1440 5364.38V5732.81C1440.03 5752.51 1432.71 5771.51 1419.47 5786.07C1406.24 5800.64 1388.05 5809.73 1368.48 5811.54C1348.9 5813.35 1329.36 5807.77 1313.68 5795.88C1298.01 5783.99 1287.34 5766.65 1283.76 5747.28C1282.92 5742.5 1282.49 5737.66 1282.45 5732.81V5672.81C1282.31 5656.14 1276.91 5639.95 1267.03 5626.55C1257.14 5613.14 1243.28 5603.22 1227.43 5598.2C1211.57 5593.17 1194.54 5593.3 1178.76 5598.58C1162.99 5603.85 1149.28 5613.99 1139.61 5627.54L1098.64 5685.17L1032.74 5777.81C1020.17 5793.82 1001.9 5804.35 981.766 5807.18C961.629 5810.02 941.179 5804.93 924.695 5793C908.211 5781.07 896.968 5763.21 893.32 5743.17C889.672 5723.12 893.901 5702.43 905.122 5685.44L1167.7 5317.02C1174.96 5307.32 1184.35 5299.42 1195.14 5293.95C1205.93 5288.47 1217.84 5285.56 1229.93 5285.44H1361.23C1382.12 5285.44 1402.15 5293.75 1416.93 5308.56C1431.7 5323.37 1440 5343.45 1440 5364.38Z" fill="#1E1E1E"/>
</g>
<g opacity="0.95" filter="url(#filter33_i_457_2542)">
<path d="M993.728 6738.44H730.86C709.945 6738.44 689.887 6746.76 675.098 6761.57C660.308 6776.38 652 6796.48 652 6817.42V7186.03C652.03 7202.75 657.355 7219.02 667.209 7232.52C677.063 7246.01 690.938 7256.03 706.836 7261.12C722.733 7266.21 739.835 7266.12 755.678 7260.86C771.521 7255.6 785.289 7245.44 795 7231.84L1057.87 6863.24C1066.26 6851.43 1071.25 6837.54 1072.28 6823.08C1073.32 6808.62 1070.37 6794.16 1063.74 6781.27C1057.12 6768.39 1047.08 6757.57 1034.73 6750.02C1022.39 6742.46 1008.2 6738.46 993.728 6738.44ZM783.434 6922.74C773.036 6922.74 762.871 6919.65 754.226 6913.87C745.58 6908.08 738.841 6899.85 734.862 6890.23C730.883 6880.61 729.842 6870.02 731.871 6859.81C733.899 6849.59 738.906 6840.21 746.259 6832.85C753.611 6825.48 762.979 6820.47 773.177 6818.44C783.376 6816.4 793.946 6817.45 803.553 6821.43C813.159 6825.42 821.37 6832.17 827.147 6840.83C832.924 6849.49 836.007 6859.67 836.007 6870.08C836.007 6884.05 830.468 6897.44 820.609 6907.32C810.75 6917.19 797.377 6922.74 783.434 6922.74Z" fill="#1E1E1E"/>
</g>
<g opacity="0.95" filter="url(#filter34_i_457_2542)">
<path d="M1190.85 7238.39C1226.97 7238.39 1256.24 7208.74 1256.24 7172.17C1256.24 7135.6 1226.97 7105.95 1190.85 7105.95C1154.74 7105.95 1125.46 7135.6 1125.46 7172.17C1125.46 7208.74 1154.74 7238.39 1190.85 7238.39Z" fill="#1E1E1E"/>
</g>
<g opacity="0.95" filter="url(#filter35_i_457_2542)">
<path d="M1440 6817.38V7185.81C1440.03 7205.51 1432.71 7224.51 1419.47 7239.07C1406.24 7253.64 1388.05 7262.73 1368.48 7264.54C1348.9 7266.35 1329.36 7260.77 1313.68 7248.88C1298.01 7236.99 1287.34 7219.65 1283.76 7200.28C1282.92 7195.5 1282.49 7190.66 1282.45 7185.81V7125.81C1282.31 7109.14 1276.91 7092.95 1267.03 7079.55C1257.14 7066.14 1243.28 7056.22 1227.43 7051.2C1211.57 7046.17 1194.54 7046.3 1178.76 7051.58C1162.99 7056.85 1149.28 7066.99 1139.61 7080.54L1098.64 7138.17L1032.74 7230.81C1020.17 7246.82 1001.9 7257.35 981.766 7260.18C961.629 7263.02 941.179 7257.93 924.695 7246C908.211 7234.07 896.968 7216.21 893.32 7196.17C889.672 7176.12 893.901 7155.43 905.122 7138.44L1167.7 6770.02C1174.96 6760.32 1184.35 6752.42 1195.14 6746.95C1205.93 6741.47 1217.84 6738.56 1229.93 6738.44H1361.23C1382.12 6738.44 1402.15 6746.75 1416.93 6761.56C1431.7 6776.37 1440 6796.45 1440 6817.38Z" fill="#1E1E1E"/>
</g>
<g opacity="0.95" filter="url(#filter36_i_457_2542)">
<path d="M993.728 8191.44H730.86C709.945 8191.44 689.887 8199.76 675.098 8214.57C660.308 8229.39 652 8249.48 652 8270.42V8639.03C652.03 8655.75 657.355 8672.02 667.209 8685.52C677.063 8699.01 690.938 8709.03 706.836 8714.12C722.733 8719.21 739.835 8719.12 755.678 8713.86C771.521 8708.6 785.289 8698.44 795 8684.84L1057.87 8316.24C1066.26 8304.43 1071.25 8290.54 1072.28 8276.08C1073.32 8261.62 1070.37 8247.16 1063.74 8234.27C1057.12 8221.39 1047.08 8210.57 1034.73 8203.02C1022.39 8195.46 1008.2 8191.46 993.728 8191.44ZM783.434 8375.74C773.036 8375.74 762.871 8372.65 754.226 8366.87C745.58 8361.08 738.841 8352.86 734.862 8343.23C730.883 8333.61 729.842 8323.02 731.871 8312.81C733.899 8302.59 738.906 8293.21 746.259 8285.85C753.611 8278.48 762.979 8273.47 773.177 8271.44C783.376 8269.4 793.946 8270.45 803.553 8274.43C813.159 8278.42 821.37 8285.17 827.147 8293.83C832.924 8302.49 836.007 8312.67 836.007 8323.08C836.007 8337.05 830.468 8350.44 820.609 8360.32C810.75 8370.19 797.377 8375.74 783.434 8375.74Z" fill="#1E1E1E"/>
</g>
<g opacity="0.95" filter="url(#filter37_i_457_2542)">
<path d="M1190.85 8691.39C1226.97 8691.39 1256.24 8661.74 1256.24 8625.17C1256.24 8588.6 1226.97 8558.95 1190.85 8558.95C1154.74 8558.95 1125.46 8588.6 1125.46 8625.17C1125.46 8661.74 1154.74 8691.39 1190.85 8691.39Z" fill="#1E1E1E"/>
</g>
<g opacity="0.95" filter="url(#filter38_i_457_2542)">
<path d="M1440 8270.38V8638.81C1440.03 8658.51 1432.71 8677.51 1419.47 8692.08C1406.24 8706.64 1388.05 8715.73 1368.48 8717.54C1348.9 8719.35 1329.36 8713.77 1313.68 8701.88C1298.01 8689.99 1287.34 8672.65 1283.76 8653.28C1282.92 8648.5 1282.49 8643.66 1282.45 8638.81V8578.81C1282.31 8562.14 1276.91 8545.95 1267.03 8532.55C1257.14 8519.14 1243.28 8509.22 1227.43 8504.2C1211.57 8499.17 1194.54 8499.31 1178.76 8504.58C1162.99 8509.85 1149.28 8519.99 1139.61 8533.54L1098.64 8591.17L1032.74 8683.81C1020.17 8699.82 1001.9 8710.35 981.766 8713.18C961.629 8716.02 941.179 8710.94 924.695 8699C908.211 8687.07 896.968 8669.21 893.32 8649.17C889.672 8629.12 893.901 8608.43 905.122 8591.44L1167.7 8223.02C1174.96 8213.32 1184.35 8205.42 1195.14 8199.95C1205.93 8194.47 1217.84 8191.56 1229.93 8191.44H1361.23C1382.12 8191.44 1402.15 8199.76 1416.93 8214.56C1431.7 8229.37 1440 8249.45 1440 8270.38Z" fill="#1E1E1E"/>
</g>
<defs>
<filter id="filter0_i_457_2542" x="0" y="200" width="432.487" height="538.437" filterUnits="userSpaceOnUse" color-interpolation-filters="sRGB">
<feFlood flood-opacity="0" result="BackgroundImageFix"/>
<feBlend mode="normal" in="SourceGraphic" in2="BackgroundImageFix" result="shape"/>
<feColorMatrix in="SourceAlpha" type="matrix" values="0 0 0 0 0 0 0 0 0 0 0 0 0 0 0 0 0 0 127 0" result="hardAlpha"/>
<feOffset dx="12" dy="12"/>
<feGaussianBlur stdDeviation="12"/>
<feComposite in2="hardAlpha" operator="arithmetic" k2="-1" k3="1"/>
<feColorMatrix type="matrix" values="0 0 0 0 0.100315 0 0 0 0 0.100315 0 0 0 0 0.100315 0 0 0 1 0"/>
<feBlend mode="normal" in2="shape" result="effect1_innerShadow_457_2542"/>
</filter>
<filter id="filter1_i_457_2542" x="473.462" y="567.513" width="142.782" height="144.437" filterUnits="userSpaceOnUse" color-interpolation-filters="sRGB">
<feFlood flood-opacity="0" result="BackgroundImageFix"/>
<feBlend mode="normal" in="SourceGraphic" in2="BackgroundImageFix" result="shape"/>
<feColorMatrix in="SourceAlpha" type="matrix" values="0 0 0 0 0 0 0 0 0 0 0 0 0 0 0 0 0 0 127 0" result="hardAlpha"/>
<feOffset dx="12" dy="12"/>
<feGaussianBlur stdDeviation="12"/>
<feComposite in2="hardAlpha" operator="arithmetic" k2="-1" k3="1"/>
<feColorMatrix type="matrix" values="0 0 0 0 0.100315 0 0 0 0 0.100315 0 0 0 0 0.100315 0 0 0 1 0"/>
<feBlend mode="normal" in2="shape" result="effect1_innerShadow_457_2542"/>
</filter>
<filter id="filter2_i_457_2542" x="240.042" y="200" width="559.958" height="538.437" filterUnits="userSpaceOnUse" color-interpolation-filters="sRGB">
<feFlood flood-opacity="0" result="BackgroundImageFix"/>
<feBlend mode="normal" in="SourceGraphic" in2="BackgroundImageFix" result="shape"/>
<feColorMatrix in="SourceAlpha" type="matrix" values="0 0 0 0 0 0 0 0 0 0 0 0 0 0 0 0 0 0 127 0" result="hardAlpha"/>
<feOffset dx="12" dy="12"/>
<feGaussianBlur stdDeviation="12"/>
<feComposite in2="hardAlpha" operator="arithmetic" k2="-1" k3="1"/>
<feColorMatrix type="matrix" values="0 0 0 0 0.100315 0 0 0 0 0.100315 0 0 0 0 0.100315 0 0 0 1 0"/>
<feBlend mode="normal" in2="shape" result="effect1_innerShadow_457_2542"/>
</filter>
<filter id="filter3_i_457_2542" x="0" y="1653" width="432.487" height="538.437" filterUnits="userSpaceOnUse" color-interpolation-filters="sRGB">
<feFlood flood-opacity="0" result="BackgroundImageFix"/>
<feBlend mode="normal" in="SourceGraphic" in2="BackgroundImageFix" result="shape"/>
<feColorMatrix in="SourceAlpha" type="matrix" values="0 0 0 0 0 0 0 0 0 0 0 0 0 0 0 0 0 0 127 0" result="hardAlpha"/>
<feOffset dx="12" dy="12"/>
<feGaussianBlur stdDeviation="12"/>
<feComposite in2="hardAlpha" operator="arithmetic" k2="-1" k3="1"/>
<feColorMatrix type="matrix" values="0 0 0 0 0.100315 0 0 0 0 0.100315 0 0 0 0 0.100315 0 0 0 1 0"/>
<feBlend mode="normal" in2="shape" result="effect1_innerShadow_457_2542"/>
</filter>
<filter id="filter4_i_457_2542" x="473.462" y="2020.51" width="142.782" height="144.437" filterUnits="userSpaceOnUse" color-interpolation-filters="sRGB">
<feFlood flood-opacity="0" result="BackgroundImageFix"/>
<feBlend mode="normal" in="SourceGraphic" in2="BackgroundImageFix" result="shape"/>
<feColorMatrix in="SourceAlpha" type="matrix" values="0 0 0 0 0 0 0 0 0 0 0 0 0 0 0 0 0 0 127 0" result="hardAlpha"/>
<feOffset dx="12" dy="12"/>
<feGaussianBlur stdDeviation="12"/>
<feComposite in2="hardAlpha" operator="arithmetic" k2="-1" k3="1"/>
<feColorMatrix type="matrix" values="0 0 0 0 0.100315 0 0 0 0 0.100315 0 0 0 0 0.100315 0 0 0 1 0"/>
<feBlend mode="normal" in2="shape" result="effect1_innerShadow_457_2542"/>
</filter>
<filter id="filter5_i_457_2542" x="240.042" y="1653" width="559.958" height="538.437" filterUnits="userSpaceOnUse" color-interpolation-filters="sRGB">
<feFlood flood-opacity="0" result="BackgroundImageFix"/>
<feBlend mode="normal" in="SourceGraphic" in2="BackgroundImageFix" result="shape"/>
<feColorMatrix in="SourceAlpha" type="matrix" values="0 0 0 0 0 0 0 0 0 0 0 0 0 0 0 0 0 0 127 0" result="hardAlpha"/>
<feOffset dx="12" dy="12"/>
<feGaussianBlur stdDeviation="12"/>
<feComposite in2="hardAlpha" operator="arithmetic" k2="-1" k3="1"/>
<feColorMatrix type="matrix" values="0 0 0 0 0.100315 0 0 0 0 0.100315 0 0 0 0 0.100315 0 0 0 1 0"/>
<feBlend mode="normal" in2="shape" result="effect1_innerShadow_457_2542"/>
</filter>
<filter id="filter6_i_457_2542" x="0" y="3106" width="432.487" height="538.437" filterUnits="userSpaceOnUse" color-interpolation-filters="sRGB">
<feFlood flood-opacity="0" result="BackgroundImageFix"/>
<feBlend mode="normal" in="SourceGraphic" in2="BackgroundImageFix" result="shape"/>
<feColorMatrix in="SourceAlpha" type="matrix" values="0 0 0 0 0 0 0 0 0 0 0 0 0 0 0 0 0 0 127 0" result="hardAlpha"/>
<feOffset dx="12" dy="12"/>
<feGaussianBlur stdDeviation="12"/>
<feComposite in2="hardAlpha" operator="arithmetic" k2="-1" k3="1"/>
<feColorMatrix type="matrix" values="0 0 0 0 0.100315 0 0 0 0 0.100315 0 0 0 0 0.100315 0 0 0 1 0"/>
<feBlend mode="normal" in2="shape" result="effect1_innerShadow_457_2542"/>
</filter>
<filter id="filter7_i_457_2542" x="473.462" y="3473.51" width="142.782" height="144.437" filterUnits="userSpaceOnUse" color-interpolation-filters="sRGB">
<feFlood flood-opacity="0" result="BackgroundImageFix"/>
<feBlend mode="normal" in="SourceGraphic" in2="BackgroundImageFix" result="shape"/>
<feColorMatrix in="SourceAlpha" type="matrix" values="0 0 0 0 0 0 0 0 0 0 0 0 0 0 0 0 0 0 127 0" result="hardAlpha"/>
<feOffset dx="12" dy="12"/>
<feGaussianBlur stdDeviation="12"/>
<feComposite in2="hardAlpha" operator="arithmetic" k2="-1" k3="1"/>
<feColorMatrix type="matrix" values="0 0 0 0 0.100315 0 0 0 0 0.100315 0 0 0 0 0.100315 0 0 0 1 0"/>
<feBlend mode="normal" in2="shape" result="effect1_innerShadow_457_2542"/>
</filter>
<filter id="filter8_i_457_2542" x="240.042" y="3106" width="559.958" height="538.437" filterUnits="userSpaceOnUse" color-interpolation-filters="sRGB">
<feFlood flood-opacity="0" result="BackgroundImageFix"/>
<feBlend mode="normal" in="SourceGraphic" in2="BackgroundImageFix" result="shape"/>
<feColorMatrix in="SourceAlpha" type="matrix" values="0 0 0 0 0 0 0 0 0 0 0 0 0 0 0 0 0 0 127 0" result="hardAlpha"/>
<feOffset dx="12" dy="12"/>
<feGaussianBlur stdDeviation="12"/>
<feComposite in2="hardAlpha" operator="arithmetic" k2="-1" k3="1"/>
<feColorMatrix type="matrix" values="0 0 0 0 0.100315 0 0 0 0 0.100315 0 0 0 0 0.100315 0 0 0 1 0"/>
<feBlend mode="normal" in2="shape" result="effect1_innerShadow_457_2542"/>
</filter>
<filter id="filter9_i_457_2542" x="0" y="4559" width="432.487" height="538.437" filterUnits="userSpaceOnUse" color-interpolation-filters="sRGB">
<feFlood flood-opacity="0" result="BackgroundImageFix"/>
<feBlend mode="normal" in="SourceGraphic" in2="BackgroundImageFix" result="shape"/>
<feColorMatrix in="SourceAlpha" type="matrix" values="0 0 0 0 0 0 0 0 0 0 0 0 0 0 0 0 0 0 127 0" result="hardAlpha"/>
<feOffset dx="12" dy="12"/>
<feGaussianBlur stdDeviation="12"/>
<feComposite in2="hardAlpha" operator="arithmetic" k2="-1" k3="1"/>
<feColorMatrix type="matrix" values="0 0 0 0 0.100315 0 0 0 0 0.100315 0 0 0 0 0.100315 0 0 0 1 0"/>
<feBlend mode="normal" in2="shape" result="effect1_innerShadow_457_2542"/>
</filter>
<filter id="filter10_i_457_2542" x="473.462" y="4926.51" width="142.782" height="144.437" filterUnits="userSpaceOnUse" color-interpolation-filters="sRGB">
<feFlood flood-opacity="0" result="BackgroundImageFix"/>
<feBlend mode="normal" in="SourceGraphic" in2="BackgroundImageFix" result="shape"/>
<feColorMatrix in="SourceAlpha" type="matrix" values="0 0 0 0 0 0 0 0 0 0 0 0 0 0 0 0 0 0 127 0" result="hardAlpha"/>
<feOffset dx="12" dy="12"/>
<feGaussianBlur stdDeviation="12"/>
<feComposite in2="hardAlpha" operator="arithmetic" k2="-1" k3="1"/>
<feColorMatrix type="matrix" values="0 0 0 0 0.100315 0 0 0 0 0.100315 0 0 0 0 0.100315 0 0 0 1 0"/>
<feBlend mode="normal" in2="shape" result="effect1_innerShadow_457_2542"/>
</filter>
<filter id="filter11_i_457_2542" x="240.042" y="4559" width="559.958" height="538.437" filterUnits="userSpaceOnUse" color-interpolation-filters="sRGB">
<feFlood flood-opacity="0" result="BackgroundImageFix"/>
<feBlend mode="normal" in="SourceGraphic" in2="BackgroundImageFix" result="shape"/>
<feColorMatrix in="SourceAlpha" type="matrix" values="0 0 0 0 0 0 0 0 0 0 0 0 0 0 0 0 0 0 127 0" result="hardAlpha"/>
<feOffset dx="12" dy="12"/>
<feGaussianBlur stdDeviation="12"/>
<feComposite in2="hardAlpha" operator="arithmetic" k2="-1" k3="1"/>
<feColorMatrix type="matrix" values="0 0 0 0 0.100315 0 0 0 0 0.100315 0 0 0 0 0.100315 0 0 0 1 0"/>
<feBlend mode="normal" in2="shape" result="effect1_innerShadow_457_2542"/>
</filter>
<filter id="filter12_i_457_2542" x="0" y="6012" width="432.487" height="538.437" filterUnits="userSpaceOnUse" color-interpolation-filters="sRGB">
<feFlood flood-opacity="0" result="BackgroundImageFix"/>
<feBlend mode="normal" in="SourceGraphic" in2="BackgroundImageFix" result="shape"/>
<feColorMatrix in="SourceAlpha" type="matrix" values="0 0 0 0 0 0 0 0 0 0 0 0 0 0 0 0 0 0 127 0" result="hardAlpha"/>
<feOffset dx="12" dy="12"/>
<feGaussianBlur stdDeviation="12"/>
<feComposite in2="hardAlpha" operator="arithmetic" k2="-1" k3="1"/>
<feColorMatrix type="matrix" values="0 0 0 0 0.100315 0 0 0 0 0.100315 0 0 0 0 0.100315 0 0 0 1 0"/>
<feBlend mode="normal" in2="shape" result="effect1_innerShadow_457_2542"/>
</filter>
<filter id="filter13_i_457_2542" x="473.462" y="6379.51" width="142.782" height="144.437" filterUnits="userSpaceOnUse" color-interpolation-filters="sRGB">
<feFlood flood-opacity="0" result="BackgroundImageFix"/>
<feBlend mode="normal" in="SourceGraphic" in2="BackgroundImageFix" result="shape"/>
<feColorMatrix in="SourceAlpha" type="matrix" values="0 0 0 0 0 0 0 0 0 0 0 0 0 0 0 0 0 0 127 0" result="hardAlpha"/>
<feOffset dx="12" dy="12"/>
<feGaussianBlur stdDeviation="12"/>
<feComposite in2="hardAlpha" operator="arithmetic" k2="-1" k3="1"/>
<feColorMatrix type="matrix" values="0 0 0 0 0.100315 0 0 0 0 0.100315 0 0 0 0 0.100315 0 0 0 1 0"/>
<feBlend mode="normal" in2="shape" result="effect1_innerShadow_457_2542"/>
</filter>
<filter id="filter14_i_457_2542" x="240.042" y="6012" width="559.958" height="538.437" filterUnits="userSpaceOnUse" color-interpolation-filters="sRGB">
<feFlood flood-opacity="0" result="BackgroundImageFix"/>
<feBlend mode="normal" in="SourceGraphic" in2="BackgroundImageFix" result="shape"/>
<feColorMatrix in="SourceAlpha" type="matrix" values="0 0 0 0 0 0 0 0 0 0 0 0 0 0 0 0 0 0 127 0" result="hardAlpha"/>
<feOffset dx="12" dy="12"/>
<feGaussianBlur stdDeviation="12"/>
<feComposite in2="hardAlpha" operator="arithmetic" k2="-1" k3="1"/>
<feColorMatrix type="matrix" values="0 0 0 0 0.100315 0 0 0 0 0.100315 0 0 0 0 0.100315 0 0 0 1 0"/>
<feBlend mode="normal" in2="shape" result="effect1_innerShadow_457_2542"/>
</filter>
<filter id="filter15_i_457_2542" x="0" y="7465" width="432.487" height="538.437" filterUnits="userSpaceOnUse" color-interpolation-filters="sRGB">
<feFlood flood-opacity="0" result="BackgroundImageFix"/>
<feBlend mode="normal" in="SourceGraphic" in2="BackgroundImageFix" result="shape"/>
<feColorMatrix in="SourceAlpha" type="matrix" values="0 0 0 0 0 0 0 0 0 0 0 0 0 0 0 0 0 0 127 0" result="hardAlpha"/>
<feOffset dx="12" dy="12"/>
<feGaussianBlur stdDeviation="12"/>
<feComposite in2="hardAlpha" operator="arithmetic" k2="-1" k3="1"/>
<feColorMatrix type="matrix" values="0 0 0 0 0.100315 0 0 0 0 0.100315 0 0 0 0 0.100315 0 0 0 1 0"/>
<feBlend mode="normal" in2="shape" result="effect1_innerShadow_457_2542"/>
</filter>
<filter id="filter16_i_457_2542" x="473.462" y="7832.51" width="142.782" height="144.437" filterUnits="userSpaceOnUse" color-interpolation-filters="sRGB">
<feFlood flood-opacity="0" result="BackgroundImageFix"/>
<feBlend mode="normal" in="SourceGraphic" in2="BackgroundImageFix" result="shape"/>
<feColorMatrix in="SourceAlpha" type="matrix" values="0 0 0 0 0 0 0 0 0 0 0 0 0 0 0 0 0 0 127 0" result="hardAlpha"/>
<feOffset dx="12" dy="12"/>
<feGaussianBlur stdDeviation="12"/>
<feComposite in2="hardAlpha" operator="arithmetic" k2="-1" k3="1"/>
<feColorMatrix type="matrix" values="0 0 0 0 0.100315 0 0 0 0 0.100315 0 0 0 0 0.100315 0 0 0 1 0"/>
<feBlend mode="normal" in2="shape" result="effect1_innerShadow_457_2542"/>
</filter>
<filter id="filter17_i_457_2542" x="240.042" y="7465" width="559.958" height="538.437" filterUnits="userSpaceOnUse" color-interpolation-filters="sRGB">
<feFlood flood-opacity="0" result="BackgroundImageFix"/>
<feBlend mode="normal" in="SourceGraphic" in2="BackgroundImageFix" result="shape"/>
<feColorMatrix in="SourceAlpha" type="matrix" values="0 0 0 0 0 0 0 0 0 0 0 0 0 0 0 0 0 0 127 0" result="hardAlpha"/>
<feOffset dx="12" dy="12"/>
<feGaussianBlur stdDeviation="12"/>
<feComposite in2="hardAlpha" operator="arithmetic" k2="-1" k3="1"/>
<feColorMatrix type="matrix" values="0 0 0 0 0.100315 0 0 0 0 0.100315 0 0 0 0 0.100315 0 0 0 1 0"/>
<feBlend mode="normal" in2="shape" result="effect1_innerShadow_457_2542"/>
</filter>
<filter id="filter18_i_457_2542" x="0" y="8918" width="432.487" height="538.437" filterUnits="userSpaceOnUse" color-interpolation-filters="sRGB">
<feFlood flood-opacity="0" result="BackgroundImageFix"/>
<feBlend mode="normal" in="SourceGraphic" in2="BackgroundImageFix" result="shape"/>
<feColorMatrix in="SourceAlpha" type="matrix" values="0 0 0 0 0 0 0 0 0 0 0 0 0 0 0 0 0 0 127 0" result="hardAlpha"/>
<feOffset dx="12" dy="12"/>
<feGaussianBlur stdDeviation="12"/>
<feComposite in2="hardAlpha" operator="arithmetic" k2="-1" k3="1"/>
<feColorMatrix type="matrix" values="0 0 0 0 0.100315 0 0 0 0 0.100315 0 0 0 0 0.100315 0 0 0 1 0"/>
<feBlend mode="normal" in2="shape" result="effect1_innerShadow_457_2542"/>
</filter>
<filter id="filter19_i_457_2542" x="473.462" y="9285.51" width="142.782" height="144.437" filterUnits="userSpaceOnUse" color-interpolation-filters="sRGB">
<feFlood flood-opacity="0" result="BackgroundImageFix"/>
<feBlend mode="normal" in="SourceGraphic" in2="BackgroundImageFix" result="shape"/>
<feColorMatrix in="SourceAlpha" type="matrix" values="0 0 0 0 0 0 0 0 0 0 0 0 0 0 0 0 0 0 127 0" result="hardAlpha"/>
<feOffset dx="12" dy="12"/>
<feGaussianBlur stdDeviation="12"/>
<feComposite in2="hardAlpha" operator="arithmetic" k2="-1" k3="1"/>
<feColorMatrix type="matrix" values="0 0 0 0 0.100315 0 0 0 0 0.100315 0 0 0 0 0.100315 0 0 0 1 0"/>
<feBlend mode="normal" in2="shape" result="effect1_innerShadow_457_2542"/>
</filter>
<filter id="filter20_i_457_2542" x="240.042" y="8918" width="559.958" height="538.437" filterUnits="userSpaceOnUse" color-interpolation-filters="sRGB">
<feFlood flood-opacity="0" result="BackgroundImageFix"/>
<feBlend mode="normal" in="SourceGraphic" in2="BackgroundImageFix" result="shape"/>
<feColorMatrix in="SourceAlpha" type="matrix" values="0 0 0 0 0 0 0 0 0 0 0 0 0 0 0 0 0 0 127 0" result="hardAlpha"/>
<feOffset dx="12" dy="12"/>
<feGaussianBlur stdDeviation="12"/>
<feComposite in2="hardAlpha" operator="arithmetic" k2="-1" k3="1"/>
<feColorMatrix type="matrix" values="0 0 0 0 0.100315 0 0 0 0 0.100315 0 0 0 0 0.100315 0 0 0 1 0"/>
<feBlend mode="normal" in2="shape" result="effect1_innerShadow_457_2542"/>
</filter>
<filter id="filter21_i_457_2542" x="652" y="926.437" width="432.487" height="538.437" filterUnits="userSpaceOnUse" color-interpolation-filters="sRGB">
<feFlood flood-opacity="0" result="BackgroundImageFix"/>
<feBlend mode="normal" in="SourceGraphic" in2="BackgroundImageFix" result="shape"/>
<feColorMatrix in="SourceAlpha" type="matrix" values="0 0 0 0 0 0 0 0 0 0 0 0 0 0 0 0 0 0 127 0" result="hardAlpha"/>
<feOffset dx="12" dy="12"/>
<feGaussianBlur stdDeviation="12"/>
<feComposite in2="hardAlpha" operator="arithmetic" k2="-1" k3="1"/>
<feColorMatrix type="matrix" values="0 0 0 0 0.100315 0 0 0 0 0.100315 0 0 0 0 0.100315 0 0 0 1 0"/>
<feBlend mode="normal" in2="shape" result="effect1_innerShadow_457_2542"/>
</filter>
<filter id="filter22_i_457_2542" x="1125.46" y="1293.95" width="142.782" height="144.437" filterUnits="userSpaceOnUse" color-interpolation-filters="sRGB">
<feFlood flood-opacity="0" result="BackgroundImageFix"/>
<feBlend mode="normal" in="SourceGraphic" in2="BackgroundImageFix" result="shape"/>
<feColorMatrix in="SourceAlpha" type="matrix" values="0 0 0 0 0 0 0 0 0 0 0 0 0 0 0 0 0 0 127 0" result="hardAlpha"/>
<feOffset dx="12" dy="12"/>
<feGaussianBlur stdDeviation="12"/>
<feComposite in2="hardAlpha" operator="arithmetic" k2="-1" k3="1"/>
<feColorMatrix type="matrix" values="0 0 0 0 0.100315 0 0 0 0 0.100315 0 0 0 0 0.100315 0 0 0 1 0"/>
<feBlend mode="normal" in2="shape" result="effect1_innerShadow_457_2542"/>
</filter>
<filter id="filter23_i_457_2542" x="892.042" y="926.437" width="559.958" height="538.437" filterUnits="userSpaceOnUse" color-interpolation-filters="sRGB">
<feFlood flood-opacity="0" result="BackgroundImageFix"/>
<feBlend mode="normal" in="SourceGraphic" in2="BackgroundImageFix" result="shape"/>
<feColorMatrix in="SourceAlpha" type="matrix" values="0 0 0 0 0 0 0 0 0 0 0 0 0 0 0 0 0 0 127 0" result="hardAlpha"/>
<feOffset dx="12" dy="12"/>
<feGaussianBlur stdDeviation="12"/>
<feComposite in2="hardAlpha" operator="arithmetic" k2="-1" k3="1"/>
<feColorMatrix type="matrix" values="0 0 0 0 0.100315 0 0 0 0 0.100315 0 0 0 0 0.100315 0 0 0 1 0"/>
<feBlend mode="normal" in2="shape" result="effect1_innerShadow_457_2542"/>
</filter>
<filter id="filter24_i_457_2542" x="652" y="2379.44" width="432.487" height="538.437" filterUnits="userSpaceOnUse" color-interpolation-filters="sRGB">
<feFlood flood-opacity="0" result="BackgroundImageFix"/>
<feBlend mode="normal" in="SourceGraphic" in2="BackgroundImageFix" result="shape"/>
<feColorMatrix in="SourceAlpha" type="matrix" values="0 0 0 0 0 0 0 0 0 0 0 0 0 0 0 0 0 0 127 0" result="hardAlpha"/>
<feOffset dx="12" dy="12"/>
<feGaussianBlur stdDeviation="12"/>
<feComposite in2="hardAlpha" operator="arithmetic" k2="-1" k3="1"/>
<feColorMatrix type="matrix" values="0 0 0 0 0.100315 0 0 0 0 0.100315 0 0 0 0 0.100315 0 0 0 1 0"/>
<feBlend mode="normal" in2="shape" result="effect1_innerShadow_457_2542"/>
</filter>
<filter id="filter25_i_457_2542" x="1125.46" y="2746.95" width="142.782" height="144.437" filterUnits="userSpaceOnUse" color-interpolation-filters="sRGB">
<feFlood flood-opacity="0" result="BackgroundImageFix"/>
<feBlend mode="normal" in="SourceGraphic" in2="BackgroundImageFix" result="shape"/>
<feColorMatrix in="SourceAlpha" type="matrix" values="0 0 0 0 0 0 0 0 0 0 0 0 0 0 0 0 0 0 127 0" result="hardAlpha"/>
<feOffset dx="12" dy="12"/>
<feGaussianBlur stdDeviation="12"/>
<feComposite in2="hardAlpha" operator="arithmetic" k2="-1" k3="1"/>
<feColorMatrix type="matrix" values="0 0 0 0 0.100315 0 0 0 0 0.100315 0 0 0 0 0.100315 0 0 0 1 0"/>
<feBlend mode="normal" in2="shape" result="effect1_innerShadow_457_2542"/>
</filter>
<filter id="filter26_i_457_2542" x="892.042" y="2379.44" width="559.958" height="538.437" filterUnits="userSpaceOnUse" color-interpolation-filters="sRGB">
<feFlood flood-opacity="0" result="BackgroundImageFix"/>
<feBlend mode="normal" in="SourceGraphic" in2="BackgroundImageFix" result="shape"/>
<feColorMatrix in="SourceAlpha" type="matrix" values="0 0 0 0 0 0 0 0 0 0 0 0 0 0 0 0 0 0 127 0" result="hardAlpha"/>
<feOffset dx="12" dy="12"/>
<feGaussianBlur stdDeviation="12"/>
<feComposite in2="hardAlpha" operator="arithmetic" k2="-1" k3="1"/>
<feColorMatrix type="matrix" values="0 0 0 0 0.100315 0 0 0 0 0.100315 0 0 0 0 0.100315 0 0 0 1 0"/>
<feBlend mode="normal" in2="shape" result="effect1_innerShadow_457_2542"/>
</filter>
<filter id="filter27_i_457_2542" x="652" y="3832.44" width="432.487" height="538.437" filterUnits="userSpaceOnUse" color-interpolation-filters="sRGB">
<feFlood flood-opacity="0" result="BackgroundImageFix"/>
<feBlend mode="normal" in="SourceGraphic" in2="BackgroundImageFix" result="shape"/>
<feColorMatrix in="SourceAlpha" type="matrix" values="0 0 0 0 0 0 0 0 0 0 0 0 0 0 0 0 0 0 127 0" result="hardAlpha"/>
<feOffset dx="12" dy="12"/>
<feGaussianBlur stdDeviation="12"/>
<feComposite in2="hardAlpha" operator="arithmetic" k2="-1" k3="1"/>
<feColorMatrix type="matrix" values="0 0 0 0 0.100315 0 0 0 0 0.100315 0 0 0 0 0.100315 0 0 0 1 0"/>
<feBlend mode="normal" in2="shape" result="effect1_innerShadow_457_2542"/>
</filter>
<filter id="filter28_i_457_2542" x="1125.46" y="4199.95" width="142.782" height="144.437" filterUnits="userSpaceOnUse" color-interpolation-filters="sRGB">
<feFlood flood-opacity="0" result="BackgroundImageFix"/>
<feBlend mode="normal" in="SourceGraphic" in2="BackgroundImageFix" result="shape"/>
<feColorMatrix in="SourceAlpha" type="matrix" values="0 0 0 0 0 0 0 0 0 0 0 0 0 0 0 0 0 0 127 0" result="hardAlpha"/>
<feOffset dx="12" dy="12"/>
<feGaussianBlur stdDeviation="12"/>
<feComposite in2="hardAlpha" operator="arithmetic" k2="-1" k3="1"/>
<feColorMatrix type="matrix" values="0 0 0 0 0.100315 0 0 0 0 0.100315 0 0 0 0 0.100315 0 0 0 1 0"/>
<feBlend mode="normal" in2="shape" result="effect1_innerShadow_457_2542"/>
</filter>
<filter id="filter29_i_457_2542" x="892.042" y="3832.44" width="559.958" height="538.437" filterUnits="userSpaceOnUse" color-interpolation-filters="sRGB">
<feFlood flood-opacity="0" result="BackgroundImageFix"/>
<feBlend mode="normal" in="SourceGraphic" in2="BackgroundImageFix" result="shape"/>
<feColorMatrix in="SourceAlpha" type="matrix" values="0 0 0 0 0 0 0 0 0 0 0 0 0 0 0 0 0 0 127 0" result="hardAlpha"/>
<feOffset dx="12" dy="12"/>
<feGaussianBlur stdDeviation="12"/>
<feComposite in2="hardAlpha" operator="arithmetic" k2="-1" k3="1"/>
<feColorMatrix type="matrix" values="0 0 0 0 0.100315 0 0 0 0 0.100315 0 0 0 0 0.100315 0 0 0 1 0"/>
<feBlend mode="normal" in2="shape" result="effect1_innerShadow_457_2542"/>
</filter>
<filter id="filter30_i_457_2542" x="652" y="5285.44" width="432.487" height="538.437" filterUnits="userSpaceOnUse" color-interpolation-filters="sRGB">
<feFlood flood-opacity="0" result="BackgroundImageFix"/>
<feBlend mode="normal" in="SourceGraphic" in2="BackgroundImageFix" result="shape"/>
<feColorMatrix in="SourceAlpha" type="matrix" values="0 0 0 0 0 0 0 0 0 0 0 0 0 0 0 0 0 0 127 0" result="hardAlpha"/>
<feOffset dx="12" dy="12"/>
<feGaussianBlur stdDeviation="12"/>
<feComposite in2="hardAlpha" operator="arithmetic" k2="-1" k3="1"/>
<feColorMatrix type="matrix" values="0 0 0 0 0.100315 0 0 0 0 0.100315 0 0 0 0 0.100315 0 0 0 1 0"/>
<feBlend mode="normal" in2="shape" result="effect1_innerShadow_457_2542"/>
</filter>
<filter id="filter31_i_457_2542" x="1125.46" y="5652.95" width="142.782" height="144.437" filterUnits="userSpaceOnUse" color-interpolation-filters="sRGB">
<feFlood flood-opacity="0" result="BackgroundImageFix"/>
<feBlend mode="normal" in="SourceGraphic" in2="BackgroundImageFix" result="shape"/>
<feColorMatrix in="SourceAlpha" type="matrix" values="0 0 0 0 0 0 0 0 0 0 0 0 0 0 0 0 0 0 127 0" result="hardAlpha"/>
<feOffset dx="12" dy="12"/>
<feGaussianBlur stdDeviation="12"/>
<feComposite in2="hardAlpha" operator="arithmetic" k2="-1" k3="1"/>
<feColorMatrix type="matrix" values="0 0 0 0 0.100315 0 0 0 0 0.100315 0 0 0 0 0.100315 0 0 0 1 0"/>
<feBlend mode="normal" in2="shape" result="effect1_innerShadow_457_2542"/>
</filter>
<filter id="filter32_i_457_2542" x="892.042" y="5285.44" width="559.958" height="538.437" filterUnits="userSpaceOnUse" color-interpolation-filters="sRGB">
<feFlood flood-opacity="0" result="BackgroundImageFix"/>
<feBlend mode="normal" in="SourceGraphic" in2="BackgroundImageFix" result="shape"/>
<feColorMatrix in="SourceAlpha" type="matrix" values="0 0 0 0 0 0 0 0 0 0 0 0 0 0 0 0 0 0 127 0" result="hardAlpha"/>
<feOffset dx="12" dy="12"/>
<feGaussianBlur stdDeviation="12"/>
<feComposite in2="hardAlpha" operator="arithmetic" k2="-1" k3="1"/>
<feColorMatrix type="matrix" values="0 0 0 0 0.100315 0 0 0 0 0.100315 0 0 0 0 0.100315 0 0 0 1 0"/>
<feBlend mode="normal" in2="shape" result="effect1_innerShadow_457_2542"/>
</filter>
<filter id="filter33_i_457_2542" x="652" y="6738.44" width="432.487" height="538.437" filterUnits="userSpaceOnUse" color-interpolation-filters="sRGB">
<feFlood flood-opacity="0" result="BackgroundImageFix"/>
<feBlend mode="normal" in="SourceGraphic" in2="BackgroundImageFix" result="shape"/>
<feColorMatrix in="SourceAlpha" type="matrix" values="0 0 0 0 0 0 0 0 0 0 0 0 0 0 0 0 0 0 127 0" result="hardAlpha"/>
<feOffset dx="12" dy="12"/>
<feGaussianBlur stdDeviation="12"/>
<feComposite in2="hardAlpha" operator="arithmetic" k2="-1" k3="1"/>
<feColorMatrix type="matrix" values="0 0 0 0 0.100315 0 0 0 0 0.100315 0 0 0 0 0.100315 0 0 0 1 0"/>
<feBlend mode="normal" in2="shape" result="effect1_innerShadow_457_2542"/>
</filter>
<filter id="filter34_i_457_2542" x="1125.46" y="7105.95" width="142.782" height="144.437" filterUnits="userSpaceOnUse" color-interpolation-filters="sRGB">
<feFlood flood-opacity="0" result="BackgroundImageFix"/>
<feBlend mode="normal" in="SourceGraphic" in2="BackgroundImageFix" result="shape"/>
<feColorMatrix in="SourceAlpha" type="matrix" values="0 0 0 0 0 0 0 0 0 0 0 0 0 0 0 0 0 0 127 0" result="hardAlpha"/>
<feOffset dx="12" dy="12"/>
<feGaussianBlur stdDeviation="12"/>
<feComposite in2="hardAlpha" operator="arithmetic" k2="-1" k3="1"/>
<feColorMatrix type="matrix" values="0 0 0 0 0.100315 0 0 0 0 0.100315 0 0 0 0 0.100315 0 0 0 1 0"/>
<feBlend mode="normal" in2="shape" result="effect1_innerShadow_457_2542"/>
</filter>
<filter id="filter35_i_457_2542" x="892.042" y="6738.44" width="559.958" height="538.437" filterUnits="userSpaceOnUse" color-interpolation-filters="sRGB">
<feFlood flood-opacity="0" result="BackgroundImageFix"/>
<feBlend mode="normal" in="SourceGraphic" in2="BackgroundImageFix" result="shape"/>
<feColorMatrix in="SourceAlpha" type="matrix" values="0 0 0 0 0 0 0 0 0 0 0 0 0 0 0 0 0 0 127 0" result="hardAlpha"/>
<feOffset dx="12" dy="12"/>
<feGaussianBlur stdDeviation="12"/>
<feComposite in2="hardAlpha" operator="arithmetic" k2="-1" k3="1"/>
<feColorMatrix type="matrix" values="0 0 0 0 0.100315 0 0 0 0 0.100315 0 0 0 0 0.100315 0 0 0 1 0"/>
<feBlend mode="normal" in2="shape" result="effect1_innerShadow_457_2542"/>
</filter>
<filter id="filter36_i_457_2542" x="652" y="8191.44" width="432.487" height="538.437" filterUnits="userSpaceOnUse" color-interpolation-filters="sRGB">
<feFlood flood-opacity="0" result="BackgroundImageFix"/>
<feBlend mode="normal" in="SourceGraphic" in2="BackgroundImageFix" result="shape"/>
<feColorMatrix in="SourceAlpha" type="matrix" values="0 0 0 0 0 0 0 0 0 0 0 0 0 0 0 0 0 0 127 0" result="hardAlpha"/>
<feOffset dx="12" dy="12"/>
<feGaussianBlur stdDeviation="12"/>
<feComposite in2="hardAlpha" operator="arithmetic" k2="-1" k3="1"/>
<feColorMatrix type="matrix" values="0 0 0 0 0.100315 0 0 0 0 0.100315 0 0 0 0 0.100315 0 0 0 1 0"/>
<feBlend mode="normal" in2="shape" result="effect1_innerShadow_457_2542"/>
</filter>
<filter id="filter37_i_457_2542" x="1125.46" y="8558.95" width="142.782" height="144.437" filterUnits="userSpaceOnUse" color-interpolation-filters="sRGB">
<feFlood flood-opacity="0" result="BackgroundImageFix"/>
<feBlend mode="normal" in="SourceGraphic" in2="BackgroundImageFix" result="shape"/>
<feColorMatrix in="SourceAlpha" type="matrix" values="0 0 0 0 0 0 0 0 0 0 0 0 0 0 0 0 0 0 127 0" result="hardAlpha"/>
<feOffset dx="12" dy="12"/>
<feGaussianBlur stdDeviation="12"/>
<feComposite in2="hardAlpha" operator="arithmetic" k2="-1" k3="1"/>
<feColorMatrix type="matrix" values="0 0 0 0 0.100315 0 0 0 0 0.100315 0 0 0 0 0.100315 0 0 0 1 0"/>
<feBlend mode="normal" in2="shape" result="effect1_innerShadow_457_2542"/>
</filter>
<filter id="filter38_i_457_2542" x="892.042" y="8191.44" width="559.958" height="538.437" filterUnits="userSpaceOnUse" color-interpolation-filters="sRGB">
<feFlood flood-opacity="0" result="BackgroundImageFix"/>
<feBlend mode="normal" in="SourceGraphic" in2="BackgroundImageFix" result="shape"/>
<feColorMatrix in="SourceAlpha" type="matrix" values="0 0 0 0 0 0 0 0 0 0 0 0 0 0 0 0 0 0 127 0" result="hardAlpha"/>
<feOffset dx="12" dy="12"/>
<feGaussianBlur stdDeviation="12"/>
<feComposite in2="hardAlpha" operator="arithmetic" k2="-1" k3="1"/>
<feColorMatrix type="matrix" values="0 0 0 0 0.100315 0 0 0 0 0.100315 0 0 0 0 0.100315 0 0 0 1 0"/>
<feBlend mode="normal" in2="shape" result="effect1_innerShadow_457_2542"/>
</filter>
</defs>
</svg>
