<svg width="768" height="9656" viewBox="0 0 768 9656" fill="none" xmlns="http://www.w3.org/2000/svg">
<rect width="768" height="9656" fill="#1E1E1E"/>
<g opacity="0.95" filter="url(#filter0_i_582_4224)">
<path d="M263.668 160H60.8465C44.709 160 29.2325 166.421 17.8215 177.85C6.4106 189.279 0 204.781 0 220.944V505.35C0.0231264 518.249 4.13194 530.808 11.735 541.22C19.3381 551.631 30.0432 559.358 42.3096 563.288C54.576 567.217 67.771 567.148 79.9952 563.088C92.2194 559.029 102.842 551.189 110.335 540.698L313.157 256.292C319.633 247.182 323.481 236.463 324.281 225.308C325.08 214.154 322.8 202.994 317.69 193.051C312.58 183.108 304.836 174.765 295.308 168.935C285.78 163.106 274.834 160.014 263.668 160ZM101.411 302.203C93.388 302.203 85.5453 299.82 78.8746 295.356C72.2038 290.891 67.0045 284.546 63.9343 277.122C60.8641 269.698 60.0608 261.528 61.626 253.647C63.1912 245.766 67.0546 238.526 72.7276 232.844C78.4006 227.162 85.6285 223.292 93.4972 221.725C101.366 220.157 109.522 220.962 116.934 224.037C124.346 227.112 130.682 232.32 135.139 239.001C139.596 245.683 141.975 253.538 141.975 261.574C141.975 272.349 137.702 282.683 130.094 290.303C122.487 297.922 112.169 302.203 101.411 302.203Z" fill="#1E1E1E"/>
</g>
<g opacity="0.95" filter="url(#filter1_i_582_4224)">
<path d="M415.765 545.748C443.63 545.748 466.219 522.873 466.219 494.656C466.219 466.438 443.63 443.563 415.765 443.563C387.9 443.563 365.312 466.438 365.312 494.656C365.312 522.873 387.9 545.748 415.765 545.748Z" fill="#1E1E1E"/>
</g>
<g opacity="0.95" filter="url(#filter2_i_582_4224)">
<path d="M608 220.914V505.178C608.023 520.379 602.375 535.039 592.164 546.279C581.953 557.519 567.918 564.527 552.814 565.926C537.711 567.325 522.632 563.014 510.538 553.841C498.445 544.667 490.21 531.293 487.453 516.345C486.805 512.658 486.466 508.922 486.44 505.178V458.883C486.332 446.025 482.166 433.531 474.54 423.19C466.914 412.85 456.218 405.193 443.985 401.316C431.751 397.44 418.607 397.543 406.436 401.61C394.264 405.677 383.689 413.501 376.225 423.96L344.619 468.427L293.766 539.899C284.068 552.258 269.976 560.38 254.439 562.566C238.902 564.751 223.124 560.831 210.405 551.625C197.686 542.419 189.012 528.64 186.197 513.171C183.382 497.703 186.645 481.743 195.302 468.63L397.903 184.365C403.503 176.882 410.747 170.791 419.074 166.566C427.401 162.341 436.587 160.094 445.92 160H547.22C563.34 160 578.799 166.418 590.198 177.841C601.596 189.265 608 204.758 608 220.914Z" fill="#1E1E1E"/>
</g>
<g opacity="0.95" filter="url(#filter3_i_582_4224)">
<path d="M263.668 1292H60.8465C44.709 1292 29.2325 1298.42 17.8215 1309.85C6.4106 1321.28 0 1336.78 0 1352.94V1637.35C0.0231264 1650.25 4.13194 1662.81 11.735 1673.22C19.3381 1683.63 30.0432 1691.36 42.3096 1695.29C54.576 1699.22 67.771 1699.15 79.9952 1695.09C92.2194 1691.03 102.842 1683.19 110.335 1672.7L313.157 1388.29C319.633 1379.18 323.481 1368.46 324.281 1357.31C325.08 1346.15 322.8 1334.99 317.69 1325.05C312.58 1315.11 304.836 1306.76 295.308 1300.94C285.78 1295.11 274.834 1292.01 263.668 1292ZM101.411 1434.2C93.388 1434.2 85.5453 1431.82 78.8746 1427.36C72.2038 1422.89 67.0045 1416.55 63.9343 1409.12C60.8641 1401.7 60.0608 1393.53 61.626 1385.65C63.1912 1377.77 67.0546 1370.53 72.7276 1364.84C78.4006 1359.16 85.6285 1355.29 93.4972 1353.72C101.366 1352.16 109.522 1352.96 116.934 1356.04C124.346 1359.11 130.682 1364.32 135.139 1371C139.596 1377.68 141.975 1385.54 141.975 1393.57C141.975 1404.35 137.702 1414.68 130.094 1422.3C122.487 1429.92 112.169 1434.2 101.411 1434.2Z" fill="#1E1E1E"/>
</g>
<g opacity="0.95" filter="url(#filter4_i_582_4224)">
<path d="M415.765 1677.75C443.63 1677.75 466.219 1654.87 466.219 1626.66C466.219 1598.44 443.63 1575.56 415.765 1575.56C387.9 1575.56 365.312 1598.44 365.312 1626.66C365.312 1654.87 387.9 1677.75 415.765 1677.75Z" fill="#1E1E1E"/>
</g>
<g opacity="0.95" filter="url(#filter5_i_582_4224)">
<path d="M608 1352.91V1637.18C608.023 1652.38 602.375 1667.04 592.164 1678.28C581.953 1689.52 567.918 1696.53 552.814 1697.93C537.711 1699.33 522.632 1695.01 510.538 1685.84C498.445 1676.67 490.21 1663.29 487.453 1648.35C486.805 1644.66 486.466 1640.92 486.44 1637.18V1590.88C486.332 1578.03 482.166 1565.53 474.54 1555.19C466.914 1544.85 456.218 1537.19 443.985 1533.32C431.751 1529.44 418.607 1529.54 406.436 1533.61C394.264 1537.68 383.689 1545.5 376.225 1555.96L344.619 1600.43L293.766 1671.9C284.068 1684.26 269.976 1692.38 254.439 1694.57C238.902 1696.75 223.124 1692.83 210.405 1683.62C197.686 1674.42 189.012 1660.64 186.197 1645.17C183.382 1629.7 186.645 1613.74 195.302 1600.63L397.903 1316.37C403.503 1308.88 410.747 1302.79 419.074 1298.57C427.401 1294.34 436.587 1292.09 445.92 1292H547.22C563.34 1292 578.799 1298.42 590.198 1309.84C601.596 1321.26 608 1336.76 608 1352.91Z" fill="#1E1E1E"/>
</g>
<g opacity="0.95" filter="url(#filter6_i_582_4224)">
<path d="M263.668 2424H60.8465C44.709 2424 29.2325 2430.42 17.8215 2441.85C6.4106 2453.28 0 2468.78 0 2484.94V2769.35C0.0231264 2782.25 4.13194 2794.81 11.735 2805.22C19.3381 2815.63 30.0432 2823.36 42.3096 2827.29C54.576 2831.22 67.771 2831.15 79.9952 2827.09C92.2194 2823.03 102.842 2815.19 110.335 2804.7L313.157 2520.29C319.633 2511.18 323.481 2500.46 324.281 2489.31C325.08 2478.15 322.8 2466.99 317.69 2457.05C312.58 2447.11 304.836 2438.76 295.308 2432.94C285.78 2427.11 274.834 2424.01 263.668 2424ZM101.411 2566.2C93.388 2566.2 85.5453 2563.82 78.8746 2559.36C72.2038 2554.89 67.0045 2548.55 63.9343 2541.12C60.8641 2533.7 60.0608 2525.53 61.626 2517.65C63.1912 2509.77 67.0546 2502.53 72.7276 2496.84C78.4006 2491.16 85.6285 2487.29 93.4972 2485.72C101.366 2484.16 109.522 2484.96 116.934 2488.04C124.346 2491.11 130.682 2496.32 135.139 2503C139.596 2509.68 141.975 2517.54 141.975 2525.57C141.975 2536.35 137.702 2546.68 130.094 2554.3C122.487 2561.92 112.169 2566.2 101.411 2566.2Z" fill="#1E1E1E"/>
</g>
<g opacity="0.95" filter="url(#filter7_i_582_4224)">
<path d="M415.765 2809.75C443.63 2809.75 466.219 2786.87 466.219 2758.66C466.219 2730.44 443.63 2707.56 415.765 2707.56C387.9 2707.56 365.312 2730.44 365.312 2758.66C365.312 2786.87 387.9 2809.75 415.765 2809.75Z" fill="#1E1E1E"/>
</g>
<g opacity="0.95" filter="url(#filter8_i_582_4224)">
<path d="M608 2484.91V2769.18C608.023 2784.38 602.375 2799.04 592.164 2810.28C581.953 2821.52 567.918 2828.53 552.814 2829.93C537.711 2831.33 522.632 2827.01 510.538 2817.84C498.445 2808.67 490.21 2795.29 487.453 2780.35C486.805 2776.66 486.466 2772.92 486.44 2769.18V2722.88C486.332 2710.03 482.166 2697.53 474.54 2687.19C466.914 2676.85 456.218 2669.19 443.985 2665.32C431.751 2661.44 418.607 2661.54 406.436 2665.61C394.264 2669.68 383.689 2677.5 376.225 2687.96L344.619 2732.43L293.766 2803.9C284.068 2816.26 269.976 2824.38 254.439 2826.57C238.902 2828.75 223.124 2824.83 210.405 2815.62C197.686 2806.42 189.012 2792.64 186.197 2777.17C183.382 2761.7 186.645 2745.74 195.302 2732.63L397.903 2448.37C403.503 2440.88 410.747 2434.79 419.074 2430.57C427.401 2426.34 436.587 2424.09 445.92 2424H547.22C563.34 2424 578.799 2430.42 590.198 2441.84C601.596 2453.26 608 2468.76 608 2484.91Z" fill="#1E1E1E"/>
</g>
<g opacity="0.95" filter="url(#filter9_i_582_4224)">
<path d="M263.668 3556H60.8465C44.709 3556 29.2325 3562.42 17.8215 3573.85C6.4106 3585.28 0 3600.78 0 3616.94V3901.35C0.0231264 3914.25 4.13194 3926.81 11.735 3937.22C19.3381 3947.63 30.0432 3955.36 42.3096 3959.29C54.576 3963.22 67.771 3963.15 79.9952 3959.09C92.2194 3955.03 102.842 3947.19 110.335 3936.7L313.157 3652.29C319.633 3643.18 323.481 3632.46 324.281 3621.31C325.08 3610.15 322.8 3598.99 317.69 3589.05C312.58 3579.11 304.836 3570.76 295.308 3564.94C285.78 3559.11 274.834 3556.01 263.668 3556ZM101.411 3698.2C93.388 3698.2 85.5453 3695.82 78.8746 3691.36C72.2038 3686.89 67.0045 3680.55 63.9343 3673.12C60.8641 3665.7 60.0608 3657.53 61.626 3649.65C63.1912 3641.77 67.0546 3634.53 72.7276 3628.84C78.4006 3623.16 85.6285 3619.29 93.4972 3617.72C101.366 3616.16 109.522 3616.96 116.934 3620.04C124.346 3623.11 130.682 3628.32 135.139 3635C139.596 3641.68 141.975 3649.54 141.975 3657.57C141.975 3668.35 137.702 3678.68 130.094 3686.3C122.487 3693.92 112.169 3698.2 101.411 3698.2Z" fill="#1E1E1E"/>
</g>
<g opacity="0.95" filter="url(#filter10_i_582_4224)">
<path d="M415.765 3941.75C443.63 3941.75 466.219 3918.87 466.219 3890.66C466.219 3862.44 443.63 3839.56 415.765 3839.56C387.9 3839.56 365.312 3862.44 365.312 3890.66C365.312 3918.87 387.9 3941.75 415.765 3941.75Z" fill="#1E1E1E"/>
</g>
<g opacity="0.95" filter="url(#filter11_i_582_4224)">
<path d="M608 3616.91V3901.18C608.023 3916.38 602.375 3931.04 592.164 3942.28C581.953 3953.52 567.918 3960.53 552.814 3961.93C537.711 3963.33 522.632 3959.01 510.538 3949.84C498.445 3940.67 490.21 3927.29 487.453 3912.35C486.805 3908.66 486.466 3904.92 486.44 3901.18V3854.88C486.332 3842.03 482.166 3829.53 474.54 3819.19C466.914 3808.85 456.218 3801.19 443.985 3797.32C431.751 3793.44 418.607 3793.54 406.436 3797.61C394.264 3801.68 383.689 3809.5 376.225 3819.96L344.619 3864.43L293.766 3935.9C284.068 3948.26 269.976 3956.38 254.439 3958.57C238.902 3960.75 223.124 3956.83 210.405 3947.62C197.686 3938.42 189.012 3924.64 186.197 3909.17C183.382 3893.7 186.645 3877.74 195.302 3864.63L397.903 3580.37C403.503 3572.88 410.747 3566.79 419.074 3562.57C427.401 3558.34 436.587 3556.09 445.92 3556H547.22C563.34 3556 578.799 3562.42 590.198 3573.84C601.596 3585.26 608 3600.76 608 3616.91Z" fill="#1E1E1E"/>
</g>
<g opacity="0.95" filter="url(#filter12_i_582_4224)">
<path d="M263.668 4688H60.8465C44.709 4688 29.2325 4694.42 17.8215 4705.85C6.4106 4717.28 0 4732.78 0 4748.94V5033.35C0.0231264 5046.25 4.13194 5058.81 11.735 5069.22C19.3381 5079.63 30.0432 5087.36 42.3096 5091.29C54.576 5095.22 67.771 5095.15 79.9952 5091.09C92.2194 5087.03 102.842 5079.19 110.335 5068.7L313.157 4784.29C319.633 4775.18 323.481 4764.46 324.281 4753.31C325.08 4742.15 322.8 4730.99 317.69 4721.05C312.58 4711.11 304.836 4702.76 295.308 4696.94C285.78 4691.11 274.834 4688.01 263.668 4688ZM101.411 4830.2C93.388 4830.2 85.5453 4827.82 78.8746 4823.36C72.2038 4818.89 67.0045 4812.55 63.9343 4805.12C60.8641 4797.7 60.0608 4789.53 61.626 4781.65C63.1912 4773.77 67.0546 4766.53 72.7276 4760.84C78.4006 4755.16 85.6285 4751.29 93.4972 4749.72C101.366 4748.16 109.522 4748.96 116.934 4752.04C124.346 4755.11 130.682 4760.32 135.139 4767C139.596 4773.68 141.975 4781.54 141.975 4789.57C141.975 4800.35 137.702 4810.68 130.094 4818.3C122.487 4825.92 112.169 4830.2 101.411 4830.2Z" fill="#1E1E1E"/>
</g>
<g opacity="0.95" filter="url(#filter13_i_582_4224)">
<path d="M415.765 5073.75C443.63 5073.75 466.219 5050.87 466.219 5022.66C466.219 4994.44 443.63 4971.56 415.765 4971.56C387.9 4971.56 365.312 4994.44 365.312 5022.66C365.312 5050.87 387.9 5073.75 415.765 5073.75Z" fill="#1E1E1E"/>
</g>
<g opacity="0.95" filter="url(#filter14_i_582_4224)">
<path d="M608 4748.91V5033.18C608.023 5048.38 602.375 5063.04 592.164 5074.28C581.953 5085.52 567.918 5092.53 552.814 5093.93C537.711 5095.33 522.632 5091.01 510.538 5081.84C498.445 5072.67 490.21 5059.29 487.453 5044.35C486.805 5040.66 486.466 5036.92 486.44 5033.18V4986.88C486.332 4974.03 482.166 4961.53 474.54 4951.19C466.914 4940.85 456.218 4933.19 443.985 4929.32C431.751 4925.44 418.607 4925.54 406.436 4929.61C394.264 4933.68 383.689 4941.5 376.225 4951.96L344.619 4996.43L293.766 5067.9C284.068 5080.26 269.976 5088.38 254.439 5090.57C238.902 5092.75 223.124 5088.83 210.405 5079.62C197.686 5070.42 189.012 5056.64 186.197 5041.17C183.382 5025.7 186.645 5009.74 195.302 4996.63L397.903 4712.37C403.503 4704.88 410.747 4698.79 419.074 4694.57C427.401 4690.34 436.587 4688.09 445.92 4688H547.22C563.34 4688 578.799 4694.42 590.198 4705.84C601.596 4717.26 608 4732.76 608 4748.91Z" fill="#1E1E1E"/>
</g>
<g opacity="0.95" filter="url(#filter15_i_582_4224)">
<path d="M263.668 5820H60.8465C44.709 5820 29.2325 5826.42 17.8215 5837.85C6.4106 5849.28 0 5864.78 0 5880.94V6165.35C0.0231264 6178.25 4.13194 6190.81 11.735 6201.22C19.3381 6211.63 30.0432 6219.36 42.3096 6223.29C54.576 6227.22 67.771 6227.15 79.9952 6223.09C92.2194 6219.03 102.842 6211.19 110.335 6200.7L313.157 5916.29C319.633 5907.18 323.481 5896.46 324.281 5885.31C325.08 5874.15 322.8 5862.99 317.69 5853.05C312.58 5843.11 304.836 5834.76 295.308 5828.94C285.78 5823.11 274.834 5820.01 263.668 5820ZM101.411 5962.2C93.388 5962.2 85.5453 5959.82 78.8746 5955.36C72.2038 5950.89 67.0045 5944.55 63.9343 5937.12C60.8641 5929.7 60.0608 5921.53 61.626 5913.65C63.1912 5905.77 67.0546 5898.53 72.7276 5892.84C78.4006 5887.16 85.6285 5883.29 93.4972 5881.72C101.366 5880.16 109.522 5880.96 116.934 5884.04C124.346 5887.11 130.682 5892.32 135.139 5899C139.596 5905.68 141.975 5913.54 141.975 5921.57C141.975 5932.35 137.702 5942.68 130.094 5950.3C122.487 5957.92 112.169 5962.2 101.411 5962.2Z" fill="#1E1E1E"/>
</g>
<g opacity="0.95" filter="url(#filter16_i_582_4224)">
<path d="M415.765 6205.75C443.63 6205.75 466.219 6182.87 466.219 6154.66C466.219 6126.44 443.63 6103.56 415.765 6103.56C387.9 6103.56 365.312 6126.44 365.312 6154.66C365.312 6182.87 387.9 6205.75 415.765 6205.75Z" fill="#1E1E1E"/>
</g>
<g opacity="0.95" filter="url(#filter17_i_582_4224)">
<path d="M608 5880.91V6165.18C608.023 6180.38 602.375 6195.04 592.164 6206.28C581.953 6217.52 567.918 6224.53 552.814 6225.93C537.711 6227.33 522.632 6223.01 510.538 6213.84C498.445 6204.67 490.21 6191.29 487.453 6176.35C486.805 6172.66 486.466 6168.92 486.44 6165.18V6118.88C486.332 6106.03 482.166 6093.53 474.54 6083.19C466.914 6072.85 456.218 6065.19 443.985 6061.32C431.751 6057.44 418.607 6057.54 406.436 6061.61C394.264 6065.68 383.689 6073.5 376.225 6083.96L344.619 6128.43L293.766 6199.9C284.068 6212.26 269.976 6220.38 254.439 6222.57C238.902 6224.75 223.124 6220.83 210.405 6211.62C197.686 6202.42 189.012 6188.64 186.197 6173.17C183.382 6157.7 186.645 6141.74 195.302 6128.63L397.903 5844.37C403.503 5836.88 410.747 5830.79 419.074 5826.57C427.401 5822.34 436.587 5820.09 445.92 5820H547.22C563.34 5820 578.799 5826.42 590.198 5837.84C601.596 5849.26 608 5864.76 608 5880.91Z" fill="#1E1E1E"/>
</g>
<g opacity="0.95" filter="url(#filter18_i_582_4224)">
<path d="M263.668 6952H60.8465C44.709 6952 29.2325 6958.42 17.8215 6969.85C6.4106 6981.28 0 6996.78 0 7012.94V7297.35C0.0231264 7310.25 4.13194 7322.81 11.735 7333.22C19.3381 7343.63 30.0432 7351.36 42.3096 7355.29C54.576 7359.22 67.771 7359.15 79.9952 7355.09C92.2194 7351.03 102.842 7343.19 110.335 7332.7L313.157 7048.29C319.633 7039.18 323.481 7028.46 324.281 7017.31C325.08 7006.15 322.8 6994.99 317.69 6985.05C312.58 6975.11 304.836 6966.76 295.308 6960.94C285.78 6955.11 274.834 6952.01 263.668 6952ZM101.411 7094.2C93.388 7094.2 85.5453 7091.82 78.8746 7087.36C72.2038 7082.89 67.0045 7076.55 63.9343 7069.12C60.8641 7061.7 60.0608 7053.53 61.626 7045.65C63.1912 7037.77 67.0546 7030.53 72.7276 7024.84C78.4006 7019.16 85.6285 7015.29 93.4972 7013.72C101.366 7012.16 109.522 7012.96 116.934 7016.04C124.346 7019.11 130.682 7024.32 135.139 7031C139.596 7037.68 141.975 7045.54 141.975 7053.57C141.975 7064.35 137.702 7074.68 130.094 7082.3C122.487 7089.92 112.169 7094.2 101.411 7094.2Z" fill="#1E1E1E"/>
</g>
<g opacity="0.95" filter="url(#filter19_i_582_4224)">
<path d="M415.765 7337.75C443.63 7337.75 466.219 7314.87 466.219 7286.66C466.219 7258.44 443.63 7235.56 415.765 7235.56C387.9 7235.56 365.312 7258.44 365.312 7286.66C365.312 7314.87 387.9 7337.75 415.765 7337.75Z" fill="#1E1E1E"/>
</g>
<g opacity="0.95" filter="url(#filter20_i_582_4224)">
<path d="M608 7012.91V7297.18C608.023 7312.38 602.375 7327.04 592.164 7338.28C581.953 7349.52 567.918 7356.53 552.814 7357.93C537.711 7359.33 522.632 7355.01 510.538 7345.84C498.445 7336.67 490.21 7323.29 487.453 7308.35C486.805 7304.66 486.466 7300.92 486.44 7297.18V7250.88C486.332 7238.03 482.166 7225.53 474.54 7215.19C466.914 7204.85 456.218 7197.19 443.985 7193.32C431.751 7189.44 418.607 7189.54 406.436 7193.61C394.264 7197.68 383.689 7205.5 376.225 7215.96L344.619 7260.43L293.766 7331.9C284.068 7344.26 269.976 7352.38 254.439 7354.57C238.902 7356.75 223.124 7352.83 210.405 7343.62C197.686 7334.42 189.012 7320.64 186.197 7305.17C183.382 7289.7 186.645 7273.74 195.302 7260.63L397.903 6976.37C403.503 6968.88 410.747 6962.79 419.074 6958.57C427.401 6954.34 436.587 6952.09 445.92 6952H547.22C563.34 6952 578.799 6958.42 590.198 6969.84C601.596 6981.26 608 6996.76 608 7012.91Z" fill="#1E1E1E"/>
</g>
<g opacity="0.95" filter="url(#filter21_i_582_4224)">
<path d="M263.668 8084H60.8465C44.709 8084 29.2325 8090.42 17.8215 8101.85C6.4106 8113.28 0 8128.78 0 8144.94V8429.35C0.0231264 8442.25 4.13194 8454.81 11.735 8465.22C19.3381 8475.63 30.0432 8483.36 42.3096 8487.29C54.576 8491.22 67.771 8491.15 79.9952 8487.09C92.2194 8483.03 102.842 8475.19 110.335 8464.7L313.157 8180.29C319.633 8171.18 323.481 8160.46 324.281 8149.31C325.08 8138.15 322.8 8126.99 317.69 8117.05C312.58 8107.11 304.836 8098.76 295.308 8092.94C285.78 8087.11 274.834 8084.01 263.668 8084ZM101.411 8226.2C93.388 8226.2 85.5453 8223.82 78.8746 8219.36C72.2038 8214.89 67.0045 8208.55 63.9343 8201.12C60.8641 8193.7 60.0608 8185.53 61.626 8177.65C63.1912 8169.77 67.0546 8162.53 72.7276 8156.84C78.4006 8151.16 85.6285 8147.29 93.4972 8145.72C101.366 8144.16 109.522 8144.96 116.934 8148.04C124.346 8151.11 130.682 8156.32 135.139 8163C139.596 8169.68 141.975 8177.54 141.975 8185.57C141.975 8196.35 137.702 8206.68 130.094 8214.3C122.487 8221.92 112.169 8226.2 101.411 8226.2Z" fill="#1E1E1E"/>
</g>
<g opacity="0.95" filter="url(#filter22_i_582_4224)">
<path d="M415.765 8469.75C443.63 8469.75 466.219 8446.87 466.219 8418.66C466.219 8390.44 443.63 8367.56 415.765 8367.56C387.9 8367.56 365.312 8390.44 365.312 8418.66C365.312 8446.87 387.9 8469.75 415.765 8469.75Z" fill="#1E1E1E"/>
</g>
<g opacity="0.95" filter="url(#filter23_i_582_4224)">
<path d="M608 8144.91V8429.18C608.023 8444.38 602.375 8459.04 592.164 8470.28C581.953 8481.52 567.918 8488.53 552.814 8489.93C537.711 8491.33 522.632 8487.01 510.538 8477.84C498.445 8468.67 490.21 8455.29 487.453 8440.35C486.805 8436.66 486.466 8432.92 486.44 8429.18V8382.88C486.332 8370.03 482.166 8357.53 474.54 8347.19C466.914 8336.85 456.218 8329.19 443.985 8325.32C431.751 8321.44 418.607 8321.54 406.436 8325.61C394.264 8329.68 383.689 8337.5 376.225 8347.96L344.619 8392.43L293.766 8463.9C284.068 8476.26 269.976 8484.38 254.439 8486.57C238.902 8488.75 223.124 8484.83 210.405 8475.62C197.686 8466.42 189.012 8452.64 186.197 8437.17C183.382 8421.7 186.645 8405.74 195.302 8392.63L397.903 8108.37C403.503 8100.88 410.747 8094.79 419.074 8090.57C427.401 8086.34 436.587 8084.09 445.92 8084H547.22C563.34 8084 578.799 8090.42 590.198 8101.84C601.596 8113.26 608 8128.76 608 8144.91Z" fill="#1E1E1E"/>
</g>
<g opacity="0.95" filter="url(#filter24_i_582_4224)">
<path d="M263.668 9216H60.8465C44.709 9216 29.2325 9222.42 17.8215 9233.85C6.4106 9245.28 0 9260.78 0 9276.94V9561.35C0.0231264 9574.25 4.13194 9586.81 11.735 9597.22C19.3381 9607.63 30.0432 9615.36 42.3096 9619.29C54.576 9623.22 67.771 9623.15 79.9952 9619.09C92.2194 9615.03 102.842 9607.19 110.335 9596.7L313.157 9312.29C319.633 9303.18 323.481 9292.46 324.281 9281.31C325.08 9270.15 322.8 9258.99 317.69 9249.05C312.58 9239.11 304.836 9230.76 295.308 9224.94C285.78 9219.11 274.834 9216.01 263.668 9216ZM101.411 9358.2C93.388 9358.2 85.5453 9355.82 78.8746 9351.36C72.2038 9346.89 67.0045 9340.55 63.9343 9333.12C60.8641 9325.7 60.0608 9317.53 61.626 9309.65C63.1912 9301.77 67.0546 9294.53 72.7276 9288.84C78.4006 9283.16 85.6285 9279.29 93.4972 9277.72C101.366 9276.16 109.522 9276.96 116.934 9280.04C124.346 9283.11 130.682 9288.32 135.139 9295C139.596 9301.68 141.975 9309.54 141.975 9317.57C141.975 9328.35 137.702 9338.68 130.094 9346.3C122.487 9353.92 112.169 9358.2 101.411 9358.2Z" fill="#1E1E1E"/>
</g>
<g opacity="0.95" filter="url(#filter25_i_582_4224)">
<path d="M415.765 9601.75C443.63 9601.75 466.219 9578.87 466.219 9550.66C466.219 9522.44 443.63 9499.56 415.765 9499.56C387.9 9499.56 365.312 9522.44 365.312 9550.66C365.312 9578.87 387.9 9601.75 415.765 9601.75Z" fill="#1E1E1E"/>
</g>
<g opacity="0.95" filter="url(#filter26_i_582_4224)">
<path d="M608 9276.91V9561.18C608.023 9576.38 602.375 9591.04 592.164 9602.28C581.953 9613.52 567.918 9620.53 552.814 9621.93C537.711 9623.33 522.632 9619.01 510.538 9609.84C498.445 9600.67 490.21 9587.29 487.453 9572.35C486.805 9568.66 486.466 9564.92 486.44 9561.18V9514.88C486.332 9502.03 482.166 9489.53 474.54 9479.19C466.914 9468.85 456.218 9461.19 443.985 9457.32C431.751 9453.44 418.607 9453.54 406.436 9457.61C394.264 9461.68 383.689 9469.5 376.225 9479.96L344.619 9524.43L293.766 9595.9C284.068 9608.26 269.976 9616.38 254.439 9618.57C238.902 9620.75 223.124 9616.83 210.405 9607.62C197.686 9598.42 189.012 9584.64 186.197 9569.17C183.382 9553.7 186.645 9537.74 195.302 9524.63L397.903 9240.37C403.503 9232.88 410.747 9226.79 419.074 9222.57C427.401 9218.34 436.587 9216.09 445.92 9216H547.22C563.34 9216 578.799 9222.42 590.198 9233.84C601.596 9245.26 608 9260.76 608 9276.91Z" fill="#1E1E1E"/>
</g>
<g opacity="0.95" filter="url(#filter27_i_582_4224)">
<path d="M423.668 726.185H220.847C204.709 726.185 189.232 732.606 177.822 744.035C166.411 755.464 160 770.965 160 787.129V1071.53C160.023 1084.43 164.132 1096.99 171.735 1107.4C179.338 1117.82 190.043 1125.54 202.31 1129.47C214.576 1133.4 227.771 1133.33 239.995 1129.27C252.219 1125.21 262.842 1117.37 270.335 1106.88L473.157 822.476C479.633 813.366 483.481 802.647 484.281 791.493C485.08 780.338 482.8 769.179 477.69 759.235C472.58 749.292 464.836 740.949 455.308 735.12C445.78 729.29 434.834 726.199 423.668 726.185ZM261.411 868.388C253.388 868.388 245.545 866.005 238.875 861.54C232.204 857.076 227.005 850.731 223.934 843.307C220.864 835.882 220.061 827.713 221.626 819.832C223.191 811.951 227.055 804.711 232.728 799.029C238.401 793.347 245.628 789.477 253.497 787.91C261.366 786.342 269.522 787.146 276.934 790.222C284.346 793.297 290.682 798.504 295.139 805.186C299.596 811.867 301.975 819.723 301.975 827.758C301.975 838.534 297.702 848.868 290.094 856.488C282.487 864.107 272.169 868.388 261.411 868.388Z" fill="#1E1E1E"/>
</g>
<g opacity="0.95" filter="url(#filter28_i_582_4224)">
<path d="M575.765 1111.93C603.63 1111.93 626.219 1089.06 626.219 1060.84C626.219 1032.62 603.63 1009.75 575.765 1009.75C547.9 1009.75 525.312 1032.62 525.312 1060.84C525.312 1089.06 547.9 1111.93 575.765 1111.93Z" fill="#1E1E1E"/>
</g>
<g opacity="0.95" filter="url(#filter29_i_582_4224)">
<path d="M768 787.098V1071.36C768.023 1086.56 762.375 1101.22 752.164 1112.46C741.953 1123.7 727.918 1130.71 712.814 1132.11C697.711 1133.51 682.632 1129.2 670.538 1120.03C658.445 1110.85 650.21 1097.48 647.453 1082.53C646.805 1078.84 646.466 1075.11 646.44 1071.36V1025.07C646.332 1012.21 642.166 999.716 634.54 989.375C626.914 979.034 616.218 971.377 603.985 967.501C591.751 963.624 578.607 963.727 566.436 967.795C554.264 971.862 543.689 979.685 536.225 990.144L504.619 1034.61L453.766 1106.08C444.068 1118.44 429.976 1126.56 414.439 1128.75C398.902 1130.94 383.124 1127.02 370.405 1117.81C357.686 1108.6 349.012 1094.82 346.197 1079.36C343.382 1063.89 346.645 1047.93 355.302 1034.81L557.903 750.55C563.503 743.067 570.747 736.976 579.074 732.751C587.401 728.525 596.587 726.279 605.92 726.185H707.22C723.34 726.185 738.799 732.602 750.198 744.026C761.596 755.45 768 770.943 768 787.098Z" fill="#1E1E1E"/>
</g>
<g opacity="0.95" filter="url(#filter30_i_582_4224)">
<path d="M423.668 1858.18H220.847C204.709 1858.18 189.232 1864.61 177.822 1876.03C166.411 1887.46 160 1902.97 160 1919.13V2203.53C160.023 2216.43 164.132 2228.99 171.735 2239.4C179.338 2249.82 190.043 2257.54 202.31 2261.47C214.576 2265.4 227.771 2265.33 239.995 2261.27C252.219 2257.21 262.842 2249.37 270.335 2238.88L473.157 1954.48C479.633 1945.37 483.481 1934.65 484.281 1923.49C485.08 1912.34 482.8 1901.18 477.69 1891.24C472.58 1881.29 464.836 1872.95 455.308 1867.12C445.78 1861.29 434.834 1858.2 423.668 1858.18ZM261.411 2000.39C253.388 2000.39 245.545 1998 238.875 1993.54C232.204 1989.08 227.005 1982.73 223.934 1975.31C220.864 1967.88 220.061 1959.71 221.626 1951.83C223.191 1943.95 227.055 1936.71 232.728 1931.03C238.401 1925.35 245.628 1921.48 253.497 1919.91C261.366 1918.34 269.522 1919.15 276.934 1922.22C284.346 1925.3 290.682 1930.5 295.139 1937.19C299.596 1943.87 301.975 1951.72 301.975 1959.76C301.975 1970.53 297.702 1980.87 290.094 1988.49C282.487 1996.11 272.169 2000.39 261.411 2000.39Z" fill="#1E1E1E"/>
</g>
<g opacity="0.95" filter="url(#filter31_i_582_4224)">
<path d="M575.765 2243.93C603.63 2243.93 626.219 2221.06 626.219 2192.84C626.219 2164.62 603.63 2141.75 575.765 2141.75C547.9 2141.75 525.312 2164.62 525.312 2192.84C525.312 2221.06 547.9 2243.93 575.765 2243.93Z" fill="#1E1E1E"/>
</g>
<g opacity="0.95" filter="url(#filter32_i_582_4224)">
<path d="M768 1919.1V2203.36C768.023 2218.56 762.375 2233.22 752.164 2244.46C741.953 2255.7 727.918 2262.71 712.814 2264.11C697.711 2265.51 682.632 2261.2 670.538 2252.03C658.445 2242.85 650.21 2229.48 647.453 2214.53C646.805 2210.84 646.466 2207.11 646.44 2203.36V2157.07C646.332 2144.21 642.166 2131.72 634.54 2121.38C626.914 2111.03 616.218 2103.38 603.985 2099.5C591.751 2095.62 578.607 2095.73 566.436 2099.79C554.264 2103.86 543.689 2111.69 536.225 2122.14L504.619 2166.61L453.766 2238.08C444.068 2250.44 429.976 2258.56 414.439 2260.75C398.902 2262.94 383.124 2259.02 370.405 2249.81C357.686 2240.6 349.012 2226.82 346.197 2211.36C343.382 2195.89 346.645 2179.93 355.302 2166.81L557.903 1882.55C563.503 1875.07 570.747 1868.98 579.074 1864.75C587.401 1860.53 596.587 1858.28 605.92 1858.18H707.22C723.34 1858.18 738.799 1864.6 750.198 1876.03C761.596 1887.45 768 1902.94 768 1919.1Z" fill="#1E1E1E"/>
</g>
<g opacity="0.95" filter="url(#filter33_i_582_4224)">
<path d="M423.668 2990.18H220.847C204.709 2990.18 189.232 2996.61 177.822 3008.03C166.411 3019.46 160 3034.97 160 3051.13V3335.53C160.023 3348.43 164.132 3360.99 171.735 3371.4C179.338 3381.82 190.043 3389.54 202.31 3393.47C214.576 3397.4 227.771 3397.33 239.995 3393.27C252.219 3389.21 262.842 3381.37 270.335 3370.88L473.157 3086.48C479.633 3077.37 483.481 3066.65 484.281 3055.49C485.08 3044.34 482.8 3033.18 477.69 3023.24C472.58 3013.29 464.836 3004.95 455.308 2999.12C445.78 2993.29 434.834 2990.2 423.668 2990.18ZM261.411 3132.39C253.388 3132.39 245.545 3130 238.875 3125.54C232.204 3121.08 227.005 3114.73 223.934 3107.31C220.864 3099.88 220.061 3091.71 221.626 3083.83C223.191 3075.95 227.055 3068.71 232.728 3063.03C238.401 3057.35 245.628 3053.48 253.497 3051.91C261.366 3050.34 269.522 3051.15 276.934 3054.22C284.346 3057.3 290.682 3062.5 295.139 3069.19C299.596 3075.87 301.975 3083.72 301.975 3091.76C301.975 3102.53 297.702 3112.87 290.094 3120.49C282.487 3128.11 272.169 3132.39 261.411 3132.39Z" fill="#1E1E1E"/>
</g>
<g opacity="0.95" filter="url(#filter34_i_582_4224)">
<path d="M575.765 3375.93C603.63 3375.93 626.219 3353.06 626.219 3324.84C626.219 3296.62 603.63 3273.75 575.765 3273.75C547.9 3273.75 525.312 3296.62 525.312 3324.84C525.312 3353.06 547.9 3375.93 575.765 3375.93Z" fill="#1E1E1E"/>
</g>
<g opacity="0.95" filter="url(#filter35_i_582_4224)">
<path d="M768 3051.1V3335.36C768.023 3350.56 762.375 3365.22 752.164 3376.46C741.953 3387.7 727.918 3394.71 712.814 3396.11C697.711 3397.51 682.632 3393.2 670.538 3384.03C658.445 3374.85 650.21 3361.48 647.453 3346.53C646.805 3342.84 646.466 3339.11 646.44 3335.36V3289.07C646.332 3276.21 642.166 3263.72 634.54 3253.38C626.914 3243.03 616.218 3235.38 603.985 3231.5C591.751 3227.62 578.607 3227.73 566.436 3231.79C554.264 3235.86 543.689 3243.69 536.225 3254.14L504.619 3298.61L453.766 3370.08C444.068 3382.44 429.976 3390.56 414.439 3392.75C398.902 3394.94 383.124 3391.02 370.405 3381.81C357.686 3372.6 349.012 3358.82 346.197 3343.36C343.382 3327.89 346.645 3311.93 355.302 3298.81L557.903 3014.55C563.503 3007.07 570.747 3000.98 579.074 2996.75C587.401 2992.53 596.587 2990.28 605.92 2990.18H707.22C723.34 2990.18 738.799 2996.6 750.198 3008.03C761.596 3019.45 768 3034.94 768 3051.1Z" fill="#1E1E1E"/>
</g>
<g opacity="0.95" filter="url(#filter36_i_582_4224)">
<path d="M423.668 4122.18H220.847C204.709 4122.18 189.232 4128.61 177.822 4140.03C166.411 4151.46 160 4166.97 160 4183.13V4467.53C160.023 4480.43 164.132 4492.99 171.735 4503.4C179.338 4513.82 190.043 4521.54 202.31 4525.47C214.576 4529.4 227.771 4529.33 239.995 4525.27C252.219 4521.21 262.842 4513.37 270.335 4502.88L473.157 4218.48C479.633 4209.37 483.481 4198.65 484.281 4187.49C485.08 4176.34 482.8 4165.18 477.69 4155.24C472.58 4145.29 464.836 4136.95 455.308 4131.12C445.78 4125.29 434.834 4122.2 423.668 4122.18ZM261.411 4264.39C253.388 4264.39 245.545 4262 238.875 4257.54C232.204 4253.08 227.005 4246.73 223.934 4239.31C220.864 4231.88 220.061 4223.71 221.626 4215.83C223.191 4207.95 227.055 4200.71 232.728 4195.03C238.401 4189.35 245.628 4185.48 253.497 4183.91C261.366 4182.34 269.522 4183.15 276.934 4186.22C284.346 4189.3 290.682 4194.5 295.139 4201.19C299.596 4207.87 301.975 4215.72 301.975 4223.76C301.975 4234.53 297.702 4244.87 290.094 4252.49C282.487 4260.11 272.169 4264.39 261.411 4264.39Z" fill="#1E1E1E"/>
</g>
<g opacity="0.95" filter="url(#filter37_i_582_4224)">
<path d="M575.765 4507.93C603.63 4507.93 626.219 4485.06 626.219 4456.84C626.219 4428.62 603.63 4405.75 575.765 4405.75C547.9 4405.75 525.312 4428.62 525.312 4456.84C525.312 4485.06 547.9 4507.93 575.765 4507.93Z" fill="#1E1E1E"/>
</g>
<g opacity="0.95" filter="url(#filter38_i_582_4224)">
<path d="M768 4183.1V4467.36C768.023 4482.56 762.375 4497.22 752.164 4508.46C741.953 4519.7 727.918 4526.71 712.814 4528.11C697.711 4529.51 682.632 4525.2 670.538 4516.03C658.445 4506.85 650.21 4493.48 647.453 4478.53C646.805 4474.84 646.466 4471.11 646.44 4467.36V4421.07C646.332 4408.21 642.166 4395.72 634.54 4385.37C626.914 4375.03 616.218 4367.38 603.985 4363.5C591.751 4359.62 578.607 4359.73 566.436 4363.79C554.264 4367.86 543.689 4375.69 536.225 4386.14L504.619 4430.61L453.766 4502.08C444.068 4514.44 429.976 4522.56 414.439 4524.75C398.902 4526.94 383.124 4523.02 370.405 4513.81C357.686 4504.6 349.012 4490.82 346.197 4475.36C343.382 4459.89 346.645 4443.93 355.302 4430.81L557.903 4146.55C563.503 4139.07 570.747 4132.98 579.074 4128.75C587.401 4124.53 596.587 4122.28 605.92 4122.18H707.22C723.34 4122.18 738.799 4128.6 750.198 4140.03C761.596 4151.45 768 4166.94 768 4183.1Z" fill="#1E1E1E"/>
</g>
<g opacity="0.95" filter="url(#filter39_i_582_4224)">
<path d="M423.668 5254.18H220.847C204.709 5254.18 189.232 5260.61 177.822 5272.03C166.411 5283.46 160 5298.97 160 5315.13V5599.53C160.023 5612.43 164.132 5624.99 171.735 5635.4C179.338 5645.82 190.043 5653.54 202.31 5657.47C214.576 5661.4 227.771 5661.33 239.995 5657.27C252.219 5653.21 262.842 5645.37 270.335 5634.88L473.157 5350.48C479.633 5341.37 483.481 5330.65 484.281 5319.49C485.08 5308.34 482.8 5297.18 477.69 5287.24C472.58 5277.29 464.836 5268.95 455.308 5263.12C445.78 5257.29 434.834 5254.2 423.668 5254.18ZM261.411 5396.39C253.388 5396.39 245.545 5394 238.875 5389.54C232.204 5385.08 227.005 5378.73 223.934 5371.31C220.864 5363.88 220.061 5355.71 221.626 5347.83C223.191 5339.95 227.055 5332.71 232.728 5327.03C238.401 5321.35 245.628 5317.48 253.497 5315.91C261.366 5314.34 269.522 5315.15 276.934 5318.22C284.346 5321.3 290.682 5326.5 295.139 5333.19C299.596 5339.87 301.975 5347.72 301.975 5355.76C301.975 5366.53 297.702 5376.87 290.094 5384.49C282.487 5392.11 272.169 5396.39 261.411 5396.39Z" fill="#1E1E1E"/>
</g>
<g opacity="0.95" filter="url(#filter40_i_582_4224)">
<path d="M575.765 5639.93C603.63 5639.93 626.219 5617.06 626.219 5588.84C626.219 5560.62 603.63 5537.75 575.765 5537.75C547.9 5537.75 525.312 5560.62 525.312 5588.84C525.312 5617.06 547.9 5639.93 575.765 5639.93Z" fill="#1E1E1E"/>
</g>
<g opacity="0.95" filter="url(#filter41_i_582_4224)">
<path d="M768 5315.1V5599.36C768.023 5614.56 762.375 5629.22 752.164 5640.46C741.953 5651.7 727.918 5658.71 712.814 5660.11C697.711 5661.51 682.632 5657.2 670.538 5648.03C658.445 5638.85 650.21 5625.48 647.453 5610.53C646.805 5606.84 646.466 5603.11 646.44 5599.36V5553.07C646.332 5540.21 642.166 5527.72 634.54 5517.37C626.914 5507.03 616.218 5499.38 603.985 5495.5C591.751 5491.62 578.607 5491.73 566.436 5495.79C554.264 5499.86 543.689 5507.69 536.225 5518.14L504.619 5562.61L453.766 5634.08C444.068 5646.44 429.976 5654.56 414.439 5656.75C398.902 5658.94 383.124 5655.02 370.405 5645.81C357.686 5636.6 349.012 5622.82 346.197 5607.36C343.382 5591.89 346.645 5575.93 355.302 5562.81L557.903 5278.55C563.503 5271.07 570.747 5264.98 579.074 5260.75C587.401 5256.53 596.587 5254.28 605.92 5254.18H707.22C723.34 5254.18 738.799 5260.6 750.198 5272.03C761.596 5283.45 768 5298.94 768 5315.1Z" fill="#1E1E1E"/>
</g>
<g opacity="0.95" filter="url(#filter42_i_582_4224)">
<path d="M423.668 6386.18H220.847C204.709 6386.18 189.232 6392.61 177.822 6404.03C166.411 6415.46 160 6430.97 160 6447.13V6731.53C160.023 6744.43 164.132 6756.99 171.735 6767.4C179.338 6777.82 190.043 6785.54 202.31 6789.47C214.576 6793.4 227.771 6793.33 239.995 6789.27C252.219 6785.21 262.842 6777.37 270.335 6766.88L473.157 6482.48C479.633 6473.37 483.481 6462.65 484.281 6451.49C485.08 6440.34 482.8 6429.18 477.69 6419.24C472.58 6409.29 464.836 6400.95 455.308 6395.12C445.78 6389.29 434.834 6386.2 423.668 6386.18ZM261.411 6528.39C253.388 6528.39 245.545 6526 238.875 6521.54C232.204 6517.08 227.005 6510.73 223.934 6503.31C220.864 6495.88 220.061 6487.71 221.626 6479.83C223.191 6471.95 227.055 6464.71 232.728 6459.03C238.401 6453.35 245.628 6449.48 253.497 6447.91C261.366 6446.34 269.522 6447.15 276.934 6450.22C284.346 6453.3 290.682 6458.5 295.139 6465.19C299.596 6471.87 301.975 6479.72 301.975 6487.76C301.975 6498.53 297.702 6508.87 290.094 6516.49C282.487 6524.11 272.169 6528.39 261.411 6528.39Z" fill="#1E1E1E"/>
</g>
<g opacity="0.95" filter="url(#filter43_i_582_4224)">
<path d="M575.765 6771.93C603.63 6771.93 626.219 6749.06 626.219 6720.84C626.219 6692.62 603.63 6669.75 575.765 6669.75C547.9 6669.75 525.312 6692.62 525.312 6720.84C525.312 6749.06 547.9 6771.93 575.765 6771.93Z" fill="#1E1E1E"/>
</g>
<g opacity="0.95" filter="url(#filter44_i_582_4224)">
<path d="M768 6447.1V6731.36C768.023 6746.56 762.375 6761.22 752.164 6772.46C741.953 6783.7 727.918 6790.71 712.814 6792.11C697.711 6793.51 682.632 6789.2 670.538 6780.03C658.445 6770.85 650.21 6757.48 647.453 6742.53C646.805 6738.84 646.466 6735.11 646.44 6731.36V6685.07C646.332 6672.21 642.166 6659.72 634.54 6649.37C626.914 6639.03 616.218 6631.38 603.985 6627.5C591.751 6623.62 578.607 6623.73 566.436 6627.79C554.264 6631.86 543.689 6639.69 536.225 6650.14L504.619 6694.61L453.766 6766.08C444.068 6778.44 429.976 6786.56 414.439 6788.75C398.902 6790.94 383.124 6787.02 370.405 6777.81C357.686 6768.6 349.012 6754.82 346.197 6739.36C343.382 6723.89 346.645 6707.93 355.302 6694.81L557.903 6410.55C563.503 6403.07 570.747 6396.98 579.074 6392.75C587.401 6388.53 596.587 6386.28 605.92 6386.18H707.22C723.34 6386.18 738.799 6392.6 750.198 6404.03C761.596 6415.45 768 6430.94 768 6447.1Z" fill="#1E1E1E"/>
</g>
<g opacity="0.95" filter="url(#filter45_i_582_4224)">
<path d="M423.668 7518.18H220.847C204.709 7518.18 189.232 7524.61 177.822 7536.03C166.411 7547.46 160 7562.97 160 7579.13V7863.53C160.023 7876.43 164.132 7888.99 171.735 7899.4C179.338 7909.82 190.043 7917.54 202.31 7921.47C214.576 7925.4 227.771 7925.33 239.995 7921.27C252.219 7917.21 262.842 7909.37 270.335 7898.88L473.157 7614.48C479.633 7605.37 483.481 7594.65 484.281 7583.49C485.08 7572.34 482.8 7561.18 477.69 7551.24C472.58 7541.29 464.836 7532.95 455.308 7527.12C445.78 7521.29 434.834 7518.2 423.668 7518.18ZM261.411 7660.39C253.388 7660.39 245.545 7658 238.875 7653.54C232.204 7649.08 227.005 7642.73 223.934 7635.31C220.864 7627.88 220.061 7619.71 221.626 7611.83C223.191 7603.95 227.055 7596.71 232.728 7591.03C238.401 7585.35 245.628 7581.48 253.497 7579.91C261.366 7578.34 269.522 7579.15 276.934 7582.22C284.346 7585.3 290.682 7590.5 295.139 7597.19C299.596 7603.87 301.975 7611.72 301.975 7619.76C301.975 7630.53 297.702 7640.87 290.094 7648.49C282.487 7656.11 272.169 7660.39 261.411 7660.39Z" fill="#1E1E1E"/>
</g>
<g opacity="0.95" filter="url(#filter46_i_582_4224)">
<path d="M575.765 7903.93C603.63 7903.93 626.219 7881.06 626.219 7852.84C626.219 7824.62 603.63 7801.75 575.765 7801.75C547.9 7801.75 525.312 7824.62 525.312 7852.84C525.312 7881.06 547.9 7903.93 575.765 7903.93Z" fill="#1E1E1E"/>
</g>
<g opacity="0.95" filter="url(#filter47_i_582_4224)">
<path d="M768 7579.1V7863.36C768.023 7878.56 762.375 7893.22 752.164 7904.46C741.953 7915.7 727.918 7922.71 712.814 7924.11C697.711 7925.51 682.632 7921.2 670.538 7912.03C658.445 7902.85 650.21 7889.48 647.453 7874.53C646.805 7870.84 646.466 7867.11 646.44 7863.36V7817.07C646.332 7804.21 642.166 7791.72 634.54 7781.37C626.914 7771.03 616.218 7763.38 603.985 7759.5C591.751 7755.62 578.607 7755.73 566.436 7759.79C554.264 7763.86 543.689 7771.69 536.225 7782.14L504.619 7826.61L453.766 7898.08C444.068 7910.44 429.976 7918.56 414.439 7920.75C398.902 7922.94 383.124 7919.02 370.405 7909.81C357.686 7900.6 349.012 7886.82 346.197 7871.36C343.382 7855.89 346.645 7839.93 355.302 7826.81L557.903 7542.55C563.503 7535.07 570.747 7528.98 579.074 7524.75C587.401 7520.53 596.587 7518.28 605.92 7518.18H707.22C723.34 7518.18 738.799 7524.6 750.198 7536.03C761.596 7547.45 768 7562.94 768 7579.1Z" fill="#1E1E1E"/>
</g>
<g opacity="0.95" filter="url(#filter48_i_582_4224)">
<path d="M423.668 8650.18H220.847C204.709 8650.18 189.232 8656.61 177.822 8668.03C166.411 8679.46 160 8694.97 160 8711.13V8995.53C160.023 9008.43 164.132 9020.99 171.735 9031.4C179.338 9041.82 190.043 9049.54 202.31 9053.47C214.576 9057.4 227.771 9057.33 239.995 9053.27C252.219 9049.21 262.842 9041.37 270.335 9030.88L473.157 8746.48C479.633 8737.37 483.481 8726.65 484.281 8715.49C485.08 8704.34 482.8 8693.18 477.69 8683.24C472.58 8673.29 464.836 8664.95 455.308 8659.12C445.78 8653.29 434.834 8650.2 423.668 8650.18ZM261.411 8792.39C253.388 8792.39 245.545 8790 238.875 8785.54C232.204 8781.08 227.005 8774.73 223.934 8767.31C220.864 8759.88 220.061 8751.71 221.626 8743.83C223.191 8735.95 227.055 8728.71 232.728 8723.03C238.401 8717.35 245.628 8713.48 253.497 8711.91C261.366 8710.34 269.522 8711.15 276.934 8714.22C284.346 8717.3 290.682 8722.5 295.139 8729.19C299.596 8735.87 301.975 8743.72 301.975 8751.76C301.975 8762.53 297.702 8772.87 290.094 8780.49C282.487 8788.11 272.169 8792.39 261.411 8792.39Z" fill="#1E1E1E"/>
</g>
<g opacity="0.95" filter="url(#filter49_i_582_4224)">
<path d="M575.765 9035.93C603.63 9035.93 626.219 9013.06 626.219 8984.84C626.219 8956.62 603.63 8933.75 575.765 8933.75C547.9 8933.75 525.312 8956.62 525.312 8984.84C525.312 9013.06 547.9 9035.93 575.765 9035.93Z" fill="#1E1E1E"/>
</g>
<g opacity="0.95" filter="url(#filter50_i_582_4224)">
<path d="M768 8711.1V8995.36C768.023 9010.56 762.375 9025.22 752.164 9036.46C741.953 9047.7 727.918 9054.71 712.814 9056.11C697.711 9057.51 682.632 9053.2 670.538 9044.03C658.445 9034.85 650.21 9021.48 647.453 9006.53C646.805 9002.84 646.466 8999.11 646.44 8995.36V8949.07C646.332 8936.21 642.166 8923.72 634.54 8913.37C626.914 8903.03 616.218 8895.38 603.985 8891.5C591.751 8887.62 578.607 8887.73 566.436 8891.79C554.264 8895.86 543.689 8903.69 536.225 8914.14L504.619 8958.61L453.766 9030.08C444.068 9042.44 429.976 9050.56 414.439 9052.75C398.902 9054.94 383.124 9051.02 370.405 9041.81C357.686 9032.6 349.012 9018.82 346.197 9003.36C343.382 8987.89 346.645 8971.93 355.302 8958.81L557.903 8674.55C563.503 8667.07 570.747 8660.98 579.074 8656.75C587.401 8652.53 596.587 8650.28 605.92 8650.18H707.22C723.34 8650.18 738.799 8656.6 750.198 8668.03C761.596 8679.45 768 8694.94 768 8711.1Z" fill="#1E1E1E"/>
</g>
<defs>
<filter id="filter0_i_582_4224" x="0" y="160" width="332.437" height="414.185" filterUnits="userSpaceOnUse" color-interpolation-filters="sRGB">
<feFlood flood-opacity="0" result="BackgroundImageFix"/>
<feBlend mode="normal" in="SourceGraphic" in2="BackgroundImageFix" result="shape"/>
<feColorMatrix in="SourceAlpha" type="matrix" values="0 0 0 0 0 0 0 0 0 0 0 0 0 0 0 0 0 0 127 0" result="hardAlpha"/>
<feOffset dx="8" dy="8"/>
<feGaussianBlur stdDeviation="8"/>
<feComposite in2="hardAlpha" operator="arithmetic" k2="-1" k3="1"/>
<feColorMatrix type="matrix" values="0 0 0 0 0.105203 0 0 0 0 0.1052 0 0 0 0 0.1052 0 0 0 1 0"/>
<feBlend mode="normal" in2="shape" result="effect1_innerShadow_582_4224"/>
</filter>
<filter id="filter1_i_582_4224" x="365.312" y="443.563" width="108.908" height="110.185" filterUnits="userSpaceOnUse" color-interpolation-filters="sRGB">
<feFlood flood-opacity="0" result="BackgroundImageFix"/>
<feBlend mode="normal" in="SourceGraphic" in2="BackgroundImageFix" result="shape"/>
<feColorMatrix in="SourceAlpha" type="matrix" values="0 0 0 0 0 0 0 0 0 0 0 0 0 0 0 0 0 0 127 0" result="hardAlpha"/>
<feOffset dx="8" dy="8"/>
<feGaussianBlur stdDeviation="8"/>
<feComposite in2="hardAlpha" operator="arithmetic" k2="-1" k3="1"/>
<feColorMatrix type="matrix" values="0 0 0 0 0.105203 0 0 0 0 0.1052 0 0 0 0 0.1052 0 0 0 1 0"/>
<feBlend mode="normal" in2="shape" result="effect1_innerShadow_582_4224"/>
</filter>
<filter id="filter2_i_582_4224" x="185.21" y="160" width="430.79" height="414.185" filterUnits="userSpaceOnUse" color-interpolation-filters="sRGB">
<feFlood flood-opacity="0" result="BackgroundImageFix"/>
<feBlend mode="normal" in="SourceGraphic" in2="BackgroundImageFix" result="shape"/>
<feColorMatrix in="SourceAlpha" type="matrix" values="0 0 0 0 0 0 0 0 0 0 0 0 0 0 0 0 0 0 127 0" result="hardAlpha"/>
<feOffset dx="8" dy="8"/>
<feGaussianBlur stdDeviation="8"/>
<feComposite in2="hardAlpha" operator="arithmetic" k2="-1" k3="1"/>
<feColorMatrix type="matrix" values="0 0 0 0 0.105203 0 0 0 0 0.1052 0 0 0 0 0.1052 0 0 0 1 0"/>
<feBlend mode="normal" in2="shape" result="effect1_innerShadow_582_4224"/>
</filter>
<filter id="filter3_i_582_4224" x="0" y="1292" width="332.437" height="414.185" filterUnits="userSpaceOnUse" color-interpolation-filters="sRGB">
<feFlood flood-opacity="0" result="BackgroundImageFix"/>
<feBlend mode="normal" in="SourceGraphic" in2="BackgroundImageFix" result="shape"/>
<feColorMatrix in="SourceAlpha" type="matrix" values="0 0 0 0 0 0 0 0 0 0 0 0 0 0 0 0 0 0 127 0" result="hardAlpha"/>
<feOffset dx="8" dy="8"/>
<feGaussianBlur stdDeviation="8"/>
<feComposite in2="hardAlpha" operator="arithmetic" k2="-1" k3="1"/>
<feColorMatrix type="matrix" values="0 0 0 0 0.105203 0 0 0 0 0.1052 0 0 0 0 0.1052 0 0 0 1 0"/>
<feBlend mode="normal" in2="shape" result="effect1_innerShadow_582_4224"/>
</filter>
<filter id="filter4_i_582_4224" x="365.312" y="1575.56" width="108.908" height="110.185" filterUnits="userSpaceOnUse" color-interpolation-filters="sRGB">
<feFlood flood-opacity="0" result="BackgroundImageFix"/>
<feBlend mode="normal" in="SourceGraphic" in2="BackgroundImageFix" result="shape"/>
<feColorMatrix in="SourceAlpha" type="matrix" values="0 0 0 0 0 0 0 0 0 0 0 0 0 0 0 0 0 0 127 0" result="hardAlpha"/>
<feOffset dx="8" dy="8"/>
<feGaussianBlur stdDeviation="8"/>
<feComposite in2="hardAlpha" operator="arithmetic" k2="-1" k3="1"/>
<feColorMatrix type="matrix" values="0 0 0 0 0.105203 0 0 0 0 0.1052 0 0 0 0 0.1052 0 0 0 1 0"/>
<feBlend mode="normal" in2="shape" result="effect1_innerShadow_582_4224"/>
</filter>
<filter id="filter5_i_582_4224" x="185.21" y="1292" width="430.79" height="414.185" filterUnits="userSpaceOnUse" color-interpolation-filters="sRGB">
<feFlood flood-opacity="0" result="BackgroundImageFix"/>
<feBlend mode="normal" in="SourceGraphic" in2="BackgroundImageFix" result="shape"/>
<feColorMatrix in="SourceAlpha" type="matrix" values="0 0 0 0 0 0 0 0 0 0 0 0 0 0 0 0 0 0 127 0" result="hardAlpha"/>
<feOffset dx="8" dy="8"/>
<feGaussianBlur stdDeviation="8"/>
<feComposite in2="hardAlpha" operator="arithmetic" k2="-1" k3="1"/>
<feColorMatrix type="matrix" values="0 0 0 0 0.105203 0 0 0 0 0.1052 0 0 0 0 0.1052 0 0 0 1 0"/>
<feBlend mode="normal" in2="shape" result="effect1_innerShadow_582_4224"/>
</filter>
<filter id="filter6_i_582_4224" x="0" y="2424" width="332.437" height="414.185" filterUnits="userSpaceOnUse" color-interpolation-filters="sRGB">
<feFlood flood-opacity="0" result="BackgroundImageFix"/>
<feBlend mode="normal" in="SourceGraphic" in2="BackgroundImageFix" result="shape"/>
<feColorMatrix in="SourceAlpha" type="matrix" values="0 0 0 0 0 0 0 0 0 0 0 0 0 0 0 0 0 0 127 0" result="hardAlpha"/>
<feOffset dx="8" dy="8"/>
<feGaussianBlur stdDeviation="8"/>
<feComposite in2="hardAlpha" operator="arithmetic" k2="-1" k3="1"/>
<feColorMatrix type="matrix" values="0 0 0 0 0.105203 0 0 0 0 0.1052 0 0 0 0 0.1052 0 0 0 1 0"/>
<feBlend mode="normal" in2="shape" result="effect1_innerShadow_582_4224"/>
</filter>
<filter id="filter7_i_582_4224" x="365.312" y="2707.56" width="108.908" height="110.185" filterUnits="userSpaceOnUse" color-interpolation-filters="sRGB">
<feFlood flood-opacity="0" result="BackgroundImageFix"/>
<feBlend mode="normal" in="SourceGraphic" in2="BackgroundImageFix" result="shape"/>
<feColorMatrix in="SourceAlpha" type="matrix" values="0 0 0 0 0 0 0 0 0 0 0 0 0 0 0 0 0 0 127 0" result="hardAlpha"/>
<feOffset dx="8" dy="8"/>
<feGaussianBlur stdDeviation="8"/>
<feComposite in2="hardAlpha" operator="arithmetic" k2="-1" k3="1"/>
<feColorMatrix type="matrix" values="0 0 0 0 0.105203 0 0 0 0 0.1052 0 0 0 0 0.1052 0 0 0 1 0"/>
<feBlend mode="normal" in2="shape" result="effect1_innerShadow_582_4224"/>
</filter>
<filter id="filter8_i_582_4224" x="185.21" y="2424" width="430.79" height="414.185" filterUnits="userSpaceOnUse" color-interpolation-filters="sRGB">
<feFlood flood-opacity="0" result="BackgroundImageFix"/>
<feBlend mode="normal" in="SourceGraphic" in2="BackgroundImageFix" result="shape"/>
<feColorMatrix in="SourceAlpha" type="matrix" values="0 0 0 0 0 0 0 0 0 0 0 0 0 0 0 0 0 0 127 0" result="hardAlpha"/>
<feOffset dx="8" dy="8"/>
<feGaussianBlur stdDeviation="8"/>
<feComposite in2="hardAlpha" operator="arithmetic" k2="-1" k3="1"/>
<feColorMatrix type="matrix" values="0 0 0 0 0.105203 0 0 0 0 0.1052 0 0 0 0 0.1052 0 0 0 1 0"/>
<feBlend mode="normal" in2="shape" result="effect1_innerShadow_582_4224"/>
</filter>
<filter id="filter9_i_582_4224" x="0" y="3556" width="332.437" height="414.185" filterUnits="userSpaceOnUse" color-interpolation-filters="sRGB">
<feFlood flood-opacity="0" result="BackgroundImageFix"/>
<feBlend mode="normal" in="SourceGraphic" in2="BackgroundImageFix" result="shape"/>
<feColorMatrix in="SourceAlpha" type="matrix" values="0 0 0 0 0 0 0 0 0 0 0 0 0 0 0 0 0 0 127 0" result="hardAlpha"/>
<feOffset dx="8" dy="8"/>
<feGaussianBlur stdDeviation="8"/>
<feComposite in2="hardAlpha" operator="arithmetic" k2="-1" k3="1"/>
<feColorMatrix type="matrix" values="0 0 0 0 0.105203 0 0 0 0 0.1052 0 0 0 0 0.1052 0 0 0 1 0"/>
<feBlend mode="normal" in2="shape" result="effect1_innerShadow_582_4224"/>
</filter>
<filter id="filter10_i_582_4224" x="365.312" y="3839.56" width="108.908" height="110.185" filterUnits="userSpaceOnUse" color-interpolation-filters="sRGB">
<feFlood flood-opacity="0" result="BackgroundImageFix"/>
<feBlend mode="normal" in="SourceGraphic" in2="BackgroundImageFix" result="shape"/>
<feColorMatrix in="SourceAlpha" type="matrix" values="0 0 0 0 0 0 0 0 0 0 0 0 0 0 0 0 0 0 127 0" result="hardAlpha"/>
<feOffset dx="8" dy="8"/>
<feGaussianBlur stdDeviation="8"/>
<feComposite in2="hardAlpha" operator="arithmetic" k2="-1" k3="1"/>
<feColorMatrix type="matrix" values="0 0 0 0 0.105203 0 0 0 0 0.1052 0 0 0 0 0.1052 0 0 0 1 0"/>
<feBlend mode="normal" in2="shape" result="effect1_innerShadow_582_4224"/>
</filter>
<filter id="filter11_i_582_4224" x="185.21" y="3556" width="430.79" height="414.185" filterUnits="userSpaceOnUse" color-interpolation-filters="sRGB">
<feFlood flood-opacity="0" result="BackgroundImageFix"/>
<feBlend mode="normal" in="SourceGraphic" in2="BackgroundImageFix" result="shape"/>
<feColorMatrix in="SourceAlpha" type="matrix" values="0 0 0 0 0 0 0 0 0 0 0 0 0 0 0 0 0 0 127 0" result="hardAlpha"/>
<feOffset dx="8" dy="8"/>
<feGaussianBlur stdDeviation="8"/>
<feComposite in2="hardAlpha" operator="arithmetic" k2="-1" k3="1"/>
<feColorMatrix type="matrix" values="0 0 0 0 0.105203 0 0 0 0 0.1052 0 0 0 0 0.1052 0 0 0 1 0"/>
<feBlend mode="normal" in2="shape" result="effect1_innerShadow_582_4224"/>
</filter>
<filter id="filter12_i_582_4224" x="0" y="4688" width="332.437" height="414.185" filterUnits="userSpaceOnUse" color-interpolation-filters="sRGB">
<feFlood flood-opacity="0" result="BackgroundImageFix"/>
<feBlend mode="normal" in="SourceGraphic" in2="BackgroundImageFix" result="shape"/>
<feColorMatrix in="SourceAlpha" type="matrix" values="0 0 0 0 0 0 0 0 0 0 0 0 0 0 0 0 0 0 127 0" result="hardAlpha"/>
<feOffset dx="8" dy="8"/>
<feGaussianBlur stdDeviation="8"/>
<feComposite in2="hardAlpha" operator="arithmetic" k2="-1" k3="1"/>
<feColorMatrix type="matrix" values="0 0 0 0 0.105203 0 0 0 0 0.1052 0 0 0 0 0.1052 0 0 0 1 0"/>
<feBlend mode="normal" in2="shape" result="effect1_innerShadow_582_4224"/>
</filter>
<filter id="filter13_i_582_4224" x="365.312" y="4971.56" width="108.908" height="110.185" filterUnits="userSpaceOnUse" color-interpolation-filters="sRGB">
<feFlood flood-opacity="0" result="BackgroundImageFix"/>
<feBlend mode="normal" in="SourceGraphic" in2="BackgroundImageFix" result="shape"/>
<feColorMatrix in="SourceAlpha" type="matrix" values="0 0 0 0 0 0 0 0 0 0 0 0 0 0 0 0 0 0 127 0" result="hardAlpha"/>
<feOffset dx="8" dy="8"/>
<feGaussianBlur stdDeviation="8"/>
<feComposite in2="hardAlpha" operator="arithmetic" k2="-1" k3="1"/>
<feColorMatrix type="matrix" values="0 0 0 0 0.105203 0 0 0 0 0.1052 0 0 0 0 0.1052 0 0 0 1 0"/>
<feBlend mode="normal" in2="shape" result="effect1_innerShadow_582_4224"/>
</filter>
<filter id="filter14_i_582_4224" x="185.21" y="4688" width="430.79" height="414.185" filterUnits="userSpaceOnUse" color-interpolation-filters="sRGB">
<feFlood flood-opacity="0" result="BackgroundImageFix"/>
<feBlend mode="normal" in="SourceGraphic" in2="BackgroundImageFix" result="shape"/>
<feColorMatrix in="SourceAlpha" type="matrix" values="0 0 0 0 0 0 0 0 0 0 0 0 0 0 0 0 0 0 127 0" result="hardAlpha"/>
<feOffset dx="8" dy="8"/>
<feGaussianBlur stdDeviation="8"/>
<feComposite in2="hardAlpha" operator="arithmetic" k2="-1" k3="1"/>
<feColorMatrix type="matrix" values="0 0 0 0 0.105203 0 0 0 0 0.1052 0 0 0 0 0.1052 0 0 0 1 0"/>
<feBlend mode="normal" in2="shape" result="effect1_innerShadow_582_4224"/>
</filter>
<filter id="filter15_i_582_4224" x="0" y="5820" width="332.437" height="414.185" filterUnits="userSpaceOnUse" color-interpolation-filters="sRGB">
<feFlood flood-opacity="0" result="BackgroundImageFix"/>
<feBlend mode="normal" in="SourceGraphic" in2="BackgroundImageFix" result="shape"/>
<feColorMatrix in="SourceAlpha" type="matrix" values="0 0 0 0 0 0 0 0 0 0 0 0 0 0 0 0 0 0 127 0" result="hardAlpha"/>
<feOffset dx="8" dy="8"/>
<feGaussianBlur stdDeviation="8"/>
<feComposite in2="hardAlpha" operator="arithmetic" k2="-1" k3="1"/>
<feColorMatrix type="matrix" values="0 0 0 0 0.105203 0 0 0 0 0.1052 0 0 0 0 0.1052 0 0 0 1 0"/>
<feBlend mode="normal" in2="shape" result="effect1_innerShadow_582_4224"/>
</filter>
<filter id="filter16_i_582_4224" x="365.312" y="6103.56" width="108.908" height="110.185" filterUnits="userSpaceOnUse" color-interpolation-filters="sRGB">
<feFlood flood-opacity="0" result="BackgroundImageFix"/>
<feBlend mode="normal" in="SourceGraphic" in2="BackgroundImageFix" result="shape"/>
<feColorMatrix in="SourceAlpha" type="matrix" values="0 0 0 0 0 0 0 0 0 0 0 0 0 0 0 0 0 0 127 0" result="hardAlpha"/>
<feOffset dx="8" dy="8"/>
<feGaussianBlur stdDeviation="8"/>
<feComposite in2="hardAlpha" operator="arithmetic" k2="-1" k3="1"/>
<feColorMatrix type="matrix" values="0 0 0 0 0.105203 0 0 0 0 0.1052 0 0 0 0 0.1052 0 0 0 1 0"/>
<feBlend mode="normal" in2="shape" result="effect1_innerShadow_582_4224"/>
</filter>
<filter id="filter17_i_582_4224" x="185.21" y="5820" width="430.79" height="414.185" filterUnits="userSpaceOnUse" color-interpolation-filters="sRGB">
<feFlood flood-opacity="0" result="BackgroundImageFix"/>
<feBlend mode="normal" in="SourceGraphic" in2="BackgroundImageFix" result="shape"/>
<feColorMatrix in="SourceAlpha" type="matrix" values="0 0 0 0 0 0 0 0 0 0 0 0 0 0 0 0 0 0 127 0" result="hardAlpha"/>
<feOffset dx="8" dy="8"/>
<feGaussianBlur stdDeviation="8"/>
<feComposite in2="hardAlpha" operator="arithmetic" k2="-1" k3="1"/>
<feColorMatrix type="matrix" values="0 0 0 0 0.105203 0 0 0 0 0.1052 0 0 0 0 0.1052 0 0 0 1 0"/>
<feBlend mode="normal" in2="shape" result="effect1_innerShadow_582_4224"/>
</filter>
<filter id="filter18_i_582_4224" x="0" y="6952" width="332.437" height="414.185" filterUnits="userSpaceOnUse" color-interpolation-filters="sRGB">
<feFlood flood-opacity="0" result="BackgroundImageFix"/>
<feBlend mode="normal" in="SourceGraphic" in2="BackgroundImageFix" result="shape"/>
<feColorMatrix in="SourceAlpha" type="matrix" values="0 0 0 0 0 0 0 0 0 0 0 0 0 0 0 0 0 0 127 0" result="hardAlpha"/>
<feOffset dx="8" dy="8"/>
<feGaussianBlur stdDeviation="8"/>
<feComposite in2="hardAlpha" operator="arithmetic" k2="-1" k3="1"/>
<feColorMatrix type="matrix" values="0 0 0 0 0.105203 0 0 0 0 0.1052 0 0 0 0 0.1052 0 0 0 1 0"/>
<feBlend mode="normal" in2="shape" result="effect1_innerShadow_582_4224"/>
</filter>
<filter id="filter19_i_582_4224" x="365.312" y="7235.56" width="108.908" height="110.185" filterUnits="userSpaceOnUse" color-interpolation-filters="sRGB">
<feFlood flood-opacity="0" result="BackgroundImageFix"/>
<feBlend mode="normal" in="SourceGraphic" in2="BackgroundImageFix" result="shape"/>
<feColorMatrix in="SourceAlpha" type="matrix" values="0 0 0 0 0 0 0 0 0 0 0 0 0 0 0 0 0 0 127 0" result="hardAlpha"/>
<feOffset dx="8" dy="8"/>
<feGaussianBlur stdDeviation="8"/>
<feComposite in2="hardAlpha" operator="arithmetic" k2="-1" k3="1"/>
<feColorMatrix type="matrix" values="0 0 0 0 0.105203 0 0 0 0 0.1052 0 0 0 0 0.1052 0 0 0 1 0"/>
<feBlend mode="normal" in2="shape" result="effect1_innerShadow_582_4224"/>
</filter>
<filter id="filter20_i_582_4224" x="185.21" y="6952" width="430.79" height="414.185" filterUnits="userSpaceOnUse" color-interpolation-filters="sRGB">
<feFlood flood-opacity="0" result="BackgroundImageFix"/>
<feBlend mode="normal" in="SourceGraphic" in2="BackgroundImageFix" result="shape"/>
<feColorMatrix in="SourceAlpha" type="matrix" values="0 0 0 0 0 0 0 0 0 0 0 0 0 0 0 0 0 0 127 0" result="hardAlpha"/>
<feOffset dx="8" dy="8"/>
<feGaussianBlur stdDeviation="8"/>
<feComposite in2="hardAlpha" operator="arithmetic" k2="-1" k3="1"/>
<feColorMatrix type="matrix" values="0 0 0 0 0.105203 0 0 0 0 0.1052 0 0 0 0 0.1052 0 0 0 1 0"/>
<feBlend mode="normal" in2="shape" result="effect1_innerShadow_582_4224"/>
</filter>
<filter id="filter21_i_582_4224" x="0" y="8084" width="332.437" height="414.185" filterUnits="userSpaceOnUse" color-interpolation-filters="sRGB">
<feFlood flood-opacity="0" result="BackgroundImageFix"/>
<feBlend mode="normal" in="SourceGraphic" in2="BackgroundImageFix" result="shape"/>
<feColorMatrix in="SourceAlpha" type="matrix" values="0 0 0 0 0 0 0 0 0 0 0 0 0 0 0 0 0 0 127 0" result="hardAlpha"/>
<feOffset dx="8" dy="8"/>
<feGaussianBlur stdDeviation="8"/>
<feComposite in2="hardAlpha" operator="arithmetic" k2="-1" k3="1"/>
<feColorMatrix type="matrix" values="0 0 0 0 0.105203 0 0 0 0 0.1052 0 0 0 0 0.1052 0 0 0 1 0"/>
<feBlend mode="normal" in2="shape" result="effect1_innerShadow_582_4224"/>
</filter>
<filter id="filter22_i_582_4224" x="365.312" y="8367.56" width="108.908" height="110.185" filterUnits="userSpaceOnUse" color-interpolation-filters="sRGB">
<feFlood flood-opacity="0" result="BackgroundImageFix"/>
<feBlend mode="normal" in="SourceGraphic" in2="BackgroundImageFix" result="shape"/>
<feColorMatrix in="SourceAlpha" type="matrix" values="0 0 0 0 0 0 0 0 0 0 0 0 0 0 0 0 0 0 127 0" result="hardAlpha"/>
<feOffset dx="8" dy="8"/>
<feGaussianBlur stdDeviation="8"/>
<feComposite in2="hardAlpha" operator="arithmetic" k2="-1" k3="1"/>
<feColorMatrix type="matrix" values="0 0 0 0 0.105203 0 0 0 0 0.1052 0 0 0 0 0.1052 0 0 0 1 0"/>
<feBlend mode="normal" in2="shape" result="effect1_innerShadow_582_4224"/>
</filter>
<filter id="filter23_i_582_4224" x="185.21" y="8084" width="430.79" height="414.185" filterUnits="userSpaceOnUse" color-interpolation-filters="sRGB">
<feFlood flood-opacity="0" result="BackgroundImageFix"/>
<feBlend mode="normal" in="SourceGraphic" in2="BackgroundImageFix" result="shape"/>
<feColorMatrix in="SourceAlpha" type="matrix" values="0 0 0 0 0 0 0 0 0 0 0 0 0 0 0 0 0 0 127 0" result="hardAlpha"/>
<feOffset dx="8" dy="8"/>
<feGaussianBlur stdDeviation="8"/>
<feComposite in2="hardAlpha" operator="arithmetic" k2="-1" k3="1"/>
<feColorMatrix type="matrix" values="0 0 0 0 0.105203 0 0 0 0 0.1052 0 0 0 0 0.1052 0 0 0 1 0"/>
<feBlend mode="normal" in2="shape" result="effect1_innerShadow_582_4224"/>
</filter>
<filter id="filter24_i_582_4224" x="0" y="9216" width="332.437" height="414.185" filterUnits="userSpaceOnUse" color-interpolation-filters="sRGB">
<feFlood flood-opacity="0" result="BackgroundImageFix"/>
<feBlend mode="normal" in="SourceGraphic" in2="BackgroundImageFix" result="shape"/>
<feColorMatrix in="SourceAlpha" type="matrix" values="0 0 0 0 0 0 0 0 0 0 0 0 0 0 0 0 0 0 127 0" result="hardAlpha"/>
<feOffset dx="8" dy="8"/>
<feGaussianBlur stdDeviation="8"/>
<feComposite in2="hardAlpha" operator="arithmetic" k2="-1" k3="1"/>
<feColorMatrix type="matrix" values="0 0 0 0 0.105203 0 0 0 0 0.1052 0 0 0 0 0.1052 0 0 0 1 0"/>
<feBlend mode="normal" in2="shape" result="effect1_innerShadow_582_4224"/>
</filter>
<filter id="filter25_i_582_4224" x="365.312" y="9499.56" width="108.908" height="110.185" filterUnits="userSpaceOnUse" color-interpolation-filters="sRGB">
<feFlood flood-opacity="0" result="BackgroundImageFix"/>
<feBlend mode="normal" in="SourceGraphic" in2="BackgroundImageFix" result="shape"/>
<feColorMatrix in="SourceAlpha" type="matrix" values="0 0 0 0 0 0 0 0 0 0 0 0 0 0 0 0 0 0 127 0" result="hardAlpha"/>
<feOffset dx="8" dy="8"/>
<feGaussianBlur stdDeviation="8"/>
<feComposite in2="hardAlpha" operator="arithmetic" k2="-1" k3="1"/>
<feColorMatrix type="matrix" values="0 0 0 0 0.105203 0 0 0 0 0.1052 0 0 0 0 0.1052 0 0 0 1 0"/>
<feBlend mode="normal" in2="shape" result="effect1_innerShadow_582_4224"/>
</filter>
<filter id="filter26_i_582_4224" x="185.21" y="9216" width="430.79" height="414.185" filterUnits="userSpaceOnUse" color-interpolation-filters="sRGB">
<feFlood flood-opacity="0" result="BackgroundImageFix"/>
<feBlend mode="normal" in="SourceGraphic" in2="BackgroundImageFix" result="shape"/>
<feColorMatrix in="SourceAlpha" type="matrix" values="0 0 0 0 0 0 0 0 0 0 0 0 0 0 0 0 0 0 127 0" result="hardAlpha"/>
<feOffset dx="8" dy="8"/>
<feGaussianBlur stdDeviation="8"/>
<feComposite in2="hardAlpha" operator="arithmetic" k2="-1" k3="1"/>
<feColorMatrix type="matrix" values="0 0 0 0 0.105203 0 0 0 0 0.1052 0 0 0 0 0.1052 0 0 0 1 0"/>
<feBlend mode="normal" in2="shape" result="effect1_innerShadow_582_4224"/>
</filter>
<filter id="filter27_i_582_4224" x="160" y="726.185" width="332.437" height="414.185" filterUnits="userSpaceOnUse" color-interpolation-filters="sRGB">
<feFlood flood-opacity="0" result="BackgroundImageFix"/>
<feBlend mode="normal" in="SourceGraphic" in2="BackgroundImageFix" result="shape"/>
<feColorMatrix in="SourceAlpha" type="matrix" values="0 0 0 0 0 0 0 0 0 0 0 0 0 0 0 0 0 0 127 0" result="hardAlpha"/>
<feOffset dx="8" dy="8"/>
<feGaussianBlur stdDeviation="8"/>
<feComposite in2="hardAlpha" operator="arithmetic" k2="-1" k3="1"/>
<feColorMatrix type="matrix" values="0 0 0 0 0.105203 0 0 0 0 0.1052 0 0 0 0 0.1052 0 0 0 1 0"/>
<feBlend mode="normal" in2="shape" result="effect1_innerShadow_582_4224"/>
</filter>
<filter id="filter28_i_582_4224" x="525.312" y="1009.75" width="108.908" height="110.185" filterUnits="userSpaceOnUse" color-interpolation-filters="sRGB">
<feFlood flood-opacity="0" result="BackgroundImageFix"/>
<feBlend mode="normal" in="SourceGraphic" in2="BackgroundImageFix" result="shape"/>
<feColorMatrix in="SourceAlpha" type="matrix" values="0 0 0 0 0 0 0 0 0 0 0 0 0 0 0 0 0 0 127 0" result="hardAlpha"/>
<feOffset dx="8" dy="8"/>
<feGaussianBlur stdDeviation="8"/>
<feComposite in2="hardAlpha" operator="arithmetic" k2="-1" k3="1"/>
<feColorMatrix type="matrix" values="0 0 0 0 0.105203 0 0 0 0 0.1052 0 0 0 0 0.1052 0 0 0 1 0"/>
<feBlend mode="normal" in2="shape" result="effect1_innerShadow_582_4224"/>
</filter>
<filter id="filter29_i_582_4224" x="345.21" y="726.185" width="430.79" height="414.185" filterUnits="userSpaceOnUse" color-interpolation-filters="sRGB">
<feFlood flood-opacity="0" result="BackgroundImageFix"/>
<feBlend mode="normal" in="SourceGraphic" in2="BackgroundImageFix" result="shape"/>
<feColorMatrix in="SourceAlpha" type="matrix" values="0 0 0 0 0 0 0 0 0 0 0 0 0 0 0 0 0 0 127 0" result="hardAlpha"/>
<feOffset dx="8" dy="8"/>
<feGaussianBlur stdDeviation="8"/>
<feComposite in2="hardAlpha" operator="arithmetic" k2="-1" k3="1"/>
<feColorMatrix type="matrix" values="0 0 0 0 0.105203 0 0 0 0 0.1052 0 0 0 0 0.1052 0 0 0 1 0"/>
<feBlend mode="normal" in2="shape" result="effect1_innerShadow_582_4224"/>
</filter>
<filter id="filter30_i_582_4224" x="160" y="1858.18" width="332.437" height="414.185" filterUnits="userSpaceOnUse" color-interpolation-filters="sRGB">
<feFlood flood-opacity="0" result="BackgroundImageFix"/>
<feBlend mode="normal" in="SourceGraphic" in2="BackgroundImageFix" result="shape"/>
<feColorMatrix in="SourceAlpha" type="matrix" values="0 0 0 0 0 0 0 0 0 0 0 0 0 0 0 0 0 0 127 0" result="hardAlpha"/>
<feOffset dx="8" dy="8"/>
<feGaussianBlur stdDeviation="8"/>
<feComposite in2="hardAlpha" operator="arithmetic" k2="-1" k3="1"/>
<feColorMatrix type="matrix" values="0 0 0 0 0.105203 0 0 0 0 0.1052 0 0 0 0 0.1052 0 0 0 1 0"/>
<feBlend mode="normal" in2="shape" result="effect1_innerShadow_582_4224"/>
</filter>
<filter id="filter31_i_582_4224" x="525.312" y="2141.75" width="108.908" height="110.185" filterUnits="userSpaceOnUse" color-interpolation-filters="sRGB">
<feFlood flood-opacity="0" result="BackgroundImageFix"/>
<feBlend mode="normal" in="SourceGraphic" in2="BackgroundImageFix" result="shape"/>
<feColorMatrix in="SourceAlpha" type="matrix" values="0 0 0 0 0 0 0 0 0 0 0 0 0 0 0 0 0 0 127 0" result="hardAlpha"/>
<feOffset dx="8" dy="8"/>
<feGaussianBlur stdDeviation="8"/>
<feComposite in2="hardAlpha" operator="arithmetic" k2="-1" k3="1"/>
<feColorMatrix type="matrix" values="0 0 0 0 0.105203 0 0 0 0 0.1052 0 0 0 0 0.1052 0 0 0 1 0"/>
<feBlend mode="normal" in2="shape" result="effect1_innerShadow_582_4224"/>
</filter>
<filter id="filter32_i_582_4224" x="345.21" y="1858.18" width="430.79" height="414.185" filterUnits="userSpaceOnUse" color-interpolation-filters="sRGB">
<feFlood flood-opacity="0" result="BackgroundImageFix"/>
<feBlend mode="normal" in="SourceGraphic" in2="BackgroundImageFix" result="shape"/>
<feColorMatrix in="SourceAlpha" type="matrix" values="0 0 0 0 0 0 0 0 0 0 0 0 0 0 0 0 0 0 127 0" result="hardAlpha"/>
<feOffset dx="8" dy="8"/>
<feGaussianBlur stdDeviation="8"/>
<feComposite in2="hardAlpha" operator="arithmetic" k2="-1" k3="1"/>
<feColorMatrix type="matrix" values="0 0 0 0 0.105203 0 0 0 0 0.1052 0 0 0 0 0.1052 0 0 0 1 0"/>
<feBlend mode="normal" in2="shape" result="effect1_innerShadow_582_4224"/>
</filter>
<filter id="filter33_i_582_4224" x="160" y="2990.18" width="332.437" height="414.185" filterUnits="userSpaceOnUse" color-interpolation-filters="sRGB">
<feFlood flood-opacity="0" result="BackgroundImageFix"/>
<feBlend mode="normal" in="SourceGraphic" in2="BackgroundImageFix" result="shape"/>
<feColorMatrix in="SourceAlpha" type="matrix" values="0 0 0 0 0 0 0 0 0 0 0 0 0 0 0 0 0 0 127 0" result="hardAlpha"/>
<feOffset dx="8" dy="8"/>
<feGaussianBlur stdDeviation="8"/>
<feComposite in2="hardAlpha" operator="arithmetic" k2="-1" k3="1"/>
<feColorMatrix type="matrix" values="0 0 0 0 0.105203 0 0 0 0 0.1052 0 0 0 0 0.1052 0 0 0 1 0"/>
<feBlend mode="normal" in2="shape" result="effect1_innerShadow_582_4224"/>
</filter>
<filter id="filter34_i_582_4224" x="525.312" y="3273.75" width="108.908" height="110.185" filterUnits="userSpaceOnUse" color-interpolation-filters="sRGB">
<feFlood flood-opacity="0" result="BackgroundImageFix"/>
<feBlend mode="normal" in="SourceGraphic" in2="BackgroundImageFix" result="shape"/>
<feColorMatrix in="SourceAlpha" type="matrix" values="0 0 0 0 0 0 0 0 0 0 0 0 0 0 0 0 0 0 127 0" result="hardAlpha"/>
<feOffset dx="8" dy="8"/>
<feGaussianBlur stdDeviation="8"/>
<feComposite in2="hardAlpha" operator="arithmetic" k2="-1" k3="1"/>
<feColorMatrix type="matrix" values="0 0 0 0 0.105203 0 0 0 0 0.1052 0 0 0 0 0.1052 0 0 0 1 0"/>
<feBlend mode="normal" in2="shape" result="effect1_innerShadow_582_4224"/>
</filter>
<filter id="filter35_i_582_4224" x="345.21" y="2990.18" width="430.79" height="414.185" filterUnits="userSpaceOnUse" color-interpolation-filters="sRGB">
<feFlood flood-opacity="0" result="BackgroundImageFix"/>
<feBlend mode="normal" in="SourceGraphic" in2="BackgroundImageFix" result="shape"/>
<feColorMatrix in="SourceAlpha" type="matrix" values="0 0 0 0 0 0 0 0 0 0 0 0 0 0 0 0 0 0 127 0" result="hardAlpha"/>
<feOffset dx="8" dy="8"/>
<feGaussianBlur stdDeviation="8"/>
<feComposite in2="hardAlpha" operator="arithmetic" k2="-1" k3="1"/>
<feColorMatrix type="matrix" values="0 0 0 0 0.105203 0 0 0 0 0.1052 0 0 0 0 0.1052 0 0 0 1 0"/>
<feBlend mode="normal" in2="shape" result="effect1_innerShadow_582_4224"/>
</filter>
<filter id="filter36_i_582_4224" x="160" y="4122.18" width="332.437" height="414.185" filterUnits="userSpaceOnUse" color-interpolation-filters="sRGB">
<feFlood flood-opacity="0" result="BackgroundImageFix"/>
<feBlend mode="normal" in="SourceGraphic" in2="BackgroundImageFix" result="shape"/>
<feColorMatrix in="SourceAlpha" type="matrix" values="0 0 0 0 0 0 0 0 0 0 0 0 0 0 0 0 0 0 127 0" result="hardAlpha"/>
<feOffset dx="8" dy="8"/>
<feGaussianBlur stdDeviation="8"/>
<feComposite in2="hardAlpha" operator="arithmetic" k2="-1" k3="1"/>
<feColorMatrix type="matrix" values="0 0 0 0 0.105203 0 0 0 0 0.1052 0 0 0 0 0.1052 0 0 0 1 0"/>
<feBlend mode="normal" in2="shape" result="effect1_innerShadow_582_4224"/>
</filter>
<filter id="filter37_i_582_4224" x="525.312" y="4405.75" width="108.908" height="110.185" filterUnits="userSpaceOnUse" color-interpolation-filters="sRGB">
<feFlood flood-opacity="0" result="BackgroundImageFix"/>
<feBlend mode="normal" in="SourceGraphic" in2="BackgroundImageFix" result="shape"/>
<feColorMatrix in="SourceAlpha" type="matrix" values="0 0 0 0 0 0 0 0 0 0 0 0 0 0 0 0 0 0 127 0" result="hardAlpha"/>
<feOffset dx="8" dy="8"/>
<feGaussianBlur stdDeviation="8"/>
<feComposite in2="hardAlpha" operator="arithmetic" k2="-1" k3="1"/>
<feColorMatrix type="matrix" values="0 0 0 0 0.105203 0 0 0 0 0.1052 0 0 0 0 0.1052 0 0 0 1 0"/>
<feBlend mode="normal" in2="shape" result="effect1_innerShadow_582_4224"/>
</filter>
<filter id="filter38_i_582_4224" x="345.21" y="4122.18" width="430.79" height="414.185" filterUnits="userSpaceOnUse" color-interpolation-filters="sRGB">
<feFlood flood-opacity="0" result="BackgroundImageFix"/>
<feBlend mode="normal" in="SourceGraphic" in2="BackgroundImageFix" result="shape"/>
<feColorMatrix in="SourceAlpha" type="matrix" values="0 0 0 0 0 0 0 0 0 0 0 0 0 0 0 0 0 0 127 0" result="hardAlpha"/>
<feOffset dx="8" dy="8"/>
<feGaussianBlur stdDeviation="8"/>
<feComposite in2="hardAlpha" operator="arithmetic" k2="-1" k3="1"/>
<feColorMatrix type="matrix" values="0 0 0 0 0.105203 0 0 0 0 0.1052 0 0 0 0 0.1052 0 0 0 1 0"/>
<feBlend mode="normal" in2="shape" result="effect1_innerShadow_582_4224"/>
</filter>
<filter id="filter39_i_582_4224" x="160" y="5254.18" width="332.437" height="414.185" filterUnits="userSpaceOnUse" color-interpolation-filters="sRGB">
<feFlood flood-opacity="0" result="BackgroundImageFix"/>
<feBlend mode="normal" in="SourceGraphic" in2="BackgroundImageFix" result="shape"/>
<feColorMatrix in="SourceAlpha" type="matrix" values="0 0 0 0 0 0 0 0 0 0 0 0 0 0 0 0 0 0 127 0" result="hardAlpha"/>
<feOffset dx="8" dy="8"/>
<feGaussianBlur stdDeviation="8"/>
<feComposite in2="hardAlpha" operator="arithmetic" k2="-1" k3="1"/>
<feColorMatrix type="matrix" values="0 0 0 0 0.105203 0 0 0 0 0.1052 0 0 0 0 0.1052 0 0 0 1 0"/>
<feBlend mode="normal" in2="shape" result="effect1_innerShadow_582_4224"/>
</filter>
<filter id="filter40_i_582_4224" x="525.312" y="5537.75" width="108.908" height="110.185" filterUnits="userSpaceOnUse" color-interpolation-filters="sRGB">
<feFlood flood-opacity="0" result="BackgroundImageFix"/>
<feBlend mode="normal" in="SourceGraphic" in2="BackgroundImageFix" result="shape"/>
<feColorMatrix in="SourceAlpha" type="matrix" values="0 0 0 0 0 0 0 0 0 0 0 0 0 0 0 0 0 0 127 0" result="hardAlpha"/>
<feOffset dx="8" dy="8"/>
<feGaussianBlur stdDeviation="8"/>
<feComposite in2="hardAlpha" operator="arithmetic" k2="-1" k3="1"/>
<feColorMatrix type="matrix" values="0 0 0 0 0.105203 0 0 0 0 0.1052 0 0 0 0 0.1052 0 0 0 1 0"/>
<feBlend mode="normal" in2="shape" result="effect1_innerShadow_582_4224"/>
</filter>
<filter id="filter41_i_582_4224" x="345.21" y="5254.18" width="430.79" height="414.185" filterUnits="userSpaceOnUse" color-interpolation-filters="sRGB">
<feFlood flood-opacity="0" result="BackgroundImageFix"/>
<feBlend mode="normal" in="SourceGraphic" in2="BackgroundImageFix" result="shape"/>
<feColorMatrix in="SourceAlpha" type="matrix" values="0 0 0 0 0 0 0 0 0 0 0 0 0 0 0 0 0 0 127 0" result="hardAlpha"/>
<feOffset dx="8" dy="8"/>
<feGaussianBlur stdDeviation="8"/>
<feComposite in2="hardAlpha" operator="arithmetic" k2="-1" k3="1"/>
<feColorMatrix type="matrix" values="0 0 0 0 0.105203 0 0 0 0 0.1052 0 0 0 0 0.1052 0 0 0 1 0"/>
<feBlend mode="normal" in2="shape" result="effect1_innerShadow_582_4224"/>
</filter>
<filter id="filter42_i_582_4224" x="160" y="6386.18" width="332.437" height="414.185" filterUnits="userSpaceOnUse" color-interpolation-filters="sRGB">
<feFlood flood-opacity="0" result="BackgroundImageFix"/>
<feBlend mode="normal" in="SourceGraphic" in2="BackgroundImageFix" result="shape"/>
<feColorMatrix in="SourceAlpha" type="matrix" values="0 0 0 0 0 0 0 0 0 0 0 0 0 0 0 0 0 0 127 0" result="hardAlpha"/>
<feOffset dx="8" dy="8"/>
<feGaussianBlur stdDeviation="8"/>
<feComposite in2="hardAlpha" operator="arithmetic" k2="-1" k3="1"/>
<feColorMatrix type="matrix" values="0 0 0 0 0.105203 0 0 0 0 0.1052 0 0 0 0 0.1052 0 0 0 1 0"/>
<feBlend mode="normal" in2="shape" result="effect1_innerShadow_582_4224"/>
</filter>
<filter id="filter43_i_582_4224" x="525.312" y="6669.75" width="108.908" height="110.185" filterUnits="userSpaceOnUse" color-interpolation-filters="sRGB">
<feFlood flood-opacity="0" result="BackgroundImageFix"/>
<feBlend mode="normal" in="SourceGraphic" in2="BackgroundImageFix" result="shape"/>
<feColorMatrix in="SourceAlpha" type="matrix" values="0 0 0 0 0 0 0 0 0 0 0 0 0 0 0 0 0 0 127 0" result="hardAlpha"/>
<feOffset dx="8" dy="8"/>
<feGaussianBlur stdDeviation="8"/>
<feComposite in2="hardAlpha" operator="arithmetic" k2="-1" k3="1"/>
<feColorMatrix type="matrix" values="0 0 0 0 0.105203 0 0 0 0 0.1052 0 0 0 0 0.1052 0 0 0 1 0"/>
<feBlend mode="normal" in2="shape" result="effect1_innerShadow_582_4224"/>
</filter>
<filter id="filter44_i_582_4224" x="345.21" y="6386.18" width="430.79" height="414.185" filterUnits="userSpaceOnUse" color-interpolation-filters="sRGB">
<feFlood flood-opacity="0" result="BackgroundImageFix"/>
<feBlend mode="normal" in="SourceGraphic" in2="BackgroundImageFix" result="shape"/>
<feColorMatrix in="SourceAlpha" type="matrix" values="0 0 0 0 0 0 0 0 0 0 0 0 0 0 0 0 0 0 127 0" result="hardAlpha"/>
<feOffset dx="8" dy="8"/>
<feGaussianBlur stdDeviation="8"/>
<feComposite in2="hardAlpha" operator="arithmetic" k2="-1" k3="1"/>
<feColorMatrix type="matrix" values="0 0 0 0 0.105203 0 0 0 0 0.1052 0 0 0 0 0.1052 0 0 0 1 0"/>
<feBlend mode="normal" in2="shape" result="effect1_innerShadow_582_4224"/>
</filter>
<filter id="filter45_i_582_4224" x="160" y="7518.18" width="332.437" height="414.185" filterUnits="userSpaceOnUse" color-interpolation-filters="sRGB">
<feFlood flood-opacity="0" result="BackgroundImageFix"/>
<feBlend mode="normal" in="SourceGraphic" in2="BackgroundImageFix" result="shape"/>
<feColorMatrix in="SourceAlpha" type="matrix" values="0 0 0 0 0 0 0 0 0 0 0 0 0 0 0 0 0 0 127 0" result="hardAlpha"/>
<feOffset dx="8" dy="8"/>
<feGaussianBlur stdDeviation="8"/>
<feComposite in2="hardAlpha" operator="arithmetic" k2="-1" k3="1"/>
<feColorMatrix type="matrix" values="0 0 0 0 0.105203 0 0 0 0 0.1052 0 0 0 0 0.1052 0 0 0 1 0"/>
<feBlend mode="normal" in2="shape" result="effect1_innerShadow_582_4224"/>
</filter>
<filter id="filter46_i_582_4224" x="525.312" y="7801.75" width="108.908" height="110.185" filterUnits="userSpaceOnUse" color-interpolation-filters="sRGB">
<feFlood flood-opacity="0" result="BackgroundImageFix"/>
<feBlend mode="normal" in="SourceGraphic" in2="BackgroundImageFix" result="shape"/>
<feColorMatrix in="SourceAlpha" type="matrix" values="0 0 0 0 0 0 0 0 0 0 0 0 0 0 0 0 0 0 127 0" result="hardAlpha"/>
<feOffset dx="8" dy="8"/>
<feGaussianBlur stdDeviation="8"/>
<feComposite in2="hardAlpha" operator="arithmetic" k2="-1" k3="1"/>
<feColorMatrix type="matrix" values="0 0 0 0 0.105203 0 0 0 0 0.1052 0 0 0 0 0.1052 0 0 0 1 0"/>
<feBlend mode="normal" in2="shape" result="effect1_innerShadow_582_4224"/>
</filter>
<filter id="filter47_i_582_4224" x="345.21" y="7518.18" width="430.79" height="414.185" filterUnits="userSpaceOnUse" color-interpolation-filters="sRGB">
<feFlood flood-opacity="0" result="BackgroundImageFix"/>
<feBlend mode="normal" in="SourceGraphic" in2="BackgroundImageFix" result="shape"/>
<feColorMatrix in="SourceAlpha" type="matrix" values="0 0 0 0 0 0 0 0 0 0 0 0 0 0 0 0 0 0 127 0" result="hardAlpha"/>
<feOffset dx="8" dy="8"/>
<feGaussianBlur stdDeviation="8"/>
<feComposite in2="hardAlpha" operator="arithmetic" k2="-1" k3="1"/>
<feColorMatrix type="matrix" values="0 0 0 0 0.105203 0 0 0 0 0.1052 0 0 0 0 0.1052 0 0 0 1 0"/>
<feBlend mode="normal" in2="shape" result="effect1_innerShadow_582_4224"/>
</filter>
<filter id="filter48_i_582_4224" x="160" y="8650.18" width="332.437" height="414.185" filterUnits="userSpaceOnUse" color-interpolation-filters="sRGB">
<feFlood flood-opacity="0" result="BackgroundImageFix"/>
<feBlend mode="normal" in="SourceGraphic" in2="BackgroundImageFix" result="shape"/>
<feColorMatrix in="SourceAlpha" type="matrix" values="0 0 0 0 0 0 0 0 0 0 0 0 0 0 0 0 0 0 127 0" result="hardAlpha"/>
<feOffset dx="8" dy="8"/>
<feGaussianBlur stdDeviation="8"/>
<feComposite in2="hardAlpha" operator="arithmetic" k2="-1" k3="1"/>
<feColorMatrix type="matrix" values="0 0 0 0 0.105203 0 0 0 0 0.1052 0 0 0 0 0.1052 0 0 0 1 0"/>
<feBlend mode="normal" in2="shape" result="effect1_innerShadow_582_4224"/>
</filter>
<filter id="filter49_i_582_4224" x="525.312" y="8933.75" width="108.908" height="110.185" filterUnits="userSpaceOnUse" color-interpolation-filters="sRGB">
<feFlood flood-opacity="0" result="BackgroundImageFix"/>
<feBlend mode="normal" in="SourceGraphic" in2="BackgroundImageFix" result="shape"/>
<feColorMatrix in="SourceAlpha" type="matrix" values="0 0 0 0 0 0 0 0 0 0 0 0 0 0 0 0 0 0 127 0" result="hardAlpha"/>
<feOffset dx="8" dy="8"/>
<feGaussianBlur stdDeviation="8"/>
<feComposite in2="hardAlpha" operator="arithmetic" k2="-1" k3="1"/>
<feColorMatrix type="matrix" values="0 0 0 0 0.105203 0 0 0 0 0.1052 0 0 0 0 0.1052 0 0 0 1 0"/>
<feBlend mode="normal" in2="shape" result="effect1_innerShadow_582_4224"/>
</filter>
<filter id="filter50_i_582_4224" x="345.21" y="8650.18" width="430.79" height="414.185" filterUnits="userSpaceOnUse" color-interpolation-filters="sRGB">
<feFlood flood-opacity="0" result="BackgroundImageFix"/>
<feBlend mode="normal" in="SourceGraphic" in2="BackgroundImageFix" result="shape"/>
<feColorMatrix in="SourceAlpha" type="matrix" values="0 0 0 0 0 0 0 0 0 0 0 0 0 0 0 0 0 0 127 0" result="hardAlpha"/>
<feOffset dx="8" dy="8"/>
<feGaussianBlur stdDeviation="8"/>
<feComposite in2="hardAlpha" operator="arithmetic" k2="-1" k3="1"/>
<feColorMatrix type="matrix" values="0 0 0 0 0.105203 0 0 0 0 0.1052 0 0 0 0 0.1052 0 0 0 1 0"/>
<feBlend mode="normal" in2="shape" result="effect1_innerShadow_582_4224"/>
</filter>
</defs>
</svg>
