<svg width="53" height="70" viewBox="0 0 53 70" fill="none" xmlns="http://www.w3.org/2000/svg">
<g filter="url(#filter0_dii_309_615)">
<path d="M24.5001 63.85C17.4167 63.85 12.0051 61.1866 8.26506 55.86C4.52506 50.4766 2.65506 42.8266 2.65506 32.91C2.65506 22.88 4.52506 15.2583 8.26506 10.045C12.0051 4.83164 17.4167 2.22498 24.5001 2.22498C31.6401 2.22498 37.0517 4.83164 40.7351 10.045C44.4751 15.2583 46.3451 22.8516 46.3451 32.825C46.3451 42.7983 44.4751 50.4766 40.7351 55.86C36.9951 61.1866 31.5834 63.85 24.5001 63.85ZM24.5001 54.925C28.3534 54.925 31.1867 53.14 33.0001 49.57C34.8701 46 35.8051 40.4183 35.8051 32.825C35.8051 25.2316 34.8701 19.735 33.0001 16.335C31.1867 12.8783 28.3534 11.15 24.5001 11.15C20.7034 11.15 17.8701 12.8783 16.0001 16.335C14.1301 19.735 13.1951 25.2316 13.1951 32.825C13.1951 40.4183 14.1301 46 16.0001 49.57C17.8701 53.14 20.7034 54.925 24.5001 54.925Z" fill="url(#paint0_radial_309_615)"/>
</g>
<defs>
<filter id="filter0_dii_309_615" x="0.65506" y="0.224976" width="51.69" height="69.625" filterUnits="userSpaceOnUse" color-interpolation-filters="sRGB">
<feFlood flood-opacity="0" result="BackgroundImageFix"/>
<feColorMatrix in="SourceAlpha" type="matrix" values="0 0 0 0 0 0 0 0 0 0 0 0 0 0 0 0 0 0 127 0" result="hardAlpha"/>
<feOffset dx="2" dy="2"/>
<feGaussianBlur stdDeviation="2"/>
<feComposite in2="hardAlpha" operator="out"/>
<feColorMatrix type="matrix" values="0 0 0 0 0 0 0 0 0 0 0 0 0 0 0 0 0 0 0.2 0"/>
<feBlend mode="normal" in2="BackgroundImageFix" result="effect1_dropShadow_309_615"/>
<feBlend mode="normal" in="SourceGraphic" in2="effect1_dropShadow_309_615" result="shape"/>
<feColorMatrix in="SourceAlpha" type="matrix" values="0 0 0 0 0 0 0 0 0 0 0 0 0 0 0 0 0 0 127 0" result="hardAlpha"/>
<feOffset dx="2" dy="2"/>
<feGaussianBlur stdDeviation="2"/>
<feComposite in2="hardAlpha" operator="arithmetic" k2="-1" k3="1"/>
<feColorMatrix type="matrix" values="0 0 0 0 1 0 0 0 0 0.863853 0 0 0 0 0.525 0 0 0 1 0"/>
<feBlend mode="normal" in2="shape" result="effect2_innerShadow_309_615"/>
<feColorMatrix in="SourceAlpha" type="matrix" values="0 0 0 0 0 0 0 0 0 0 0 0 0 0 0 0 0 0 127 0" result="hardAlpha"/>
<feOffset dx="-2" dy="-2"/>
<feGaussianBlur stdDeviation="2"/>
<feComposite in2="hardAlpha" operator="arithmetic" k2="-1" k3="1"/>
<feColorMatrix type="matrix" values="0 0 0 0 0 0 0 0 0 0 0 0 0 0 0 0 0 0 0.35 0"/>
<feBlend mode="normal" in2="effect2_innerShadow_309_615" result="effect3_innerShadow_309_615"/>
</filter>
<radialGradient id="paint0_radial_309_615" cx="0" cy="0" r="1" gradientUnits="userSpaceOnUse" gradientTransform="translate(100.344 -53.4429) scale(19.6605 27.7312)">
<stop stop-color="#FFC942"/>
<stop offset="0.28" stop-color="#FEC73E"/>
<stop offset="0.57" stop-color="#FBC131"/>
<stop offset="0.86" stop-color="#F5B71D"/>
<stop offset="1" stop-color="#F2B110"/>
</radialGradient>
</defs>
</svg>
