<svg width="48" height="69" viewBox="0 0 48 69" fill="none" xmlns="http://www.w3.org/2000/svg">
<g id="1" filter="url(#filter0_dii_309_606)">
<path d="M7.25999 63C4.14333 63 2.58499 61.47 2.58499 58.41C2.58499 55.4634 4.14333 53.99 7.25999 53.99H16.78V15.485L9.55499 19.82C8.19499 20.6134 6.94833 20.8117 5.81499 20.415C4.73833 20.0184 3.91666 19.31 3.34999 18.29C2.78332 17.27 2.61332 16.165 2.83999 14.975C3.06666 13.7284 3.85999 12.7084 5.21999 11.915L16.95 4.86002C18.0833 4.18002 19.2167 3.61336 20.35 3.16002C21.4833 2.65002 22.5317 2.39502 23.495 2.39502C24.685 2.39502 25.6767 2.73502 26.47 3.41502C27.2633 4.03835 27.66 5.08669 27.66 6.56002V53.99H36.33C39.4467 53.99 41.005 55.4634 41.005 58.41C41.005 61.47 39.4467 63 36.33 63H7.25999Z" fill="url(#paint0_radial_309_606)"/>
</g>
<defs>
<filter id="filter0_dii_309_606" x="0.584991" y="0.39502" width="46.42" height="68.605" filterUnits="userSpaceOnUse" color-interpolation-filters="sRGB">
<feFlood flood-opacity="0" result="BackgroundImageFix"/>
<feColorMatrix in="SourceAlpha" type="matrix" values="0 0 0 0 0 0 0 0 0 0 0 0 0 0 0 0 0 0 127 0" result="hardAlpha"/>
<feOffset dx="2" dy="2"/>
<feGaussianBlur stdDeviation="2"/>
<feComposite in2="hardAlpha" operator="out"/>
<feColorMatrix type="matrix" values="0 0 0 0 0 0 0 0 0 0 0 0 0 0 0 0 0 0 0.2 0"/>
<feBlend mode="normal" in2="BackgroundImageFix" result="effect1_dropShadow_309_606"/>
<feBlend mode="normal" in="SourceGraphic" in2="effect1_dropShadow_309_606" result="shape"/>
<feColorMatrix in="SourceAlpha" type="matrix" values="0 0 0 0 0 0 0 0 0 0 0 0 0 0 0 0 0 0 127 0" result="hardAlpha"/>
<feOffset dx="2" dy="2"/>
<feGaussianBlur stdDeviation="2"/>
<feComposite in2="hardAlpha" operator="arithmetic" k2="-1" k3="1"/>
<feColorMatrix type="matrix" values="0 0 0 0 1 0 0 0 0 0.863853 0 0 0 0 0.525 0 0 0 1 0"/>
<feBlend mode="normal" in2="shape" result="effect2_innerShadow_309_606"/>
<feColorMatrix in="SourceAlpha" type="matrix" values="0 0 0 0 0 0 0 0 0 0 0 0 0 0 0 0 0 0 127 0" result="hardAlpha"/>
<feOffset dx="-2" dy="-2"/>
<feGaussianBlur stdDeviation="2"/>
<feComposite in2="hardAlpha" operator="arithmetic" k2="-1" k3="1"/>
<feColorMatrix type="matrix" values="0 0 0 0 0 0 0 0 0 0 0 0 0 0 0 0 0 0 0.35 0"/>
<feBlend mode="normal" in2="effect2_innerShadow_309_606" result="effect3_innerShadow_309_606"/>
</filter>
<radialGradient id="paint0_radial_309_606" cx="0" cy="0" r="1" gradientUnits="userSpaceOnUse" gradientTransform="translate(88.4903 -52.3515) scale(17.289 27.2723)">
<stop stop-color="#FFC942"/>
<stop offset="0.28" stop-color="#FEC73E"/>
<stop offset="0.57" stop-color="#FBC131"/>
<stop offset="0.86" stop-color="#F5B71D"/>
<stop offset="1" stop-color="#F2B110"/>
</radialGradient>
</defs>
</svg>
