<svg width="52" height="69" viewBox="0 0 52 69" fill="none" xmlns="http://www.w3.org/2000/svg">
<g id="2" filter="url(#filter0_dii_309_607)">
<path d="M9.30501 63C7.49168 63 6.16001 62.6033 5.31001 61.81C4.51668 60.96 4.12001 59.7416 4.12001 58.155C4.12001 57.1916 4.37501 56.2566 4.88501 55.35C5.39501 54.4433 6.13168 53.48 7.09501 52.46L24.18 34.27C26.7867 31.55 28.6567 29.085 29.79 26.875C30.9233 24.6083 31.49 22.3416 31.49 20.075C31.49 14.295 28.005 11.405 21.035 11.405C19.1083 11.405 17.1817 11.6883 15.255 12.255C13.3283 12.765 11.3733 13.6716 9.39001 14.975C8.14334 15.825 6.98168 16.08 5.90501 15.74C4.82834 15.4 4.00668 14.72 3.44001 13.7C2.87334 12.6233 2.67501 11.49 2.84501 10.3C3.07168 9.10998 3.80834 8.08998 5.05501 7.23998C7.49168 5.59664 10.2117 4.34997 13.215 3.49998C16.275 2.64998 19.335 2.22498 22.395 2.22498C28.7983 2.22498 33.7 3.66998 37.1 6.55998C40.5567 9.44998 42.285 13.5866 42.285 18.97C42.285 22.5966 41.4067 26.0816 39.65 29.425C37.95 32.7683 35.2583 36.3666 31.575 40.22L18.4 53.99H40.585C43.7017 53.99 45.26 55.4633 45.26 58.41C45.26 61.47 43.7017 63 40.585 63H9.30501Z" fill="url(#paint0_radial_309_607)"/>
</g>
<defs>
<filter id="filter0_dii_309_607" x="0.786163" y="0.224976" width="50.4738" height="68.775" filterUnits="userSpaceOnUse" color-interpolation-filters="sRGB">
<feFlood flood-opacity="0" result="BackgroundImageFix"/>
<feColorMatrix in="SourceAlpha" type="matrix" values="0 0 0 0 0 0 0 0 0 0 0 0 0 0 0 0 0 0 127 0" result="hardAlpha"/>
<feOffset dx="2" dy="2"/>
<feGaussianBlur stdDeviation="2"/>
<feComposite in2="hardAlpha" operator="out"/>
<feColorMatrix type="matrix" values="0 0 0 0 0 0 0 0 0 0 0 0 0 0 0 0 0 0 0.2 0"/>
<feBlend mode="normal" in2="BackgroundImageFix" result="effect1_dropShadow_309_607"/>
<feBlend mode="normal" in="SourceGraphic" in2="effect1_dropShadow_309_607" result="shape"/>
<feColorMatrix in="SourceAlpha" type="matrix" values="0 0 0 0 0 0 0 0 0 0 0 0 0 0 0 0 0 0 127 0" result="hardAlpha"/>
<feOffset dx="2" dy="2"/>
<feGaussianBlur stdDeviation="2"/>
<feComposite in2="hardAlpha" operator="arithmetic" k2="-1" k3="1"/>
<feColorMatrix type="matrix" values="0 0 0 0 1 0 0 0 0 0.863853 0 0 0 0 0.525 0 0 0 1 0"/>
<feBlend mode="normal" in2="shape" result="effect2_innerShadow_309_607"/>
<feColorMatrix in="SourceAlpha" type="matrix" values="0 0 0 0 0 0 0 0 0 0 0 0 0 0 0 0 0 0 127 0" result="hardAlpha"/>
<feOffset dx="-2" dy="-2"/>
<feGaussianBlur stdDeviation="2"/>
<feComposite in2="hardAlpha" operator="arithmetic" k2="-1" k3="1"/>
<feColorMatrix type="matrix" values="0 0 0 0 0 0 0 0 0 0 0 0 0 0 0 0 0 0 0.35 0"/>
<feBlend mode="normal" in2="effect2_innerShadow_309_607" result="effect3_innerShadow_309_607"/>
</filter>
<radialGradient id="paint0_radial_309_607" cx="0" cy="0" r="1" gradientUnits="userSpaceOnUse" gradientTransform="translate(97.7557 -52.6751) scale(19.1132 27.3487)">
<stop stop-color="#FFC942"/>
<stop offset="0.28" stop-color="#FEC73E"/>
<stop offset="0.57" stop-color="#FBC131"/>
<stop offset="0.86" stop-color="#F5B71D"/>
<stop offset="1" stop-color="#F2B110"/>
</radialGradient>
</defs>
</svg>
