<svg width="51" height="70" viewBox="0 0 51 70" fill="none" xmlns="http://www.w3.org/2000/svg">
<g filter="url(#filter0_dii_309_608)">
<path d="M23.31 63.85C20.25 63.85 17.0767 63.4533 13.79 62.66C10.5033 61.8666 7.64167 60.6766 5.205 59.09C3.78834 58.1266 2.93834 57.05 2.655 55.86C2.37167 54.6133 2.51334 53.5083 3.08 52.545C3.64667 51.525 4.49667 50.845 5.63 50.505C6.82 50.165 8.15167 50.3916 9.625 51.185C11.9483 52.4316 14.1867 53.3383 16.34 53.905C18.4933 54.415 20.7033 54.67 22.97 54.67C30.62 54.67 34.445 51.6666 34.445 45.66C34.445 42.8266 33.4817 40.73 31.555 39.37C29.685 37.9533 26.9367 37.245 23.31 37.245H17.87C16.2833 37.245 15.065 36.8483 14.215 36.055C13.4217 35.2616 13.025 34.1566 13.025 32.74C13.025 31.3233 13.4217 30.2183 14.215 29.425C15.065 28.6316 16.2833 28.235 17.87 28.235H22.29C25.4633 28.235 27.985 27.47 29.855 25.94C31.725 24.3533 32.66 22.1716 32.66 19.395C32.66 16.7883 31.7817 14.805 30.025 13.445C28.325 12.085 25.8317 11.405 22.545 11.405C20.4483 11.405 18.465 11.66 16.595 12.17C14.7817 12.6233 12.77 13.5016 10.56 14.805C9.25667 15.5983 8.06667 15.825 6.99 15.485C5.91334 15.0883 5.06334 14.4083 4.44 13.445C3.87334 12.425 3.70334 11.32 3.93 10.13C4.15667 8.93998 4.95 7.91998 6.31 7.06997C11.2967 3.83998 17.02 2.22498 23.48 2.22498C29.7133 2.22498 34.5583 3.64164 38.015 6.47498C41.4717 9.25164 43.2 13.1333 43.2 18.12C43.2 21.35 42.3783 24.1833 40.735 26.62C39.0917 29.0566 36.8533 30.8133 34.02 31.89C37.4767 32.8533 40.1683 34.6383 42.095 37.245C44.0217 39.795 44.985 42.9116 44.985 46.595C44.985 51.9216 43.0583 56.1433 39.205 59.26C35.3517 62.32 30.0533 63.85 23.31 63.85Z" fill="url(#paint0_radial_309_608)"/>
</g>
<defs>
<filter id="filter0_dii_309_608" x="0.513336" y="0.224976" width="50.4717" height="69.625" filterUnits="userSpaceOnUse" color-interpolation-filters="sRGB">
<feFlood flood-opacity="0" result="BackgroundImageFix"/>
<feColorMatrix in="SourceAlpha" type="matrix" values="0 0 0 0 0 0 0 0 0 0 0 0 0 0 0 0 0 0 127 0" result="hardAlpha"/>
<feOffset dx="2" dy="2"/>
<feGaussianBlur stdDeviation="2"/>
<feComposite in2="hardAlpha" operator="out"/>
<feColorMatrix type="matrix" values="0 0 0 0 0 0 0 0 0 0 0 0 0 0 0 0 0 0 0.2 0"/>
<feBlend mode="normal" in2="BackgroundImageFix" result="effect1_dropShadow_309_608"/>
<feBlend mode="normal" in="SourceGraphic" in2="effect1_dropShadow_309_608" result="shape"/>
<feColorMatrix in="SourceAlpha" type="matrix" values="0 0 0 0 0 0 0 0 0 0 0 0 0 0 0 0 0 0 127 0" result="hardAlpha"/>
<feOffset dx="2" dy="2"/>
<feGaussianBlur stdDeviation="2"/>
<feComposite in2="hardAlpha" operator="arithmetic" k2="-1" k3="1"/>
<feColorMatrix type="matrix" values="0 0 0 0 1 0 0 0 0 0.863853 0 0 0 0 0.525 0 0 0 1 0"/>
<feBlend mode="normal" in2="shape" result="effect2_innerShadow_309_608"/>
<feColorMatrix in="SourceAlpha" type="matrix" values="0 0 0 0 0 0 0 0 0 0 0 0 0 0 0 0 0 0 127 0" result="hardAlpha"/>
<feOffset dx="-2" dy="-2"/>
<feGaussianBlur stdDeviation="2"/>
<feComposite in2="hardAlpha" operator="arithmetic" k2="-1" k3="1"/>
<feColorMatrix type="matrix" values="0 0 0 0 0 0 0 0 0 0 0 0 0 0 0 0 0 0 0.35 0"/>
<feBlend mode="normal" in2="effect2_innerShadow_309_608" result="effect3_innerShadow_309_608"/>
</filter>
<radialGradient id="paint0_radial_309_608" cx="0" cy="0" r="1" gradientUnits="userSpaceOnUse" gradientTransform="translate(97.478 -53.4429) scale(19.1122 27.7312)">
<stop stop-color="#FFC942"/>
<stop offset="0.28" stop-color="#FEC73E"/>
<stop offset="0.57" stop-color="#FBC131"/>
<stop offset="0.86" stop-color="#F5B71D"/>
<stop offset="1" stop-color="#F2B110"/>
</radialGradient>
</defs>
</svg>
