<svg width="56" height="70" viewBox="0 0 56 70" fill="none" xmlns="http://www.w3.org/2000/svg">
<g id="4" filter="url(#filter0_dii_309_609)">
<path d="M35.105 63.68C33.405 63.68 32.0734 63.2267 31.11 62.32C30.1467 61.3567 29.665 59.9967 29.665 58.24V51.61H8.67001C6.91335 51.61 5.49668 51.2417 4.42001 50.505C3.40001 49.7684 2.89001 48.635 2.89001 47.105C2.89001 46.1417 3.11668 45.1217 3.57001 44.045C4.08001 42.9684 4.95835 41.5517 6.20501 39.795L29.495 6.05002C30.2884 4.86002 31.1667 3.95335 32.13 3.33002C33.0933 2.70669 34.1984 2.39502 35.445 2.39502C36.9184 2.39502 38.1367 2.84835 39.1 3.75502C40.0634 4.60502 40.545 5.96502 40.545 7.83502V42.6H44.71C47.9967 42.6 49.64 44.1017 49.64 47.105C49.64 50.1084 47.9967 51.61 44.71 51.61H40.545V58.24C40.545 59.9967 40.0634 61.3567 39.1 62.32C38.1367 63.2267 36.805 63.68 35.105 63.68ZM29.665 42.6V19.735L14.025 42.6H29.665Z" fill="url(#paint0_radial_309_609)"/>
</g>
<defs>
<filter id="filter0_dii_309_609" x="0.890015" y="0.39502" width="54.75" height="69.285" filterUnits="userSpaceOnUse" color-interpolation-filters="sRGB">
<feFlood flood-opacity="0" result="BackgroundImageFix"/>
<feColorMatrix in="SourceAlpha" type="matrix" values="0 0 0 0 0 0 0 0 0 0 0 0 0 0 0 0 0 0 127 0" result="hardAlpha"/>
<feOffset dx="2" dy="2"/>
<feGaussianBlur stdDeviation="2"/>
<feComposite in2="hardAlpha" operator="out"/>
<feColorMatrix type="matrix" values="0 0 0 0 0 0 0 0 0 0 0 0 0 0 0 0 0 0 0.2 0"/>
<feBlend mode="normal" in2="BackgroundImageFix" result="effect1_dropShadow_309_609"/>
<feBlend mode="normal" in="SourceGraphic" in2="effect1_dropShadow_309_609" result="shape"/>
<feColorMatrix in="SourceAlpha" type="matrix" values="0 0 0 0 0 0 0 0 0 0 0 0 0 0 0 0 0 0 127 0" result="hardAlpha"/>
<feOffset dx="2" dy="2"/>
<feGaussianBlur stdDeviation="2"/>
<feComposite in2="hardAlpha" operator="arithmetic" k2="-1" k3="1"/>
<feColorMatrix type="matrix" values="0 0 0 0 1 0 0 0 0 0.863853 0 0 0 0 0.525 0 0 0 1 0"/>
<feBlend mode="normal" in2="shape" result="effect2_innerShadow_309_609"/>
<feColorMatrix in="SourceAlpha" type="matrix" values="0 0 0 0 0 0 0 0 0 0 0 0 0 0 0 0 0 0 127 0" result="hardAlpha"/>
<feOffset dx="-2" dy="-2"/>
<feGaussianBlur stdDeviation="2"/>
<feComposite in2="hardAlpha" operator="arithmetic" k2="-1" k3="1"/>
<feColorMatrix type="matrix" values="0 0 0 0 0 0 0 0 0 0 0 0 0 0 0 0 0 0 0.35 0"/>
<feBlend mode="normal" in2="effect2_innerShadow_309_609" result="effect3_innerShadow_309_609"/>
</filter>
<radialGradient id="paint0_radial_309_609" cx="0" cy="0" r="1" gradientUnits="userSpaceOnUse" gradientTransform="translate(107.421 -52.9658) scale(21.0375 27.5783)">
<stop stop-color="#FFC942"/>
<stop offset="0.28" stop-color="#FEC73E"/>
<stop offset="0.57" stop-color="#FBC131"/>
<stop offset="0.86" stop-color="#F5B71D"/>
<stop offset="1" stop-color="#F2B110"/>
</radialGradient>
</defs>
</svg>
