<svg width="51" height="69" viewBox="0 0 51 69" fill="none" xmlns="http://www.w3.org/2000/svg">
<g filter="url(#filter0_dii_309_610)">
<path d="M23.01 62.85C20.0067 62.85 16.9467 62.4533 13.83 61.66C10.7133 60.8666 7.85167 59.6483 5.245 58.005C3.885 57.155 3.06334 56.135 2.78 54.945C2.55334 53.6983 2.72334 52.565 3.29 51.545C3.85667 50.4683 4.67834 49.76 5.75501 49.42C6.88834 49.0233 8.16334 49.2216 9.58 50.015C11.6767 51.205 13.8017 52.1116 15.955 52.735C18.1083 53.3583 20.4033 53.67 22.84 53.67C26.41 53.67 29.1867 52.7633 31.17 50.95C33.21 49.08 34.23 46.5866 34.23 43.47C34.23 40.2966 33.2667 37.7466 31.34 35.82C29.4133 33.8366 26.7783 32.845 23.435 32.845C21.6217 32.845 19.865 33.1566 18.165 33.78C16.465 34.3466 14.7933 35.3666 13.15 36.84C12.64 37.2933 11.9883 37.7466 11.195 38.2C10.4017 38.5966 9.55167 38.795 8.645 38.795C5.755 38.795 4.31 37.4066 4.31 34.63V6.83495C4.31 3.66162 5.89667 2.07495 9.07 2.07495H37.035C40.2083 2.07495 41.795 3.57662 41.795 6.57995C41.795 9.58329 40.2083 11.085 37.035 11.085H14.935V27.32C17.9383 25.0533 21.6217 23.92 25.985 23.92C29.7817 23.92 33.0683 24.7416 35.845 26.385C38.6783 27.9716 40.86 30.21 42.39 33.1C43.9767 35.9333 44.77 39.2483 44.77 43.045C44.77 46.955 43.8917 50.4116 42.135 53.415C40.3783 56.3616 37.8567 58.685 34.57 60.385C31.34 62.0283 27.4867 62.85 23.01 62.85Z" fill="url(#paint0_radial_309_610)"/>
</g>
<defs>
<filter id="filter0_dii_309_610" x="0.682861" y="0.0749512" width="50.0871" height="68.775" filterUnits="userSpaceOnUse" color-interpolation-filters="sRGB">
<feFlood flood-opacity="0" result="BackgroundImageFix"/>
<feColorMatrix in="SourceAlpha" type="matrix" values="0 0 0 0 0 0 0 0 0 0 0 0 0 0 0 0 0 0 127 0" result="hardAlpha"/>
<feOffset dx="2" dy="2"/>
<feGaussianBlur stdDeviation="2"/>
<feComposite in2="hardAlpha" operator="out"/>
<feColorMatrix type="matrix" values="0 0 0 0 0 0 0 0 0 0 0 0 0 0 0 0 0 0 0.2 0"/>
<feBlend mode="normal" in2="BackgroundImageFix" result="effect1_dropShadow_309_610"/>
<feBlend mode="normal" in="SourceGraphic" in2="effect1_dropShadow_309_610" result="shape"/>
<feColorMatrix in="SourceAlpha" type="matrix" values="0 0 0 0 0 0 0 0 0 0 0 0 0 0 0 0 0 0 127 0" result="hardAlpha"/>
<feOffset dx="2" dy="2"/>
<feGaussianBlur stdDeviation="2"/>
<feComposite in2="hardAlpha" operator="arithmetic" k2="-1" k3="1"/>
<feColorMatrix type="matrix" values="0 0 0 0 1 0 0 0 0 0.863853 0 0 0 0 0.525 0 0 0 1 0"/>
<feBlend mode="normal" in2="shape" result="effect2_innerShadow_309_610"/>
<feColorMatrix in="SourceAlpha" type="matrix" values="0 0 0 0 0 0 0 0 0 0 0 0 0 0 0 0 0 0 127 0" result="hardAlpha"/>
<feOffset dx="-2" dy="-2"/>
<feGaussianBlur stdDeviation="2"/>
<feComposite in2="hardAlpha" operator="arithmetic" k2="-1" k3="1"/>
<feColorMatrix type="matrix" values="0 0 0 0 0 0 0 0 0 0 0 0 0 0 0 0 0 0 0.35 0"/>
<feBlend mode="normal" in2="effect2_innerShadow_309_610" result="effect3_innerShadow_309_610"/>
</filter>
<radialGradient id="paint0_radial_309_610" cx="0" cy="0" r="1" gradientUnits="userSpaceOnUse" gradientTransform="translate(96.7877 -52.8251) scale(18.9392 27.3487)">
<stop stop-color="#FFC942"/>
<stop offset="0.28" stop-color="#FEC73E"/>
<stop offset="0.57" stop-color="#FBC131"/>
<stop offset="0.86" stop-color="#F5B71D"/>
<stop offset="1" stop-color="#F2B110"/>
</radialGradient>
</defs>
</svg>
