<svg width="53" height="70" viewBox="0 0 53 70" fill="none" xmlns="http://www.w3.org/2000/svg">
<g filter="url(#filter0_dii_309_613)">
<path d="M24.5 63.85C17.53 63.85 12.0616 62.3483 8.09498 59.345C4.18498 56.3416 2.22998 52.1766 2.22998 46.85C2.22998 43.2233 3.16498 40.135 5.03498 37.585C6.96165 35.035 9.45498 33.25 12.515 32.23C9.79498 31.04 7.64165 29.2266 6.05498 26.79C4.52498 24.3533 3.75998 21.5483 3.75998 18.375C3.75998 13.3316 5.62998 9.39331 9.36998 6.55998C13.11 3.66998 18.1533 2.22498 24.5 2.22498C30.9033 2.22498 35.975 3.66998 39.715 6.55998C43.455 9.39331 45.325 13.3316 45.325 18.375C45.325 21.5483 44.5317 24.3816 42.945 26.875C41.415 29.3116 39.3183 31.0966 36.655 32.23C39.715 33.25 42.1516 35.0633 43.965 37.67C45.835 40.22 46.77 43.28 46.77 46.85C46.77 52.1766 44.7866 56.3416 40.82 59.345C36.91 62.3483 31.47 63.85 24.5 63.85ZM24.5 28.405C27.8433 28.405 30.45 27.6116 32.32 26.025C34.2467 24.4383 35.21 22.2566 35.21 19.48C35.21 16.76 34.2467 14.635 32.32 13.105C30.45 11.5183 27.8433 10.725 24.5 10.725C21.1567 10.725 18.55 11.5183 16.68 13.105C14.81 14.635 13.875 16.76 13.875 19.48C13.875 22.2566 14.81 24.4383 16.68 26.025C18.55 27.6116 21.1567 28.405 24.5 28.405ZM24.5 55.35C32.6033 55.35 36.655 52.2616 36.655 46.085C36.655 39.965 32.6033 36.905 24.5 36.905C20.5333 36.905 17.5016 37.67 15.405 39.2C13.365 40.73 12.345 43.025 12.345 46.085C12.345 49.145 13.365 51.4683 15.405 53.055C17.5016 54.585 20.5333 55.35 24.5 55.35Z" fill="url(#paint0_radial_309_613)"/>
</g>
<defs>
<filter id="filter0_dii_309_613" x="0.22998" y="0.224976" width="52.54" height="69.625" filterUnits="userSpaceOnUse" color-interpolation-filters="sRGB">
<feFlood flood-opacity="0" result="BackgroundImageFix"/>
<feColorMatrix in="SourceAlpha" type="matrix" values="0 0 0 0 0 0 0 0 0 0 0 0 0 0 0 0 0 0 127 0" result="hardAlpha"/>
<feOffset dx="2" dy="2"/>
<feGaussianBlur stdDeviation="2"/>
<feComposite in2="hardAlpha" operator="out"/>
<feColorMatrix type="matrix" values="0 0 0 0 0 0 0 0 0 0 0 0 0 0 0 0 0 0 0.2 0"/>
<feBlend mode="normal" in2="BackgroundImageFix" result="effect1_dropShadow_309_613"/>
<feBlend mode="normal" in="SourceGraphic" in2="effect1_dropShadow_309_613" result="shape"/>
<feColorMatrix in="SourceAlpha" type="matrix" values="0 0 0 0 0 0 0 0 0 0 0 0 0 0 0 0 0 0 127 0" result="hardAlpha"/>
<feOffset dx="2" dy="2"/>
<feGaussianBlur stdDeviation="2"/>
<feComposite in2="hardAlpha" operator="arithmetic" k2="-1" k3="1"/>
<feColorMatrix type="matrix" values="0 0 0 0 1 0 0 0 0 0.863853 0 0 0 0 0.525 0 0 0 1 0"/>
<feBlend mode="normal" in2="shape" result="effect2_innerShadow_309_613"/>
<feColorMatrix in="SourceAlpha" type="matrix" values="0 0 0 0 0 0 0 0 0 0 0 0 0 0 0 0 0 0 127 0" result="hardAlpha"/>
<feOffset dx="-2" dy="-2"/>
<feGaussianBlur stdDeviation="2"/>
<feComposite in2="hardAlpha" operator="arithmetic" k2="-1" k3="1"/>
<feColorMatrix type="matrix" values="0 0 0 0 0 0 0 0 0 0 0 0 0 0 0 0 0 0 0.35 0"/>
<feBlend mode="normal" in2="effect2_innerShadow_309_613" result="effect3_innerShadow_309_613"/>
</filter>
<radialGradient id="paint0_radial_309_613" cx="0" cy="0" r="1" gradientUnits="userSpaceOnUse" gradientTransform="translate(101.819 -53.4429) scale(20.043 27.7312)">
<stop stop-color="#FFC942"/>
<stop offset="0.28" stop-color="#FEC73E"/>
<stop offset="0.57" stop-color="#FBC131"/>
<stop offset="0.86" stop-color="#F5B71D"/>
<stop offset="1" stop-color="#F2B110"/>
</radialGradient>
</defs>
</svg>
