<svg width="52" height="70" viewBox="0 0 52 70" fill="none" xmlns="http://www.w3.org/2000/svg">
<g filter="url(#filter0_dii_309_614)">
<path d="M19.825 63.85C17.3883 63.85 14.8667 63.4816 12.26 62.745C9.65335 61.9516 7.21668 60.79 4.95002 59.26C3.87335 58.5233 3.22168 57.5883 2.99502 56.455C2.82502 55.265 2.99502 54.16 3.50502 53.14C4.01502 52.0633 4.78002 51.355 5.80002 51.015C6.87668 50.6183 8.09502 50.8166 9.45502 51.61C11.3817 52.7433 13.195 53.5366 14.895 53.99C16.595 54.4433 18.295 54.67 19.995 54.67C24.925 54.67 28.6934 52.9416 31.3 49.485C33.9067 46.0283 35.21 40.8716 35.21 34.015V31.55C34.02 34.6666 32.0933 37.1033 29.43 38.86C26.7667 40.6166 23.7067 41.495 20.25 41.495C16.85 41.495 13.79 40.6733 11.07 39.03C8.40668 37.3866 6.31002 35.12 4.78002 32.23C3.25002 29.2833 2.48502 25.9683 2.48502 22.285C2.48502 18.375 3.30668 14.9183 4.95002 11.915C6.65002 8.91164 9.00168 6.55998 12.005 4.85998C15.0084 3.10331 18.4367 2.22498 22.29 2.22498C29.7134 2.22498 35.4367 4.83164 39.46 10.045C43.54 15.2016 45.58 22.5116 45.58 31.975C45.58 42.1183 43.3134 49.9666 38.78 55.52C34.2467 61.0733 27.9283 63.85 19.825 63.85ZM22.97 32.825C26.03 32.825 28.495 31.805 30.365 29.765C32.2917 27.725 33.255 25.0616 33.255 21.775C33.255 18.4883 32.2917 15.8533 30.365 13.87C28.495 11.83 26.03 10.81 22.97 10.81C19.91 10.81 17.4167 11.83 15.49 13.87C13.62 15.8533 12.685 18.4883 12.685 21.775C12.685 25.0616 13.62 27.725 15.49 29.765C17.4167 31.805 19.91 32.825 22.97 32.825Z" fill="url(#paint0_radial_309_614)"/>
</g>
<defs>
<filter id="filter0_dii_309_614" x="0.485016" y="0.224976" width="51.095" height="69.625" filterUnits="userSpaceOnUse" color-interpolation-filters="sRGB">
<feFlood flood-opacity="0" result="BackgroundImageFix"/>
<feColorMatrix in="SourceAlpha" type="matrix" values="0 0 0 0 0 0 0 0 0 0 0 0 0 0 0 0 0 0 127 0" result="hardAlpha"/>
<feOffset dx="2" dy="2"/>
<feGaussianBlur stdDeviation="2"/>
<feComposite in2="hardAlpha" operator="out"/>
<feColorMatrix type="matrix" values="0 0 0 0 0 0 0 0 0 0 0 0 0 0 0 0 0 0 0.2 0"/>
<feBlend mode="normal" in2="BackgroundImageFix" result="effect1_dropShadow_309_614"/>
<feBlend mode="normal" in="SourceGraphic" in2="effect1_dropShadow_309_614" result="shape"/>
<feColorMatrix in="SourceAlpha" type="matrix" values="0 0 0 0 0 0 0 0 0 0 0 0 0 0 0 0 0 0 127 0" result="hardAlpha"/>
<feOffset dx="2" dy="2"/>
<feGaussianBlur stdDeviation="2"/>
<feComposite in2="hardAlpha" operator="arithmetic" k2="-1" k3="1"/>
<feColorMatrix type="matrix" values="0 0 0 0 1 0 0 0 0 0.863853 0 0 0 0 0.525 0 0 0 1 0"/>
<feBlend mode="normal" in2="shape" result="effect2_innerShadow_309_614"/>
<feColorMatrix in="SourceAlpha" type="matrix" values="0 0 0 0 0 0 0 0 0 0 0 0 0 0 0 0 0 0 127 0" result="hardAlpha"/>
<feOffset dx="-2" dy="-2"/>
<feGaussianBlur stdDeviation="2"/>
<feComposite in2="hardAlpha" operator="arithmetic" k2="-1" k3="1"/>
<feColorMatrix type="matrix" values="0 0 0 0 0 0 0 0 0 0 0 0 0 0 0 0 0 0 0.35 0"/>
<feBlend mode="normal" in2="effect2_innerShadow_309_614" result="effect3_innerShadow_309_614"/>
</filter>
<radialGradient id="paint0_radial_309_614" cx="0" cy="0" r="1" gradientUnits="userSpaceOnUse" gradientTransform="translate(98.8434 -53.4429) scale(19.3927 27.7312)">
<stop stop-color="#FFC942"/>
<stop offset="0.28" stop-color="#FEC73E"/>
<stop offset="0.57" stop-color="#FBC131"/>
<stop offset="0.86" stop-color="#F5B71D"/>
<stop offset="1" stop-color="#F2B110"/>
</radialGradient>
</defs>
</svg>
