<?xml version="1.0" encoding="UTF-8"?><svg id="Layer_2" xmlns="http://www.w3.org/2000/svg" viewBox="0 0 1099.06 180"><defs><style>.cls-1{fill:#f9f7f4;}.cls-2{fill:#363535;}.cls-3{fill:#fbab30;}</style></defs><g id="Layer_1-2"><rect class="cls-3" width="324.06" height="180" rx="12" ry="12"/><rect class="cls-2" x="54.68" y="36.06" width="36" height="36"/><path class="cls-2" d="M91.18,72.56h-37v-37h37v37ZM55.18,71.56h35v-35h-35v35Z"/><rect class="cls-1" x="90.68" y="36.06" width="36" height="36"/><path class="cls-2" d="M127.18,72.56h-37v-37h37v37ZM91.18,71.56h35v-35h-35v35Z"/><rect class="cls-1" x="126.68" y="36.06" width="36" height="36"/><path class="cls-2" d="M163.18,72.56h-37v-37h37v37ZM127.18,71.56h35v-35h-35v35Z"/><rect class="cls-1" x="54.68" y="72.06" width="36" height="36"/><path class="cls-2" d="M91.18,108.56h-37v-37h37v37ZM55.18,107.56h35v-35h-35v35Z"/><rect class="cls-1" x="90.68" y="72.06" width="36" height="36"/><path class="cls-2" d="M127.18,108.56h-37v-37h37v37ZM91.18,107.56h35v-35h-35v35Z"/><rect class="cls-1" x="126.68" y="72.06" width="36" height="36"/><path class="cls-2" d="M163.18,108.56h-37v-37h37v37ZM127.18,107.56h35v-35h-35v35Z"/><rect class="cls-1" x="54.68" y="108.06" width="36" height="36"/><path class="cls-2" d="M91.18,144.56h-37v-37h37v37ZM55.18,143.56h35v-35h-35v35Z"/><rect class="cls-1" x="90.68" y="108.06" width="36" height="36"/><path class="cls-2" d="M127.18,144.56h-37v-37h37v37ZM91.18,143.56h35v-35h-35v35Z"/><rect class="cls-1" x="126.68" y="108.06" width="36" height="36"/><path class="cls-2" d="M163.18,144.56h-37v-37h37v37ZM127.18,143.56h35v-35h-35v35Z"/><rect class="cls-2" x="162.61" y="36.06" width="36" height="36"/><path class="cls-1" d="M199.11,72.56h-37v-37h37v37ZM163.11,71.56h35v-35h-35v35Z"/><rect class="cls-2" x="198.61" y="36.06" width="36" height="36"/><path class="cls-1" d="M235.11,72.56h-37v-37h37v37ZM199.11,71.56h35v-35h-35v35Z"/><rect class="cls-2" x="234.61" y="36.06" width="36" height="36"/><path class="cls-1" d="M271.11,72.56h-37v-37h37v37ZM235.11,71.56h35v-35h-35v35Z"/><rect class="cls-2" x="162.61" y="72.06" width="36" height="36"/><path class="cls-1" d="M199.11,108.56h-37v-37h37v37ZM163.11,107.56h35v-35h-35v35Z"/><rect class="cls-2" x="198.61" y="72.06" width="36" height="36"/><path class="cls-1" d="M235.11,108.56h-37v-37h37v37ZM199.11,107.56h35v-35h-35v35Z"/><rect class="cls-2" x="234.61" y="72.06" width="36" height="36"/><path class="cls-1" d="M271.11,108.56h-37v-37h37v37ZM235.11,107.56h35v-35h-35v35Z"/><rect class="cls-2" x="162.61" y="108.06" width="36" height="36"/><path class="cls-1" d="M199.11,144.56h-37v-37h37v37ZM163.11,143.56h35v-35h-35v35Z"/><rect class="cls-1" x="198.61" y="108.06" width="36" height="36"/><path class="cls-1" d="M235.11,144.56h-37v-37h37v37ZM199.11,143.56h35v-35h-35v35Z"/><rect class="cls-2" x="234.61" y="108.06" width="36" height="36"/><path class="cls-1" d="M271.11,144.56h-37v-37h37v37ZM235.11,143.56h35v-35h-35v35Z"/><rect class="cls-2" x="162.1" y="143.56" width="1" height="1"/><rect class="cls-2" x="162.1" y="107.56" width="1" height="1"/><rect class="cls-2" x="162.1" y="71.56" width="1" height="1"/><rect class="cls-2" x="162.1" y="35.56" width="1" height="1"/><path class="cls-2" d="M358.84,135.46l25.6-89.6h24.32l25.47,89.6h-14.21l-5.89-21.12h-35.07l-5.89,21.12h-14.34ZM382.52,101.54h28.16l-13.06-47.1h-2.05l-13.06,47.1Z"/><path class="cls-2" d="M468.79,137.25c-8.02,0-14.68-1.79-19.97-5.38-5.29-3.58-8.53-9-9.73-16.26l12.29-2.94c.68,3.5,1.83,6.27,3.46,8.32,1.62,2.05,3.65,3.5,6.08,4.35,2.43.85,5.06,1.28,7.87,1.28,4.18,0,7.4-.81,9.66-2.43,2.26-1.62,3.39-3.71,3.39-6.27s-1.07-4.44-3.2-5.63c-2.13-1.19-5.29-2.18-9.47-2.94l-4.35-.77c-4.27-.77-8.15-1.88-11.65-3.33-3.5-1.45-6.27-3.46-8.32-6.02-2.05-2.56-3.07-5.84-3.07-9.86,0-5.97,2.22-10.6,6.66-13.89,4.44-3.28,10.32-4.93,17.66-4.93s12.91,1.6,17.47,4.8c4.56,3.2,7.53,7.53,8.9,12.99l-12.29,3.46c-.77-3.84-2.39-6.55-4.86-8.13-2.48-1.58-5.55-2.37-9.22-2.37s-6.4.66-8.45,1.98c-2.05,1.32-3.07,3.18-3.07,5.57,0,2.56,1,4.44,3.01,5.63,2,1.2,4.71,2.09,8.13,2.69l4.48.77c4.52.77,8.66,1.84,12.42,3.2,3.75,1.37,6.72,3.33,8.9,5.89s3.26,5.97,3.26,10.24c0,6.32-2.35,11.22-7.04,14.72-4.69,3.5-11.01,5.25-18.94,5.25Z"/><path class="cls-2" d="M532.15,137.25c-8.02,0-14.68-1.79-19.97-5.38-5.29-3.58-8.53-9-9.73-16.26l12.29-2.94c.68,3.5,1.83,6.27,3.46,8.32,1.62,2.05,3.65,3.5,6.08,4.35,2.43.85,5.06,1.28,7.87,1.28,4.18,0,7.4-.81,9.66-2.43,2.26-1.62,3.39-3.71,3.39-6.27s-1.07-4.44-3.2-5.63c-2.13-1.19-5.29-2.18-9.47-2.94l-4.35-.77c-4.27-.77-8.15-1.88-11.65-3.33-3.5-1.45-6.27-3.46-8.32-6.02-2.05-2.56-3.07-5.84-3.07-9.86,0-5.97,2.22-10.6,6.66-13.89,4.44-3.28,10.32-4.93,17.66-4.93s12.91,1.6,17.47,4.8c4.56,3.2,7.53,7.53,8.9,12.99l-12.29,3.46c-.77-3.84-2.39-6.55-4.86-8.13-2.48-1.58-5.55-2.37-9.22-2.37s-6.4.66-8.45,1.98c-2.05,1.32-3.07,3.18-3.07,5.57,0,2.56,1,4.44,3.01,5.63,2,1.2,4.71,2.09,8.13,2.69l4.48.77c4.52.77,8.66,1.84,12.42,3.2,3.75,1.37,6.72,3.33,8.9,5.89s3.26,5.97,3.26,10.24c0,6.32-2.35,11.22-7.04,14.72-4.69,3.5-11.01,5.25-18.94,5.25Z"/><path class="cls-2" d="M598.59,137.25c-6.4,0-11.99-1.34-16.77-4.03-4.78-2.69-8.51-6.48-11.2-11.39-2.69-4.91-4.03-10.6-4.03-17.09v-1.54c0-6.57,1.32-12.31,3.97-17.22,2.64-4.91,6.34-8.7,11.07-11.39,4.74-2.69,10.22-4.03,16.45-4.03s11.37,1.34,15.94,4.03c4.56,2.69,8.13,6.42,10.69,11.2,2.56,4.78,3.84,10.37,3.84,16.77v4.99h-48.51c.17,5.55,2.03,9.96,5.57,13.25,3.54,3.29,7.96,4.93,13.25,4.93,4.95,0,8.68-1.11,11.2-3.33,2.52-2.22,4.46-4.78,5.82-7.68l10.88,5.63c-1.2,2.39-2.92,4.91-5.18,7.55-2.26,2.65-5.23,4.86-8.9,6.66-3.67,1.79-8.36,2.69-14.08,2.69ZM580.15,97.44h34.94c-.34-4.78-2.05-8.51-5.12-11.2-3.07-2.69-7.08-4.03-12.03-4.03s-8.98,1.34-12.1,4.03c-3.12,2.69-5.01,6.42-5.7,11.2Z"/><path class="cls-2" d="M664.25,135.46c-3.84,0-6.89-1.15-9.15-3.46-2.26-2.3-3.39-5.38-3.39-9.22v-39.3h-17.41v-11.14h17.41v-20.86h13.18v20.86h18.82v11.14h-18.82v36.99c0,2.56,1.19,3.84,3.58,3.84h13.18v11.14h-17.41Z"/><path class="cls-2" d="M699.32,135.46V45.86h25.98l19.58,80.38h2.05l19.58-80.38h25.98v89.6h-13.44V55.59h-2.05l-19.46,79.87h-23.3l-19.46-79.87h-2.05v79.87h-13.44Z"/><path class="cls-2" d="M828.09,137.25c-4.52,0-8.56-.77-12.1-2.3-3.54-1.54-6.36-3.8-8.45-6.78-2.09-2.99-3.14-6.61-3.14-10.88s1.04-7.96,3.14-10.82c2.09-2.86,4.95-5.01,8.58-6.46,3.63-1.45,7.74-2.18,12.35-2.18h19.2v-4.1c0-3.67-1.11-6.61-3.33-8.83-2.22-2.22-5.63-3.33-10.24-3.33s-7.98,1.07-10.37,3.2c-2.39,2.13-3.97,4.91-4.74,8.32l-12.29-3.97c1.02-3.41,2.67-6.51,4.93-9.28,2.26-2.77,5.27-5.01,9.02-6.72,3.75-1.71,8.28-2.56,13.57-2.56,8.19,0,14.63,2.09,19.33,6.27,4.69,4.18,7.04,10.11,7.04,17.79v25.98c0,2.56,1.19,3.84,3.58,3.84h5.38v11.01h-9.86c-2.99,0-5.42-.77-7.3-2.3-1.88-1.54-2.82-3.63-2.82-6.27v-.38h-1.92c-.68,1.28-1.71,2.77-3.07,4.48-1.37,1.71-3.37,3.18-6.02,4.42-2.65,1.24-6.14,1.86-10.5,1.86ZM830.01,126.37c5.29,0,9.56-1.51,12.8-4.54,3.24-3.03,4.86-7.19,4.86-12.48v-1.28h-18.43c-3.5,0-6.32.75-8.45,2.24-2.13,1.49-3.2,3.69-3.2,6.59s1.11,5.21,3.33,6.91c2.22,1.71,5.25,2.56,9.09,2.56Z"/><path class="cls-2" d="M879.29,135.46v-63.1h12.93v9.47h2.05c1.19-2.56,3.33-4.95,6.4-7.17,3.07-2.22,7.64-3.33,13.7-3.33,4.78,0,9.02,1.07,12.74,3.2,3.71,2.13,6.63,5.14,8.77,9.02,2.13,3.88,3.2,8.56,3.2,14.02v37.89h-13.18v-36.86c0-5.46-1.37-9.49-4.1-12.1-2.73-2.6-6.49-3.9-11.26-3.9-5.46,0-9.84,1.79-13.12,5.38-3.29,3.58-4.93,8.79-4.93,15.62v31.87h-13.18Z"/><path class="cls-2" d="M978.61,135.46c-3.84,0-6.89-1.15-9.15-3.46-2.26-2.3-3.39-5.38-3.39-9.22v-39.3h-17.41v-11.14h17.41v-20.86h13.18v20.86h18.82v11.14h-18.82v36.99c0,2.56,1.19,3.84,3.58,3.84h13.18v11.14h-17.41Z"/><path class="cls-2" d="M1010.48,135.46V45.86h13.18v89.6h-13.18Z"/><path class="cls-2" d="M1069.11,137.25c-6.4,0-11.99-1.34-16.77-4.03-4.78-2.69-8.51-6.48-11.2-11.39-2.69-4.91-4.03-10.6-4.03-17.09v-1.54c0-6.57,1.32-12.31,3.97-17.22,2.64-4.91,6.34-8.7,11.07-11.39,4.74-2.69,10.22-4.03,16.45-4.03s11.37,1.34,15.94,4.03c4.56,2.69,8.13,6.42,10.69,11.2,2.56,4.78,3.84,10.37,3.84,16.77v4.99h-48.51c.17,5.55,2.03,9.96,5.57,13.25,3.54,3.29,7.96,4.93,13.25,4.93,4.95,0,8.68-1.11,11.2-3.33,2.52-2.22,4.46-4.78,5.82-7.68l10.88,5.63c-1.2,2.39-2.92,4.91-5.18,7.55-2.26,2.65-5.23,4.86-8.9,6.66-3.67,1.79-8.36,2.69-14.08,2.69ZM1050.68,97.44h34.94c-.34-4.78-2.05-8.51-5.12-11.2-3.07-2.69-7.08-4.03-12.03-4.03s-8.98,1.34-12.1,4.03c-3.12,2.69-5.01,6.42-5.7,11.2Z"/></g></svg>